<?xml version="1.0" encoding="iso-8859-1"?>
<!-- Generator: Adobe Illustrator 15.1.0, SVG Export Plug-In . SVG Version: 6.00 Build 0)  -->
<!DOCTYPE svg PUBLIC "-//W3C//DTD SVG 1.0//EN" "http://www.w3.org/TR/2001/REC-SVG-20010904/DTD/svg10.dtd">
<svg version="1.0" xmlns="http://www.w3.org/2000/svg" xmlns:xlink="http://www.w3.org/1999/xlink" x="0px" y="0px" width="90px"
	 height="90px" viewBox="0 0 90 90" style="enable-background:new 0 0 90 90;" xml:space="preserve">
<g id="Layer_1">
	<path style="fill:#FFFFFF;stroke:#000000;stroke-miterlimit:10;" d="M51.658,103.312"/>
	<path style="fill:#8C6239;stroke:#000000;stroke-miterlimit:10;" d="M87.5,76.5c0,6.627-5.206,12-12.137,12H15.75
		c-6.931,0-12.25-5.373-12.25-12v-62c0-6.627,5.319-12,12.25-12h59.613c6.931,0,12.137,5.373,12.137,12V76.5z"/>
</g>
<g id="Layer_2">
	<g>
		<path d="M10.771,34.297c1.001-0.237,2.607-0.396,4.188-0.396c2.292,0,3.766,0.396,4.846,1.291
			c0.922,0.685,1.501,1.738,1.501,3.134c0,1.738-1.159,3.239-3.002,3.898v0.079c1.686,0.396,3.661,1.791,3.661,4.425
			c0,1.527-0.606,2.713-1.528,3.555c-1.211,1.133-3.213,1.66-6.11,1.66c-1.58,0-2.792-0.105-3.556-0.211V34.297z M13.062,41.566
			h2.081c2.396,0,3.819-1.291,3.819-3.002c0-2.054-1.554-2.897-3.872-2.897c-1.053,0-1.659,0.079-2.028,0.158V41.566z
			 M13.062,50.047c0.474,0.078,1.106,0.105,1.922,0.105c2.371,0,4.556-0.869,4.556-3.451c0-2.396-2.081-3.423-4.583-3.423h-1.896
			V50.047z"/>
		<path d="M34.212,43.462h-6.874v6.4h7.69v1.923H25.021V34.034h9.613v1.923h-7.295v5.609h6.874V43.462z"/>
		<path d="M40.876,46.201l-1.843,5.584h-2.371l6.058-17.751h2.739l6.058,17.751h-2.45l-1.896-5.584H40.876z M46.723,44.411
			l-1.764-5.109c-0.395-1.159-0.659-2.212-0.922-3.24h-0.053c-0.263,1.027-0.527,2.133-0.896,3.213l-1.738,5.136H46.723z"/>
		<path d="M54.126,51.785V34.034h2.528l5.662,8.981c1.29,2.081,2.344,3.95,3.16,5.768l0.079-0.026
			c-0.211-2.37-0.264-4.53-0.264-7.295v-7.427h2.16v17.751h-2.317l-5.637-9.008c-1.237-1.975-2.423-4.003-3.292-5.926l-0.079,0.026
			c0.132,2.239,0.158,4.372,0.158,7.322v7.585H54.126z"/>
		<path d="M71.167,48.993c1.027,0.658,2.502,1.159,4.082,1.159c2.344,0,3.714-1.238,3.714-3.029c0-1.633-0.948-2.607-3.345-3.503
			c-2.897-1.053-4.688-2.581-4.688-5.057c0-2.765,2.292-4.819,5.741-4.819c1.791,0,3.135,0.421,3.898,0.869l-0.632,1.87
			c-0.554-0.342-1.738-0.843-3.345-0.843c-2.424,0-3.345,1.449-3.345,2.66c0,1.659,1.079,2.476,3.528,3.424
			c3.003,1.159,4.504,2.607,4.504,5.215c0,2.738-2.002,5.135-6.189,5.135c-1.712,0-3.581-0.526-4.529-1.158L71.167,48.993z"/>
	</g>
</g>
</svg>
