<?xml version="1.0" encoding="iso-8859-1"?>
<!-- Generator: Adobe Illustrator 15.1.0, SVG Export Plug-In . SVG Version: 6.00 Build 0)  -->
<!DOCTYPE svg PUBLIC "-//W3C//DTD SVG 1.0//EN" "http://www.w3.org/TR/2001/REC-SVG-20010904/DTD/svg10.dtd">
<svg version="1.0" xmlns="http://www.w3.org/2000/svg" xmlns:xlink="http://www.w3.org/1999/xlink" x="0px" y="0px" width="2048px"
	 height="1536px" viewBox="0 0 2048 1536" style="enable-background:new 0 0 2048 1536;" xml:space="preserve">
<g id="Layer_2">
	<g>
		<linearGradient id="SVGID_1_" gradientUnits="userSpaceOnUse" x1="-79.1431" y1="1469.4277" x2="2198.4722" y2="1469.4277">
			<stop  offset="0.0901" style="stop-color:#7FD0E8"/>
			<stop  offset="0.6094" style="stop-color:#00B0D8"/>
			<stop  offset="0.7753" style="stop-color:#008AA9"/>
			<stop  offset="0.9888" style="stop-color:#00708C"/>
		</linearGradient>
		<path style="fill:url(#SVGID_1_);" d="M-79.143,1408.713c133.929-14.285,258.929-60.714,392.857-66.071
			c25-1.786,53.571-5.357,78.571,3.571c35.714,12.5,64.286,44.643,100,62.5c92.857,44.643,201.786,5.357,296.429-12.5
			c158.928-32.143,314.286-96.429,473.214-119.643c133.929-19.643,257.143,3.571,385.714,41.071
			c100,28.571,208.929,37.5,314.286,30.357c46.429-3.571,91.071-8.929,137.5-14.286c30.356-5.357,66.071-14.285,96.429-3.571
			l-26.786,339.286l-2205.357-7.144L-79.143,1408.713z"/>
		<g>
			<path d="M-78.049,1409.806c69.309-7.574,137.176-23.551,205.219-38.247c34.4-7.43,68.914-14.345,103.719-19.606
				c35.56-5.377,71.336-7.636,107.191-9.922c20.367-1.299,40.327-0.351,59.428,7.417c15.559,6.327,29.455,16.565,42.912,26.431
				c24.29,17.806,47.537,34.267,76.409,43.774c57.804,19.033,120.889,9.791,179.099-2.116
				c66.438-13.59,133.047-27.642,198.524-45.317c69.288-18.703,137.713-40.44,206.953-59.316
				c69.854-19.043,141.125-35.641,213.513-40.802c72.491-5.168,145.176,2.586,216.195,17.097
				c69.427,14.186,136.407,37.799,206.345,49.627c67.432,11.403,136.185,14.555,204.449,11.48
				c36.671-1.652,73.242-5.788,109.706-9.876c16.37-1.835,33.226-2.787,49.436-5.698c17.824-3.2,35.537-6.87,53.632-8.208
				c3.892-0.288,38.962,0.035,38.673,3.694c-0.148,1.891-0.298,3.781-0.447,5.672c-0.691,8.758-1.383,17.515-2.074,26.272
				c-5.382,68.167-10.764,136.335-16.146,204.502c-2.202,27.902-4.405,55.806-6.608,83.708c-0.465,5.891-0.93,11.781-1.396,17.672
				c-0.132,1.677,3.286,0.295,0.782,0.286c-44.576-0.145-89.151-0.289-133.728-0.433c-102.827-0.334-205.653-0.666-308.479-1
				c-138.167-0.447-276.334-0.895-414.5-1.342c-150.596-0.488-301.191-0.977-451.787-1.464
				c-140.114-0.454-280.228-0.907-420.342-1.361c-106.722-0.346-213.443-0.691-320.165-1.037
				c-50.418-0.163-100.836-0.327-151.255-0.49c-1.202-0.004-2.405-0.008-3.607-0.012c-1.69-0.005,2.54,1.262,2.516,1.123
				c-0.308-1.823-0.616-3.646-0.924-5.47c-4.354-25.763-8.708-51.526-13.063-77.289c-9.581-56.688-19.162-113.375-28.743-170.062
				c-0.037-0.216-0.073-0.431-0.109-0.646c-0.229-1.356-5.125-1.921-4.846-0.268c14.286,84.523,28.572,169.048,42.857,253.571
				c0.15,0.889,2.265,1.227,2.911,1.229c37.851,0.123,75.701,0.245,113.551,0.368c98.278,0.318,196.556,0.637,294.833,0.955
				c135.794,0.439,271.588,0.88,407.382,1.319c150.4,0.487,300.8,0.975,451.199,1.462c142.095,0.46,284.189,0.92,426.284,1.38
				c110.878,0.359,221.757,0.719,332.636,1.078c56.752,0.184,113.504,0.367,170.256,0.552c3.071,0.01,6.144,0.02,9.215,0.029
				c0.444,0.002,1.919,0.064,1.978-0.675c8.622-109.217,17.245-218.434,25.867-327.65c0.306-3.879,0.612-7.758,0.919-11.636
				c0.06-0.759-1.11-1.118-1.643-1.292c-27.509-8.946-56.128-4.451-83.932,0.675c-36.807,6.785-74.604,9.776-111.84,13.444
				c-73.701,7.259-147.553,7.891-221.187-0.646c-36.068-4.182-71.856-10.741-107.092-19.491
				c-34.592-8.59-68.607-19.287-103.279-27.636c-65.822-15.852-133-26.227-200.779-27.233
				c-140.909-2.093-277.368,44.099-411.055,83.064c-67.425,19.653-135.14,35.646-203.707,50.623
				c-66.226,14.467-134.146,33.033-202.441,23.41c-28.822-4.062-55.614-14.504-79.779-30.606
				c-20.675-13.776-39.398-30.809-61.637-42.161c-19.815-10.115-39.938-13.569-62.063-13.357
				c-28.587,0.273-57.754,3.021-86.161,6.102c-115.406,12.51-226.543,49.551-341.965,62.163
				C-83.465,1407.974-79.616,1409.977-78.049,1409.806z"/>
		</g>
	</g>
</g>
<g id="Layer_1">
	<g>
		<path style="fill:#754C24;" d="M-55,1172.771L388.146,963.75l352.92,124.059l364.693-86.901l318.863,124.096
			c0,0,283.17-107.569,289.376-107.569c6.204,0,399.001,103.419,399.001,103.419v172.097l-386.556-85.222l-292.44,85.222
			l-322.041-85.222l-365.8,74.465l-356.171-93.08L-55,1325.631V1172.771z"/>
		<g>
			<path d="M-53.212,1173.78c93.57-44.139,187.14-88.276,280.71-132.415c48.718-22.981,97.437-45.963,146.155-68.943
				c4.68-2.208,9.36-4.416,14.04-6.623c4.511-2.128-3.11-1.801,1.371-0.225c16.261,5.716,32.522,11.433,48.784,17.148
				c63.499,22.322,126.997,44.645,190.496,66.967c26.925,9.465,53.85,18.931,80.775,28.396c7.813,2.747,15.626,5.493,23.439,8.24
				c2.57,0.903,6.266,3.019,9.123,2.766c11.427-1.011,23.464-5.546,34.579-8.194c28.127-6.702,56.253-13.404,84.38-20.107
				c65.176-15.53,130.351-31.062,195.526-46.592c16.3-3.885,32.6-7.769,48.899-11.652c2.654-0.633,1.651,0.295-0.55-0.562
				c1.201,0.467,2.401,0.935,3.603,1.401c6.838,2.661,13.675,5.322,20.513,7.983c59.387,23.112,118.773,46.226,178.16,69.338
				c27.956,10.88,55.913,21.761,83.87,32.641c8.305,3.232,16.609,6.464,24.914,9.696c2.674,1.041,6.617,3.511,9.648,3.242
				c3.469-0.307,7.395-2.653,10.582-3.862c9.42-3.57,18.842-7.138,28.264-10.702c30.144-11.404,60.297-22.781,90.464-34.123
				c52.321-19.672,104.468-41.12,157.741-58.126c1.542-0.492,3.389-0.498,1.74-0.765c1.571,0.254,3.126,0.659,4.674,1.021
				c6.943,1.621,13.855,3.377,20.77,5.116c25.554,6.43,51.062,13.038,76.572,19.642c67.363,17.438,134.68,35.057,201.988,52.701
				c24.42,6.401,48.837,12.81,73.252,19.226c6.094,1.602,12.187,3.203,18.279,4.806c1.029,0.271,2.058,0.541,3.086,0.812
				c-2.516-0.662-1.633-1.066-1.633,2.764c0,56.008,0,112.016,0,168.023c1.075-0.359,2.15-0.72,3.227-1.079
				c-105.802-23.311-211.604-46.62-317.405-69.931c-20.339-4.481-40.679-8.963-61.018-13.443
				c-8.332-1.836-11.675-1.423-19.984,0.997c-57.559,16.767-115.117,33.532-172.676,50.299c-28.39,8.27-56.779,16.54-85.17,24.81
				c-7.284,2.122-14.569,4.244-21.854,6.366c-5.095,1.483,0.621,1.401-4.21,0.123c-50.959-13.482-101.918-26.966-152.878-40.448
				c-53.572-14.174-107.145-28.348-160.717-42.522c-7.47-1.977-12.55-0.415-20.226,1.147c-22.871,4.656-45.741,9.311-68.612,13.967
				c-67.113,13.66-134.227,27.321-201.34,40.982c-23.187,4.72-46.373,9.439-69.56,14.158c-4.395,0.895-8.789,1.789-13.184,2.684
				c-1.146,0.233,2.939,0.424,0.498-0.214c-1.939-0.507-3.879-1.015-5.819-1.521c-110.666-28.922-221.331-57.845-331.997-86.767
				c-6.331-1.654-14.774-5.864-21.354-3.846c-14.106,4.327-28.211,8.655-42.317,12.982
				c-60.732,18.633-121.464,37.266-182.196,55.898c-72.78,22.33-145.56,44.658-218.34,66.988c1.232,0.438,2.464,0.878,3.697,1.316
				c0-50.953,0-101.906,0-152.859c0-1.84-4.993-2.033-4.993-0.266c0,50.953,0,101.906,0,152.859c0,1.465,2.761,1.604,3.697,1.316
				c100.582-30.858,201.164-61.717,301.746-92.576c45.759-14.039,91.519-28.078,137.278-42.117c1.562-0.479,3.125-0.959,4.687-1.438
				c2.281-0.7-0.025-0.191-0.41-0.291c4.17,1.09,8.341,2.18,12.511,3.27c22.866,5.976,45.731,11.951,68.597,17.928
				c66.244,17.312,132.488,34.626,198.732,51.938c21.899,5.724,43.799,11.446,65.698,17.17c7.648,1.999,11.496,2.839,19.108,1.289
				c112.564-22.913,225.128-45.825,337.693-68.737c6.214-1.265,12.428-2.529,18.642-3.795c4.673-0.951-1.281-1.051,3.688,0.264
				c18.62,4.927,37.24,9.853,55.86,14.779c65.331,17.285,130.663,34.57,195.994,51.856c20.58,5.444,41.16,10.89,61.74,16.335
				c8.434,2.23,14.07-0.472,22.554-2.943c59.764-17.408,119.527-34.817,179.29-52.226c26.689-7.774,53.379-15.549,80.068-23.323
				c5.734-1.67,11.469-3.34,17.202-5.011c2.391-0.696-2.122-0.497-0.438-0.126c1.591,0.35,3.183,0.701,4.773,1.051
				c50.062,11.03,100.123,22.06,150.185,33.09c77.1,16.986,154.199,33.973,231.299,50.96c0.755,0.166,3.227,0.198,3.227-1.079
				c0-57.365,0-114.73,0-172.097c0-0.869-1.113-1.173-1.766-1.345c-104.914-27.604-209.846-55.15-314.886-82.271
				c-22.798-5.886-45.595-11.785-68.447-17.454c-8.293-2.058-15.004-4.813-23.216-2.098
				c-54.132,17.903-107.291,39.228-160.644,59.29c-29.753,11.188-59.492,22.415-89.223,33.664
				c-8.988,3.4-17.976,6.805-26.962,10.211c-2.142,0.812-4.283,1.624-6.425,2.436c-3.324,1.262,1.65,0.587,1.099,0.372
				c-43.961-17.109-87.922-34.218-131.883-51.327c-56.896-22.143-113.791-44.286-170.688-66.429
				c-6.895-2.684-14.01-7.354-21.447-5.582c-17.451,4.158-34.902,8.316-52.354,12.476c-65.611,15.635-131.222,31.269-196.833,46.903
				c-27.411,6.532-54.821,13.063-82.232,19.596c-7.818,1.862-15.636,3.726-23.454,5.589c-1.824,0.435-3.648,0.869-5.472,1.304
				c-2.96,0.706,1.718,0.608,0.85,0.303c-104.296-36.664-208.592-73.328-312.888-109.992c-13.125-4.613-26.25-9.228-39.375-13.842
				c-5.492-1.931-16.637,6.251-21.163,8.386c-49.442,23.322-98.884,46.646-148.326,69.968
				c-92.302,43.54-184.605,87.081-276.907,130.621C-59.216,1172.976-54.687,1174.476-53.212,1173.78z"/>
		</g>
	</g>
	<g>
		<g>
			<path d="M78.417,1282.984c1.004,0,4.68-1.586,4.032-1.586C81.444,1281.398,77.769,1282.984,78.417,1282.984L78.417,1282.984z"/>
		</g>
	</g>
	<line style="fill:none;stroke:#000000;stroke-width:11;stroke-miterlimit:10;" x1="74.5" y1="1283" x2="74.5" y2="1522"/>
	<line style="fill:none;stroke:#000000;stroke-width:11;stroke-miterlimit:10;" x1="388.5" y1="1186" x2="388.5" y2="1426"/>
	<line style="fill:none;stroke:#000000;stroke-width:11;stroke-miterlimit:10;" x1="746.5" y1="1283" x2="746.5" y2="1522"/>
	<line style="fill:none;stroke:#000000;stroke-width:11;stroke-miterlimit:10;" x1="1107.5" y1="1207" x2="1107.5" y2="1446"/>
	<line style="fill:none;stroke:#000000;stroke-width:11;stroke-miterlimit:10;" x1="1720.5" y1="1207" x2="1720.5" y2="1446"/>
	<line style="fill:none;stroke:#000000;stroke-width:11;stroke-miterlimit:10;" x1="1427.5" y1="1283" x2="1427.5" y2="1522"/>
</g>
</svg>
