<?xml version="1.0" encoding="utf-8"?>
<!-- Generator: Adobe Illustrator 15.1.0, SVG Export Plug-In . SVG Version: 6.00 Build 0)  -->
<!DOCTYPE svg PUBLIC "-//W3C//DTD SVG 1.1//EN" "http://www.w3.org/Graphics/SVG/1.1/DTD/svg11.dtd">
<svg version="1.1" id="Layer_1" xmlns="http://www.w3.org/2000/svg" xmlns:xlink="http://www.w3.org/1999/xlink" x="0px" y="0px"
	 width="76px" height="138px" viewBox="0 0 76 138" enable-background="new 0 0 76 138" xml:space="preserve">
<path fill-rule="evenodd" clip-rule="evenodd" fill="#0066CC" d="M-73.5,96c-0.167,0.467-0.5,0.8-1,1c-0.333-0.134-0.667-0.467-1-1
	c0.1-0.233,0.317-0.434,0.65-0.6c0.367-0.2,0.7-0.25,1-0.15L-73.5,96z M42,42.4c0,0.067-0.517,2.55-1.55,7.45
	c-0.967,4.533-1.283,7.4-0.95,8.6v7.2c-0.333,0.2-0.667,0.367-1,0.5c-0.8-1.033-1.283-2.617-1.45-4.75
	C37.017,61.067,37,59.283,37,56.05c0-2.433,0.3-5.167,0.9-8.2c0.9-4.567,2.2-6.883,3.9-6.95c0,0.033,0.033,0.167,0.101,0.4
	C41.967,41.533,42,41.9,42,42.4z M20.3,44.4c0,0.167,0.45,3.55,1.35,10.15C22.55,61.417,23,65.7,23,67.4c0,0.5-0.1,0.9-0.3,1.2
	c-0.133,0.167-0.35,0.433-0.65,0.8l-0.55,0.25c-0.7-2.3-1.4-6.634-2.1-13c-0.6-5.367-0.9-8.767-0.9-10.2c-0.1-0.5-0.1-0.883,0-1.15
	C18.667,44.733,19.267,44.433,20.3,44.4z M19.5,94.65c6.4,0.1,12.067-0.467,17-1.7V92.2l1-0.55c0.1,0.233,0.2,0.55,0.3,0.949
	c3.733-1.066,7.95-1.866,12.65-2.399c-0.033-0.4-0.017-0.717,0.05-0.95c0.167-0.533,0.767-0.816,1.8-0.85
	c0.033,0.199,0.2,0.716,0.5,1.55c2.267-0.267,4.667-0.45,7.2-0.55v-0.25c0.467,0.199,0.8,0.533,1,1
	c-0.733,0.699-3.233,1.35-7.5,1.949c0.467,1.467,1.1,3.367,1.9,5.7c0.733,2.267,1.1,4.884,1.1,7.851c0,3-0.233,5-0.7,6
	c-1.233,2.666-4.083,4-8.55,4c-5.5,0-8.816-2.717-9.95-8.15c-0.3-1.6-0.466-3.75-0.5-6.45c-0.033-2.533-0.133-4.083-0.3-4.649v-1.45
	c-1.267,0.267-1.95,0.416-2.05,0.45c-2.167,0.366-7.317,0.949-15.45,1.75c-0.4-0.067-0.65-0.117-0.75-0.15
	C18.083,96.9,18,96.583,18,96.05C18,95.717,18.5,95.25,19.5,94.65z M38.15,94.55c0.3,2.134,0.616,5.3,0.949,9.5
	c1.233,6.267,4.034,9.4,8.4,9.4c3.6,0,5.85-1.267,6.75-3.8c0.267-0.801,0.384-1.7,0.35-2.7c-0.066-0.834-0.1-1.267-0.1-1.3
	c0-2.967-0.667-5.934-2-8.9c-0.8-1.767-1.35-3.2-1.65-4.3c-6.033,0.8-9.816,1.383-11.35,1.75C39,94.333,38.55,94.45,38.15,94.55z"/>
<path fill-rule="evenodd" clip-rule="evenodd" fill="#FFFF00" d="M69,1.65c-2.134,1.233-4.95,1.667-8.45,1.3l-0.75,0.2
	c2.4,2.733,4.4,5.917,6,9.55c1.134,2.533,2.217,5.7,3.25,9.5c0.267,1,1.117,3.983,2.55,8.95c1.267,4.833,1.9,8.217,1.9,10.15
	c0,0.833-0.333,2.617-1,5.35V69.9c-1.967,4.267-3.25,9.916-3.85,16.949c-0.801,9.5-1.434,15.351-1.9,17.551
	c-1.667,7.933-7.65,15.666-17.95,23.199c-4.133,3-8.3,5.434-12.5,7.301c-4.033,1.833-7.216,2.75-9.55,2.75
	c-6.067,0-10.633-2.334-13.7-7c-0.966-1.467-1.783-3.167-2.45-5.101c-0.467-1.7-0.75-2.666-0.85-2.899
	c-0.367-0.7-2.05-3.301-5.05-7.801c-2.2-3.3-3.417-5.949-3.65-7.949c-0.533-4.367-0.867-10.767-1-19.2C0.017,79.934,0,75.833,0,75.4
	c0-1.134,0.033-2.217,0.1-3.25c0.066-2.434,0.283-4.65,0.65-6.65c1.067-5.9,1.733-9.85,2-11.85c0.367-3.3,1.2-6.95,2.5-10.95
	c0.267-0.867,0.383-2.65,0.35-5.35c-0.033-2.333,0.267-4.05,0.9-5.15C12.133,22.667,18.633,15.25,26,9.95
	C32.833,5.083,40.333,2,48.5,0.7c6.3-1,12.983-0.934,20.05,0.2L69,1.65z M63.5,12.15c-1.8-3.6-4.134-6.683-7-9.25l-5.45-0.2
	c-0.833,0.033-1.684,0.117-2.55,0.25C39.967,3.983,31.35,8.267,22.65,15.8c-3.967,3.434-7.267,7.017-9.9,10.75
	c-2.6,3.733-4.1,6.934-4.5,9.6C7.883,38.617,6.7,44.833,4.7,54.8C3.3,62.3,2.45,68.083,2.15,72.15C2.05,73.316,2,74.35,2,75.25
	c0,3.767,0.083,7.816,0.25,12.15c0.167,4.333,0.25,9.166,0.25,14.5c0,2.433,0.85,5.25,2.55,8.449
	c0.967,1.867,2.617,4.733,4.95,8.601c0.267,0.467,0.783,1.85,1.55,4.149c0.8,2.301,1.567,4.134,2.3,5.5
	c2.533,4.567,6.25,6.851,11.15,6.851c8.067,0,16.833-4.533,26.3-13.601c3.667-3.533,6.834-7.199,9.5-11
	c2.5-3.633,3.917-6.449,4.25-8.449c0.134-0.767,0.667-6.351,1.601-16.75c0.6-6.733,1.883-12.15,3.85-16.25V46.15
	c0.233-1.1,0.4-1.95,0.5-2.55c0.2-1.1,0.3-1.9,0.3-2.4c0-2.333-0.583-5.55-1.75-9.65c-1.399-4.533-2.333-7.816-2.8-9.85
	C65.884,18.033,64.8,14.85,63.5,12.15z"/>
</svg>
