<?xml version="1.0" encoding="iso-8859-1"?>
<!-- Generator: Adobe Illustrator 15.1.0, SVG Export Plug-In . SVG Version: 6.00 Build 0)  -->
<!DOCTYPE svg PUBLIC "-//W3C//DTD SVG 1.0//EN" "http://www.w3.org/TR/2001/REC-SVG-20010904/DTD/svg10.dtd">
<svg version="1.0" id="Layer_1" xmlns="http://www.w3.org/2000/svg" xmlns:xlink="http://www.w3.org/1999/xlink" x="0px" y="0px"
	 width="315px" height="488px" viewBox="0 0 315 488" style="enable-background:new 0 0 315 488;" xml:space="preserve">
<path style="fill-rule:evenodd;clip-rule:evenodd;fill:#949494;" d="M181.8,3.25c0.849,0.005,1.69,0.03,2.525,0.075
	c0.829,0.039,1.646,0.097,2.45,0.175c2.282,0.224,4.365,0.715,6.25,1.475v0.05l-3.176,0.1c-1.097,0.048-2.23,0.115-3.399,0.2
	l-3.575,0.2l-3.6,0.175l-1.051,0.025L177.2,5.75c-0.849-0.005-1.69-0.03-2.525-0.075c-0.829-0.039-1.646-0.097-2.45-0.175
	c-2.282-0.224-4.365-0.715-6.25-1.475v-0.05l3.176-0.1c1.097-0.048,2.23-0.115,3.399-0.2l3.575-0.225l3.6-0.15l1.051-0.025
	L181.8,3.25z"/>
<path style="fill-rule:evenodd;clip-rule:evenodd;fill:#060606;" d="M177.15,4.975c4.936-0.001,9.927,0.265,14.975,0.8
	c5.099,0.543,10.166,1.393,15.2,2.55c5.029,1.161,9.938,2.661,14.725,4.5c4.793,1.845,9.377,4.062,13.75,6.65
	c4.365,2.587,8.433,5.579,12.2,8.975c3.763,3.404,7.138,7.246,10.125,11.525c1.778,2.592,3.454,5.276,5.025,8.05
	c1.572,2.77,3.03,5.612,4.375,8.525c1.336,2.919,2.595,5.894,3.774,8.925c1.187,3.032,2.286,6.099,3.3,9.2
	c0.674,2.064,1.323,4.139,1.95,6.225c0.633,2.08,1.241,4.163,1.825,6.25c0.577,2.094,1.127,4.186,1.65,6.275l1.524,6.25l1.476,6.2
	L284.4,112c0.883,3.922,1.741,7.856,2.574,11.8c0.837,3.952,1.646,7.902,2.426,11.85c0.78,3.947,1.53,7.881,2.25,11.8
	c1.072,5.881,2.072,11.79,3,17.725c0.929,5.939,1.778,11.865,2.55,17.775c0.771,5.904,1.454,11.845,2.05,17.825
	c0.6,5.979,1.108,11.955,1.525,17.925c0.418,5.977,0.734,12.002,0.949,18.075c0.203,6.07,0.304,12.145,0.301,18.225L304,317
	l-3.75,18l-0.175,1.575l-0.15,1.625l-0.075,1.7l-0.074,1.75l-0.15,3.574l-0.1,1.825l-0.15,1.8c-0.062,0.596-0.137,1.188-0.225,1.775
	c-0.087,0.591-0.188,1.174-0.301,1.75c-0.114,0.575-0.247,1.142-0.399,1.7c-0.148,0.562-0.315,1.111-0.5,1.649
	c-0.184,0.538-0.393,1.063-0.625,1.575c-0.235,0.517-0.493,1.017-0.775,1.5c-0.277,0.477-0.586,0.935-0.925,1.375
	c-0.339,0.446-0.705,0.871-1.1,1.275c-0.482,0.475-1.016,0.925-1.601,1.35c-0.586,0.427-1.219,0.827-1.899,1.2
	c-0.682,0.372-1.398,0.722-2.15,1.05c-0.745,0.333-1.52,0.642-2.325,0.925c-0.807,0.278-1.632,0.537-2.475,0.775
	c-0.846,0.238-1.704,0.455-2.575,0.65c-0.874,0.192-1.749,0.367-2.625,0.524c-0.871,0.161-1.738,0.303-2.6,0.425
	c-0.858,0.116-1.7,0.216-2.525,0.301c-0.83,0.091-1.639,0.166-2.425,0.225L269.05,369c-0.722,0.022-1.404,0.03-2.05,0.025
	l-5.025-19.95c-0.622,0.597-1.205,1.205-1.75,1.825c-0.542,0.626-1.042,1.26-1.5,1.899c-0.465,0.646-0.907,1.297-1.324,1.95
	c-0.41,0.659-0.794,1.317-1.15,1.975l-1.075,1.95l-1.024,1.9c-0.325,0.63-0.658,1.246-1,1.85c-0.353,0.602-0.711,1.185-1.075,1.75
	c-0.358,0.563-0.741,1.104-1.15,1.625c-0.41,0.525-0.844,1.025-1.3,1.5c-0.458,0.479-0.958,0.93-1.5,1.351
	c-0.536,0.415-1.111,0.799-1.725,1.149c-0.624,0.355-1.308,0.672-2.051,0.95c-0.737,0.273-1.528,0.507-2.375,0.7
	c-0.84,0.188-1.757,0.33-2.75,0.425c-0.997,0.098-2.064,0.147-3.199,0.15V402L236,402.025h-3L232.975,402l-0.274-25l-4.425-11.975
	l-0.5-2.476l-0.301-1.425l-0.35-1.525l-0.4-1.524l-0.475-1.525c-0.168-0.5-0.351-0.983-0.55-1.45c-0.202-0.47-0.419-0.919-0.65-1.35
	c-0.23-0.425-0.48-0.816-0.75-1.175c-0.266-0.369-0.549-0.702-0.85-1c-0.311-0.282-0.644-0.516-1-0.7
	c-0.346-0.2-0.713-0.35-1.101-0.45c-0.287-0.066-0.587-0.1-0.899-0.1c-0.271,0.006-0.555,0.039-0.851,0.1
	c-0.299,0.048-0.606,0.123-0.925,0.226c-0.998,0.336-2.115,0.994-3.35,1.975l-4.45,6.95l-5.85,7.45h-5l-2,37.975L196,405.025
	L195.975,405l1-35.95L176,371.025l-0.4-2l-0.225-1.15l-0.25-1.225l-0.275-1.25l-0.324-1.301l-0.375-1.3l-0.426-1.274
	c-0.147-0.419-0.306-0.827-0.475-1.226c-0.175-0.396-0.357-0.779-0.55-1.149c-0.18-0.377-0.371-0.735-0.575-1.075
	c-0.215-0.338-0.439-0.654-0.675-0.95c-0.236-0.301-0.486-0.576-0.75-0.825c-0.255-0.244-0.521-0.461-0.8-0.649
	c-0.284-0.192-0.584-0.352-0.9-0.476c-0.312-0.127-0.637-0.218-0.975-0.274H167.8c-0.316-0.002-0.684,0.064-1.1,0.199
	c-0.411,0.142-0.87,0.35-1.375,0.625c-0.572,0.307-1.189,0.665-1.851,1.075c-0.66,0.409-1.36,0.867-2.1,1.375l-4.725,3.275
	c-0.826,0.583-1.659,1.149-2.5,1.7c-0.849,0.544-1.699,1.069-2.55,1.574c-0.846,0.51-1.679,0.968-2.5,1.375
	c-0.826,0.404-1.634,0.754-2.425,1.051c-0.68,0.255-1.338,0.446-1.975,0.574c-0.635,0.132-1.244,0.198-1.825,0.2L142.3,367.9
	c-1.327-0.103-2.444-0.694-3.35-1.775c-0.902-1.084-1.519-2.792-1.85-5.125l-0.125-6.975c-0.589,0.014-1.197,0.055-1.825,0.125
	c-0.618,0.055-1.251,0.139-1.9,0.25c-0.662,0.122-1.329,0.271-2,0.449c-0.667,0.182-1.333,0.39-2,0.625
	c-0.677,0.223-1.343,0.473-2,0.75c-0.648,0.292-1.282,0.608-1.9,0.95c-0.618,0.34-1.209,0.706-1.775,1.101
	c-0.572,0.383-1.113,0.791-1.625,1.225c-1.029,0.892-1.887,1.883-2.575,2.975c-0.681,1.079-1.131,2.254-1.35,3.525l-3,0.025V405
	L115,405.025h-2L112.975,405v-37.975l-3.7,0.074l-0.75,0.025c-0.486-0.004-0.97-0.021-1.45-0.05c-0.49-0.029-0.974-0.07-1.45-0.125
	c-0.596-0.064-1.179-0.173-1.75-0.325c-0.567-0.149-1.117-0.341-1.65-0.575c-1.072-0.485-2.056-1.235-2.95-2.25
	c-0.358-0.428-0.7-0.937-1.025-1.524l-0.5-0.926l-0.475-0.975l-0.95-2.125l-0.5-1.1l-0.5-1.075l-0.525-1.05l-0.55-0.976
	c-0.191-0.323-0.392-0.632-0.6-0.925c-0.202-0.284-0.41-0.551-0.625-0.8c-0.446-0.512-0.93-0.928-1.45-1.25
	c-0.513-0.315-1.071-0.507-1.675-0.575c-0.251-0.029-0.493-0.046-0.725-0.05c-0.289,0.006-0.564,0.03-0.825,0.075
	c-0.258,0.038-0.5,0.097-0.725,0.175c-0.636,0.213-1.169,0.547-1.6,1c-0.423,0.454-0.765,0.996-1.025,1.625
	c-0.132,0.31-0.249,0.635-0.35,0.975c-0.107,0.346-0.199,0.704-0.275,1.075L84.2,356.5l-0.125,1.175l-0.05,1.175l-0.05,1.15
	l-0.025,2.175l-0.025,0.976l-0.05,0.85l-0.85,44L80,408.025L79.975,408l1.975-50.975h-1.925c-0.188,2.142-0.821,3.926-1.9,5.35
	c-1.092,1.431-2.5,2.556-4.225,3.375c-1.725,0.813-3.633,1.38-5.725,1.7c-0.863,0.133-1.738,0.232-2.625,0.3
	c-0.894,0.066-1.794,0.1-2.7,0.1l-1.1-0.024c-1.092-0.033-2.167-0.1-3.225-0.2c-1.058-0.093-2.091-0.218-3.1-0.375
	c-1.009-0.164-1.967-0.348-2.875-0.55c-0.907-0.208-1.757-0.433-2.55-0.675l-4.025-12.976c-0.474,0.256-0.907,0.522-1.3,0.8
	c-0.393,0.273-0.743,0.558-1.05,0.851c-0.316,0.292-0.599,0.601-0.85,0.925c-0.243,0.336-0.451,0.687-0.625,1.05
	c-0.182,0.354-0.34,0.729-0.475,1.125c-0.124,0.406-0.224,0.832-0.3,1.275c-0.089,0.44-0.164,0.907-0.225,1.399
	c-0.056,0.486-0.098,0.994-0.125,1.525L29,366.025L28.975,366v-4.725l0.05-4.7l0.075-4.7l0.1-4.675l0.175-4.675l0.2-4.65l0.275-4.65
	l0.3-4.649l0.4-4.65c0.137-1.536,0.287-3.078,0.45-4.625c0.154-1.558,0.321-3.116,0.5-4.675c0.188-1.546,0.388-3.088,0.6-4.625
	l4.775-16l0.375-5.175l0.325-5.125l0.275-5.15l0.225-5.149l0.45-10.25L38.75,258l0.25-5.1l0.3-5.125l0.325-5.125
	c0.128-1.694,0.27-3.395,0.425-5.1c0.146-1.714,0.304-3.423,0.475-5.125c0.173-1.693,0.365-3.394,0.575-5.1
	c0.216-1.714,0.449-3.423,0.7-5.125c0.251-1.694,0.526-3.395,0.825-5.1c0.294-1.706,0.611-3.406,0.95-5.1l2.85-14.325l0.95-4.725
	l0.95-4.75l0.975-4.7l1-4.725l1-4.7l1.05-4.675l1.075-4.65l1.125-4.675l1.15-4.625l1.2-4.625l1.275-4.625l1.3-4.575l1.375-4.575
	c0.472-1.528,0.955-3.053,1.45-4.575c0.498-1.524,1.006-3.041,1.525-4.55c0.509-1.506,1.034-3.015,1.575-4.525
	c0.553-1.511,1.119-3.02,1.7-4.525c0.571-1.507,1.154-3.007,1.75-4.5c0.598-1.49,1.215-2.981,1.85-4.475
	c0.633-1.494,1.283-2.986,1.95-4.475c0.669-1.491,1.353-2.975,2.05-4.45L80.775,82c1.106-2.092,2.29-4.217,3.55-6.375
	c1.272-2.156,2.614-4.331,4.025-6.525c0.938-1.461,1.904-2.928,2.9-4.4c0.99-1.474,2.006-2.949,3.05-4.425
	c1.052-1.47,2.127-2.937,3.225-4.4c3.294-4.424,6.769-8.757,10.425-13c3.659-4.231,7.442-8.273,11.35-12.125
	c3.908-3.854,7.883-7.421,11.925-10.7c4.047-3.27,8.105-6.153,12.175-8.65c0.542-0.331,1.108-0.647,1.7-0.95
	c0.587-0.3,1.196-0.583,1.825-0.85c0.623-0.263,1.264-0.513,1.925-0.75c0.668-0.24,1.352-0.465,2.05-0.675
	c0.695-0.211,1.403-0.412,2.125-0.6c0.725-0.188,1.458-0.363,2.2-0.525l2.25-0.45l2.275-0.4l2.275-0.325l2.3-0.25L166.6,5.4
	l2.226-0.175L171,5.1l2.1-0.075l1.95-0.05h1.875H177H177.15z"/>
<path style="fill-rule:evenodd;clip-rule:evenodd;fill:#4F4F4F;" d="M181.75,6.35c0.798,0.005,1.59,0.03,2.375,0.075
	c0.787,0.039,1.562,0.098,2.325,0.175c2.021,0.212,3.879,0.662,5.575,1.35V8l-2.851,0.075c-0.979,0.042-1.987,0.101-3.024,0.175
	L183,8.425l-3.2,0.125l-1.55,0.025c-0.799,0.003-1.591-0.014-2.375-0.05c-0.788-0.039-1.562-0.097-2.325-0.175
	c-2.021-0.212-3.879-0.663-5.575-1.35V6.95l2.851-0.075c0.979-0.042,1.987-0.101,3.024-0.175L177,6.525l3.2-0.15L181.75,6.35z"/>
<path style="fill-rule:evenodd;clip-rule:evenodd;fill:#FFFFFF;" d="M279.625,105.975c1.464,6.359,2.864,12.734,4.2,19.125
	c1.331,6.396,2.59,12.763,3.774,19.1c1.18,6.33,2.28,12.688,3.301,19.075c1.028,6.392,1.97,12.767,2.824,19.125
	c0.847,6.35,1.597,12.742,2.25,19.175c0.659,6.445,1.218,12.887,1.676,19.325c0.453,6.429,0.795,12.912,1.024,19.45
	c0.23,6.533,0.347,13.075,0.351,19.625l0.05,6.226l0.075,6.225l0.1,6.2l0.1,6.15l0.051,6.199l0.05,6.15
	c0.001,2.036-0.016,4.077-0.05,6.125c-0.032,2.06-0.082,4.117-0.15,6.175c-0.074,2.049-0.166,4.091-0.275,6.125
	c-0.148,3.062-0.365,6.138-0.649,9.226c-0.293,3.084-0.651,6.159-1.075,9.225l-0.2,1.575l-0.125,1.625l-0.125,1.649l-0.075,1.676
	l-0.199,3.425l-0.15,1.7l-0.175,1.699c-0.07,0.562-0.154,1.12-0.25,1.676c-0.096,0.557-0.204,1.106-0.325,1.649
	c-0.123,0.54-0.265,1.073-0.425,1.601c-0.157,0.534-0.333,1.06-0.525,1.574c-0.192,0.511-0.409,1.011-0.649,1.5
	c-0.244,0.488-0.511,0.964-0.801,1.426c-0.286,0.471-0.603,0.929-0.949,1.375c-0.348,0.433-0.723,0.849-1.125,1.25
	c-0.241,0.239-0.508,0.473-0.801,0.699c-0.292,0.226-0.608,0.441-0.949,0.65c-0.339,0.206-0.697,0.406-1.075,0.6
	c-0.383,0.2-0.783,0.392-1.2,0.575l-1.275,0.525l-1.375,0.5l-1.399,0.45l-1.45,0.425l-1.475,0.375l-1.476,0.35l-1.45,0.3
	l-1.399,0.301l-2.601,0.5L271,366.025c-0.232-0.519-0.44-1.044-0.625-1.575c-0.195-0.531-0.379-1.073-0.55-1.625l-0.476-1.7
	l-0.475-1.7l-0.45-1.7l-0.5-1.699c-0.163-0.559-0.338-1.109-0.524-1.65c-0.182-0.537-0.373-1.062-0.575-1.575
	c-0.214-0.524-0.447-1.033-0.7-1.524c-0.24-0.479-0.499-0.937-0.775-1.375c-0.289-0.449-0.605-0.874-0.949-1.275
	c-0.334-0.401-0.692-0.776-1.075-1.125c-0.382-0.34-0.799-0.648-1.25-0.925c-0.46-0.283-0.952-0.533-1.476-0.75
	c-0.508-0.214-1.058-0.389-1.649-0.525c-0.604-0.131-1.245-0.223-1.925-0.274l-0.15,1.1l-0.25,1.225L256.3,348.7l-0.399,1.425
	l-0.476,1.525l-0.524,1.55l-0.625,1.6L253.6,356.4c-0.238,0.535-0.488,1.069-0.75,1.6c-0.257,0.531-0.523,1.057-0.8,1.575
	c-0.28,0.51-0.572,1.01-0.875,1.5c-0.3,0.496-0.608,0.979-0.925,1.45c-0.322,0.474-0.656,0.933-1,1.375
	c-0.342,0.436-0.691,0.852-1.05,1.25c-0.356,0.397-0.724,0.772-1.101,1.125c-0.376,0.35-0.759,0.675-1.149,0.975
	c-0.391,0.306-0.791,0.581-1.2,0.825c-0.409,0.24-0.826,0.448-1.25,0.625c-0.425,0.18-0.858,0.321-1.3,0.425
	c-0.444,0.097-0.894,0.155-1.351,0.175l-0.399,0.025c-0.394-0.001-0.794-0.034-1.2-0.101c-0.404-0.067-0.813-0.168-1.225-0.3
	c-0.484-0.148-0.976-0.348-1.476-0.6c-0.495-0.259-0.995-0.567-1.5-0.925c-1.06-0.763-1.894-1.63-2.5-2.601
	c-0.294-0.483-0.552-0.983-0.774-1.5c-0.229-0.512-0.421-1.037-0.575-1.575c-0.157-0.544-0.299-1.094-0.425-1.649
	c-0.125-0.557-0.233-1.115-0.325-1.675l-0.3-1.65l-0.301-1.6c-0.107-0.518-0.241-1.018-0.399-1.5
	c-0.168-0.496-0.359-0.971-0.575-1.426c-0.42-0.894-1.02-1.669-1.8-2.324c-0.78-0.656-1.821-1.147-3.125-1.476
	c-0.512-0.132-1.079-0.231-1.7-0.3c-0.616-0.065-1.283-0.099-2-0.1L219,348.05l-5.925,1.275l-6.55,8.975
	c-0.444,0.467-0.937,0.934-1.476,1.4c-0.539,0.47-1.122,0.937-1.75,1.399c-0.624,0.463-1.283,0.913-1.975,1.351
	c-0.696,0.44-1.422,0.865-2.175,1.274c-0.748,0.408-1.515,0.792-2.301,1.15c-0.794,0.353-1.603,0.678-2.425,0.975
	c-0.812,0.305-1.629,0.571-2.45,0.801c-0.826,0.23-1.651,0.422-2.475,0.574c-0.604,0.103-1.205,0.178-1.8,0.226
	c-0.593,0.061-1.177,0.094-1.75,0.1c-0.421-0.002-0.838-0.019-1.25-0.05c-1.548-0.106-2.981-0.465-4.3-1.075
	c-0.951-0.47-1.718-1.053-2.301-1.75c-0.287-0.348-0.546-0.714-0.774-1.1c-0.223-0.384-0.415-0.783-0.575-1.2
	c-0.173-0.416-0.331-0.841-0.475-1.275c-0.132-0.427-0.249-0.86-0.351-1.3l-0.649-2.649c-0.109-0.43-0.234-0.846-0.375-1.25
	c-0.144-0.415-0.302-0.815-0.476-1.2c-0.167-0.372-0.367-0.723-0.6-1.05c-0.236-0.334-0.503-0.643-0.8-0.926
	c-0.294-0.283-0.636-0.533-1.025-0.75c-0.396-0.209-0.837-0.385-1.325-0.524c-0.397-0.121-0.84-0.213-1.325-0.275
	c-0.484-0.063-1.01-0.097-1.574-0.1L167,351.1c-0.512,0.033-1.021,0.116-1.525,0.25c-0.498,0.126-0.989,0.301-1.475,0.525
	c-0.493,0.231-0.985,0.498-1.475,0.8c-0.48,0.301-0.955,0.635-1.426,1c-0.475,0.365-0.949,0.748-1.425,1.15
	c-0.479,0.4-0.953,0.817-1.425,1.25l-2.825,2.625c-0.471,0.439-0.946,0.864-1.425,1.274c-0.483,0.409-0.966,0.801-1.45,1.176
	c-0.478,0.373-0.961,0.714-1.45,1.024c-0.49,0.309-0.981,0.584-1.475,0.825c-0.501,0.24-1.009,0.432-1.525,0.575
	c-0.513,0.149-1.029,0.249-1.55,0.3l-0.575,0.025c-0.435,0.003-0.876-0.039-1.325-0.125c-0.445-0.098-0.896-0.239-1.35-0.426
	c-0.653-0.267-1.153-0.633-1.5-1.1c-0.347-0.474-0.588-1.015-0.725-1.625c-0.072-0.298-0.131-0.606-0.175-0.925
	c-0.04-0.325-0.064-0.658-0.075-1l-0.05-2.05l-0.025-1l-0.1-0.976c-0.037-0.32-0.096-0.629-0.175-0.925
	c-0.08-0.29-0.179-0.565-0.3-0.825c-0.252-0.519-0.636-0.952-1.15-1.3c-0.254-0.179-0.554-0.329-0.9-0.45
	c-0.356-0.112-0.756-0.195-1.2-0.25l-0.875-0.1l-0.875-0.025c-0.473,0-0.939,0.025-1.4,0.075c-0.459,0.05-0.909,0.125-1.35,0.225
	c-0.705,0.163-1.396,0.372-2.075,0.625c-0.685,0.248-1.351,0.54-2,0.875c-0.65,0.34-1.292,0.706-1.925,1.101
	c-0.637,0.392-1.262,0.809-1.875,1.25l-1.825,1.35l-1.775,1.4l-1.775,1.375L117.4,360.4c-0.585,0.421-1.176,0.812-1.775,1.175
	c-0.598,0.373-1.198,0.715-1.8,1.024c-0.614,0.307-1.239,0.565-1.875,0.775c-0.627,0.207-1.26,0.365-1.9,0.475l-0.8,0.101
	l-0.8,0.024c-0.402,0.008-0.81-0.009-1.225-0.05c-0.404-0.051-0.812-0.126-1.225-0.225c-1.196-0.295-2.204-0.761-3.025-1.4
	c-0.416-0.327-0.799-0.686-1.15-1.075c-0.342-0.38-0.65-0.788-0.925-1.225c-0.277-0.432-0.535-0.882-0.775-1.35
	c-0.245-0.478-0.47-0.97-0.675-1.476l-0.575-1.524l-0.575-1.525c-0.174-0.509-0.357-1.009-0.55-1.5
	c-0.2-0.496-0.409-0.979-0.625-1.45c-0.218-0.464-0.46-0.905-0.725-1.325c-0.262-0.426-0.545-0.825-0.85-1.199
	c-0.605-0.748-1.355-1.349-2.25-1.801c-0.448-0.216-0.948-0.383-1.5-0.5c-0.552-0.125-1.152-0.2-1.8-0.225h-0.225
	c-0.668-0.002-1.301,0.048-1.9,0.15c-0.589,0.106-1.139,0.265-1.65,0.475c-0.546,0.215-1.062,0.474-1.55,0.775
	c-0.49,0.301-0.948,0.642-1.375,1.024c-0.426,0.389-0.834,0.806-1.225,1.25c-0.387,0.434-0.754,0.892-1.1,1.375
	c-0.349,0.495-0.69,1.004-1.025,1.525c-0.334,0.516-0.66,1.04-0.975,1.575l-0.95,1.625l-0.975,1.574
	c-0.327,0.526-0.669,1.035-1.025,1.525c-0.354,0.479-0.721,0.938-1.1,1.375c-0.382,0.45-0.791,0.867-1.225,1.25
	c-0.436,0.378-0.894,0.72-1.375,1.025c-0.966,0.61-2.075,1.019-3.325,1.225l-1.05,0.15l-1.2,0.149l-1.325,0.125L64,364.4
	l-0.95,0.024l-0.975,0.025l-1-0.025c-0.49-0.011-0.974-0.036-1.45-0.075c-0.485-0.044-0.96-0.103-1.425-0.175
	c-0.46-0.064-0.902-0.148-1.325-0.25c-0.421-0.106-0.821-0.231-1.2-0.375c-0.388-0.144-0.746-0.31-1.075-0.5
	c-0.324-0.194-0.615-0.411-0.875-0.649c-0.469-0.438-0.877-0.954-1.225-1.551c-0.175-0.303-0.341-0.619-0.5-0.949
	c-0.151-0.323-0.293-0.656-0.425-1l-0.4-1.051l-0.4-1.1l-0.375-1.075L50,354.6c-0.132-0.352-0.274-0.692-0.425-1.024
	c-0.159-0.329-0.326-0.646-0.5-0.95c-0.168-0.302-0.352-0.585-0.55-0.85c-0.203-0.271-0.42-0.521-0.65-0.75
	c-0.452-0.449-0.986-0.791-1.6-1.025c-0.271-0.109-0.562-0.192-0.875-0.25c-0.314-0.051-0.647-0.076-1-0.075h-0.325
	c-0.356,0.026-0.698,0.085-1.025,0.175c-0.333,0.077-0.65,0.186-0.95,0.325c-0.303,0.15-0.594,0.326-0.875,0.525
	c-0.279,0.193-0.546,0.41-0.8,0.649c-0.257,0.241-0.507,0.5-0.75,0.775c-0.242,0.276-0.476,0.568-0.7,0.875l-0.65,0.95l-0.625,1
	l-1.275,2.075L35.8,358.05L35.125,359c-0.216,0.322-0.441,0.631-0.675,0.925c-0.244,0.291-0.494,0.566-0.75,0.825
	c-0.512,0.516-1.07,0.94-1.675,1.275L31.975,362l3-46.025l3-0.024c-0.006-1.945,0.002-3.896,0.025-5.851
	c0.028-1.943,0.07-3.885,0.125-5.824c0.053-1.95,0.12-3.892,0.2-5.825l0.3-5.825l0.325-5.825l0.425-5.825l0.475-5.8l0.525-5.8
	l0.6-5.775l0.625-5.8l0.675-5.8L43,246.25l0.75-5.775l0.775-5.8l0.825-5.75l0.825-5.775l0.85-5.775L47.9,211.6l2.65-17.3l0.875-5.75
	l0.875-5.8l0.875-5.775c0.299-1.964,0.641-3.923,1.025-5.875c0.377-1.953,0.793-3.887,1.25-5.8c0.458-1.92,0.95-3.836,1.475-5.75
	c0.529-1.908,1.087-3.8,1.675-5.675c0.585-1.875,1.193-3.75,1.825-5.625c0.631-1.872,1.281-3.73,1.95-5.575
	c0.669-1.846,1.352-3.696,2.05-5.55c0.699-1.851,1.407-3.693,2.125-5.525l4.325-11.05l2.15-5.525l2.1-5.55
	c0.691-1.837,1.366-3.688,2.025-5.55c0.654-1.867,1.288-3.733,1.9-5.6c0.609-1.868,1.192-3.751,1.75-5.65
	c0.563-1.897,1.097-3.797,1.6-5.7c0.182-0.676,0.398-1.359,0.65-2.05c0.25-0.689,0.534-1.381,0.85-2.075
	c0.314-0.695,0.655-1.395,1.025-2.1c0.367-0.7,0.759-1.4,1.175-2.1c0.421-0.707,0.863-1.415,1.325-2.125
	c0.466-0.703,0.949-1.403,1.45-2.1c0.495-0.7,1.003-1.4,1.525-2.1c0.516-0.705,1.041-1.405,1.575-2.1l1.65-2.075l1.675-2.025
	l3.325-3.95l3.15-3.75l1.45-1.75l1.35-1.7l4.225-5.425l2.25-2.85l2.325-2.875l2.4-2.925l2.475-2.9c0.836-0.971,1.687-1.938,2.55-2.9
	c0.859-0.961,1.725-1.911,2.6-2.85c0.888-0.945,1.788-1.878,2.7-2.8c0.902-0.918,1.811-1.818,2.725-2.7
	c0.921-0.878,1.855-1.737,2.8-2.575c0.936-0.842,1.878-1.659,2.825-2.45c0.956-0.787,1.922-1.545,2.9-2.275
	c0.979-0.734,1.962-1.434,2.95-2.1c0.982-0.662,1.974-1.287,2.975-1.875c0.998-0.599,1.998-1.158,3-1.675
	c4.057-2.019,8.391-3.577,13-4.675c4.609-1.108,9.393-1.792,14.35-2.05L176,7l2.375-0.025c1.702-0.004,3.419,0.038,5.15,0.125
	c1.723,0.089,3.447,0.222,5.175,0.4c5.105,0.538,10.181,1.429,15.225,2.675c5.033,1.248,9.933,2.814,14.7,4.7
	c4.769,1.883,9.302,4.05,13.6,6.5c4.296,2.453,8.255,5.152,11.875,8.1c3.624,2.955,6.807,6.122,9.551,9.5
	c0.883,1.103,1.741,2.244,2.574,3.425c0.84,1.186,1.648,2.402,2.426,3.65c0.771,1.244,1.521,2.519,2.25,3.825
	c0.735,1.302,1.443,2.627,2.125,3.975c0.669,1.359,1.319,2.742,1.949,4.15c0.642,1.402,1.258,2.819,1.851,4.25
	c0.584,1.425,1.15,2.867,1.7,4.325c0.555,1.468,1.088,2.943,1.6,4.425c0.507,1.474,0.999,2.958,1.475,4.45
	c0.485,1.493,0.952,2.985,1.4,4.475c0.438,1.491,0.863,2.982,1.275,4.475c0.415,1.501,0.815,2.993,1.199,4.475l1.15,4.4l1.05,4.325
	l1,4.25L279.625,105.975z"/>
<path style="fill-rule:evenodd;clip-rule:evenodd;fill:#949494;" d="M217.4,37.825l0.925,0.025c0.601,0.026,1.192,0.084,1.774,0.175
	c0.597,0.093,1.18,0.218,1.75,0.375c0.568,0.157,1.118,0.365,1.65,0.625c0.529,0.267,1.038,0.583,1.525,0.95L225,40.025l-14-2
	l-0.025-0.05l1.825-0.05l1.825-0.075l0.95-0.025h0.925H217.4z"/>
<path style="fill-rule:evenodd;clip-rule:evenodd;fill:#060606;" d="M215.825,38.675c0.896,0,1.779,0.058,2.649,0.175
	c0.87,0.116,1.72,0.292,2.551,0.525c1.802,0.513,3.402,1.313,4.8,2.4c1.395,1.091,2.462,2.483,3.2,4.175L229,46l-11-4.8L201,46
	l-0.025-0.05c0.908-1.544,2.116-2.853,3.625-3.925c1.51-1.065,3.192-1.882,5.051-2.45c1.858-0.562,3.768-0.862,5.725-0.9H215.825z"
	/>
<path style="fill-rule:evenodd;clip-rule:evenodd;fill:#060606;" d="M212.55,57.125c0.473,0.036,0.956,0.127,1.45,0.275
	c0.5,0.137,1.009,0.329,1.525,0.575c0.513,0.251,1.038,0.568,1.574,0.95c0.534,0.388,1.076,0.837,1.625,1.35
	c1.372,1.269,2.521,2.636,3.45,4.1c0.453,0.728,0.861,1.478,1.226,2.25c0.372,0.775,0.696,1.567,0.975,2.375
	c0.27,0.8,0.503,1.617,0.7,2.45c0.204,0.839,0.37,1.689,0.5,2.55c0.119,0.856,0.211,1.723,0.274,2.6
	c0.07,0.879,0.112,1.763,0.125,2.65c0.011,0.887,0.003,1.779-0.024,2.675c-0.022,0.893-0.064,1.785-0.125,2.675l-0.226,2.675
	l-0.3,2.65l-0.625,5.175l-0.3,2.5l-0.25,2.375l-0.15,1.85l-0.125,1.85l-0.25,3.675l-0.175,1.825l-0.2,1.8
	c-0.07,0.586-0.153,1.17-0.25,1.75c-0.104,0.591-0.221,1.174-0.35,1.75c-0.123,0.571-0.265,1.137-0.425,1.7
	c-0.166,0.559-0.349,1.109-0.55,1.65c-0.2,0.548-0.425,1.089-0.676,1.625c-0.251,0.535-0.525,1.06-0.824,1.575
	c-0.303,0.508-0.636,1.008-1,1.5c-0.354,0.503-0.738,0.995-1.15,1.475c-0.421,0.476-0.879,0.943-1.375,1.4
	c-0.491,0.454-1.016,0.896-1.575,1.325c-1.273,0.938-2.698,1.597-4.274,1.975c-0.78,0.184-1.581,0.326-2.4,0.425
	c-0.827,0.102-1.669,0.16-2.525,0.175H204.7l-1.976-0.025l-1.975-0.075l-2.45-0.125l-2.325-0.05c-0.316-1.221-0.601-2.421-0.85-3.6
	c-0.258-1.17-0.491-2.32-0.7-3.45c-0.204-1.141-0.387-2.282-0.55-3.425c-0.164-1.132-0.306-2.257-0.425-3.375
	c-0.12-1.127-0.22-2.269-0.3-3.425c-0.079-1.152-0.137-2.31-0.176-3.475c-0.035-1.164-0.052-2.355-0.05-3.575
	c-0.01-1.223-0.002-2.464,0.025-3.725l3.825-18l0.149-1.1l0.226-1.275l0.3-1.4l0.35-1.55l0.425-1.625l0.5-1.7l0.575-1.75
	l0.625-1.775c0.222-0.594,0.455-1.186,0.7-1.775c0.24-0.582,0.49-1.157,0.75-1.725c0.263-0.57,0.538-1.128,0.825-1.675
	c0.29-0.549,0.59-1.082,0.899-1.6c0.306-0.52,0.622-1.02,0.95-1.5c0.332-0.481,0.674-0.939,1.025-1.375
	c0.354-0.429,0.721-0.829,1.1-1.2c0.374-0.373,0.758-0.715,1.15-1.025c0.388-0.312,0.788-0.588,1.2-0.825
	c0.416-0.239,0.841-0.439,1.274-0.6c0.366-0.124,0.741-0.216,1.125-0.275c0.378-0.066,0.761-0.1,1.15-0.1H212.55z"/>
<path style="fill-rule:evenodd;clip-rule:evenodd;fill:#CFCCCC;" d="M146.1,61.275l1.7,0.025l1.675,0.075
	c0.717,0.056,1.417,0.131,2.1,0.225c0.68,0.089,1.338,0.198,1.975,0.325c0.638,0.12,1.247,0.262,1.825,0.425
	c0.584,0.171,1.134,0.362,1.65,0.575V63H133l-0.025-0.05c0.542-0.168,1.109-0.318,1.7-0.45c0.588-0.143,1.205-0.276,1.85-0.4
	c0.654-0.112,1.329-0.212,2.025-0.3c0.685-0.095,1.385-0.178,2.1-0.25c0.726-0.072,1.459-0.13,2.2-0.175
	c0.739-0.048,1.48-0.081,2.225-0.1H146.1z"/>
<path style="fill-rule:evenodd;clip-rule:evenodd;fill:#060606;" d="M146.95,62.175l1.2,0.075c0.681,0.04,1.347,0.098,2,0.175
	c0.661,0.082,1.302,0.182,1.925,0.3c0.627,0.115,1.227,0.249,1.8,0.4c0.564,0.158,1.098,0.333,1.6,0.525
	c0.506,0.183,0.973,0.382,1.4,0.6c0.427,0.226,0.81,0.468,1.15,0.725L158,65.025l-27,2l-0.025-0.05
	c0.502-0.749,1.194-1.407,2.075-1.975c0.439-0.279,0.914-0.538,1.425-0.775c0.518-0.239,1.067-0.456,1.65-0.65
	c0.576-0.195,1.176-0.371,1.8-0.525c0.622-0.154,1.264-0.288,1.925-0.4c0.663-0.111,1.338-0.203,2.025-0.275
	c0.693-0.078,1.393-0.137,2.1-0.175l0.9-0.025h0.9H146.95z"/>
<path style="fill-rule:evenodd;clip-rule:evenodd;fill:#CFCCCC;" d="M147.725,65.5c0.747,0.005,1.489,0.03,2.225,0.075
	c0.736,0.038,1.46,0.096,2.175,0.175c0.871,0.098,1.712,0.248,2.525,0.45c0.827,0.208,1.619,0.466,2.375,0.775v0.05L154.5,67.1
	l-2.65,0.125l-2.75,0.15l-2.775,0.1h-1.05c-0.748,0.003-1.489-0.013-2.225-0.05c-0.736-0.039-1.461-0.097-2.175-0.175
	c-0.871-0.098-1.712-0.248-2.525-0.45c-0.826-0.207-1.618-0.465-2.375-0.775v-0.05L138.5,65.9l2.65-0.125l2.75-0.15l2.775-0.1
	L147.725,65.5z"/>
<path style="fill-rule:evenodd;clip-rule:evenodd;fill:#3F3F3F;" d="M200,72.025L199.975,66L200,65.975
	c0.14,0.291,0.257,0.566,0.35,0.825l0.226,0.775c0.117,0.488,0.176,0.963,0.175,1.425c0.001,0.461-0.058,0.937-0.175,1.425
	L200.35,71.2l-0.324,0.825H200z"/>
<path style="fill-rule:evenodd;clip-rule:evenodd;fill:#3F3F3F;" d="M203.025,79.3c-0.185,0.761-0.384,1.527-0.601,2.3
	c-0.211,0.774-0.436,1.549-0.675,2.325L201,86.25l-0.775,2.3l-1.55,4.5l-0.725,2.15l-0.65,2.05c-0.197,0.669-0.372,1.319-0.524,1.95
	c-0.165,0.623-0.307,1.223-0.426,1.8c-0.406,2.306-0.539,4.506-0.399,6.6c0.072,1.042,0.181,2.075,0.325,3.1
	c0.14,1.024,0.314,2.032,0.524,3.025l1.3,6.025c0.214,0.997,0.397,2.013,0.551,3.05c0.156,1.045,0.281,2.104,0.375,3.175
	c0.81-0.003,1.585-0.028,2.324-0.075c0.741-0.045,1.449-0.112,2.125-0.2c0.689-0.081,1.364-0.189,2.025-0.325
	c0.651-0.14,1.285-0.307,1.9-0.5c0.624-0.192,1.249-0.417,1.875-0.675c0.62-0.261,1.237-0.553,1.85-0.875
	c0.61-0.321,1.235-0.679,1.875-1.075c0.648-0.39,1.307-0.815,1.975-1.275l0.051,0.025c-0.631,1.766-1.572,3.09-2.825,3.975
	c-1.253,0.87-2.686,1.445-4.3,1.725c-0.753,0.133-1.52,0.232-2.301,0.3c-0.791,0.067-1.591,0.1-2.399,0.1h-0.3l-4.926-0.075
	L197.4,123.6c-0.194-1.126-0.403-2.234-0.625-3.325l-0.65-3.275l-0.6-3.275c-0.184-1.085-0.334-2.185-0.45-3.3
	c-0.126-1.11-0.218-2.227-0.275-3.35c-0.058-1.131-0.058-2.29,0-3.475c0.067-1.181,0.192-2.381,0.375-3.6l7.775-33l0.075-0.025
	c0.227,0.576,0.409,1.176,0.55,1.8c0.152,0.613,0.261,1.247,0.325,1.9c0.051,0.656,0.067,1.332,0.05,2.025
	c-0.008,0.694-0.05,1.402-0.125,2.125c-0.083,0.72-0.191,1.454-0.325,2.2C203.366,77.776,203.208,78.534,203.025,79.3z"/>
<path style="fill-rule:evenodd;clip-rule:evenodd;fill:#060606;" d="M158.475,79.95c0.226,0.638,0.426,1.296,0.601,1.975
	c0.18,0.664,0.338,1.347,0.475,2.05c0.139,0.71,0.256,1.436,0.351,2.175c0.085,0.744,0.151,1.503,0.199,2.275
	c0.053,0.767,0.086,1.542,0.101,2.325c0.015,0.783,0.015,1.575,0,2.375c-0.018,0.797-0.051,1.597-0.101,2.4
	c-0.054,0.805-0.12,1.613-0.199,2.425c-0.071,0.819-0.154,1.636-0.25,2.45l-0.325,2.4l-0.375,2.375l-0.45,2.35l-0.475,2.25
	l-0.5,2.175L157,114.025L156.475,116l-0.55,1.825L155.4,119.5l-0.525,1.5c-0.168,0.513-0.318,1.038-0.45,1.575
	c-0.135,0.542-0.252,1.092-0.35,1.65l-0.325,1.675l-0.325,1.65c-0.121,0.554-0.271,1.095-0.45,1.625
	c-0.172,0.523-0.373,1.032-0.6,1.525c-0.467,1.007-1.142,1.915-2.025,2.725c-0.281,0.247-0.589,0.472-0.925,0.675
	c-0.35,0.207-0.725,0.391-1.125,0.55c-0.387,0.152-0.796,0.285-1.225,0.4c-0.44,0.12-0.899,0.219-1.375,0.3
	c-0.469,0.082-0.953,0.148-1.45,0.2c-0.506,0.049-1.022,0.082-1.55,0.1l-1.175,0.025l-1-0.025l-1.025-0.05l-1.625-0.1l-1.625-0.15
	l-1.6-0.2l-1.525-0.225l-1.475-0.225l-1.35-0.25l-2.325-0.425c-0.218-1.625-0.401-3.225-0.55-4.8
	c-0.15-1.568-0.275-3.109-0.375-4.625c-0.096-1.518-0.163-3.035-0.2-4.55c-0.038-1.52-0.046-3.029-0.025-4.525
	c0.017-1.496,0.066-3.004,0.15-4.525c0.092-1.523,0.217-3.048,0.375-4.575c0.154-1.523,0.345-3.073,0.575-4.65
	c0.223-1.584,0.481-3.184,0.775-4.8l5.25-22l1.25-0.175c0.403-0.065,0.803-0.148,1.2-0.25l1.2-0.35l1.175-0.425l1.175-0.45
	l1.175-0.475l1.15-0.45l1.175-0.425c0.381-0.138,0.765-0.263,1.15-0.375c0.393-0.105,0.784-0.197,1.175-0.275
	c0.38-0.087,0.764-0.154,1.15-0.2c0.391-0.038,0.783-0.054,1.175-0.05c0.413-0.004,0.821,0.021,1.225,0.075
	c0.399,0.063,0.799,0.154,1.2,0.275c0.404,0.113,0.812,0.263,1.225,0.45c0.407,0.198,0.815,0.431,1.225,0.7
	c0.521,0.332,1.013,0.698,1.475,1.1c0.449,0.401,0.865,0.835,1.25,1.3c0.394,0.47,0.76,0.97,1.1,1.5
	c0.338,0.532,0.646,1.09,0.925,1.675C157.999,78.725,158.249,79.325,158.475,79.95z"/>
<path style="fill-rule:evenodd;clip-rule:evenodd;fill:#3F3F3F;" d="M151.025,73.875l0.975,0.05l2.025,5.025L154,79l-3.025-4
	c-0.711,0.053-1.378,0.145-2,0.275c-0.624,0.137-1.199,0.312-1.725,0.525c-1.053,0.416-1.936,0.99-2.65,1.725
	c-0.716,0.733-1.283,1.634-1.7,2.7c-0.208,0.538-0.382,1.121-0.525,1.75c-0.15,0.625-0.267,1.292-0.35,2L138,84l-0.975-5.6v2.25
	l-0.075,1.3l-0.125,1.25c-0.054,0.41-0.129,0.819-0.225,1.225c-0.096,0.405-0.213,0.805-0.35,1.2c-0.144,0.4-0.319,0.8-0.525,1.2
	c-0.204,0.395-0.438,0.787-0.7,1.175l0.125-1.675l0.15-1.675c0.043-0.563,0.101-1.122,0.175-1.675
	c0.084-0.551,0.185-1.092,0.3-1.625c0.106-0.534,0.248-1.05,0.425-1.55c0.182-0.503,0.399-0.987,0.65-1.45l0.125-0.2v-0.175
	l0.025-0.05L137.05,78c0.242-0.388,0.525-0.755,0.85-1.1c0.319-0.34,0.677-0.657,1.075-0.95l0.05,0.025v6.95h1.95
	c0.056-1.878,0.323-3.428,0.8-4.65c0.492-1.238,1.201-2.196,2.125-2.875c0.918-0.668,2.051-1.11,3.4-1.325
	c0.418-0.067,0.86-0.117,1.325-0.15c0.472-0.034,0.963-0.05,1.475-0.05H151.025z"/>
<path style="fill-rule:evenodd;clip-rule:evenodd;fill:#CFCCCC;" d="M227.7,84l-0.025,1.575L227.6,87.1l-0.125,1.525l-0.199,1.45
	l-0.226,1.4c-0.091,0.441-0.19,0.866-0.3,1.275c-0.1,0.419-0.208,0.82-0.325,1.2c-0.125,0.381-0.259,0.739-0.399,1.075H226
	L225.975,73L226,72.975c0.159,0.343,0.301,0.702,0.425,1.075c0.117,0.381,0.226,0.781,0.325,1.2c0.109,0.408,0.209,0.833,0.3,1.275
	l0.226,1.4l0.199,1.45L227.6,80.9l0.075,1.525L227.7,84z"/>
<path style="fill-rule:evenodd;clip-rule:evenodd;fill:#949494;" d="M133,81.025L132.975,75L133,74.975
	c0.14,0.291,0.257,0.566,0.35,0.825l0.225,0.775c0.118,0.488,0.176,0.963,0.175,1.425c0.001,0.461-0.057,0.937-0.175,1.425
	L133.35,80.2l-0.325,0.825H133z"/>
<path style="fill-rule:evenodd;clip-rule:evenodd;fill:#6E6E6E;" d="M161,88.975l0.1,2.25l0.025,2.275l-0.025,2.275l-0.1,2.25
	l-0.175,2.175c-0.064,0.71-0.14,1.402-0.226,2.075c-0.088,0.683-0.188,1.341-0.3,1.975c-0.105,0.621-0.223,1.212-0.35,1.775
	c-0.13,0.578-0.271,1.119-0.425,1.625c-0.156,0.498-0.323,0.956-0.5,1.375H159L158.975,78L159,77.975
	c0.194,0.426,0.37,0.885,0.525,1.375c0.153,0.506,0.295,1.047,0.425,1.625c0.127,0.563,0.244,1.154,0.35,1.775
	c0.111,0.625,0.212,1.275,0.3,1.95c0.086,0.681,0.161,1.381,0.226,2.1L161,88.975z"/>
<path style="fill-rule:evenodd;clip-rule:evenodd;fill:#3F3F3F;" d="M158.1,92.325l-0.024,1.65l-0.101,1.675l-0.149,1.675l-0.2,1.65
	l-0.225,1.65l-0.275,1.6l-0.3,1.55l-0.325,1.475l-0.35,1.4l-0.4,1.325l-0.4,1.2l-0.425,1.1c-0.147,0.341-0.297,0.657-0.45,0.95
	c-0.148,0.292-0.298,0.559-0.45,0.8H154L153.975,112c0.093-1.366,0.202-2.724,0.325-4.075c0.12-1.342,0.253-2.667,0.4-3.975
	l0.425-3.95l0.375-3.925c0.117-1.298,0.2-2.606,0.25-3.925c0.042-1.323,0.05-2.648,0.025-3.975
	c-0.017-1.321-0.092-2.663-0.225-4.025c-0.135-1.373-0.327-2.756-0.575-4.15l0.05-0.025c0.23,0.206,0.447,0.439,0.65,0.7
	c0.207,0.258,0.398,0.542,0.575,0.85c0.171,0.302,0.329,0.626,0.475,0.975c0.147,0.354,0.28,0.729,0.4,1.125
	c0.119,0.398,0.228,0.815,0.325,1.25c0.104,0.434,0.195,0.884,0.274,1.35l0.176,1.425l0.125,1.5l0.074,1.575V92.325z"/>
<path style="fill-rule:evenodd;clip-rule:evenodd;fill:#3F3F3F;" d="M279,93.025L278.975,87L279,86.975
	c0.14,0.291,0.257,0.566,0.35,0.825l0.226,0.775c0.117,0.488,0.176,0.963,0.175,1.425c0.001,0.461-0.058,0.937-0.175,1.425
	L279.35,92.2l-0.324,0.825H279z"/>
<path style="fill-rule:evenodd;clip-rule:evenodd;fill:#3F3F3F;" d="M133,95.025L132.975,89L133,88.975
	c0.14,0.291,0.257,0.566,0.35,0.825l0.225,0.775c0.118,0.488,0.176,0.963,0.175,1.425c0.001,0.461-0.057,0.937-0.175,1.425
	L133.35,94.2l-0.325,0.825H133z"/>
<path style="fill-rule:evenodd;clip-rule:evenodd;fill:#3F3F3F;" d="M222.525,105.425c-0.074,0.82-0.183,1.637-0.325,2.45
	c-0.14,0.812-0.315,1.612-0.525,2.4c-0.208,0.793-0.45,1.568-0.725,2.325c-0.273,0.752-0.582,1.477-0.925,2.175
	c-0.343,0.691-0.718,1.349-1.125,1.975c-0.824,1.271-1.782,2.362-2.875,3.275l1.199-3.4c0.386-1.099,0.735-2.166,1.051-3.2
	c0.32-1.035,0.611-2.068,0.875-3.1c0.256-1.026,0.481-2.042,0.675-3.05c0.201-1.013,0.376-2.046,0.524-3.1
	c0.144-1.053,0.261-2.12,0.351-3.2c0.089-1.082,0.155-2.207,0.2-3.375c0.048-1.165,0.072-2.365,0.074-3.6L221,93.975
	c0.293,0.659,0.543,1.342,0.75,2.05c0.201,0.707,0.368,1.44,0.5,2.2c0.134,0.758,0.233,1.533,0.3,2.325
	c0.06,0.797,0.084,1.605,0.075,2.425C222.626,103.79,222.593,104.606,222.525,105.425z"/>
<path style="fill-rule:evenodd;clip-rule:evenodd;fill:#3F3F3F;" d="M193.875,107.125L193.9,109l-0.025,1.875l-0.1,1.875l-0.15,1.8
	l-0.2,1.725c-0.073,0.568-0.156,1.118-0.25,1.65c-0.099,0.53-0.207,1.039-0.325,1.525c-0.114,0.476-0.239,0.926-0.375,1.35
	c-0.14,0.438-0.29,0.846-0.449,1.225H192L191.975,96L192,95.975c0.177,0.386,0.335,0.794,0.475,1.225
	c0.136,0.423,0.261,0.873,0.375,1.35c0.118,0.487,0.227,0.995,0.325,1.525c0.094,0.532,0.177,1.082,0.25,1.65l0.2,1.725l0.15,1.8
	L193.875,107.125z"/>
<path style="fill-rule:evenodd;clip-rule:evenodd;fill:#6E6E6E;" d="M224,112.025L223.975,96L224,95.975
	c0.245,0.562,0.453,1.153,0.625,1.775c0.17,0.617,0.312,1.267,0.425,1.95c0.112,0.694,0.195,1.402,0.25,2.125
	c0.062,0.716,0.096,1.441,0.101,2.175c-0.005,0.734-0.039,1.459-0.101,2.175c-0.055,0.723-0.138,1.432-0.25,2.125
	c-0.113,0.684-0.255,1.334-0.425,1.95c-0.173,0.629-0.372,1.221-0.6,1.775H224z"/>
<path style="fill-rule:evenodd;clip-rule:evenodd;fill:#3F3F3F;" d="M127,111.025L126.975,100L127,99.975
	c0.198,0.438,0.364,0.879,0.5,1.325c0.14,0.451,0.256,0.909,0.35,1.375c0.089,0.462,0.156,0.929,0.2,1.4
	c0.04,0.474,0.056,0.949,0.05,1.425c0.006,0.476-0.011,0.951-0.05,1.425c-0.044,0.471-0.111,0.938-0.2,1.4
	c-0.094,0.466-0.21,0.924-0.35,1.375c-0.137,0.452-0.295,0.894-0.475,1.325H127z"/>
<path style="fill-rule:evenodd;clip-rule:evenodd;fill:#CFCCCC;" d="M279,107.025L278.975,101l0.025-0.025
	c0.14,0.291,0.257,0.566,0.35,0.825l0.226,0.775c0.117,0.488,0.176,0.963,0.175,1.425c0.001,0.461-0.058,0.937-0.175,1.425
	l-0.226,0.775l-0.324,0.825H279z"/>
<path style="fill-rule:evenodd;clip-rule:evenodd;fill:#3F3F3F;" d="M130,112.025L129.975,102l0.025-0.025
	c0.695,1.634,1.045,3.309,1.05,5.025c-0.006,1.722-0.348,3.397-1.025,5.025H130z"/>
<path style="fill-rule:evenodd;clip-rule:evenodd;fill:#6E6E6E;" d="M284,114.025L283.975,108l0.025-0.025
	c0.14,0.291,0.257,0.566,0.35,0.825l0.226,0.775c0.117,0.488,0.176,0.963,0.175,1.425c0.001,0.461-0.058,0.937-0.175,1.425
	l-0.226,0.775l-0.324,0.825H284z"/>
<path style="fill-rule:evenodd;clip-rule:evenodd;fill:#6E6E6E;" d="M281,115.025L280.975,109l0.025-0.025
	c0.14,0.291,0.257,0.566,0.35,0.825l0.226,0.775c0.117,0.488,0.176,0.963,0.175,1.425c0.001,0.461-0.058,0.937-0.175,1.425
	l-0.226,0.775l-0.324,0.825H281z"/>
<path style="fill-rule:evenodd;clip-rule:evenodd;fill:#949494;" d="M125,126.025L124.975,112l0.025-0.025
	c0.226,0.514,0.418,1.047,0.575,1.6c0.159,0.552,0.292,1.127,0.4,1.725c0.1,0.599,0.175,1.207,0.225,1.825
	c0.051,0.619,0.076,1.244,0.075,1.875c0.001,0.631-0.024,1.256-0.075,1.875c-0.05,0.619-0.125,1.227-0.225,1.825
	c-0.107,0.597-0.241,1.172-0.4,1.725c-0.158,0.56-0.342,1.093-0.55,1.6H125z"/>
<path style="fill-rule:evenodd;clip-rule:evenodd;fill:#3F3F3F;" d="M152.225,116.5c0.305-0.664,0.605-1.289,0.9-1.875
	c0.291-0.593,0.574-1.143,0.85-1.65l0.05,0.025c0.093,0.532,0.152,1.082,0.175,1.65c0.01,0.578-0.015,1.169-0.075,1.775
	c-0.047,0.599-0.122,1.207-0.225,1.825c-0.115,0.628-0.256,1.261-0.425,1.9c-0.163,0.631-0.346,1.265-0.55,1.9
	c-0.198,0.636-0.414,1.269-0.65,1.9c-0.245,0.63-0.503,1.255-0.775,1.875c-0.272,0.618-0.556,1.227-0.85,1.825
	c-0.286,0.606-0.577,1.198-0.875,1.775c-0.305,0.568-0.613,1.118-0.925,1.65l-0.925,1.55c-0.304,0.492-0.604,0.959-0.9,1.4H147
	l-17-2L129.975,132l1-4l0.05-0.025c1.606,1.798,3.106,3.082,4.5,3.85c1.271,0.709,2.463,1.067,3.575,1.075l0.3-0.025
	c1.199-0.064,2.316-0.447,3.35-1.15c1.029-0.71,1.987-1.644,2.875-2.8c0.447-0.583,0.88-1.2,1.3-1.85
	c0.425-0.646,0.833-1.321,1.225-2.025c0.385-0.707,0.76-1.424,1.125-2.15c0.363-0.721,0.713-1.445,1.05-2.175L152.225,116.5z"/>
<path style="fill-rule:evenodd;clip-rule:evenodd;fill:#3F3F3F;" d="M128,126.025L127.975,114l0.025-0.025
	c0.208,0.466,0.382,0.941,0.525,1.425c0.141,0.479,0.258,0.971,0.35,1.475c0.099,0.51,0.173,1.027,0.225,1.55
	c0.049,0.522,0.074,1.047,0.075,1.575c-0.001,0.528-0.026,1.053-0.075,1.575c-0.052,0.523-0.126,1.04-0.225,1.55
	c-0.092,0.504-0.209,0.996-0.35,1.475c-0.143,0.49-0.31,0.965-0.5,1.425H128z"/>
<path style="fill-rule:evenodd;clip-rule:evenodd;fill:#3F3F3F;" d="M154,127.025L153.975,120l0.025-0.025
	c0.15,0.33,0.275,0.646,0.375,0.95c0.1,0.299,0.183,0.591,0.25,0.875c0.066,0.285,0.117,0.568,0.15,0.85
	c0.033,0.287,0.05,0.57,0.05,0.85c0,0.28-0.017,0.563-0.05,0.85c-0.033,0.282-0.083,0.565-0.15,0.85
	c-0.067,0.283-0.15,0.575-0.25,0.875c-0.101,0.311-0.217,0.627-0.35,0.95H154z"/>
<path style="fill-rule:evenodd;clip-rule:evenodd;fill:#B4B4B4;" d="M284.375,129.075c-0.101,0.311-0.217,0.627-0.35,0.95H284
	L283.975,123l0.025-0.025c0.15,0.33,0.275,0.646,0.375,0.95c0.1,0.299,0.184,0.591,0.25,0.875c0.066,0.285,0.116,0.568,0.15,0.85
	c0.033,0.287,0.05,0.57,0.05,0.85s-0.017,0.563-0.05,0.85c-0.034,0.282-0.084,0.565-0.15,0.85
	C284.559,128.483,284.475,128.775,284.375,129.075z"/>
<path style="fill-rule:evenodd;clip-rule:evenodd;fill:#949494;" d="M205.025,128.675c0.671-0.004,1.338,0.013,2,0.05
	c0.667,0.038,1.326,0.096,1.975,0.175c0.71,0.091,1.401,0.225,2.075,0.4c0.673,0.176,1.322,0.393,1.95,0.65V130l-2.101,0.05
	l-2.149,0.1l-2.2,0.1l-2.226,0.05h-0.375c-0.671,0.004-1.338-0.012-2-0.05c-0.667-0.047-1.326-0.114-1.975-0.2
	c-0.71-0.091-1.401-0.225-2.075-0.4c-0.673-0.168-1.323-0.376-1.95-0.625v-0.05l2.101-0.075l2.149-0.1l2.2-0.075l2.226-0.05H205.025
	z"/>
<path style="fill-rule:evenodd;clip-rule:evenodd;fill:#4F4F4F;" d="M286,140.025L284.975,130l0.051-0.025
	c0.289,0.384,0.547,0.775,0.774,1.175c0.225,0.386,0.416,0.778,0.575,1.175c0.155,0.411,0.28,0.827,0.375,1.25
	c0.098,0.414,0.164,0.83,0.2,1.25c0.036,0.421,0.045,0.846,0.024,1.275c-0.021,0.432-0.071,0.865-0.149,1.3
	c-0.081,0.431-0.189,0.864-0.325,1.3c-0.132,0.442-0.29,0.883-0.475,1.325H286z"/>
<path style="fill-rule:evenodd;clip-rule:evenodd;fill:#3F3F3F;" d="M140.7,134.6c0.688,0.004,1.372,0.029,2.05,0.075
	c0.685,0.038,1.36,0.096,2.025,0.175c0.754,0.098,1.488,0.239,2.2,0.425c0.709,0.182,1.393,0.407,2.05,0.675V136l-2.2,0.05
	l-2.275,0.1l-2.35,0.125l-2.35,0.05h-0.55c-0.688,0.004-1.372-0.013-2.05-0.05c-0.685-0.038-1.36-0.096-2.025-0.175
	c-0.755-0.098-1.488-0.239-2.2-0.425c-0.709-0.182-1.393-0.407-2.05-0.675v-0.05l2.2-0.05l2.275-0.125l2.35-0.1l2.35-0.05
	L140.7,134.6z"/>
<path style="fill-rule:evenodd;clip-rule:evenodd;fill:#949494;" d="M289,158.025L288.975,148l0.025-0.025
	c0.695,1.634,1.045,3.309,1.05,5.025c-0.006,1.722-0.348,3.397-1.024,5.025H289z"/>
<path style="fill-rule:evenodd;clip-rule:evenodd;fill:#B4B4B4;" d="M57,160.025L56.975,154L57,153.975
	c0.14,0.291,0.257,0.566,0.35,0.825l0.225,0.775c0.118,0.488,0.176,0.963,0.175,1.425c0.001,0.461-0.057,0.937-0.175,1.425
	L57.35,159.2l-0.325,0.825H57z"/>
<path style="fill-rule:evenodd;clip-rule:evenodd;fill:#6E6E6E;" d="M52,169.025L51.975,163L52,162.975
	c0.14,0.291,0.257,0.566,0.35,0.825l0.225,0.775c0.118,0.488,0.176,0.963,0.175,1.425c0.001,0.461-0.057,0.937-0.175,1.425
	L52.35,168.2l-0.325,0.825H52z"/>
<path style="fill-rule:evenodd;clip-rule:evenodd;fill:#CFCCCC;" d="M292,174.025L291.975,164l0.025-0.025
	c0.695,1.634,1.045,3.309,1.05,5.025c-0.006,1.722-0.348,3.397-1.024,5.025H292z"/>
<path style="fill-rule:evenodd;clip-rule:evenodd;fill:#B4B4B4;" d="M299,190.025L298.975,184l0.025-0.025
	c0.14,0.291,0.257,0.566,0.35,0.825l0.226,0.775c0.117,0.488,0.176,0.963,0.175,1.425c0.001,0.461-0.058,0.937-0.175,1.425
	l-0.226,0.775l-0.324,0.825H299z"/>
<path style="fill-rule:evenodd;clip-rule:evenodd;fill:#060606;" d="M124.1,187.975c1.911-0.008,3.803,0.026,5.675,0.1
	c1.883,0.084,3.733,0.209,5.55,0.375c1.819,0.162,3.627,0.37,5.425,0.625c1.807,0.255,3.59,0.555,5.35,0.9
	c1.76,0.35,3.518,0.75,5.275,1.2c1.756,0.445,3.498,0.936,5.225,1.475c1.725,0.545,3.458,1.145,5.2,1.8
	c1.746,0.649,3.487,1.349,5.226,2.1l2.125,0.925l2.25,1c0.769,0.35,1.526,0.725,2.274,1.125c0.741,0.394,1.466,0.811,2.175,1.25
	c1.429,0.886,2.688,1.911,3.775,3.075c1.09,1.176,1.89,2.534,2.4,4.075L182,208.025c-0.896-0.178-1.779-0.386-2.65-0.625
	c-0.866-0.237-1.716-0.504-2.55-0.8c-0.84-0.304-1.673-0.628-2.5-0.975c-0.82-0.339-1.628-0.697-2.425-1.075
	c-0.802-0.379-1.602-0.771-2.4-1.175c-0.799-0.407-1.59-0.823-2.375-1.25l-4.699-2.6l-2.375-1.275l-2.4-1.225
	c-0.797-0.407-1.605-0.798-2.425-1.175c-0.819-0.376-1.645-0.734-2.475-1.075c-0.842-0.333-1.701-0.641-2.575-0.925
	c-0.865-0.286-1.74-0.544-2.625-0.775c-0.888-0.235-1.796-0.435-2.725-0.6c-0.927-0.168-1.869-0.302-2.825-0.4L140.95,192
	l-1.125-0.05l-2.425-0.05l-1.3-0.05l-1.3-0.05l-1.325-0.075l-1.3-0.1l-1.3-0.175l-1.25-0.225c-0.403-0.078-0.795-0.17-1.175-0.275
	c-0.381-0.112-0.748-0.237-1.1-0.375c-0.358-0.141-0.7-0.299-1.025-0.475c-0.328-0.175-0.636-0.366-0.925-0.575
	c-0.281-0.211-0.539-0.444-0.775-0.7c-0.241-0.247-0.458-0.513-0.65-0.8l0.025-0.05H124.1z"/>
<path style="fill-rule:evenodd;clip-rule:evenodd;fill:#949494;" d="M298.175,195.85c0.163,0.755,0.313,1.555,0.45,2.4
	c0.139,0.845,0.264,1.728,0.375,2.65c0.105,0.921,0.196,1.872,0.275,2.85c0.08,0.978,0.146,1.978,0.199,3
	c0.056,1.021,0.098,2.055,0.125,3.1c0.031,1.045,0.048,2.095,0.051,3.15c-0.003,1.054-0.02,2.104-0.051,3.15
	c-0.027,1.045-0.069,2.079-0.125,3.1c-0.053,1.021-0.119,2.021-0.199,3c-0.079,0.978-0.17,1.928-0.275,2.85
	c-0.111,0.922-0.236,1.805-0.375,2.65c-0.137,0.844-0.287,1.644-0.45,2.4c-0.16,0.756-0.336,1.456-0.524,2.1
	c-0.196,0.652-0.404,1.244-0.625,1.775H297L296.975,192l0.025-0.025c0.238,0.538,0.455,1.13,0.65,1.775
	C297.839,194.394,298.015,195.094,298.175,195.85z"/>
<path style="fill-rule:evenodd;clip-rule:evenodd;fill:#3F3F3F;" d="M301.15,195.75c0.163,0.74,0.312,1.523,0.449,2.35
	c0.131,0.829,0.247,1.696,0.351,2.6c0.113,0.897,0.213,1.822,0.3,2.775c0.081,0.954,0.147,1.929,0.2,2.925
	c0.046,0.997,0.079,2.005,0.1,3.025c0.03,1.021,0.047,2.045,0.05,3.075c-0.003,1.03-0.02,2.055-0.05,3.075
	c-0.021,1.02-0.054,2.028-0.1,3.025c-0.053,0.996-0.119,1.971-0.2,2.925c-0.087,0.953-0.187,1.877-0.3,2.775
	c-0.104,0.904-0.22,1.771-0.351,2.6c-0.137,0.827-0.286,1.61-0.449,2.35c-0.161,0.737-0.337,1.421-0.525,2.05
	c-0.188,0.634-0.388,1.208-0.6,1.725H300L299.975,192l0.025-0.025c0.23,0.523,0.438,1.099,0.625,1.725
	C300.813,194.329,300.989,195.013,301.15,195.75z"/>
<path style="fill-rule:evenodd;clip-rule:evenodd;fill:#CFCCCC;" d="M49,202.025L48.975,196L49,195.975
	c0.14,0.291,0.257,0.566,0.35,0.825l0.225,0.775c0.118,0.488,0.176,0.963,0.175,1.425c0.001,0.461-0.057,0.937-0.175,1.425
	L49.35,201.2l-0.325,0.825H49z"/>
<path style="fill-rule:evenodd;clip-rule:evenodd;fill:#B4B4B4;" d="M44,238.025L43.975,223L44,222.975
	c0.236,0.533,0.436,1.092,0.6,1.675c0.169,0.588,0.311,1.205,0.425,1.85c0.102,0.646,0.177,1.304,0.225,1.975
	c0.061,0.668,0.094,1.343,0.1,2.025c-0.006,0.682-0.039,1.357-0.1,2.025c-0.048,0.671-0.123,1.329-0.225,1.975
	c-0.114,0.644-0.255,1.261-0.425,1.85c-0.165,0.59-0.357,1.148-0.575,1.675H44z"/>
<path style="fill-rule:evenodd;clip-rule:evenodd;fill:#4F4F4F;" d="M300.275,246.575l-0.101,2.2l-0.1,2.175l-0.05,2.05l0.05,2.575
	l0.125,2.75l0.175,2.899l0.225,3l0.476,6.25l0.2,3.226l0.175,3.2c0.055,1.069,0.096,2.136,0.125,3.199
	c0.021,1.069,0.029,2.127,0.024,3.176c-0.005,1.045-0.03,2.078-0.074,3.1c-0.039,1.026-0.098,2.035-0.176,3.025
	c-0.081,0.979-0.189,1.937-0.324,2.875c-0.133,0.942-0.291,1.859-0.476,2.75c-0.191,0.896-0.416,1.762-0.675,2.6
	c-0.252,0.835-0.535,1.635-0.85,2.4H299L298.975,236l0.025-0.025c0.274,0.634,0.499,1.284,0.675,1.95
	c0.176,0.673,0.309,1.365,0.4,2.075c0.091,0.706,0.157,1.422,0.2,2.15c0.041,0.728,0.058,1.461,0.05,2.2L300.275,246.575z"/>
<path style="fill-rule:evenodd;clip-rule:evenodd;fill:#6E6E6E;" d="M303.275,247.575l-0.101,2.2l-0.1,2.175l-0.05,2.05l0.05,2.475
	l0.125,2.625l0.175,2.775l0.2,2.875l0.45,6l0.199,3.05l0.15,3.075c0.046,1.027,0.079,2.053,0.1,3.075
	c0.021,1.018,0.03,2.025,0.025,3.024c0.002,1.003-0.015,1.994-0.05,2.976c-0.048,0.976-0.114,1.934-0.2,2.875
	c-0.074,0.944-0.175,1.869-0.3,2.774c-0.134,0.909-0.292,1.792-0.476,2.65c-0.176,0.853-0.384,1.678-0.625,2.475
	c-0.244,0.8-0.52,1.566-0.824,2.301H302L301.975,237l0.025-0.025c0.274,0.634,0.499,1.284,0.675,1.95
	c0.176,0.673,0.309,1.365,0.4,2.075c0.091,0.706,0.157,1.422,0.2,2.15c0.041,0.728,0.058,1.46,0.05,2.2L303.275,247.575z"/>
<path style="fill-rule:evenodd;clip-rule:evenodd;fill:#4F4F4F;" d="M39,248.025l-0.025-6.05L39,241.95
	c0.14,0.299,0.257,0.583,0.35,0.85l0.225,0.75c0.118,0.488,0.176,0.964,0.175,1.425c0.001,0.462-0.057,0.937-0.175,1.426
	l-0.225,0.774L39.025,248L39,248.025z"/>
<path style="fill-rule:evenodd;clip-rule:evenodd;fill:#6E6E6E;" d="M42,248.025L41.975,242L42,241.975
	c0.14,0.291,0.257,0.566,0.35,0.825l0.225,0.775c0.118,0.488,0.176,0.963,0.175,1.425c0.001,0.462-0.057,0.937-0.175,1.425
	L42.35,247.2l-0.325,0.825H42z"/>
<path style="fill-rule:evenodd;clip-rule:evenodd;fill:#B4B4B4;" d="M37,258.025L36.975,251L37,250.975
	c0.15,0.33,0.275,0.646,0.375,0.95c0.1,0.3,0.183,0.591,0.25,0.875c0.066,0.285,0.117,0.568,0.15,0.851
	c0.033,0.286,0.05,0.57,0.05,0.85c0,0.28-0.017,0.563-0.05,0.85c-0.033,0.282-0.083,0.565-0.15,0.851
	c-0.067,0.283-0.15,0.575-0.25,0.875c-0.101,0.311-0.217,0.627-0.35,0.95H37z"/>
<path style="fill-rule:evenodd;clip-rule:evenodd;fill:#CFCCCC;" d="M41,259.025L40.975,251L41,250.975
	c0.169,0.359,0.311,0.71,0.425,1.051c0.11,0.338,0.202,0.672,0.275,1c0.068,0.333,0.118,0.667,0.15,1
	c0.035,0.327,0.052,0.652,0.05,0.975c0.002,0.322-0.015,0.647-0.05,0.975c-0.032,0.333-0.082,0.667-0.15,1
	c-0.074,0.329-0.165,0.662-0.275,1c-0.115,0.349-0.249,0.698-0.4,1.051H41z"/>
<path style="fill-rule:evenodd;clip-rule:evenodd;fill:#3F3F3F;" d="M38.125,270.675c0.071,0.881,0.13,1.781,0.175,2.7
	c0.055,0.923,0.096,1.856,0.125,2.8c0.021,0.938,0.03,1.88,0.025,2.825c0.004,0.945-0.004,1.888-0.025,2.825
	c-0.029,0.944-0.07,1.877-0.125,2.8c-0.045,0.919-0.104,1.819-0.175,2.7c-0.079,0.883-0.171,1.741-0.275,2.575
	c-0.096,0.833-0.204,1.633-0.325,2.399c-0.129,0.764-0.271,1.489-0.425,2.175c-0.153,0.69-0.32,1.332-0.5,1.926
	c-0.18,0.594-0.371,1.136-0.575,1.625H36L35.975,260L36,259.975c0.222,0.496,0.421,1.038,0.6,1.625
	c0.18,0.594,0.347,1.235,0.5,1.926c0.154,0.686,0.295,1.41,0.425,2.175c0.121,0.766,0.229,1.566,0.325,2.399
	C37.954,268.934,38.046,269.792,38.125,270.675z"/>
<path style="fill-rule:evenodd;clip-rule:evenodd;fill:#949494;" d="M41.125,271.675c0.071,0.881,0.13,1.781,0.175,2.7
	c0.055,0.923,0.096,1.856,0.125,2.8c0.021,0.938,0.03,1.88,0.025,2.825c0.004,0.945-0.004,1.888-0.025,2.825
	c-0.029,0.944-0.07,1.877-0.125,2.8c-0.045,0.919-0.104,1.819-0.175,2.7c-0.079,0.883-0.171,1.741-0.275,2.575
	c-0.096,0.833-0.204,1.633-0.325,2.399c-0.129,0.764-0.271,1.489-0.425,2.175c-0.153,0.69-0.32,1.332-0.5,1.926
	c-0.18,0.594-0.371,1.136-0.575,1.625H39L38.975,261L39,260.975c0.222,0.496,0.421,1.038,0.6,1.625
	c0.18,0.594,0.347,1.235,0.5,1.926c0.154,0.686,0.295,1.41,0.425,2.175c0.121,0.766,0.229,1.566,0.325,2.399
	C40.954,269.934,41.046,270.792,41.125,271.675z"/>
<path style="fill-rule:evenodd;clip-rule:evenodd;fill:#CFCCCC;" d="M300,320.025L299.975,302l0.025-0.025
	c0.264,0.6,0.488,1.241,0.675,1.926c0.182,0.697,0.331,1.438,0.45,2.225c0.122,0.773,0.214,1.565,0.275,2.375
	c0.063,0.82,0.097,1.653,0.1,2.5c-0.003,0.847-0.036,1.68-0.1,2.5c-0.062,0.81-0.153,1.602-0.275,2.375
	c-0.119,0.786-0.269,1.527-0.45,2.225c-0.187,0.691-0.403,1.333-0.649,1.926H300z"/>
<path style="fill-rule:evenodd;clip-rule:evenodd;fill:#3F3F3F;" d="M37,315.025L36.975,303L37,302.975
	c0.208,0.467,0.382,0.941,0.525,1.426c0.141,0.479,0.258,0.971,0.35,1.475c0.099,0.511,0.173,1.027,0.225,1.55
	c0.049,0.522,0.074,1.048,0.075,1.575c-0.001,0.528-0.026,1.053-0.075,1.575c-0.052,0.523-0.126,1.04-0.225,1.55
	c-0.092,0.504-0.209,0.995-0.35,1.475c-0.143,0.49-0.31,0.966-0.5,1.426H37z"/>
<path style="fill-rule:evenodd;clip-rule:evenodd;fill:#4F4F4F;" d="M32.575,318.4L32.5,319.8l-0.125,1.375l-0.175,1.3L32,323.75
	l-0.275,1.175c-0.101,0.383-0.208,0.75-0.325,1.101c-0.117,0.352-0.242,0.685-0.375,1H31L30.975,307L31,306.975
	c0.15,0.322,0.284,0.655,0.4,1c0.117,0.351,0.225,0.718,0.325,1.101L32,310.25l0.2,1.275l0.175,1.3L32.5,314.2l0.075,1.399L32.6,317
	L32.575,318.4z"/>
<path style="fill-rule:evenodd;clip-rule:evenodd;fill:#6E6E6E;" d="M34.525,326.6c-0.143,0.491-0.31,0.966-0.5,1.426H34L33.975,316
	L34,315.975c0.208,0.467,0.382,0.941,0.525,1.426c0.141,0.479,0.258,0.971,0.35,1.475c0.099,0.511,0.173,1.027,0.225,1.55
	c0.049,0.522,0.074,1.047,0.075,1.575c-0.001,0.528-0.026,1.053-0.075,1.575c-0.052,0.523-0.126,1.04-0.225,1.55
	C34.783,325.629,34.666,326.12,34.525,326.6z"/>
<path style="fill-rule:evenodd;clip-rule:evenodd;fill:#B4B4B4;" d="M297,342.025L296.975,331l0.025-0.025
	c0.198,0.438,0.364,0.88,0.5,1.325c0.14,0.451,0.256,0.909,0.35,1.375c0.09,0.462,0.156,0.929,0.2,1.4
	c0.039,0.474,0.056,0.948,0.05,1.425c0.006,0.477-0.011,0.951-0.05,1.425c-0.044,0.472-0.11,0.938-0.2,1.4
	c-0.094,0.466-0.21,0.924-0.35,1.375c-0.137,0.452-0.295,0.894-0.475,1.325H297z"/>
<path style="fill-rule:evenodd;clip-rule:evenodd;fill:#3F3F3F;" d="M300,344.025L299.975,332l0.025-0.025
	c0.207,0.467,0.382,0.941,0.525,1.426c0.141,0.479,0.257,0.971,0.35,1.475c0.099,0.511,0.174,1.027,0.225,1.55
	c0.049,0.522,0.074,1.048,0.075,1.575c-0.001,0.528-0.026,1.053-0.075,1.575c-0.051,0.523-0.126,1.04-0.225,1.55
	c-0.093,0.504-0.209,0.995-0.35,1.475c-0.144,0.49-0.311,0.966-0.5,1.426H300z"/>
<path style="fill-rule:evenodd;clip-rule:evenodd;fill:#3F3F3F;" d="M30.05,344.325l0.1,2.325l0.025,2.35l-0.025,2.35l-0.1,2.325
	l-0.175,2.25c-0.064,0.744-0.139,1.47-0.225,2.175c-0.088,0.692-0.188,1.359-0.3,2c-0.114,0.647-0.239,1.265-0.375,1.851
	c-0.138,0.588-0.289,1.138-0.45,1.649c-0.156,0.517-0.322,0.991-0.5,1.426H28L27.975,333L28,332.975
	c0.195,0.441,0.37,0.916,0.525,1.426c0.162,0.512,0.312,1.062,0.45,1.649c0.136,0.586,0.261,1.203,0.375,1.851
	c0.112,0.64,0.211,1.307,0.3,2c0.086,0.705,0.161,1.43,0.225,2.175L30.05,344.325z"/>
<path style="fill-rule:evenodd;clip-rule:evenodd;fill:#B4B4B4;" d="M299,352.025L298.975,345l0.025-0.025
	c0.15,0.33,0.275,0.646,0.375,0.95c0.1,0.3,0.184,0.591,0.25,0.875c0.066,0.285,0.116,0.568,0.15,0.851
	c0.033,0.286,0.05,0.57,0.05,0.85c0,0.28-0.017,0.563-0.05,0.85c-0.034,0.282-0.084,0.565-0.15,0.851
	c-0.066,0.283-0.15,0.575-0.25,0.875c-0.101,0.311-0.217,0.627-0.35,0.95H299z"/>
<path style="fill-rule:evenodd;clip-rule:evenodd;fill:#FFFFFF;" d="M88.725,351.4c1.161-0.882,2.578-1.356,4.25-1.426l5.025,16
	l14,2L112.025,405L84,408.025h-0.025L83.95,391l0.05-0.025c0.349,0.068,0.69,0.118,1.025,0.15c0.326,0.035,0.643,0.052,0.95,0.05
	c0.549,0.004,1.074-0.046,1.575-0.149c0.527-0.115,1.043-0.266,1.55-0.45c0.514-0.192,1.014-0.417,1.5-0.675l3.025-1.575
	c0.509-0.273,1.042-0.523,1.6-0.75c0.554-0.226,1.129-0.426,1.725-0.601v-1.949c-0.43-0.08-0.846-0.139-1.25-0.176
	c-0.407-0.046-0.799-0.071-1.175-0.074c-0.473-0.001-0.922,0.032-1.35,0.1c-0.558,0.091-1.1,0.225-1.625,0.4
	c-0.529,0.175-1.037,0.392-1.525,0.649c-0.482,0.249-0.965,0.523-1.45,0.825c-0.486,0.309-0.969,0.643-1.45,1l-1.5,1.125L84,390.025
	L83.95,390l-0.05-2.1l-0.125-2.5l-0.3-5.851l-0.125-3.225l-0.075-3.3c-0.012-1.12-0.003-2.237,0.025-3.351
	c0.021-1.111,0.063-2.211,0.125-3.3c0.069-1.093,0.168-2.16,0.3-3.2c0.135-1.034,0.302-2.034,0.5-3c0.19-0.968,0.423-1.885,0.7-2.75
	c0.284-0.866,0.609-1.674,0.975-2.425C86.628,353.489,87.57,352.289,88.725,351.4z"/>
<path style="fill-rule:evenodd;clip-rule:evenodd;fill:#3F3F3F;" d="M97,357.025L96.975,351L97,350.975
	c0.14,0.292,0.257,0.566,0.35,0.825l0.225,0.775c0.118,0.488,0.176,0.963,0.175,1.425c0.001,0.462-0.057,0.937-0.175,1.425
	L97.35,356.2l-0.325,0.825H97z"/>
<path style="fill-rule:evenodd;clip-rule:evenodd;fill:#CFCCCC;" d="M140,362.025L139.975,351l0.025-0.025
	c0.198,0.438,0.364,0.88,0.5,1.325c0.14,0.451,0.256,0.909,0.35,1.375c0.089,0.462,0.156,0.929,0.2,1.4
	c0.04,0.474,0.056,0.948,0.05,1.425c0.006,0.477-0.011,0.951-0.05,1.425c-0.044,0.472-0.111,0.938-0.2,1.4
	c-0.094,0.466-0.21,0.924-0.35,1.375c-0.137,0.452-0.295,0.894-0.475,1.325H140z"/>
<path style="fill-rule:evenodd;clip-rule:evenodd;fill:#6E6E6E;" d="M219.975,350.975c0.392-0.008,0.783,0.001,1.176,0.025
	c0.385,0.034,0.769,0.084,1.149,0.15c0.45,0.08,0.9,0.188,1.351,0.324c0.462,0.132,0.92,0.29,1.375,0.476V352H214l-0.025-0.025
	c0.474-0.154,0.939-0.287,1.4-0.399c0.459-0.113,0.917-0.213,1.375-0.3c0.465-0.085,0.932-0.151,1.4-0.2
	c0.46-0.052,0.918-0.085,1.375-0.101H219.975z"/>
<path style="fill-rule:evenodd;clip-rule:evenodd;fill:#3F3F3F;" d="M84,365.025L83.975,352L84,351.975
	c0.217,0.487,0.4,0.987,0.55,1.5c0.15,0.524,0.275,1.066,0.375,1.625c0.1,0.551,0.174,1.109,0.225,1.676
	c0.05,0.57,0.075,1.146,0.075,1.725c0,0.579-0.025,1.154-0.075,1.725c-0.051,0.566-0.125,1.125-0.225,1.676
	c-0.1,0.559-0.225,1.1-0.375,1.625c-0.15,0.521-0.326,1.021-0.525,1.5H84z"/>
<path style="fill-rule:evenodd;clip-rule:evenodd;fill:#FFFFFF;" d="M229.85,365.95c0.841,3.78,1.416,7.647,1.726,11.6
	c0.144,1.968,0.252,3.942,0.325,5.925c0.086,1.982,0.136,3.957,0.149,5.926v5.85l-0.024,5.75L198,405.025l-0.025-0.051
	c0.291-1.565,0.558-3.124,0.801-4.675c0.251-1.561,0.476-3.102,0.675-4.625c0.195-1.515,0.37-3.031,0.524-4.55
	c0.147-1.525,0.272-3.042,0.375-4.55c0.116-1.504,0.216-3.021,0.301-4.55c0.074-1.531,0.133-3.064,0.175-4.601l0.1-4.649l0.05-4.775
	l0.025-0.05h3.975c0.13-0.438,0.338-0.954,0.625-1.55l0.476-0.95l0.6-1.05l0.7-1.125l0.75-1.15l0.85-1.2l0.926-1.2l0.975-1.175
	l1.025-1.149c0.344-0.386,0.693-0.761,1.05-1.125c0.363-0.354,0.729-0.696,1.1-1.025c0.363-0.342,0.73-0.667,1.101-0.975
	c0.374-0.294,0.749-0.569,1.125-0.825c0.374-0.265,0.749-0.507,1.125-0.726c0.376-0.216,0.751-0.407,1.125-0.574
	c0.369-0.173,0.735-0.314,1.1-0.426c0.372-0.106,0.738-0.181,1.1-0.225c0.212-0.021,0.42-0.03,0.625-0.025
	c0.244-0.001,0.486,0.016,0.726,0.051c0.237,0.031,0.471,0.081,0.7,0.149c0.325,0.105,0.643,0.256,0.949,0.45
	c0.312,0.198,0.612,0.439,0.9,0.725c0.279,0.274,0.546,0.599,0.8,0.976c0.265,0.385,0.515,0.818,0.75,1.3
	C227.79,358.563,229.015,362.172,229.85,365.95z"/>
<path style="fill-rule:evenodd;clip-rule:evenodd;fill:#949494;" d="M94,359.025L93.975,353L94,352.975
	c0.14,0.292,0.257,0.566,0.35,0.825l0.225,0.775c0.118,0.488,0.176,0.963,0.175,1.425c0.001,0.462-0.057,0.937-0.175,1.425
	L94.35,358.2l-0.325,0.825H94z"/>
<path style="fill-rule:evenodd;clip-rule:evenodd;fill:#3F3F3F;" d="M175.625,355.8c0.066,0.285,0.116,0.568,0.15,0.851
	c0.033,0.286,0.05,0.57,0.05,0.85c0,0.28-0.017,0.563-0.05,0.85c-0.034,0.282-0.084,0.565-0.15,0.851
	c-0.066,0.283-0.15,0.575-0.25,0.875c-0.101,0.311-0.217,0.627-0.35,0.95H175L174.975,354l0.025-0.025
	c0.15,0.33,0.275,0.646,0.375,0.95C175.475,355.225,175.559,355.516,175.625,355.8z"/>
<path style="fill-rule:evenodd;clip-rule:evenodd;fill:#949494;" d="M172,364.025L171.975,356l0.025-0.025
	c0.169,0.359,0.311,0.71,0.425,1.051c0.109,0.338,0.201,0.672,0.275,1c0.068,0.333,0.118,0.667,0.149,1
	c0.035,0.327,0.052,0.652,0.051,0.975c0.001,0.322-0.016,0.647-0.051,0.975c-0.031,0.333-0.081,0.667-0.149,1
	c-0.074,0.329-0.166,0.662-0.275,1c-0.115,0.349-0.249,0.698-0.399,1.051H172z"/>
<path style="fill-rule:evenodd;clip-rule:evenodd;fill:#CFCCCC;" d="M227,367.025L226.975,356l0.025-0.025
	c0.198,0.438,0.364,0.88,0.5,1.325c0.14,0.451,0.256,0.909,0.35,1.375c0.09,0.462,0.156,0.929,0.2,1.4
	c0.039,0.474,0.056,0.948,0.05,1.425c0.006,0.477-0.011,0.951-0.05,1.425c-0.044,0.472-0.11,0.938-0.2,1.4
	c-0.094,0.466-0.21,0.924-0.35,1.375c-0.137,0.452-0.295,0.894-0.475,1.325H227z"/>
<path style="fill-rule:evenodd;clip-rule:evenodd;fill:#949494;" d="M268.625,357.8c0.066,0.285,0.116,0.568,0.15,0.851
	c0.033,0.286,0.05,0.57,0.05,0.85c0,0.28-0.017,0.563-0.05,0.85c-0.034,0.282-0.084,0.565-0.15,0.851
	c-0.066,0.283-0.15,0.575-0.25,0.875c-0.101,0.311-0.217,0.627-0.35,0.95H268L267.975,356l0.025-0.025
	c0.15,0.33,0.275,0.646,0.375,0.95C268.475,357.225,268.559,357.516,268.625,357.8z"/>
<path style="fill-rule:evenodd;clip-rule:evenodd;fill:#3F3F3F;" d="M265,365.025L264.975,357l0.025-0.025
	c0.169,0.359,0.311,0.71,0.425,1.051c0.109,0.338,0.201,0.672,0.275,1c0.068,0.333,0.118,0.667,0.149,1
	c0.035,0.327,0.052,0.652,0.051,0.975c0.001,0.322-0.016,0.647-0.051,0.975c-0.031,0.333-0.081,0.667-0.149,1
	c-0.074,0.329-0.166,0.662-0.275,1c-0.115,0.349-0.249,0.698-0.399,1.051H265z"/>
<polygon style="fill-rule:evenodd;clip-rule:evenodd;fill:#3F3F3F;" points="49.025,365.025 48.975,362 49.025,361.975 
	51.025,363.975 51.025,364.025 "/>
<path style="fill-rule:evenodd;clip-rule:evenodd;fill:#949494;" d="M63.7,363.6c0.688,0.005,1.372,0.029,2.05,0.075
	c0.685,0.038,1.36,0.096,2.025,0.175c0.754,0.098,1.488,0.239,2.2,0.426c0.709,0.182,1.393,0.406,2.05,0.675V365l-2.2,0.05
	l-2.275,0.101l-2.35,0.125l-2.35,0.05H62.3c-0.688,0.004-1.372-0.013-2.05-0.05c-0.685-0.038-1.36-0.097-2.025-0.176
	c-0.755-0.097-1.488-0.238-2.2-0.425c-0.709-0.182-1.393-0.407-2.05-0.675v-0.05l2.2-0.05l2.275-0.125l2.35-0.101l2.35-0.05
	L63.7,363.6z"/>
<path style="fill-rule:evenodd;clip-rule:evenodd;fill:#B4B4B4;" d="M84.2,369.875c0.163,0.757,0.313,1.557,0.45,2.4
	c0.14,0.846,0.265,1.729,0.375,2.649c0.114,0.923,0.214,1.873,0.3,2.851c0.081,0.979,0.147,1.979,0.2,3
	c0.055,1.013,0.097,2.038,0.125,3.074c0.03,1.046,0.047,2.096,0.05,3.15c-0.003,1.046-0.02,2.088-0.05,3.125
	c-0.028,1.045-0.069,2.078-0.125,3.1c-0.052,1.021-0.119,2.021-0.2,3c-0.087,0.97-0.187,1.911-0.3,2.825
	c-0.11,0.92-0.235,1.804-0.375,2.65c-0.137,0.852-0.287,1.659-0.45,2.425c-0.169,0.754-0.353,1.454-0.55,2.1
	c-0.195,0.659-0.403,1.259-0.625,1.801H83L82.975,366L83,365.975c0.239,0.54,0.456,1.132,0.65,1.775
	C83.848,368.404,84.031,369.112,84.2,369.875z"/>
<path style="fill-rule:evenodd;clip-rule:evenodd;fill:#3F3F3F;" d="M108.95,368.1l-1.125-0.024l-1.1-0.05
	c-0.514-0.039-1.022-0.105-1.525-0.2c-0.501-0.098-0.993-0.223-1.475-0.375c-0.476-0.147-0.942-0.34-1.4-0.575
	c-0.462-0.241-0.913-0.524-1.35-0.85v-0.051l12.025,2l0.025,0.051l-3.2,0.074H108.95z"/>
<path style="fill-rule:evenodd;clip-rule:evenodd;fill:#4F4F4F;" d="M116.125,369.6c0.154,0.71,0.296,1.46,0.425,2.25
	c0.13,0.782,0.247,1.599,0.35,2.45c0.096,0.857,0.179,1.741,0.25,2.65c0.08,0.905,0.146,1.83,0.2,2.774
	c0.054,0.939,0.096,1.89,0.125,2.851c0.021,0.971,0.03,1.945,0.025,2.925c0.005,0.979-0.003,1.954-0.025,2.925
	c-0.029,0.961-0.071,1.911-0.125,2.851c-0.054,0.944-0.121,1.869-0.2,2.774c-0.071,0.909-0.154,1.792-0.25,2.65
	c-0.103,0.852-0.22,1.668-0.35,2.45c-0.129,0.79-0.271,1.54-0.425,2.25c-0.153,0.709-0.32,1.367-0.5,1.975
	c-0.188,0.604-0.388,1.154-0.6,1.65H115L114.975,366l0.025-0.025c0.23,0.503,0.438,1.053,0.625,1.65
	C115.805,368.233,115.972,368.892,116.125,369.6z"/>
<path style="fill-rule:evenodd;clip-rule:evenodd;fill:#3F3F3F;" d="M150,367.025c-0.456,0.138-0.915,0.263-1.375,0.375
	c-0.459,0.113-0.918,0.213-1.375,0.3c-0.465,0.084-0.932,0.15-1.4,0.2c-0.46,0.051-0.918,0.084-1.375,0.1l-0.45,0.025
	c-0.391-0.001-0.783-0.018-1.175-0.051c-0.386-0.033-0.769-0.083-1.15-0.149c-0.451-0.081-0.9-0.189-1.35-0.325
	c-0.462-0.132-0.92-0.29-1.375-0.475v-0.051l10.025-1l1.025,1L150,367.025z"/>
<path style="fill-rule:evenodd;clip-rule:evenodd;fill:#3F3F3F;" d="M63.725,366.5c0.747,0.005,1.489,0.03,2.225,0.075
	c0.736,0.038,1.46,0.096,2.175,0.175c0.871,0.098,1.712,0.248,2.525,0.45c0.827,0.208,1.619,0.466,2.375,0.774v0.051L70.5,368.1
	l-2.65,0.125l-2.75,0.15l-2.775,0.1h-1.05c-0.748,0.004-1.49-0.013-2.225-0.05c-0.736-0.039-1.461-0.098-2.175-0.175
	c-0.871-0.098-1.712-0.248-2.525-0.45c-0.826-0.208-1.618-0.466-2.375-0.774v-0.051L54.5,366.9l2.65-0.125l2.75-0.15l2.775-0.1
	L63.725,366.5z"/>
<path style="fill-rule:evenodd;clip-rule:evenodd;fill:#060606;" d="M223.375,368c-0.217,0.296-0.442,0.562-0.675,0.8
	c-0.489,0.482-1.022,0.874-1.601,1.175c-0.57,0.3-1.195,0.533-1.875,0.7c-0.332,0.078-0.683,0.145-1.05,0.2
	c-0.377,0.061-0.769,0.11-1.175,0.15L216.975,371c0.128-0.444,0.278-0.845,0.45-1.2c0.179-0.348,0.379-0.647,0.601-0.899
	c0.437-0.522,0.953-0.914,1.55-1.176c0.298-0.126,0.614-0.234,0.95-0.324c0.333-0.087,0.683-0.153,1.05-0.2l1.175-0.15l1.25-0.075
	l0.025,0.025C223.816,367.366,223.6,367.699,223.375,368z"/>
<path style="fill-rule:evenodd;clip-rule:evenodd;fill:#060606;" d="M92,367.975L92.025,368v3L92,371.025L90.825,371l-1.05-0.075
	c-0.329-0.033-0.646-0.084-0.95-0.149c-0.307-0.06-0.599-0.135-0.875-0.226c-0.56-0.186-1.085-0.477-1.575-0.875
	c-0.236-0.203-0.47-0.445-0.7-0.725c-0.238-0.272-0.471-0.581-0.7-0.925L85,367.975H92z"/>
<path style="fill-rule:evenodd;clip-rule:evenodd;fill:#6E6E6E;" d="M114.05,378.125c0.071,0.841,0.129,1.699,0.175,2.575
	c0.045,0.865,0.079,1.74,0.1,2.625l0.05,2.675l-0.05,2.675c-0.021,0.885-0.055,1.76-0.1,2.625c-0.046,0.876-0.104,1.734-0.175,2.575
	c-0.08,0.831-0.171,1.639-0.275,2.425c-0.096,0.789-0.204,1.548-0.325,2.275c-0.122,0.728-0.255,1.419-0.4,2.075
	c-0.146,0.653-0.304,1.261-0.475,1.824c-0.172,0.565-0.355,1.082-0.55,1.551H112L111.975,368l0.025-0.025
	c0.212,0.476,0.404,0.992,0.575,1.551c0.17,0.562,0.329,1.171,0.475,1.824c0.146,0.656,0.279,1.348,0.4,2.075
	c0.121,0.727,0.229,1.485,0.325,2.275C113.879,376.485,113.97,377.294,114.05,378.125z"/>
<path style="fill-rule:evenodd;clip-rule:evenodd;fill:#CFCCCC;" d="M201.95,379.95L202,382l-0.05,2.05l-0.075,2l-0.15,1.95
	l-0.225,1.875c-0.082,0.612-0.174,1.204-0.275,1.775c-0.099,0.565-0.207,1.107-0.324,1.625c-0.123,0.521-0.257,1.013-0.4,1.475
	c-0.148,0.458-0.307,0.883-0.475,1.275H200L199.975,368l0.025-0.025c0.186,0.399,0.353,0.824,0.5,1.275
	c0.144,0.462,0.277,0.953,0.4,1.475c0.117,0.518,0.226,1.06,0.324,1.625c0.102,0.571,0.193,1.163,0.275,1.775l0.225,1.875l0.15,1.95
	L201.95,379.95z"/>
<path style="fill-rule:evenodd;clip-rule:evenodd;fill:#060606;" d="M209.525,372.775c0.188,0.294,0.355,0.594,0.5,0.899
	c0.147,0.305,0.272,0.612,0.375,0.925c0.105,0.312,0.197,0.638,0.274,0.976c0.074,0.34,0.132,0.689,0.175,1.05l0.101,1.15L211,379
	l-0.05,0.025c-1.485-1.046-2.443-2.204-2.875-3.476c-0.427-1.279-0.478-2.796-0.15-4.55l0.05-0.025
	c0.321,0.301,0.613,0.601,0.875,0.9C209.106,372.177,209.331,372.478,209.525,372.775z"/>
<path style="fill-rule:evenodd;clip-rule:evenodd;fill:#B4B4B4;" d="M233.75,385.5l-0.025,1.65l-0.074,1.625l-0.15,1.574
	l-0.175,1.525l-0.25,1.45c-0.092,0.467-0.191,0.917-0.3,1.35c-0.108,0.438-0.225,0.855-0.351,1.25
	c-0.125,0.391-0.259,0.758-0.399,1.101H232L231.975,374l0.025-0.025c0.159,0.351,0.301,0.717,0.425,1.101
	c0.126,0.396,0.242,0.812,0.351,1.25c0.108,0.433,0.208,0.882,0.3,1.35l0.25,1.45l0.175,1.525l0.15,1.574l0.074,1.625L233.75,385.5z
	"/>
<path style="fill-rule:evenodd;clip-rule:evenodd;fill:#060606;" d="M105.15,379.025L103.9,379c-0.482-0.026-0.949-0.076-1.4-0.15
	c-0.452-0.068-0.885-0.159-1.3-0.274c-0.415-0.108-0.815-0.259-1.2-0.45c-0.393-0.201-0.768-0.442-1.125-0.725
	c-0.698-0.558-1.331-1.35-1.9-2.375L97,374.975l10,1l0.025,3.025L107,379.025h-0.55H105.15z"/>
<path style="fill-rule:evenodd;clip-rule:evenodd;fill:#949494;" d="M226,383.025c-0.67-0.1-1.244-0.208-1.725-0.325
	c-0.475-0.117-0.891-0.275-1.25-0.476c-0.371-0.2-0.721-0.476-1.051-0.824c-0.315-0.352-0.648-0.81-1-1.375v-0.051l5.051,3
	L226,383.025z"/>
<rect x="222" y="380" style="fill-rule:evenodd;clip-rule:evenodd;fill:#060606;" width="4" height="2"/>
<path style="fill-rule:evenodd;clip-rule:evenodd;fill:#060606;" d="M96,387.05h-4.975c-0.123,0.426-0.256,0.817-0.4,1.175
	c-0.141,0.37-0.291,0.703-0.45,1c-0.323,0.593-0.715,1.051-1.175,1.375c-0.226,0.156-0.476,0.281-0.75,0.375
	c-0.286,0.099-0.594,0.165-0.925,0.2L86.7,391.2c-0.25,0.006-0.517-0.002-0.8-0.025c-0.286-0.027-0.585-0.068-0.9-0.125
	l-0.025-0.075c0.326-0.454,0.685-0.929,1.075-1.425c0.383-0.497,0.792-0.988,1.225-1.475c0.439-0.49,0.898-0.948,1.375-1.375
	c0.481-0.425,0.973-0.792,1.475-1.101c0.496-0.316,0.996-0.55,1.5-0.699c0.334-0.089,0.667-0.131,1-0.125
	c0.175-0.006,0.351,0.003,0.525,0.024c0.251,0.041,0.501,0.116,0.75,0.226c0.245,0.107,0.486,0.249,0.725,0.425
	c0.245,0.175,0.486,0.392,0.725,0.649c0.229,0.252,0.455,0.544,0.675,0.875L96,387.05z"/>
<polygon style="fill-rule:evenodd;clip-rule:evenodd;fill:#060606;" points="210,393.025 209.975,393 210.975,389 211.025,388.975 
	214.025,392.975 214,393.025 "/>
<path style="fill-rule:evenodd;clip-rule:evenodd;fill:#060606;" d="M105,398.025c-0.479-0.075-0.938-0.158-1.375-0.25
	c-0.44-0.092-0.857-0.191-1.25-0.301c-0.392-0.106-0.767-0.231-1.125-0.375c-0.353-0.149-0.686-0.315-1-0.5
	c-0.32-0.181-0.628-0.389-0.925-0.625c-0.297-0.232-0.581-0.49-0.85-0.774c-0.266-0.296-0.524-0.63-0.775-1
	c-0.251-0.357-0.493-0.749-0.725-1.175L97,392.975c0.507,0.04,0.991,0.09,1.45,0.15c0.459,0.064,0.892,0.14,1.3,0.225
	c0.412,0.086,0.803,0.194,1.175,0.325c0.365,0.128,0.707,0.278,1.025,0.45c0.326,0.174,0.634,0.383,0.925,0.625
	c0.294,0.251,0.569,0.534,0.825,0.85c0.248,0.304,0.481,0.654,0.7,1.051c0.225,0.398,0.433,0.84,0.625,1.324L105,398.025z"/>
<path style="fill-rule:evenodd;clip-rule:evenodd;fill:#4F4F4F;" d="M195,402.025L194.975,395l0.025-0.025
	c0.15,0.33,0.275,0.646,0.375,0.95c0.1,0.3,0.184,0.591,0.25,0.875c0.066,0.285,0.116,0.568,0.15,0.851
	c0.033,0.286,0.05,0.57,0.05,0.85c0,0.28-0.017,0.563-0.05,0.85c-0.034,0.282-0.084,0.565-0.15,0.851
	c-0.066,0.283-0.15,0.575-0.25,0.875c-0.101,0.311-0.217,0.627-0.35,0.95H195z"/>
<path style="fill-rule:evenodd;clip-rule:evenodd;fill:#6E6E6E;" d="M198,403.025L197.975,397l0.025-0.025
	c0.14,0.292,0.257,0.566,0.35,0.825l0.226,0.775c0.117,0.488,0.176,0.963,0.175,1.425c0.001,0.462-0.058,0.937-0.175,1.425
	l-0.226,0.775l-0.324,0.825H198z"/>
<path style="fill-rule:evenodd;clip-rule:evenodd;fill:#060606;" d="M212.275,403.025H212L211.975,403v-2L224,397.975l0.025,0.025
	c-0.679,1.188-1.445,2.122-2.301,2.8c-0.429,0.345-0.879,0.645-1.35,0.9c-0.474,0.246-0.965,0.446-1.475,0.6
	c-0.507,0.161-1.031,0.295-1.575,0.4c-0.543,0.104-1.102,0.179-1.675,0.225L214,403L212.275,403.025z"/>
<polygon style="fill-rule:evenodd;clip-rule:evenodd;fill:#F7959B;" points="221,404.025 225.975,401.975 227.025,402.975 
	227,403.025 "/>
<path style="fill-rule:evenodd;clip-rule:evenodd;fill:#ED1B30;" d="M237.55,420.1c0.024,1.537,0.017,3.07-0.024,4.601
	c-0.034,1.522-0.102,3.03-0.2,4.524c-0.103,1.491-0.261,2.966-0.476,4.426c-0.212,1.459-0.479,2.892-0.8,4.3l2.15-0.4l2.55-0.425
	l1.375-0.2l1.425-0.2l1.425-0.149l1.45-0.125l1.275-0.05l1.25-0.025h0.325c0.473,0.005,0.939,0.021,1.399,0.05
	c0.451,0.029,0.893,0.071,1.325,0.125c0.438,0.051,0.862,0.117,1.275,0.2c0.406,0.085,0.798,0.185,1.175,0.3
	c0.384,0.114,0.75,0.248,1.1,0.4c0.354,0.148,0.687,0.315,1,0.5c0.312,0.199,0.611,0.44,0.9,0.725
	c0.288,0.285,0.563,0.609,0.825,0.976c0.264,0.359,0.514,0.751,0.75,1.175c0.232,0.421,0.448,0.871,0.649,1.35
	c0.208,0.479,0.399,0.979,0.575,1.5c0.175,0.525,0.333,1.066,0.475,1.625c0.136,0.549,0.252,1.107,0.351,1.675
	c0.102,0.57,0.186,1.146,0.25,1.726c0.062,0.586,0.103,1.169,0.125,1.75c0.028,0.573,0.037,1.141,0.024,1.7
	c-0.019,0.563-0.061,1.114-0.125,1.649c-0.062,0.535-0.145,1.052-0.25,1.55c-0.107,0.493-0.241,0.96-0.399,1.4
	c-0.159,0.446-0.343,0.862-0.55,1.25c-0.206,0.389-0.439,0.738-0.7,1.05c-0.267,0.308-0.558,0.574-0.875,0.8
	c-1.833,1.303-3.824,2.395-5.976,3.275c-1.074,0.434-2.183,0.825-3.324,1.175c-1.142,0.354-2.309,0.661-3.5,0.925
	c-1.193,0.267-2.41,0.5-3.65,0.7c-1.243,0.194-2.501,0.353-3.775,0.476c-1.269,0.133-2.553,0.241-3.85,0.324
	c-1.295,0.075-2.595,0.126-3.9,0.15l-1.649,0.025h-1.675L225,466.875l-2.275-0.025l-3.875-0.149l-3.824-0.15l-7.351-0.35
	l-3.425-0.125l-3.25-0.05L197.95,422c-0.004-0.448-0.037-0.957-0.101-1.525l-0.1-0.875l-0.125-0.949l-0.3-2.025l-0.15-1.05
	l-0.125-1.05l-0.1-1.051l-0.075-1.024v-1l0.025-0.925c0.027-0.304,0.069-0.596,0.125-0.875c0.044-0.281,0.103-0.548,0.175-0.801
	c0.157-0.498,0.383-0.923,0.675-1.274c0.583-0.654,1.342-1.112,2.275-1.375c0.454-0.13,0.93-0.229,1.425-0.3
	c0.508-0.072,1.032-0.114,1.575-0.125l0.75-0.025l1.199,0.025l1.2,0.074l1.425,0.075l1.275,0.05l28-4l0.025,0.025
	c0.01,1.444,0.035,2.911,0.074,4.4c0.036,1.496,0.087,3.005,0.15,4.524l0.175,4.575L237.55,420.1z"/>
<path style="fill-rule:evenodd;clip-rule:evenodd;fill:#EE747E;" d="M239.125,414l0.1,2.475l0.051,2.525l-0.051,2.525l-0.1,2.475
	c-0.047,0.815-0.105,1.616-0.175,2.4c-0.064,0.787-0.139,1.554-0.226,2.3c-0.097,0.736-0.204,1.445-0.324,2.125
	c-0.114,0.691-0.239,1.35-0.375,1.975c-0.146,0.616-0.305,1.191-0.476,1.726c-0.163,0.545-0.339,1.045-0.524,1.5H237L236.975,402
	l0.025-0.025c0.203,0.463,0.387,0.963,0.55,1.5c0.171,0.534,0.329,1.109,0.476,1.726c0.136,0.617,0.261,1.267,0.375,1.95
	c0.12,0.688,0.228,1.404,0.324,2.149c0.087,0.746,0.161,1.513,0.226,2.3C239.02,412.384,239.078,413.185,239.125,414z"/>
<path style="fill-rule:evenodd;clip-rule:evenodd;fill:#ED1B30;" d="M115.025,419l-1.95,33.025l-0.025,0.774l0.025,0.875l0.1,2.05
	l0.15,2.301l0.025,1.175l0.025,1.149l-0.05,1.176l-0.1,1.1c-0.036,0.369-0.086,0.728-0.15,1.075c-0.07,0.339-0.153,0.664-0.25,0.975
	c-0.202,0.628-0.477,1.178-0.825,1.65c-0.351,0.47-0.792,0.837-1.325,1.1L96,468.325l-46,4.7h-0.025l-0.1-2.625l-0.15-2.851
	c-0.056-0.983-0.09-1.975-0.1-2.975c-0.015-0.999-0.006-1.999,0.025-3c0.033-1,0.125-1.976,0.275-2.925
	c0.151-0.948,0.359-1.865,0.625-2.75c0.529-1.789,1.429-3.331,2.7-4.625c0.354-0.339,0.729-0.655,1.125-0.95
	c0.39-0.307,0.799-0.59,1.225-0.851c0.435-0.247,0.885-0.48,1.35-0.699c0.463-0.225,0.938-0.434,1.425-0.625l1.475-0.551l1.55-0.475
	l1.55-0.475l1.575-0.426l1.55-0.449l1.525-0.5c0.5-0.163,0.992-0.338,1.475-0.525c0.487-0.189,0.962-0.39,1.425-0.6
	c0.464-0.206,0.915-0.432,1.35-0.676c0.434-0.249,0.85-0.516,1.25-0.8c0.396-0.282,0.771-0.591,1.125-0.925
	c0.348-0.335,0.673-0.693,0.975-1.075l2-10.5L80.95,409l1.3-0.025h2.225l1.95-0.024l2.025-0.025l2.1-0.075l2.175-0.1l2.175-0.15
	l2.2-0.175c0.729-0.079,1.454-0.171,2.175-0.274c0.718-0.098,1.426-0.206,2.125-0.325c0.704-0.119,1.396-0.253,2.075-0.4
	c0.667-0.145,1.317-0.303,1.95-0.475c0.646-0.183,1.271-0.383,1.875-0.601c0.6-0.208,1.175-0.434,1.725-0.675
	c0.545-0.246,1.062-0.513,1.55-0.8c0.499-0.281,0.965-0.581,1.4-0.9c1.042,0.992,1.792,2.084,2.25,3.275
	c0.228,0.591,0.411,1.198,0.55,1.825c0.145,0.62,0.245,1.254,0.3,1.899c0.044,0.658,0.069,1.325,0.075,2
	c0.012,0.663,0.003,1.33-0.025,2l-0.05,2.025L115.025,419z"/>
<polygon style="fill-rule:evenodd;clip-rule:evenodd;fill:#EE747E;" points="103,404.975 103.025,405.025 101.025,407.025 
	100.975,407.025 100.975,405 101,404.975 "/>
<path style="fill-rule:evenodd;clip-rule:evenodd;fill:#DD5B63;" d="M221.025,405.975l-2.976,0.101
	c-1.019,0.041-2.068,0.1-3.149,0.175l-3.275,0.2L208.3,406.6l-1.75,0.025c-0.814-0.005-1.623-0.03-2.425-0.075
	c-0.796-0.038-1.579-0.097-2.35-0.175c-2.108-0.211-4.042-0.669-5.801-1.375v-0.05l2.976-0.101c1.019-0.041,2.068-0.1,3.149-0.175
	l3.275-0.2l3.35-0.125l1.726-0.05c0.807,0.006,1.606,0.03,2.399,0.075c0.805,0.039,1.596,0.098,2.375,0.175
	c2.108,0.21,4.042,0.668,5.801,1.375V405.975z M115.65,406.7c0.189,0.644,0.364,1.344,0.525,2.1c0.164,0.756,0.314,1.556,0.45,2.4
	c0.139,0.845,0.264,1.728,0.375,2.649c0.105,0.922,0.197,1.872,0.275,2.851c0.08,0.978,0.147,1.978,0.2,3
	c0.055,1.029,0.097,2.071,0.125,3.125c0.03,1.045,0.047,2.096,0.05,3.149c-0.002,1.055-0.02,2.104-0.05,3.15
	c-0.028,1.046-0.07,2.079-0.125,3.1c-0.053,1.021-0.12,2.021-0.2,3c-0.078,0.979-0.17,1.929-0.275,2.851
	c-0.111,0.922-0.236,1.805-0.375,2.649c-0.136,0.845-0.287,1.645-0.45,2.4c-0.161,0.756-0.335,1.456-0.525,2.1
	c-0.196,0.644-0.404,1.228-0.625,1.75L115,447l-0.025-42.025l0.025-0.05C115.239,405.463,115.456,406.055,115.65,406.7z"/>
<polygon style="fill-rule:evenodd;clip-rule:evenodd;fill:#AE303B;" points="198,405.975 198.025,406.025 196.025,410.025 
	196,410.025 195.975,410 195.975,406 196,405.975 "/>
<polygon style="fill-rule:evenodd;clip-rule:evenodd;fill:#AE303B;" points="83,408.975 83.025,409 80.025,419 80,419.025 
	78.975,409 79,408.975 "/>
<path style="fill-rule:evenodd;clip-rule:evenodd;fill:#DD5B63;" d="M113,407.975l0.025,0.025v28l0.05,1.425l0.075,1.5
	c0.022,0.501,0.03,1.001,0.025,1.5c0.005,0.505-0.003,1.005-0.025,1.5c-0.026,0.496-0.084,0.979-0.175,1.45
	c-0.093,0.467-0.218,0.917-0.375,1.35c-0.319,0.876-0.844,1.643-1.575,2.301c0.234-1.553,0.442-3.111,0.625-4.676
	c0.188-1.568,0.33-3.144,0.425-4.725c0.093-1.573,0.16-3.156,0.2-4.75c0.044-1.601,0.061-3.201,0.05-4.8l-0.075-4.8l-0.125-4.801
	l-0.1-4.75l-0.05-4.699l-7.975-1l-0.025-0.051H113z"/>
<path style="fill-rule:evenodd;clip-rule:evenodd;fill:#DD5B63;" d="M92.425,412.4c-0.753,0.006-1.503-0.003-2.25-0.025
	c-0.733-0.027-1.458-0.069-2.175-0.125l-2.1-0.15l-1.875-0.074v2l-0.05,1.949c-0.033,0.638-0.083,1.271-0.15,1.9
	c-0.058,0.634-0.133,1.259-0.225,1.875c-0.098,0.618-0.223,1.234-0.375,1.85c-0.148,0.605-0.324,1.206-0.525,1.801
	c-0.204,0.606-0.445,1.215-0.725,1.824c-0.281,0.604-0.597,1.203-0.95,1.801L82.975,411L100,409.975l0.025,0.051
	c-0.83,0.902-1.905,1.527-3.225,1.875c-0.653,0.167-1.337,0.292-2.05,0.375c-0.717,0.084-1.458,0.125-2.225,0.125H92.425z"/>
<path style="fill-rule:evenodd;clip-rule:evenodd;fill:#AE303B;" d="M198.75,420.275c0.072,0.828,0.131,1.669,0.175,2.524
	c0.049,0.851,0.082,1.709,0.101,2.575c0.021,0.872,0.03,1.739,0.024,2.6c-0.003,0.862-0.02,1.712-0.05,2.551
	c-0.038,0.833-0.088,1.642-0.15,2.425c-0.055,0.789-0.121,1.547-0.199,2.274c-0.089,0.721-0.188,1.396-0.301,2.025
	c-0.105,0.633-0.222,1.216-0.35,1.75l-0.025,0.025c-0.319-1.05-0.577-2.116-0.774-3.2c-0.201-1.09-0.352-2.198-0.45-3.325
	c-0.097-1.12-0.163-2.254-0.2-3.4c-0.038-1.153-0.046-2.312-0.024-3.475l0.074-3.475l0.15-3.476l0.125-3.375l0.075-3.3l0.024-0.025
	c0.234,0.522,0.442,1.09,0.625,1.7c0.177,0.611,0.335,1.27,0.476,1.976c0.14,0.708,0.265,1.45,0.375,2.225
	C198.566,418.647,198.666,419.447,198.75,420.275z"/>
<path style="fill-rule:evenodd;clip-rule:evenodd;fill:#FDB0B5;" d="M75.975,430L76,429.975c0.765,1.772,1.082,3.506,0.95,5.2
	c-0.143,1.703-0.785,3.32-1.925,4.851L75.975,430z"/>
<path style="fill-rule:evenodd;clip-rule:evenodd;fill:#AE303B;" d="M248.35,435.725c0.655-0.004,1.305,0.013,1.95,0.051
	c0.651,0.046,1.293,0.112,1.925,0.199c0.666,0.086,1.315,0.211,1.95,0.375c0.637,0.163,1.253,0.362,1.851,0.601V437l-1.976,0.075
	l-2.024,0.075l-2.075,0.074l-2.075,0.051h-0.225c-0.655-0.004-1.305-0.029-1.95-0.075c-0.651-0.038-1.293-0.097-1.925-0.175
	c-0.666-0.086-1.315-0.211-1.95-0.375c-0.637-0.171-1.253-0.379-1.851-0.625v-0.051l1.976-0.05l2.024-0.1l2.075-0.075l2.075-0.025
	H248.35z"/>
<path style="fill-rule:evenodd;clip-rule:evenodd;fill:#F7959B;" d="M198,447.025L197.975,439l0.025-0.025
	c0.169,0.359,0.311,0.71,0.425,1.051c0.109,0.338,0.201,0.672,0.275,1c0.068,0.333,0.118,0.667,0.149,1
	c0.035,0.327,0.052,0.652,0.051,0.975c0.001,0.322-0.016,0.647-0.051,0.975c-0.031,0.333-0.081,0.667-0.149,1
	c-0.074,0.329-0.166,0.662-0.275,1c-0.115,0.349-0.249,0.698-0.399,1.051H198z"/>
<path style="fill-rule:evenodd;clip-rule:evenodd;fill:#AE303B;" d="M199,447.025L198.975,440l0.025-0.025
	c0.15,0.33,0.275,0.646,0.375,0.95c0.1,0.3,0.184,0.591,0.25,0.875c0.066,0.285,0.116,0.568,0.15,0.851
	c0.033,0.286,0.05,0.57,0.05,0.85c0,0.28-0.017,0.563-0.05,0.85c-0.034,0.282-0.084,0.565-0.15,0.851
	c-0.066,0.283-0.15,0.575-0.25,0.875c-0.101,0.311-0.217,0.627-0.35,0.95H199z"/>
<path style="fill-rule:evenodd;clip-rule:evenodd;fill:#DD5B63;" d="M261,458.025L260.975,446l0.025-0.025
	c0.207,0.467,0.382,0.941,0.525,1.426c0.141,0.479,0.257,0.971,0.35,1.475c0.099,0.511,0.174,1.027,0.225,1.55
	c0.049,0.522,0.074,1.048,0.075,1.575c-0.001,0.528-0.026,1.053-0.075,1.575c-0.051,0.523-0.126,1.04-0.225,1.55
	c-0.093,0.504-0.209,0.995-0.35,1.475c-0.144,0.49-0.311,0.966-0.5,1.426H261z"/>
<path style="fill-rule:evenodd;clip-rule:evenodd;fill:#AE303B;" d="M113,466.025L112.975,447l0.025-0.025
	c0.273,0.627,0.506,1.302,0.7,2.025c0.19,0.724,0.349,1.499,0.475,2.325c0.123,0.82,0.214,1.662,0.275,2.524
	c0.065,0.869,0.098,1.752,0.1,2.65c-0.001,0.898-0.035,1.781-0.1,2.65c-0.061,0.862-0.152,1.704-0.275,2.524
	c-0.126,0.825-0.284,1.601-0.475,2.325c-0.195,0.73-0.419,1.405-0.675,2.025H113z"/>
<path style="fill-rule:evenodd;clip-rule:evenodd;fill:#DD5B63;" d="M240,467.025h-29.05l-1.15,0.05l-1.3,0.075l-0.9,0.024
	l-0.925,0.025l-1-0.025c-0.481-0.014-0.948-0.056-1.399-0.125c-0.452-0.072-0.886-0.172-1.301-0.3
	c-0.521-0.168-0.979-0.41-1.375-0.725h-0.649L200.925,466v-0.625c-0.349-0.457-0.632-0.999-0.85-1.625
	c-0.113-0.324-0.214-0.666-0.3-1.025c-0.09-0.359-0.164-0.734-0.226-1.125L199.4,460.4l-0.075-1.25v-1.301v-1.324l0.075-1.351
	l0.074-1.325l0.2-2.574l0.175-2.325l0.051-1.025l0.024-0.925l0.05-0.025c0.297,0.695,0.538,1.412,0.726,2.15
	c0.188,0.752,0.33,1.526,0.425,2.325c0.095,0.786,0.161,1.586,0.2,2.399c0.035,0.825,0.044,1.659,0.024,2.5l-0.074,2.5l-0.125,2.476
	l-0.101,2.05L201,465.35c0.193,0.228,0.401,0.428,0.625,0.601l1.85-0.025l1.95-0.1l2.4-0.125l2.5-0.175l5.175-0.375l2.65-0.176
	l2.649-0.125l2.25-0.074l2.25-0.025h0.75c0.867,0.009,1.726,0.034,2.575,0.075c0.84,0.042,1.665,0.101,2.475,0.175
	c0.816,0.069,1.616,0.161,2.4,0.275c0.788,0.111,1.555,0.245,2.3,0.399c0.74,0.164,1.456,0.355,2.15,0.575
	c0.702,0.216,1.377,0.457,2.024,0.725L240,467.025z"/>
<path style="fill-rule:evenodd;clip-rule:evenodd;fill:#DD5B63;" d="M49,473.025L48.975,456L49,455.975
	c0.254,0.58,0.471,1.196,0.65,1.851c0.18,0.652,0.33,1.345,0.45,2.075c0.113,0.741,0.196,1.5,0.25,2.274
	c0.063,0.764,0.096,1.539,0.1,2.325c-0.004,0.786-0.037,1.562-0.1,2.325c-0.054,0.767-0.137,1.517-0.25,2.25
	c-0.121,0.738-0.271,1.438-0.45,2.1c-0.18,0.66-0.388,1.277-0.625,1.851H49z"/>
<path style="fill-rule:evenodd;clip-rule:evenodd;fill:#DD5B63;" d="M91.675,470.15c-0.448,0.077-0.906,0.135-1.375,0.175
	c-0.476,0.044-0.959,0.069-1.45,0.075h-0.2c-0.45,0.005-0.9-0.004-1.35-0.025c-0.453-0.028-0.903-0.07-1.35-0.125
	c-0.479-0.063-0.945-0.139-1.4-0.225c-0.448-0.08-0.881-0.172-1.3-0.275c-0.422-0.1-0.823-0.208-1.2-0.325
	c-0.384-0.125-0.742-0.259-1.075-0.399v-0.051l15.025-1L96.025,468c-0.254,0.292-0.538,0.551-0.85,0.775
	c-0.312,0.227-0.654,0.427-1.025,0.6c-0.37,0.173-0.762,0.322-1.175,0.45C92.561,469.957,92.127,470.065,91.675,470.15z"/>
<path style="fill-rule:evenodd;clip-rule:evenodd;fill:#FDB0B5;" d="M104.35,467.725c0.654-0.004,1.305,0.013,1.95,0.051
	c0.651,0.046,1.293,0.112,1.925,0.199c0.665,0.086,1.315,0.211,1.95,0.375c0.637,0.163,1.253,0.362,1.85,0.601V469l-1.975,0.075
	l-2.025,0.075l-2.075,0.074l-2.1,0.051h-0.2c-0.655-0.004-1.305-0.029-1.95-0.075c-0.651-0.038-1.292-0.097-1.925-0.175
	c-0.666-0.086-1.316-0.211-1.95-0.375c-0.637-0.171-1.254-0.379-1.85-0.625v-0.051l1.975-0.05l2.025-0.1l2.075-0.075l2.075-0.025
	H104.35z"/>
<path style="fill-rule:evenodd;clip-rule:evenodd;fill:#AE303B;" d="M61.7,471.6c0.688,0.005,1.372,0.029,2.05,0.075
	c0.685,0.038,1.36,0.096,2.025,0.175c0.754,0.098,1.488,0.239,2.2,0.426c0.709,0.182,1.393,0.406,2.05,0.675V473l-2.2,0.05
	l-2.275,0.101l-2.35,0.125l-2.35,0.05H60.3c-0.688,0.004-1.372-0.013-2.05-0.05c-0.685-0.038-1.36-0.097-2.025-0.176
	c-0.755-0.097-1.488-0.238-2.2-0.425c-0.709-0.182-1.393-0.407-2.05-0.675v-0.05l2.2-0.05l2.275-0.125l2.35-0.101l2.35-0.05
	L61.7,471.6z"/>
<path style="fill-rule:evenodd;clip-rule:evenodd;fill:#FDB0B5;" d="M60.375,472.55c0.714,0.005,1.422,0.03,2.125,0.075
	c0.694,0.038,1.377,0.097,2.05,0.175c0.798,0.095,1.574,0.236,2.325,0.425c0.745,0.188,1.461,0.421,2.15,0.7v0.05l-2.3,0.075
	l-2.4,0.125L61.85,474.3l-2.5,0.05l-0.725,0.025c-0.714-0.005-1.422-0.03-2.125-0.075c-0.694-0.038-1.377-0.097-2.05-0.175
	c-0.799-0.095-1.574-0.236-2.325-0.425c-0.746-0.188-1.462-0.421-2.15-0.7v-0.05l2.3-0.075l2.4-0.125l2.475-0.1l2.5-0.075
	L60.375,472.55z"/>
</svg>
