<?xml version="1.0" encoding="iso-8859-1"?>
<!-- Generator: Adobe Illustrator 15.1.0, SVG Export Plug-In . SVG Version: 6.00 Build 0)  -->
<!DOCTYPE svg PUBLIC "-//W3C//DTD SVG 1.1//EN" "http://www.w3.org/Graphics/SVG/1.1/DTD/svg11.dtd">
<svg version="1.1" id="Layer_1" xmlns="http://www.w3.org/2000/svg" xmlns:xlink="http://www.w3.org/1999/xlink" x="0px" y="0px"
	 width="315px" height="488px" viewBox="0 0 315 488" style="enable-background:new 0 0 315 488;" xml:space="preserve">
<path style="fill-rule:evenodd;clip-rule:evenodd;fill:#949494;" d="M182.05,3c0.849,0.005,1.69,0.03,2.525,0.075
	c0.829,0.039,1.646,0.097,2.45,0.175c2.282,0.224,4.365,0.715,6.25,1.475v0.05l-3.176,0.1c-1.097,0.048-2.23,0.115-3.399,0.2
	L183.125,5.3l-3.6,0.15l-1.051,0.025L177.45,5.5c-0.849-0.005-1.69-0.03-2.525-0.075c-0.829-0.039-1.646-0.097-2.45-0.175
	c-2.282-0.224-4.365-0.715-6.25-1.475v-0.05l3.176-0.1c1.097-0.048,2.229-0.115,3.399-0.2l3.575-0.225l3.6-0.15l1.051-0.025
	L182.05,3z"/>
<path style="fill-rule:evenodd;clip-rule:evenodd;fill:#060606;" d="M177.4,4.725c4.936-0.001,9.927,0.265,14.975,0.8
	c5.099,0.543,10.166,1.393,15.2,2.55c5.029,1.161,9.938,2.661,14.725,4.5c4.793,1.845,9.377,4.062,13.75,6.65
	c4.365,2.587,8.433,5.579,12.2,8.975c3.763,3.404,7.138,7.246,10.125,11.525c1.778,2.592,3.454,5.276,5.025,8.05
	c1.572,2.77,3.03,5.612,4.375,8.525c1.336,2.919,2.595,5.894,3.774,8.925c1.187,3.032,2.286,6.099,3.3,9.2
	c0.674,2.064,1.323,4.139,1.95,6.225c0.633,2.08,1.241,4.163,1.825,6.25c0.577,2.094,1.127,4.186,1.65,6.275l1.524,6.25l1.476,6.2
	l1.375,6.125c0.883,3.922,1.741,7.856,2.574,11.8c0.837,3.952,1.646,7.901,2.426,11.85c0.78,3.947,1.53,7.88,2.25,11.8
	c1.072,5.881,2.072,11.789,3,17.725c0.929,5.939,1.778,11.865,2.55,17.775c0.771,5.904,1.454,11.846,2.05,17.825
	c0.6,5.979,1.108,11.955,1.525,17.925c0.418,5.977,0.734,12.002,0.949,18.075c0.203,6.07,0.304,12.145,0.301,18.225l1.975,62
	l-3.75,18l-0.175,1.575l-0.15,1.625l-0.075,1.7l-0.074,1.75l-0.15,3.574l-0.1,1.825l-0.15,1.8c-0.062,0.596-0.137,1.188-0.225,1.775
	c-0.087,0.591-0.188,1.174-0.301,1.75c-0.114,0.575-0.247,1.142-0.399,1.7c-0.148,0.562-0.315,1.112-0.5,1.649
	c-0.184,0.538-0.393,1.062-0.625,1.575c-0.235,0.517-0.493,1.017-0.775,1.5c-0.277,0.476-0.586,0.934-0.925,1.375
	c-0.339,0.445-0.705,0.87-1.1,1.275c-0.482,0.475-1.016,0.925-1.601,1.35c-0.586,0.427-1.219,0.827-1.899,1.2
	c-0.682,0.372-1.398,0.722-2.15,1.05c-0.745,0.334-1.52,0.642-2.325,0.925c-0.807,0.278-1.632,0.537-2.475,0.775
	c-0.847,0.238-1.705,0.455-2.575,0.65c-0.874,0.192-1.749,0.367-2.625,0.524c-0.871,0.161-1.738,0.303-2.6,0.425
	c-0.858,0.116-1.7,0.216-2.525,0.301c-0.83,0.091-1.639,0.166-2.425,0.225l-2.275,0.125c-0.722,0.022-1.404,0.03-2.05,0.025
	l-5-19.926l-5.875,11.601c-1.476,2.391-3.067,4.35-4.775,5.875c-1.704,1.527-3.546,2.727-5.524,3.6
	c-1.976,0.863-4.109,1.505-6.4,1.925c-1.143,0.213-2.335,0.396-3.575,0.551c-1.242,0.154-2.526,0.279-3.85,0.375l-6.175-19.426
	c-0.32-0.373-0.645-0.706-0.976-1c-0.322-0.284-0.646-0.525-0.975-0.725c-0.329-0.202-0.663-0.369-1-0.5
	c-0.341-0.137-0.683-0.236-1.025-0.3c-0.332-0.054-0.665-0.079-1-0.075c-0.357,0-0.716,0.033-1.074,0.1
	c-0.35,0.065-0.699,0.157-1.051,0.275c-0.343,0.117-0.685,0.259-1.024,0.425c-0.343,0.162-0.685,0.346-1.025,0.55
	c-0.345,0.215-0.687,0.448-1.024,0.7c-0.344,0.25-0.686,0.517-1.025,0.8c-0.329,0.277-0.654,0.569-0.975,0.875
	c-0.329,0.313-0.654,0.639-0.976,0.976c-0.314,0.332-0.622,0.674-0.925,1.024l-0.9,1.101l-0.85,1.1l-0.825,1.125l-0.774,1.125
	l-0.726,1.101l-0.649,1.074l-0.601,1.025l-0.524,0.95l-0.476,0.899l-0.399,0.801l-29.025,4l-0.375-1.676l-0.4-1.975l-0.475-2.2
	l-0.275-1.125l-0.3-1.125l-0.3-1.1l-0.375-1.075l-0.375-1.025l-0.425-0.975c-0.293-0.61-0.609-1.151-0.95-1.625
	c-0.34-0.474-0.706-0.856-1.1-1.15c-0.257-0.187-0.548-0.328-0.875-0.425c-0.342-0.088-0.717-0.13-1.125-0.125
	c-0.335,0.001-0.692,0.034-1.075,0.101c-0.651,0.107-1.343,0.282-2.075,0.524c-0.739,0.243-1.515,0.551-2.325,0.925
	c-0.807,0.376-1.624,0.792-2.45,1.25c-0.82,0.462-1.646,0.962-2.475,1.5c-0.838,0.535-1.655,1.085-2.45,1.65
	c-0.793,0.563-1.56,1.139-2.3,1.725c-0.736,0.595-1.42,1.179-2.05,1.75c-0.633,0.565-1.208,1.115-1.725,1.65
	c-0.518,0.538-0.951,1.038-1.3,1.5c-0.354,0.458-0.621,0.874-0.8,1.25c-0.332,0.755-0.615,1.53-0.85,2.325
	c-0.233,0.803-0.417,1.619-0.55,2.45l-0.2,1.324v8.301l0.1,0.875l0.275,2.75l0.35,2.75l0.35,2.774l0.3,2.75
	c0.096,0.912,0.171,1.82,0.225,2.726c0.054,0.901,0.087,1.793,0.1,2.675c0.009,0.884-0.016,1.759-0.075,2.625
	c-0.057,0.872-0.149,1.73-0.275,2.575c-0.125,0.837-0.3,1.662-0.525,2.475c-0.228,0.819-0.502,1.619-0.825,2.4h-0.025l-0.025-27.351
	c-0.065-0.761-0.115-1.519-0.15-2.274c-0.041-0.758-0.065-1.508-0.075-2.25c-0.002-0.639,0.015-1.271,0.05-1.9
	c0.04-0.643,0.098-1.275,0.175-1.9v-8.324c-2.191-0.031-3.908-0.356-5.15-0.976c-1.247-0.634-2.146-1.525-2.7-2.675
	c-0.543-1.149-0.877-2.517-1-4.1c-0.068-0.786-0.118-1.62-0.15-2.5c-0.019-0.876-0.019-1.793,0-2.75
	c-0.589,0.013-1.197,0.055-1.825,0.125c-0.618,0.055-1.251,0.139-1.9,0.25c-0.661,0.122-1.328,0.271-2,0.449
	c-0.667,0.182-1.333,0.39-2,0.625c-0.677,0.223-1.343,0.473-2,0.75c-0.648,0.292-1.281,0.608-1.9,0.95
	c-0.617,0.34-1.208,0.706-1.775,1.101c-0.571,0.383-1.113,0.791-1.625,1.225c-1.03,0.892-1.888,1.883-2.575,2.975
	c-0.681,1.079-1.131,2.254-1.35,3.525l-3,2.025L101.7,365.6c-0.227-0.154-0.477-0.379-0.75-0.675
	c-0.283-0.288-0.591-0.646-0.925-1.075L99,362.425l-1.175-1.675l-1.225-1.8l-1.3-1.875c-0.431-0.622-0.865-1.223-1.3-1.8
	c-0.442-0.584-0.884-1.143-1.325-1.676c-0.44-0.528-0.874-1.003-1.3-1.425c-0.427-0.423-0.844-0.789-1.25-1.1
	c-0.724-0.551-1.39-0.825-2-0.825h-0.2c-0.66,0.073-1.218,0.615-1.675,1.625c-0.466,1.025-0.791,2.65-0.975,4.875L75.25,365.6
	c-0.492,0.253-1.025,0.478-1.6,0.676c-0.586,0.202-1.211,0.377-1.875,0.524c-0.655,0.147-1.339,0.272-2.05,0.375
	c-0.71,0.098-1.444,0.173-2.2,0.226l-1.7,0.1l-1.75,0.025H62.85c-0.796-0.019-1.588-0.052-2.375-0.101
	c-0.785-0.052-1.56-0.118-2.325-0.2c-0.762-0.08-1.504-0.172-2.225-0.274c-0.726-0.099-1.425-0.207-2.1-0.325
	c-0.679-0.126-1.32-0.259-1.925-0.4c-0.591-0.143-1.141-0.293-1.65-0.449L46.225,352.8c-0.474,0.256-0.907,0.522-1.3,0.8
	c-0.393,0.273-0.743,0.558-1.05,0.851c-0.316,0.292-0.599,0.601-0.85,0.925c-0.243,0.336-0.451,0.687-0.625,1.05
	c-0.182,0.354-0.34,0.729-0.475,1.125c-0.124,0.406-0.224,0.832-0.3,1.275c-0.089,0.44-0.164,0.907-0.225,1.399
	c-0.056,0.486-0.098,0.994-0.125,1.525l-12.025,4.025l-0.025-0.025v-4.725l0.05-4.7l0.075-4.7l0.1-4.675l0.175-4.675l0.2-4.65
	l0.275-4.65l0.3-4.649l0.4-4.65l0.45-4.625l0.5-4.675c0.188-1.546,0.388-3.088,0.6-4.625l4.775-16l0.375-5.15l0.325-5.149
	l0.275-5.15l0.225-5.149l0.45-10.25L39,257.75l0.25-5.1l0.3-5.125l0.325-5.125c0.128-1.694,0.27-3.395,0.425-5.1
	c0.146-1.714,0.304-3.422,0.475-5.125c0.173-1.694,0.364-3.395,0.575-5.1c0.216-1.715,0.449-3.423,0.7-5.125
	c0.251-1.694,0.526-3.395,0.825-5.1c0.295-1.706,0.612-3.406,0.95-5.1l2.85-14.325l0.95-4.725l0.95-4.75l0.975-4.7l1-4.725l1-4.7
	l1.05-4.675l1.075-4.65l1.125-4.675l1.15-4.625l1.2-4.625l1.275-4.625l1.3-4.575L61.1,136.8l1.45-4.575
	c0.498-1.524,1.006-3.041,1.525-4.55c0.509-1.506,1.034-3.015,1.575-4.525c0.553-1.511,1.119-3.02,1.7-4.525
	c0.571-1.507,1.154-3.007,1.75-4.5c0.598-1.49,1.215-2.981,1.85-4.475c0.633-1.494,1.283-2.986,1.95-4.475
	c0.669-1.491,1.353-2.974,2.05-4.45l6.075-18.975c1.105-2.092,2.289-4.217,3.55-6.375c1.272-2.156,2.614-4.331,4.025-6.525
	c0.938-1.461,1.904-2.928,2.9-4.4c0.99-1.474,2.006-2.949,3.05-4.425c1.052-1.47,2.127-2.937,3.225-4.4
	c3.294-4.416,6.769-8.741,10.425-12.975c3.659-4.24,7.442-8.29,11.35-12.15c3.908-3.854,7.883-7.421,11.925-10.7
	c4.047-3.27,8.106-6.153,12.175-8.65c0.542-0.331,1.108-0.647,1.7-0.95c0.587-0.299,1.196-0.583,1.825-0.85
	c0.623-0.263,1.264-0.513,1.925-0.75c0.669-0.24,1.352-0.465,2.05-0.675c0.695-0.211,1.403-0.412,2.125-0.6
	c0.725-0.188,1.458-0.363,2.2-0.525l2.25-0.45L160,5.95l2.275-0.325l2.3-0.25l2.274-0.225l2.226-0.175l2.175-0.125l2.1-0.075
	l1.95-0.05h1.875h0.075H177.4z"/>
<path style="fill-rule:evenodd;clip-rule:evenodd;fill:#4F4F4F;" d="M182,6.1c0.798,0.005,1.59,0.03,2.375,0.075
	c0.787,0.039,1.562,0.098,2.325,0.175c2.021,0.212,3.879,0.662,5.575,1.35v0.05l-2.851,0.075C188.445,7.868,187.438,7.926,186.4,8
	l-3.15,0.175l-3.2,0.125l-1.55,0.025c-0.798,0.003-1.59-0.014-2.375-0.05c-0.787-0.039-1.562-0.097-2.325-0.175
	c-2.021-0.212-3.879-0.663-5.575-1.35V6.7l2.851-0.075c0.979-0.042,1.987-0.101,3.024-0.175l3.15-0.175l3.2-0.15L182,6.1z"/>
<path style="fill-rule:evenodd;clip-rule:evenodd;fill:#FFFFFF;" d="M279.875,105.725c1.464,6.359,2.864,12.734,4.2,19.125
	c1.331,6.396,2.59,12.763,3.774,19.1c1.18,6.33,2.28,12.688,3.301,19.075c1.028,6.392,1.97,12.767,2.824,19.125
	c0.847,6.35,1.597,12.742,2.25,19.175c0.659,6.445,1.218,12.887,1.676,19.325c0.453,6.429,0.795,12.912,1.024,19.45
	c0.23,6.533,0.347,13.075,0.351,19.625l0.05,6.226l0.075,6.225l0.1,6.2l0.1,6.15l0.051,6.199l0.05,6.15
	c0.001,2.036-0.016,4.077-0.05,6.125c-0.032,2.06-0.082,4.117-0.15,6.175c-0.074,2.049-0.166,4.091-0.275,6.125
	c-0.148,3.062-0.365,6.138-0.649,9.226c-0.293,3.084-0.651,6.159-1.075,9.225l-0.2,1.575l-0.125,1.625l-0.125,1.649l-0.075,1.676
	l-0.199,3.425l-0.15,1.7l-0.175,1.699c-0.07,0.562-0.154,1.12-0.25,1.676c-0.096,0.557-0.204,1.106-0.325,1.649
	c-0.123,0.54-0.265,1.073-0.425,1.601c-0.157,0.534-0.333,1.06-0.525,1.574c-0.192,0.51-0.409,1.01-0.649,1.5
	c-0.244,0.488-0.511,0.963-0.801,1.426c-0.286,0.471-0.603,0.929-0.949,1.375c-0.348,0.433-0.723,0.849-1.125,1.25
	c-0.241,0.239-0.508,0.473-0.801,0.699c-0.292,0.225-0.608,0.441-0.949,0.65c-0.339,0.206-0.697,0.406-1.075,0.6
	c-0.383,0.2-0.783,0.392-1.2,0.575L286.1,362.2l-1.375,0.5l-1.399,0.45l-1.45,0.425l-1.475,0.375l-1.476,0.35l-1.45,0.3
	l-1.399,0.301l-2.601,0.5l-2.225,0.375c-0.232-0.519-0.44-1.044-0.625-1.575c-0.195-0.531-0.379-1.073-0.55-1.625l-0.476-1.7
	l-0.475-1.7l-0.45-1.7l-0.5-1.699c-0.163-0.559-0.338-1.109-0.524-1.65c-0.182-0.537-0.373-1.062-0.575-1.575
	c-0.214-0.524-0.447-1.033-0.7-1.524c-0.24-0.479-0.499-0.937-0.775-1.375c-0.289-0.449-0.605-0.874-0.949-1.275
	c-0.334-0.401-0.692-0.776-1.075-1.125c-0.382-0.34-0.799-0.648-1.25-0.925c-0.46-0.283-0.952-0.533-1.476-0.75
	c-0.508-0.214-1.058-0.389-1.649-0.525c-0.604-0.131-1.245-0.223-1.925-0.274l-0.15,1.1l-0.25,1.225l-0.325,1.351l-0.399,1.425
	l-0.476,1.525l-0.524,1.55l-0.625,1.6l-0.676,1.601c-0.238,0.535-0.488,1.069-0.75,1.6c-0.257,0.531-0.523,1.057-0.8,1.575
	c-0.28,0.51-0.572,1.01-0.875,1.5c-0.299,0.496-0.607,0.979-0.925,1.45c-0.322,0.474-0.656,0.933-1,1.375
	c-0.342,0.436-0.691,0.853-1.05,1.25c-0.356,0.397-0.724,0.772-1.101,1.125c-0.376,0.351-0.759,0.675-1.149,0.975
	c-0.391,0.306-0.791,0.58-1.2,0.825c-0.409,0.24-0.826,0.448-1.25,0.625c-0.425,0.179-0.858,0.32-1.3,0.425
	c-0.444,0.096-0.894,0.154-1.351,0.175l-0.399,0.025c-0.394-0.001-0.794-0.034-1.2-0.101c-0.404-0.067-0.813-0.168-1.225-0.3
	c-0.484-0.148-0.976-0.348-1.476-0.6c-0.495-0.259-0.995-0.566-1.5-0.925c-1.06-0.764-1.894-1.63-2.5-2.601
	c-0.294-0.483-0.552-0.983-0.774-1.5c-0.229-0.512-0.421-1.037-0.575-1.575c-0.157-0.544-0.299-1.095-0.425-1.649
	c-0.125-0.557-0.233-1.115-0.325-1.675l-0.3-1.65l-0.301-1.6c-0.107-0.518-0.241-1.018-0.399-1.5
	c-0.168-0.496-0.359-0.971-0.575-1.426c-0.42-0.894-1.02-1.669-1.8-2.324c-0.78-0.656-1.821-1.147-3.125-1.476
	c-0.512-0.132-1.078-0.231-1.7-0.3c-0.616-0.065-1.283-0.099-2-0.1l-1.25,0.024l-5.925,1.275l-6.55,8.975
	c-0.444,0.467-0.937,0.934-1.476,1.4c-0.539,0.47-1.122,0.937-1.75,1.399c-0.624,0.463-1.283,0.913-1.975,1.351
	c-0.696,0.44-1.422,0.865-2.175,1.274c-0.748,0.408-1.515,0.792-2.301,1.15c-0.794,0.353-1.603,0.678-2.425,0.975
	c-0.812,0.305-1.629,0.571-2.45,0.801c-0.826,0.23-1.651,0.422-2.475,0.574c-0.605,0.103-1.205,0.178-1.8,0.226
	c-0.593,0.061-1.177,0.094-1.75,0.1c-0.421-0.002-0.837-0.019-1.25-0.05c-1.548-0.106-2.981-0.465-4.3-1.075
	c-0.951-0.47-1.718-1.053-2.301-1.75c-0.287-0.347-0.546-0.713-0.774-1.1c-0.223-0.384-0.415-0.783-0.575-1.2
	c-0.173-0.416-0.331-0.841-0.475-1.275c-0.132-0.427-0.249-0.86-0.351-1.3l-0.649-2.649c-0.109-0.43-0.234-0.846-0.375-1.25
	c-0.144-0.415-0.302-0.815-0.476-1.2c-0.167-0.372-0.367-0.723-0.6-1.05c-0.236-0.334-0.503-0.643-0.8-0.926
	c-0.294-0.283-0.636-0.533-1.025-0.75c-0.396-0.209-0.837-0.385-1.325-0.524c-0.397-0.121-0.84-0.213-1.325-0.275
	c-0.484-0.063-1.01-0.097-1.574-0.1l-0.775,0.024c-0.523,0.032-1.04,0.116-1.55,0.25s-1.01,0.316-1.5,0.551
	c-0.495,0.239-0.987,0.515-1.476,0.824c-0.49,0.301-0.974,0.634-1.449,1c-0.477,0.374-0.951,0.766-1.426,1.176
	c-0.471,0.417-0.938,0.851-1.399,1.3l-2.775,2.649c-0.462,0.449-0.929,0.883-1.4,1.301c-0.474,0.409-0.949,0.801-1.425,1.175
	c-0.476,0.374-0.959,0.716-1.45,1.024c-0.479,0.311-0.963,0.586-1.45,0.825c-0.499,0.234-1.007,0.418-1.525,0.55
	c-0.519,0.144-1.044,0.235-1.575,0.275h-0.4c-0.465,0.003-0.94-0.048-1.425-0.15c-0.485-0.105-0.977-0.265-1.475-0.475
	c-0.32-0.143-0.603-0.31-0.85-0.5c-0.255-0.193-0.472-0.41-0.65-0.65c-0.167-0.241-0.309-0.499-0.425-0.774
	c-0.126-0.276-0.226-0.568-0.3-0.875c-0.064-0.298-0.114-0.606-0.15-0.925c-0.039-0.326-0.063-0.66-0.075-1l-0.05-2.025L141,355.35
	l-0.1-0.949c-0.037-0.321-0.096-0.63-0.175-0.926c-0.087-0.289-0.195-0.564-0.325-0.824c-0.244-0.51-0.619-0.935-1.125-1.275
	c-0.262-0.179-0.571-0.328-0.925-0.45c-0.349-0.112-0.74-0.195-1.175-0.25l-0.875-0.1l-0.875-0.025c-0.473,0-0.939,0.025-1.4,0.075
	c-0.459,0.05-0.909,0.125-1.35,0.225c-0.705,0.163-1.396,0.372-2.075,0.625c-0.685,0.248-1.351,0.54-2,0.875
	c-0.65,0.34-1.292,0.706-1.925,1.101c-0.637,0.392-1.262,0.808-1.875,1.25l-1.825,1.35l-1.775,1.4l-1.775,1.375l-1.775,1.325
	c-0.585,0.42-1.177,0.812-1.775,1.175c-0.598,0.373-1.198,0.715-1.8,1.024c-0.614,0.307-1.239,0.565-1.875,0.775
	c-0.627,0.208-1.26,0.366-1.9,0.475l-0.8,0.101l-0.8,0.024c-0.402,0.008-0.81-0.009-1.225-0.05
	c-0.405-0.051-0.813-0.126-1.225-0.225c-1.196-0.295-2.204-0.761-3.025-1.4c-0.416-0.327-0.799-0.686-1.15-1.075
	c-0.342-0.38-0.65-0.788-0.925-1.225c-0.277-0.432-0.535-0.882-0.775-1.35c-0.245-0.478-0.47-0.97-0.675-1.476l-0.575-1.524
	l-0.575-1.525c-0.174-0.509-0.357-1.009-0.55-1.5c-0.2-0.496-0.409-0.979-0.625-1.45c-0.218-0.464-0.46-0.905-0.725-1.325
	c-0.261-0.425-0.544-0.825-0.85-1.199c-0.605-0.749-1.355-1.349-2.25-1.801c-0.448-0.216-0.948-0.383-1.5-0.5
	c-0.551-0.125-1.151-0.2-1.8-0.225h-0.225c-0.668-0.002-1.301,0.048-1.9,0.15c-0.589,0.106-1.139,0.265-1.65,0.475
	c-0.546,0.215-1.062,0.474-1.55,0.775c-0.49,0.301-0.948,0.642-1.375,1.024c-0.426,0.389-0.834,0.806-1.225,1.25
	c-0.387,0.434-0.754,0.892-1.1,1.375c-0.349,0.496-0.69,1.004-1.025,1.525c-0.334,0.516-0.66,1.04-0.975,1.575l-0.95,1.625
	l-0.975,1.574c-0.327,0.526-0.669,1.035-1.025,1.525c-0.354,0.479-0.721,0.938-1.1,1.375c-0.382,0.45-0.791,0.867-1.225,1.25
	c-0.435,0.378-0.894,0.72-1.375,1.025c-0.966,0.61-2.074,1.019-3.325,1.225l-1.05,0.15l-1.2,0.149l-1.325,0.125l-1.425,0.101
	l-0.95,0.024l-0.975,0.025l-1-0.025c-0.49-0.011-0.974-0.036-1.45-0.075c-0.485-0.044-0.96-0.103-1.425-0.175
	c-0.46-0.064-0.902-0.147-1.325-0.25c-0.421-0.106-0.821-0.231-1.2-0.375c-0.387-0.144-0.746-0.31-1.075-0.5
	c-0.323-0.194-0.615-0.41-0.875-0.649c-0.469-0.438-0.877-0.954-1.225-1.551c-0.175-0.303-0.341-0.619-0.5-0.949
	c-0.151-0.322-0.293-0.656-0.425-1l-0.4-1.051l-0.4-1.1l-0.375-1.075l-0.4-1.075c-0.133-0.352-0.274-0.693-0.425-1.024
	c-0.159-0.329-0.326-0.646-0.5-0.95c-0.168-0.302-0.352-0.585-0.55-0.85c-0.203-0.271-0.42-0.521-0.65-0.75
	c-0.452-0.449-0.986-0.791-1.6-1.025c-0.271-0.109-0.562-0.192-0.875-0.25c-0.307-0.051-0.631-0.076-0.975-0.075h-0.35
	c-0.356,0.026-0.698,0.085-1.025,0.175c-0.333,0.077-0.65,0.186-0.95,0.325c-0.303,0.15-0.594,0.326-0.875,0.525
	c-0.279,0.193-0.546,0.41-0.8,0.649c-0.257,0.241-0.507,0.5-0.75,0.775c-0.242,0.276-0.476,0.568-0.7,0.875l-0.65,0.95l-0.625,1
	l-1.275,2.075L36.05,357.8l-0.675,0.95c-0.444,0.643-0.919,1.226-1.425,1.75c-0.512,0.515-1.07,0.94-1.675,1.275l-0.05-0.025
	l3-46.025l3-0.024c-0.006-1.945,0.002-3.896,0.025-5.851c0.028-1.943,0.07-3.885,0.125-5.824c0.053-1.95,0.12-3.892,0.2-5.825
	l0.3-5.825l0.325-5.825l0.425-5.825l0.475-5.8l0.525-5.8l0.6-5.775l0.625-5.8l0.675-5.8L43.25,246l0.75-5.775l0.775-5.8l0.825-5.75
	l0.825-5.775l0.85-5.775l0.875-5.775l2.65-17.3l0.875-5.775l0.875-5.775l0.875-5.775c0.299-1.964,0.641-3.923,1.025-5.875
	c0.377-1.953,0.793-3.886,1.25-5.8c0.458-1.92,0.95-3.836,1.475-5.75c0.529-1.909,1.087-3.8,1.675-5.675
	c0.585-1.875,1.193-3.75,1.825-5.625c0.631-1.872,1.281-3.729,1.95-5.575c0.669-1.847,1.353-3.697,2.05-5.55
	c0.7-1.852,1.408-3.694,2.125-5.525l4.325-11.05l2.15-5.525l2.1-5.55c0.691-1.838,1.366-3.688,2.025-5.55
	c0.654-1.867,1.288-3.734,1.9-5.6c0.609-1.868,1.193-3.751,1.75-5.65c0.563-1.897,1.097-3.797,1.6-5.7
	c0.182-0.676,0.399-1.359,0.65-2.05c0.251-0.689,0.534-1.381,0.85-2.075c0.314-0.695,0.655-1.395,1.025-2.1
	c0.367-0.7,0.759-1.4,1.175-2.1c0.421-0.707,0.863-1.415,1.325-2.125c0.466-0.703,0.949-1.403,1.45-2.1
	c0.495-0.7,1.003-1.4,1.525-2.1c0.516-0.705,1.041-1.405,1.575-2.1l1.65-2.075l1.675-2.025l1.675-2l1.65-1.95l3.15-3.75l1.45-1.75
	l1.35-1.7l4.225-5.425l2.25-2.85l2.325-2.875l2.4-2.925l2.475-2.9c0.836-0.971,1.687-1.938,2.55-2.9c0.859-0.96,1.725-1.91,2.6-2.85
	c0.888-0.946,1.788-1.879,2.7-2.8c0.902-0.918,1.811-1.819,2.725-2.7c0.921-0.878,1.855-1.737,2.8-2.575
	c0.936-0.842,1.878-1.659,2.825-2.45c0.956-0.787,1.922-1.545,2.9-2.275c0.979-0.734,1.963-1.434,2.95-2.1
	c0.982-0.662,1.974-1.287,2.975-1.875c0.998-0.599,1.998-1.157,3-1.675c4.057-2.019,8.391-3.577,13-4.675
	c4.609-1.108,9.393-1.792,14.35-2.05l2.375-0.075l2.375-0.025c1.702-0.004,3.419,0.038,5.15,0.125
	c1.723,0.089,3.447,0.222,5.175,0.4c5.105,0.538,10.181,1.429,15.225,2.675c5.033,1.248,9.933,2.814,14.7,4.7
	c4.769,1.883,9.302,4.05,13.6,6.5c4.296,2.453,8.255,5.152,11.875,8.1c3.624,2.955,6.807,6.122,9.551,9.5
	c0.883,1.103,1.741,2.244,2.574,3.425c0.84,1.186,1.648,2.402,2.426,3.65c0.771,1.244,1.521,2.519,2.25,3.825
	c0.735,1.302,1.443,2.627,2.125,3.975c0.669,1.359,1.319,2.742,1.949,4.15c0.642,1.402,1.258,2.818,1.851,4.25
	c0.584,1.424,1.15,2.866,1.7,4.325c0.555,1.468,1.088,2.943,1.6,4.425c0.507,1.474,0.999,2.958,1.475,4.45
	c0.485,1.493,0.952,2.985,1.4,4.475c0.438,1.49,0.862,2.982,1.275,4.475c0.415,1.501,0.814,2.993,1.199,4.475l1.15,4.4l1.05,4.325
	l1,4.25L279.875,105.725z"/>
<path style="fill-rule:evenodd;clip-rule:evenodd;fill:#949494;" d="M217.65,37.575l0.925,0.025c0.6,0.026,1.191,0.084,1.774,0.175
	c0.597,0.093,1.18,0.218,1.75,0.375c0.567,0.157,1.118,0.365,1.65,0.625c0.529,0.267,1.038,0.583,1.525,0.95l-0.025,0.05l-14-2
	l-0.025-0.05l1.825-0.05l1.825-0.075l0.95-0.025h0.925H217.65z"/>
<path style="fill-rule:evenodd;clip-rule:evenodd;fill:#060606;" d="M216.075,38.425c0.896,0,1.779,0.058,2.649,0.175
	c0.869,0.116,1.72,0.292,2.551,0.525c1.801,0.513,3.401,1.313,4.8,2.4c1.395,1.09,2.462,2.482,3.2,4.175l-0.025,0.05l-11-4.8
	l-17,4.8l-0.025-0.05c0.908-1.544,2.116-2.852,3.625-3.925c1.509-1.065,3.192-1.881,5.051-2.45c1.859-0.561,3.768-0.861,5.725-0.9
	H216.075z"/>
<path style="fill-rule:evenodd;clip-rule:evenodd;fill:#060606;" d="M212.8,56.875c0.473,0.036,0.956,0.127,1.45,0.275
	c0.5,0.137,1.009,0.329,1.525,0.575c0.514,0.252,1.038,0.568,1.574,0.95c0.534,0.388,1.075,0.838,1.625,1.35
	c1.364,1.27,2.506,2.636,3.426,4.1c0.462,0.728,0.878,1.478,1.25,2.25c0.372,0.775,0.697,1.567,0.975,2.375
	c0.27,0.801,0.503,1.618,0.7,2.45c0.204,0.84,0.37,1.69,0.5,2.55c0.119,0.856,0.211,1.723,0.274,2.6
	c0.07,0.879,0.112,1.763,0.125,2.65c0.011,0.887,0.003,1.779-0.024,2.675c-0.022,0.893-0.064,1.785-0.125,2.675l-0.226,2.675
	l-0.3,2.65l-0.625,5.175l-0.3,2.5l-0.25,2.375l-0.15,1.85l-0.125,1.85l-0.25,3.675l-0.175,1.825l-0.2,1.8
	c-0.07,0.586-0.153,1.17-0.25,1.75c-0.104,0.591-0.221,1.174-0.35,1.75c-0.123,0.571-0.265,1.137-0.425,1.7
	c-0.166,0.559-0.349,1.109-0.55,1.65c-0.2,0.548-0.425,1.089-0.676,1.625c-0.251,0.535-0.525,1.06-0.824,1.575
	c-0.303,0.508-0.637,1.008-1,1.5c-0.354,0.503-0.738,0.995-1.15,1.475c-0.421,0.476-0.879,0.942-1.375,1.4
	c-0.491,0.454-1.016,0.896-1.575,1.325c-1.273,0.938-2.698,1.597-4.274,1.975c-0.78,0.184-1.581,0.326-2.4,0.425
	c-0.827,0.102-1.669,0.16-2.525,0.175h-1.149l-1.976-0.025L201,128.95l-2.45-0.125l-2.325-0.05c-0.316-1.221-0.6-2.421-0.85-3.6
	c-0.258-1.178-0.491-2.337-0.7-3.475c-0.204-1.133-0.387-2.266-0.55-3.4c-0.163-1.132-0.305-2.257-0.425-3.375
	c-0.12-1.127-0.22-2.269-0.3-3.425c-0.079-1.152-0.138-2.311-0.176-3.475c-0.035-1.164-0.052-2.356-0.05-3.575
	c-0.01-1.223-0.002-2.464,0.025-3.725l3.825-18l0.149-1.1l0.226-1.275l0.3-1.4l0.35-1.55l0.425-1.625l0.5-1.7l0.575-1.75
	l0.625-1.775c0.222-0.595,0.455-1.186,0.7-1.775c0.24-0.582,0.49-1.157,0.75-1.725c0.264-0.57,0.538-1.128,0.825-1.675
	c0.29-0.549,0.59-1.082,0.899-1.6c0.306-0.52,0.622-1.02,0.95-1.5c0.332-0.482,0.674-0.94,1.025-1.375
	c0.354-0.429,0.721-0.829,1.1-1.2c0.374-0.373,0.758-0.715,1.15-1.025c0.388-0.312,0.788-0.588,1.2-0.825
	c0.416-0.239,0.841-0.439,1.274-0.6c0.366-0.124,0.741-0.216,1.125-0.275c0.378-0.066,0.761-0.1,1.15-0.1H212.8z"/>
<path style="fill-rule:evenodd;clip-rule:evenodd;fill:#CFCCCC;" d="M146.35,61.025l1.7,0.025l1.675,0.075
	c0.717,0.056,1.417,0.131,2.1,0.225c0.68,0.089,1.338,0.198,1.975,0.325c0.638,0.12,1.247,0.262,1.825,0.425
	c0.584,0.171,1.134,0.362,1.65,0.575v0.075H133.25l-0.025-0.05c0.542-0.168,1.109-0.318,1.7-0.45c0.589-0.143,1.206-0.276,1.85-0.4
	c0.654-0.112,1.329-0.212,2.025-0.3c0.685-0.095,1.385-0.178,2.1-0.25c0.725-0.072,1.458-0.13,2.2-0.175
	c0.738-0.048,1.48-0.081,2.225-0.1H146.35z"/>
<path style="fill-rule:evenodd;clip-rule:evenodd;fill:#060606;" d="M147.2,61.925L148.4,62c0.68,0.04,1.347,0.098,2,0.175
	c0.661,0.082,1.302,0.182,1.925,0.3c0.627,0.115,1.227,0.249,1.8,0.4c0.564,0.158,1.098,0.333,1.6,0.525
	c0.507,0.183,0.973,0.382,1.4,0.6c0.426,0.226,0.81,0.468,1.15,0.725l-0.025,0.05l-27,2l-0.025-0.05
	c0.502-0.749,1.194-1.407,2.075-1.975c0.439-0.279,0.914-0.538,1.425-0.775c0.517-0.239,1.067-0.456,1.65-0.65
	c0.576-0.195,1.176-0.371,1.8-0.525c0.623-0.154,1.264-0.288,1.925-0.4c0.663-0.111,1.338-0.203,2.025-0.275
	c0.694-0.078,1.394-0.137,2.1-0.175l0.9-0.025h0.9H147.2z"/>
<path style="fill-rule:evenodd;clip-rule:evenodd;fill:#CFCCCC;" d="M147.975,65.25c0.748,0.005,1.489,0.03,2.225,0.075
	c0.736,0.038,1.461,0.096,2.175,0.175c0.871,0.098,1.712,0.248,2.525,0.45c0.827,0.208,1.619,0.466,2.375,0.775v0.05l-2.525,0.075
	l-2.65,0.125l-2.75,0.15l-2.775,0.1h-1.05c-0.748,0.003-1.489-0.013-2.225-0.05c-0.736-0.039-1.461-0.097-2.175-0.175
	c-0.871-0.098-1.712-0.248-2.525-0.45c-0.826-0.208-1.618-0.466-2.375-0.775v-0.05l2.525-0.075l2.65-0.125l2.75-0.15l2.775-0.1
	L147.975,65.25z"/>
<path style="fill-rule:evenodd;clip-rule:evenodd;fill:#3F3F3F;" d="M200.25,71.775l-0.025-6.025l0.025-0.025
	c0.14,0.291,0.257,0.566,0.35,0.825l0.226,0.775c0.117,0.488,0.176,0.963,0.175,1.425c0.001,0.461-0.058,0.937-0.175,1.425
	L200.6,70.95l-0.324,0.825H200.25z"/>
<path style="fill-rule:evenodd;clip-rule:evenodd;fill:#3F3F3F;" d="M204.15,70.425c0.051,0.657,0.067,1.332,0.05,2.025
	c-0.008,0.695-0.05,1.403-0.125,2.125c-0.083,0.721-0.191,1.454-0.325,2.2c-0.134,0.751-0.292,1.509-0.475,2.275
	c-0.185,0.76-0.384,1.527-0.601,2.3c-0.21,0.774-0.436,1.549-0.675,2.325L201.25,86l-0.775,2.3l-1.55,4.5l-0.725,2.15L197.55,97
	c-0.197,0.669-0.372,1.319-0.524,1.95c-0.165,0.623-0.307,1.223-0.426,1.8c-0.406,2.306-0.539,4.506-0.399,6.6
	c0.072,1.042,0.181,2.075,0.325,3.1c0.141,1.024,0.315,2.032,0.524,3.025l1.3,6.025c0.214,0.997,0.397,2.013,0.551,3.05
	c0.156,1.045,0.281,2.104,0.375,3.175c0.811-0.003,1.585-0.028,2.324-0.075c0.741-0.045,1.449-0.112,2.125-0.2
	c0.689-0.081,1.364-0.189,2.025-0.325c0.651-0.14,1.285-0.307,1.9-0.5c0.624-0.192,1.249-0.417,1.875-0.675
	c0.62-0.261,1.237-0.553,1.85-0.875c0.609-0.321,1.234-0.679,1.875-1.075c0.648-0.39,1.307-0.815,1.975-1.275l0.051,0.025
	c-0.632,1.771-1.573,3.095-2.825,3.975c-1.253,0.869-2.686,1.444-4.3,1.725c-0.753,0.133-1.52,0.232-2.301,0.3
	c-0.791,0.067-1.591,0.1-2.399,0.1h-0.3l-4.926-0.075l-0.574-3.425c-0.194-1.126-0.402-2.234-0.625-3.325l-0.65-3.275l-0.6-3.275
	c-0.184-1.085-0.334-2.185-0.45-3.3c-0.126-1.11-0.218-2.227-0.275-3.35c-0.058-1.131-0.058-2.29,0-3.475
	c0.067-1.181,0.192-2.381,0.375-3.6l7.775-33l0.075-0.025c0.227,0.575,0.409,1.175,0.55,1.8
	C203.978,69.138,204.086,69.771,204.15,70.425z"/>
<path style="fill-rule:evenodd;clip-rule:evenodd;fill:#060606;" d="M158.725,79.725c0.234,0.629,0.442,1.28,0.625,1.95
	c0.172,0.672,0.322,1.364,0.45,2.075c0.14,0.702,0.256,1.419,0.351,2.15c0.085,0.745,0.151,1.503,0.199,2.275
	c0.053,0.767,0.086,1.542,0.101,2.325c0.015,0.783,0.015,1.575,0,2.375c-0.018,0.797-0.051,1.597-0.101,2.4
	c-0.045,0.805-0.104,1.614-0.175,2.425c-0.079,0.819-0.171,1.636-0.274,2.45l-0.325,2.4l-0.375,2.375l-0.45,2.35l-0.475,2.25
	l-0.5,2.175l-0.525,2.075l-0.525,1.975l-0.55,1.825l-0.525,1.675l-0.525,1.5c-0.168,0.513-0.318,1.038-0.45,1.575
	c-0.135,0.542-0.252,1.092-0.35,1.65L154,125.65l-0.325,1.65c-0.121,0.553-0.271,1.094-0.45,1.625
	c-0.172,0.523-0.372,1.031-0.6,1.525c-0.468,1.007-1.143,1.915-2.025,2.725c-0.28,0.247-0.588,0.472-0.925,0.675
	c-0.349,0.207-0.724,0.391-1.125,0.55c-0.387,0.152-0.795,0.285-1.225,0.4c-0.439,0.12-0.898,0.219-1.375,0.3
	c-0.469,0.082-0.953,0.148-1.45,0.2c-0.506,0.049-1.022,0.082-1.55,0.1l-1.175,0.025l-1-0.025l-1.025-0.05l-1.625-0.1l-1.625-0.15
	l-1.6-0.2l-1.525-0.225l-1.45-0.225l-1.375-0.25l-2.325-0.425c-0.218-1.625-0.401-3.225-0.55-4.8
	c-0.15-1.567-0.275-3.109-0.375-4.625c-0.095-1.519-0.162-3.035-0.2-4.55c-0.037-1.52-0.045-3.029-0.025-4.525
	c0.017-1.496,0.066-3.004,0.15-4.525c0.092-1.523,0.217-3.048,0.375-4.575c0.154-1.523,0.345-3.073,0.575-4.65
	c0.223-1.584,0.481-3.184,0.775-4.8l5.25-22l1.25-0.175c0.403-0.065,0.803-0.148,1.2-0.25l1.2-0.35l1.175-0.425l1.175-0.45
	l1.175-0.475l1.15-0.45l1.175-0.425c0.381-0.138,0.765-0.263,1.15-0.375c0.393-0.105,0.784-0.197,1.175-0.275
	c0.381-0.087,0.765-0.154,1.15-0.2c0.392-0.038,0.784-0.054,1.175-0.05c0.412-0.004,0.821,0.021,1.225,0.075
	c0.399,0.063,0.799,0.154,1.2,0.275c0.404,0.113,0.812,0.263,1.225,0.45c0.415,0.197,0.832,0.431,1.25,0.7
	c0.513,0.332,0.997,0.698,1.45,1.1c0.449,0.401,0.866,0.834,1.25,1.3c0.394,0.47,0.76,0.97,1.1,1.5
	c0.338,0.532,0.646,1.09,0.925,1.675C158.249,78.483,158.499,79.092,158.725,79.725z"/>
<path style="fill-rule:evenodd;clip-rule:evenodd;fill:#3F3F3F;" d="M151.275,73.625l0.975,0.05l2.025,5.025l-0.025,0.05l-3.025-4
	c-0.711,0.053-1.378,0.145-2,0.275c-0.624,0.137-1.199,0.312-1.725,0.525c-1.053,0.416-1.936,0.991-2.65,1.725
	c-0.717,0.733-1.283,1.634-1.7,2.7c-0.208,0.538-0.382,1.121-0.525,1.75c-0.15,0.625-0.267,1.292-0.35,2l-4.025,0.025l-0.975-5.6
	v2.25l-0.075,1.3l-0.125,1.25c-0.053,0.41-0.128,0.819-0.225,1.225c-0.096,0.405-0.213,0.805-0.35,1.2
	c-0.144,0.4-0.319,0.8-0.525,1.2c-0.204,0.395-0.438,0.787-0.7,1.175l0.125-1.675l0.15-1.675c0.043-0.563,0.101-1.122,0.175-1.675
	c0.084-0.551,0.185-1.092,0.3-1.625c0.106-0.533,0.248-1.05,0.425-1.55c0.183-0.503,0.399-0.986,0.65-1.45l0.125-0.2v-0.175
	l0.025-0.05l0.05,0.075c0.242-0.388,0.525-0.755,0.85-1.1c0.319-0.34,0.677-0.657,1.075-0.95l0.05,0.025v6.95h1.95
	c0.056-1.878,0.323-3.428,0.8-4.65c0.493-1.238,1.202-2.196,2.125-2.875c0.918-0.668,2.051-1.11,3.4-1.325
	c0.419-0.067,0.861-0.117,1.325-0.15c0.472-0.034,0.964-0.05,1.475-0.05H151.275z"/>
<path style="fill-rule:evenodd;clip-rule:evenodd;fill:#CFCCCC;" d="M227.95,83.75l-0.025,1.575l-0.075,1.525l-0.125,1.525
	l-0.199,1.45l-0.226,1.4c-0.091,0.441-0.19,0.866-0.3,1.275c-0.1,0.419-0.208,0.819-0.325,1.2c-0.125,0.38-0.259,0.738-0.399,1.075
	h-0.025l-0.025-22.025l0.025-0.025c0.159,0.343,0.301,0.702,0.425,1.075c0.117,0.372,0.226,0.764,0.325,1.175
	c0.109,0.417,0.209,0.85,0.3,1.3l0.226,1.4l0.199,1.45l0.125,1.525l0.075,1.525L227.95,83.75z"/>
<path style="fill-rule:evenodd;clip-rule:evenodd;fill:#949494;" d="M133.25,80.775l-0.025-6.025l0.025-0.025
	c0.14,0.291,0.257,0.566,0.35,0.825l0.225,0.775c0.118,0.488,0.176,0.963,0.175,1.425c0.001,0.461-0.057,0.937-0.175,1.425
	L133.6,79.95l-0.325,0.825H133.25z"/>
<path style="fill-rule:evenodd;clip-rule:evenodd;fill:#6E6E6E;" d="M161.25,88.725l0.1,2.25l0.025,2.275l-0.025,2.275l-0.1,2.25
	l-0.175,2.175c-0.064,0.718-0.14,1.418-0.226,2.1c-0.088,0.674-0.188,1.325-0.3,1.95c-0.105,0.621-0.223,1.212-0.35,1.775
	c-0.13,0.578-0.271,1.119-0.425,1.625c-0.156,0.498-0.323,0.956-0.5,1.375h-0.025l-0.025-31.025l0.025-0.025
	c0.194,0.426,0.37,0.885,0.525,1.375c0.153,0.506,0.295,1.047,0.425,1.625c0.127,0.562,0.244,1.154,0.35,1.775
	c0.111,0.625,0.212,1.276,0.3,1.95c0.086,0.681,0.161,1.381,0.226,2.1L161.25,88.725z"/>
<path style="fill-rule:evenodd;clip-rule:evenodd;fill:#3F3F3F;" d="M158.35,92.075l-0.024,1.65l-0.101,1.675l-0.149,1.675
	l-0.2,1.65l-0.225,1.65l-0.275,1.6l-0.3,1.55L156.75,105l-0.35,1.4l-0.4,1.325l-0.4,1.2l-0.425,1.1
	c-0.147,0.341-0.297,0.657-0.45,0.95c-0.148,0.292-0.298,0.559-0.45,0.8h-0.025l-0.025-0.025c0.094-1.366,0.202-2.724,0.325-4.075
	c0.12-1.342,0.253-2.667,0.4-3.975l0.425-3.95l0.375-3.925c0.117-1.298,0.2-2.606,0.25-3.925c0.042-1.323,0.05-2.648,0.025-3.975
	c-0.017-1.321-0.092-2.663-0.225-4.025c-0.135-1.373-0.327-2.756-0.575-4.15l0.05-0.025c0.23,0.206,0.447,0.439,0.65,0.7
	c0.207,0.258,0.398,0.542,0.575,0.85c0.171,0.302,0.329,0.626,0.475,0.975c0.147,0.354,0.28,0.729,0.4,1.125
	c0.119,0.398,0.228,0.815,0.325,1.25c0.104,0.434,0.195,0.884,0.274,1.35l0.176,1.425l0.125,1.5l0.074,1.575V92.075z"/>
<path style="fill-rule:evenodd;clip-rule:evenodd;fill:#3F3F3F;" d="M279.25,92.775l-0.025-6.025l0.025-0.025
	c0.14,0.291,0.257,0.566,0.35,0.825l0.226,0.775c0.117,0.488,0.176,0.963,0.175,1.425c0.001,0.461-0.058,0.937-0.175,1.425
	L279.6,91.95l-0.324,0.825H279.25z"/>
<path style="fill-rule:evenodd;clip-rule:evenodd;fill:#3F3F3F;" d="M133.25,94.775l-0.025-6.025l0.025-0.025
	c0.14,0.291,0.257,0.566,0.35,0.825l0.225,0.775c0.118,0.488,0.176,0.963,0.175,1.425c0.001,0.461-0.057,0.937-0.175,1.425
	L133.6,93.95l-0.325,0.825H133.25z"/>
<path style="fill-rule:evenodd;clip-rule:evenodd;fill:#3F3F3F;" d="M222.775,105.175c-0.075,0.82-0.184,1.637-0.325,2.45
	c-0.141,0.812-0.316,1.613-0.525,2.4c-0.208,0.793-0.45,1.568-0.725,2.325c-0.273,0.752-0.582,1.478-0.925,2.175
	c-0.343,0.691-0.718,1.349-1.125,1.975c-0.824,1.271-1.782,2.362-2.875,3.275l1.199-3.4c0.386-1.099,0.735-2.166,1.051-3.2
	c0.321-1.035,0.612-2.068,0.875-3.1c0.256-1.026,0.481-2.042,0.675-3.05c0.201-1.013,0.376-2.046,0.524-3.1
	c0.144-1.053,0.261-2.12,0.351-3.2c0.089-1.082,0.155-2.207,0.2-3.375c0.048-1.165,0.072-2.365,0.074-3.6l0.025-0.025
	c0.293,0.659,0.543,1.342,0.75,2.05c0.201,0.707,0.368,1.44,0.5,2.2c0.133,0.758,0.233,1.533,0.3,2.325
	c0.059,0.797,0.084,1.606,0.075,2.425C222.876,103.54,222.843,104.356,222.775,105.175z"/>
<path style="fill-rule:evenodd;clip-rule:evenodd;fill:#3F3F3F;" d="M194.125,106.875l0.025,1.875l-0.025,1.875l-0.1,1.875
	l-0.15,1.8l-0.2,1.725c-0.073,0.568-0.156,1.118-0.25,1.65c-0.099,0.53-0.207,1.039-0.325,1.525
	c-0.114,0.477-0.239,0.927-0.375,1.35c-0.14,0.438-0.29,0.847-0.449,1.225h-0.025l-0.025-26.025l0.025-0.025
	c0.177,0.386,0.335,0.794,0.475,1.225c0.136,0.423,0.261,0.873,0.375,1.35c0.118,0.487,0.227,0.995,0.325,1.525
	c0.094,0.532,0.177,1.082,0.25,1.65l0.2,1.725l0.15,1.8L194.125,106.875z"/>
<path style="fill-rule:evenodd;clip-rule:evenodd;fill:#6E6E6E;" d="M224.25,111.775l-0.025-16.025l0.025-0.025
	c0.245,0.562,0.453,1.153,0.625,1.775c0.17,0.617,0.312,1.267,0.425,1.95c0.112,0.694,0.195,1.402,0.25,2.125
	c0.062,0.716,0.096,1.441,0.101,2.175c-0.005,0.734-0.039,1.459-0.101,2.175c-0.055,0.723-0.138,1.431-0.25,2.125
	c-0.113,0.684-0.255,1.333-0.425,1.95c-0.173,0.629-0.372,1.221-0.6,1.775H224.25z"/>
<path style="fill-rule:evenodd;clip-rule:evenodd;fill:#3F3F3F;" d="M127.25,110.775l-0.025-11.025l0.025-0.025
	c0.198,0.438,0.364,0.879,0.5,1.325c0.14,0.451,0.256,0.909,0.35,1.375c0.088,0.462,0.155,0.929,0.2,1.4
	c0.04,0.474,0.056,0.949,0.05,1.425c0.006,0.476-0.011,0.951-0.05,1.425c-0.044,0.471-0.111,0.938-0.2,1.4
	c-0.094,0.466-0.21,0.924-0.35,1.375c-0.137,0.452-0.295,0.894-0.475,1.325H127.25z"/>
<path style="fill-rule:evenodd;clip-rule:evenodd;fill:#CFCCCC;" d="M279.25,106.775l-0.025-6.025l0.025-0.025
	c0.14,0.291,0.257,0.566,0.35,0.825l0.226,0.775c0.117,0.488,0.176,0.963,0.175,1.425c0.001,0.461-0.058,0.937-0.175,1.425
	l-0.226,0.775l-0.324,0.825H279.25z"/>
<path style="fill-rule:evenodd;clip-rule:evenodd;fill:#3F3F3F;" d="M130.25,111.775l-0.025-10.025l0.025-0.025
	c0.695,1.634,1.045,3.309,1.05,5.025c-0.006,1.722-0.348,3.397-1.025,5.025H130.25z"/>
<path style="fill-rule:evenodd;clip-rule:evenodd;fill:#6E6E6E;" d="M284.25,113.775l-0.025-6.025l0.025-0.025
	c0.14,0.291,0.257,0.566,0.35,0.825l0.226,0.775c0.117,0.488,0.176,0.963,0.175,1.425c0.001,0.461-0.058,0.937-0.175,1.425
	l-0.226,0.775l-0.324,0.825H284.25z"/>
<path style="fill-rule:evenodd;clip-rule:evenodd;fill:#6E6E6E;" d="M281.25,114.775l-0.025-6.025l0.025-0.025
	c0.141,0.291,0.258,0.566,0.35,0.825l0.226,0.775c0.117,0.488,0.176,0.963,0.175,1.425c0.001,0.461-0.058,0.937-0.175,1.425
	l-0.226,0.775l-0.324,0.825H281.25z"/>
<path style="fill-rule:evenodd;clip-rule:evenodd;fill:#949494;" d="M126.225,122.45c-0.107,0.597-0.241,1.172-0.4,1.725
	c-0.158,0.56-0.342,1.093-0.55,1.6h-0.025l-0.025-14.025l0.025-0.025c0.226,0.514,0.418,1.047,0.575,1.6
	c0.159,0.552,0.292,1.127,0.4,1.725c0.1,0.598,0.175,1.207,0.225,1.825c0.051,0.619,0.076,1.244,0.075,1.875
	c0.001,0.631-0.024,1.256-0.075,1.875C126.4,121.244,126.325,121.852,126.225,122.45z"/>
<path style="fill-rule:evenodd;clip-rule:evenodd;fill:#3F3F3F;" d="M152.475,116.25c0.305-0.665,0.605-1.29,0.9-1.875
	c0.291-0.593,0.574-1.143,0.85-1.65l0.05,0.025c0.093,0.532,0.152,1.082,0.175,1.65c0.01,0.578-0.015,1.169-0.075,1.775
	c-0.047,0.599-0.122,1.207-0.225,1.825c-0.115,0.628-0.256,1.261-0.425,1.9c-0.163,0.631-0.346,1.265-0.55,1.9
	c-0.198,0.636-0.414,1.269-0.65,1.9c-0.245,0.63-0.503,1.255-0.775,1.875c-0.272,0.618-0.556,1.227-0.85,1.825
	c-0.286,0.605-0.577,1.197-0.875,1.775c-0.305,0.568-0.613,1.118-0.925,1.65l-0.925,1.55c-0.304,0.492-0.604,0.959-0.9,1.4h-0.025
	l-17-2l-0.025-0.025l1-4l0.05-0.025c1.606,1.798,3.106,3.082,4.5,3.85c1.271,0.709,2.463,1.067,3.575,1.075l0.3-0.025
	c1.199-0.064,2.315-0.447,3.35-1.15c1.028-0.71,1.987-1.644,2.875-2.8c0.447-0.583,0.88-1.2,1.3-1.85
	c0.425-0.646,0.833-1.321,1.225-2.025c0.386-0.707,0.761-1.424,1.125-2.15c0.363-0.721,0.713-1.445,1.05-2.175L152.475,116.25z"/>
<path style="fill-rule:evenodd;clip-rule:evenodd;fill:#3F3F3F;" d="M128.25,125.775l-0.025-12.025l0.025-0.025
	c0.208,0.466,0.382,0.941,0.525,1.425c0.141,0.479,0.257,0.971,0.35,1.475c0.098,0.51,0.173,1.027,0.225,1.55
	c0.049,0.522,0.074,1.047,0.075,1.575c-0.001,0.528-0.026,1.053-0.075,1.575c-0.052,0.523-0.127,1.04-0.225,1.55
	c-0.093,0.504-0.209,0.996-0.35,1.475c-0.143,0.49-0.31,0.965-0.5,1.425H128.25z"/>
<path style="fill-rule:evenodd;clip-rule:evenodd;fill:#3F3F3F;" d="M154.25,126.775l-0.025-7.025l0.025-0.025
	c0.15,0.33,0.275,0.646,0.375,0.95c0.1,0.299,0.183,0.591,0.25,0.875c0.066,0.285,0.117,0.568,0.15,0.85
	c0.033,0.287,0.05,0.57,0.05,0.85s-0.017,0.563-0.05,0.85c-0.033,0.282-0.083,0.565-0.15,0.85c-0.067,0.283-0.15,0.575-0.25,0.875
	c-0.101,0.311-0.217,0.627-0.35,0.95H154.25z"/>
<path style="fill-rule:evenodd;clip-rule:evenodd;fill:#B4B4B4;" d="M284.625,128.825c-0.101,0.311-0.217,0.627-0.35,0.95h-0.025
	l-0.025-7.025l0.025-0.025c0.15,0.33,0.275,0.646,0.375,0.95c0.1,0.299,0.184,0.591,0.25,0.875c0.066,0.285,0.116,0.568,0.15,0.85
	c0.033,0.287,0.05,0.57,0.05,0.85s-0.017,0.563-0.05,0.85c-0.034,0.282-0.084,0.565-0.15,0.85
	C284.809,128.233,284.725,128.525,284.625,128.825z"/>
<path style="fill-rule:evenodd;clip-rule:evenodd;fill:#949494;" d="M205.275,128.425c0.671-0.004,1.338,0.013,2,0.05
	c0.667,0.038,1.326,0.096,1.975,0.175c0.71,0.091,1.401,0.225,2.075,0.4c0.673,0.176,1.322,0.393,1.95,0.65v0.05l-2.101,0.05
	l-2.149,0.1l-2.2,0.1l-2.226,0.05h-0.375c-0.672,0.004-1.339-0.012-2-0.05c-0.668-0.047-1.326-0.114-1.975-0.2
	c-0.71-0.091-1.401-0.225-2.075-0.4c-0.673-0.168-1.323-0.376-1.95-0.625v-0.05l2.101-0.075l2.149-0.1l2.2-0.075l2.226-0.05H205.275
	z"/>
<path style="fill-rule:evenodd;clip-rule:evenodd;fill:#4F4F4F;" d="M286.25,139.775l-1.025-10.025l0.051-0.025
	c0.289,0.384,0.547,0.775,0.774,1.175c0.225,0.386,0.416,0.778,0.575,1.175c0.155,0.411,0.28,0.827,0.375,1.25
	c0.098,0.413,0.164,0.83,0.2,1.25c0.036,0.421,0.045,0.846,0.024,1.275c-0.021,0.432-0.071,0.865-0.149,1.3
	c-0.081,0.431-0.189,0.864-0.325,1.3c-0.132,0.442-0.29,0.883-0.475,1.325H286.25z"/>
<path style="fill-rule:evenodd;clip-rule:evenodd;fill:#3F3F3F;" d="M140.95,134.35c0.688,0.004,1.372,0.029,2.05,0.075
	c0.685,0.038,1.36,0.096,2.025,0.175c0.754,0.098,1.488,0.239,2.2,0.425c0.709,0.182,1.393,0.407,2.05,0.675v0.05l-2.2,0.05
	l-2.275,0.1l-2.35,0.125l-2.35,0.05h-0.55c-0.688,0.004-1.372-0.013-2.05-0.05c-0.686-0.038-1.361-0.096-2.025-0.175
	c-0.755-0.097-1.488-0.239-2.2-0.425c-0.709-0.182-1.393-0.407-2.05-0.675v-0.05l2.2-0.05l2.275-0.125l2.35-0.1l2.35-0.05
	L140.95,134.35z"/>
<path style="fill-rule:evenodd;clip-rule:evenodd;fill:#949494;" d="M289.25,157.775l-0.025-10.025l0.025-0.025
	c0.694,1.634,1.045,3.309,1.05,5.025c-0.006,1.722-0.348,3.397-1.024,5.025H289.25z"/>
<path style="fill-rule:evenodd;clip-rule:evenodd;fill:#B4B4B4;" d="M57.25,159.775l-0.025-6.025l0.025-0.025
	c0.14,0.291,0.257,0.566,0.35,0.825l0.225,0.775c0.118,0.488,0.176,0.963,0.175,1.425c0.001,0.461-0.057,0.937-0.175,1.425
	L57.6,158.95l-0.325,0.825H57.25z"/>
<path style="fill-rule:evenodd;clip-rule:evenodd;fill:#6E6E6E;" d="M52.25,168.775l-0.025-6.025l0.025-0.025
	c0.14,0.291,0.257,0.566,0.35,0.825l0.225,0.775c0.118,0.488,0.176,0.963,0.175,1.425c0.001,0.461-0.057,0.937-0.175,1.425
	L52.6,167.95l-0.325,0.825H52.25z"/>
<path style="fill-rule:evenodd;clip-rule:evenodd;fill:#CFCCCC;" d="M292.25,173.775l-0.025-10.025l0.025-0.025
	c0.694,1.634,1.045,3.309,1.05,5.025c-0.006,1.722-0.348,3.397-1.024,5.025H292.25z"/>
<path style="fill-rule:evenodd;clip-rule:evenodd;fill:#B4B4B4;" d="M299.25,189.775l-0.025-6.025l0.025-0.025
	c0.141,0.291,0.257,0.566,0.35,0.825l0.226,0.775c0.117,0.488,0.176,0.963,0.175,1.425c0.001,0.461-0.058,0.937-0.175,1.425
	l-0.226,0.775l-0.324,0.825H299.25z"/>
<path style="fill-rule:evenodd;clip-rule:evenodd;fill:#060606;" d="M124.35,187.725c1.911-0.008,3.803,0.026,5.675,0.1
	c1.883,0.084,3.733,0.209,5.55,0.375c1.819,0.162,3.628,0.37,5.425,0.625c1.807,0.255,3.59,0.555,5.35,0.9
	c1.76,0.349,3.518,0.749,5.275,1.2c1.755,0.444,3.497,0.936,5.225,1.475c1.725,0.544,3.458,1.145,5.2,1.8
	c1.746,0.649,3.487,1.349,5.226,2.1l2.125,0.925l2.25,1c0.769,0.35,1.526,0.725,2.274,1.125c0.74,0.394,1.466,0.811,2.175,1.25
	c1.429,0.886,2.688,1.911,3.775,3.075c1.09,1.176,1.89,2.534,2.4,4.075l-0.025,0.025c-0.896-0.178-1.779-0.386-2.65-0.625
	c-0.866-0.238-1.716-0.504-2.55-0.8c-0.84-0.304-1.673-0.628-2.5-0.975c-0.82-0.339-1.628-0.697-2.425-1.075
	c-0.802-0.379-1.602-0.771-2.4-1.175c-0.799-0.408-1.59-0.825-2.375-1.25l-4.699-2.6L160.275,198l-2.4-1.225
	c-0.797-0.407-1.605-0.798-2.425-1.175c-0.819-0.376-1.644-0.735-2.475-1.075c-0.842-0.333-1.701-0.642-2.575-0.925
	c-0.865-0.286-1.74-0.544-2.625-0.775c-0.888-0.235-1.796-0.435-2.725-0.6c-0.927-0.168-1.869-0.302-2.825-0.4l-1.025-0.075
	l-1.125-0.05l-2.425-0.05l-1.3-0.05l-1.3-0.05l-1.325-0.075l-1.3-0.1l-1.3-0.175l-1.25-0.225c-0.403-0.078-0.794-0.17-1.175-0.275
	c-0.381-0.112-0.748-0.237-1.1-0.375c-0.358-0.141-0.7-0.299-1.025-0.475c-0.328-0.175-0.636-0.366-0.925-0.575
	c-0.28-0.211-0.539-0.444-0.775-0.7c-0.241-0.247-0.458-0.513-0.65-0.8l0.025-0.05H124.35z"/>
<path style="fill-rule:evenodd;clip-rule:evenodd;fill:#949494;" d="M298.425,195.6c0.164,0.755,0.313,1.555,0.45,2.4
	c0.139,0.845,0.264,1.728,0.375,2.65c0.105,0.921,0.196,1.872,0.275,2.85c0.08,0.978,0.146,1.978,0.199,3
	c0.056,1.021,0.098,2.054,0.125,3.1c0.031,1.045,0.048,2.095,0.051,3.15c-0.003,1.055-0.02,2.105-0.051,3.15
	c-0.027,1.045-0.069,2.079-0.125,3.1c-0.053,1.021-0.119,2.021-0.199,3c-0.079,0.978-0.17,1.928-0.275,2.85
	c-0.111,0.922-0.236,1.805-0.375,2.65c-0.137,0.844-0.286,1.644-0.45,2.4c-0.16,0.756-0.336,1.456-0.524,2.1
	c-0.196,0.652-0.404,1.244-0.625,1.775h-0.025l-0.025-42.025l0.025-0.025c0.238,0.538,0.455,1.13,0.65,1.775
	C298.089,194.144,298.265,194.844,298.425,195.6z"/>
<path style="fill-rule:evenodd;clip-rule:evenodd;fill:#3F3F3F;" d="M301.4,195.5c0.163,0.74,0.312,1.523,0.449,2.35
	c0.131,0.829,0.247,1.696,0.351,2.6c0.113,0.897,0.213,1.822,0.3,2.775c0.081,0.954,0.147,1.929,0.2,2.925
	c0.046,0.997,0.079,2.005,0.1,3.025c0.03,1.021,0.047,2.045,0.05,3.075c-0.003,1.03-0.02,2.055-0.05,3.075
	c-0.021,1.02-0.054,2.028-0.1,3.025c-0.053,0.996-0.119,1.971-0.2,2.925c-0.087,0.953-0.187,1.877-0.3,2.775
	c-0.104,0.904-0.22,1.771-0.351,2.6c-0.137,0.826-0.286,1.609-0.449,2.35c-0.161,0.737-0.337,1.421-0.525,2.05
	c-0.188,0.634-0.388,1.208-0.6,1.725h-0.025l-0.025-41.025l0.025-0.025c0.23,0.523,0.438,1.099,0.625,1.725
	C301.063,194.079,301.239,194.763,301.4,195.5z"/>
<path style="fill-rule:evenodd;clip-rule:evenodd;fill:#CFCCCC;" d="M49.25,201.775l-0.025-6.025l0.025-0.025
	c0.14,0.291,0.257,0.566,0.35,0.825l0.225,0.775c0.118,0.488,0.176,0.963,0.175,1.425c0.001,0.461-0.057,0.937-0.175,1.425
	L49.6,200.95l-0.325,0.825H49.25z"/>
<path style="fill-rule:evenodd;clip-rule:evenodd;fill:#4F4F4F;" d="M300.8,240.725c0.185,0.89,0.343,1.806,0.476,2.75
	c0.135,0.938,0.243,1.896,0.324,2.875c0.078,0.99,0.137,1.999,0.176,3.025c0.044,1.021,0.069,2.055,0.074,3.1
	c0.005,1.048-0.003,2.106-0.024,3.176c-0.029,1.064-0.07,2.131-0.125,3.199l-0.175,3.2l-0.2,3.226l-0.476,6.25l-0.225,3
	l-0.175,2.899l-0.125,2.75c-0.03,0.89-0.047,1.748-0.05,2.575l0.05,2.05l0.1,2.175l0.101,2.2l0.05,2.226
	c0.008,0.739-0.009,1.472-0.05,2.199c-0.043,0.729-0.109,1.445-0.2,2.15c-0.092,0.71-0.225,1.401-0.4,2.075
	c-0.176,0.673-0.393,1.322-0.649,1.95h-0.025l-0.025-64.025l0.025-0.025c0.333,0.771,0.624,1.571,0.875,2.4
	C300.384,238.962,300.608,239.829,300.8,240.725z"/>
<path style="fill-rule:evenodd;clip-rule:evenodd;fill:#6E6E6E;" d="M303.325,240.75c0.091,0.706,0.157,1.422,0.2,2.15
	c0.041,0.728,0.058,1.46,0.05,2.2l-0.05,2.226l-0.101,2.2l-0.1,2.175l-0.05,2.05l0.05,2.475l0.125,2.625l0.175,2.775l0.2,2.875
	l0.45,6l0.199,3.05l0.15,3.075c0.046,1.027,0.079,2.053,0.1,3.075c0.021,1.018,0.03,2.026,0.025,3.024
	c0.002,1.003-0.015,1.994-0.05,2.976c-0.048,0.976-0.114,1.934-0.2,2.875c-0.074,0.944-0.175,1.869-0.3,2.774
	c-0.134,0.909-0.292,1.792-0.476,2.65c-0.176,0.853-0.384,1.678-0.625,2.475c-0.244,0.8-0.52,1.566-0.824,2.301h-0.025
	l-0.025-62.025l0.025-0.025c0.274,0.634,0.499,1.284,0.675,1.95C303.101,239.348,303.233,240.04,303.325,240.75z"/>
<path style="fill-rule:evenodd;clip-rule:evenodd;fill:#4F4F4F;" d="M39.25,247.775l-0.025-6.025l0.025-0.025
	c0.14,0.291,0.257,0.566,0.35,0.825l0.225,0.775c0.118,0.488,0.176,0.963,0.175,1.425c0.001,0.462-0.057,0.937-0.175,1.425
	L39.6,246.95l-0.325,0.825H39.25z"/>
<path style="fill-rule:evenodd;clip-rule:evenodd;fill:#6E6E6E;" d="M42.25,247.775l-0.025-6.025l0.025-0.025
	c0.14,0.291,0.257,0.566,0.35,0.825l0.225,0.775c0.118,0.488,0.176,0.963,0.175,1.425c0.001,0.462-0.057,0.937-0.175,1.425
	L42.6,246.95l-0.325,0.825H42.25z"/>
<path style="fill-rule:evenodd;clip-rule:evenodd;fill:#B4B4B4;" d="M37.25,257.775l-0.025-7.025l0.025-0.025
	c0.15,0.33,0.275,0.646,0.375,0.95c0.1,0.3,0.183,0.591,0.25,0.875c0.066,0.285,0.117,0.568,0.15,0.851
	c0.033,0.286,0.05,0.57,0.05,0.85c0,0.28-0.017,0.563-0.05,0.85c-0.033,0.282-0.083,0.565-0.15,0.851
	c-0.067,0.283-0.15,0.575-0.25,0.875c-0.101,0.311-0.217,0.627-0.35,0.95H37.25z"/>
<path style="fill-rule:evenodd;clip-rule:evenodd;fill:#CFCCCC;" d="M41.25,258.775l-0.025-8.025l0.025-0.025
	c0.168,0.359,0.31,0.71,0.425,1.051c0.11,0.338,0.202,0.672,0.275,1c0.068,0.333,0.118,0.667,0.15,1
	c0.035,0.327,0.052,0.652,0.05,0.975c0.002,0.322-0.015,0.647-0.05,0.975c-0.032,0.333-0.082,0.667-0.15,1
	c-0.074,0.329-0.166,0.662-0.275,1c-0.116,0.349-0.249,0.698-0.4,1.051H41.25z"/>
<path style="fill-rule:evenodd;clip-rule:evenodd;fill:#3F3F3F;" d="M37.35,263.275c0.154,0.686,0.296,1.41,0.425,2.175
	c0.122,0.766,0.229,1.566,0.325,2.399c0.104,0.834,0.195,1.692,0.275,2.575c0.071,0.881,0.129,1.781,0.175,2.7
	c0.054,0.923,0.096,1.856,0.125,2.8c0.021,0.938,0.029,1.88,0.025,2.825c0.004,0.945-0.004,1.888-0.025,2.825
	c-0.029,0.944-0.071,1.877-0.125,2.8c-0.045,0.919-0.104,1.819-0.175,2.7c-0.08,0.883-0.171,1.741-0.275,2.575
	c-0.096,0.833-0.204,1.633-0.325,2.399c-0.129,0.764-0.271,1.489-0.425,2.175c-0.153,0.69-0.32,1.332-0.5,1.926
	c-0.18,0.594-0.372,1.136-0.575,1.625H36.25l-0.025-38.025l0.025-0.025c0.222,0.496,0.421,1.038,0.6,1.625
	C37.03,261.943,37.197,262.585,37.35,263.275z"/>
<path style="fill-rule:evenodd;clip-rule:evenodd;fill:#949494;" d="M40.35,264.275c0.154,0.686,0.296,1.41,0.425,2.175
	c0.121,0.766,0.229,1.566,0.325,2.399c0.104,0.834,0.195,1.692,0.275,2.575c0.071,0.881,0.129,1.781,0.175,2.7
	c0.055,0.923,0.096,1.856,0.125,2.8c0.021,0.938,0.03,1.88,0.025,2.825c0.004,0.945-0.004,1.888-0.025,2.825
	c-0.029,0.943-0.07,1.877-0.125,2.8c-0.045,0.919-0.104,1.819-0.175,2.7c-0.08,0.883-0.171,1.741-0.275,2.575
	c-0.096,0.833-0.204,1.633-0.325,2.399c-0.129,0.764-0.271,1.489-0.425,2.175c-0.153,0.69-0.32,1.332-0.5,1.926
	c-0.18,0.594-0.371,1.136-0.575,1.625H39.25l-0.025-38.025l0.025-0.025c0.222,0.496,0.421,1.038,0.6,1.625
	C40.03,262.943,40.197,263.585,40.35,264.275z"/>
<path style="fill-rule:evenodd;clip-rule:evenodd;fill:#CFCCCC;" d="M300.25,319.775l-0.025-18.025l0.025-0.025
	c0.264,0.6,0.488,1.241,0.675,1.926c0.182,0.697,0.331,1.438,0.45,2.225c0.122,0.773,0.214,1.565,0.275,2.375
	c0.063,0.82,0.097,1.653,0.1,2.5c-0.003,0.847-0.036,1.68-0.1,2.5c-0.062,0.81-0.153,1.602-0.275,2.375
	c-0.119,0.786-0.269,1.527-0.45,2.225c-0.187,0.691-0.403,1.333-0.649,1.926H300.25z"/>
<path style="fill-rule:evenodd;clip-rule:evenodd;fill:#3F3F3F;" d="M37.25,314.775l-0.025-12.025l0.025-0.025
	c0.208,0.467,0.382,0.941,0.525,1.426c0.141,0.479,0.257,0.971,0.35,1.475c0.098,0.511,0.173,1.027,0.225,1.55
	c0.049,0.522,0.074,1.048,0.075,1.575c-0.001,0.528-0.026,1.053-0.075,1.575c-0.052,0.523-0.127,1.04-0.225,1.55
	c-0.093,0.504-0.209,0.995-0.35,1.475c-0.143,0.49-0.31,0.966-0.5,1.426H37.25z"/>
<path style="fill-rule:evenodd;clip-rule:evenodd;fill:#4F4F4F;" d="M32.825,318.15l-0.075,1.399l-0.125,1.375l-0.175,1.3
	l-0.2,1.275l-0.275,1.175c-0.101,0.383-0.208,0.75-0.325,1.101c-0.117,0.352-0.242,0.685-0.375,1H31.25l-0.025-20.025l0.025-0.025
	c0.15,0.322,0.284,0.655,0.4,1c0.117,0.351,0.225,0.718,0.325,1.101L32.25,310l0.2,1.275l0.175,1.3l0.125,1.375l0.075,1.399
	l0.025,1.4L32.825,318.15z"/>
<path style="fill-rule:evenodd;clip-rule:evenodd;fill:#6E6E6E;" d="M34.25,327.775l-0.025-12.025l0.025-0.025
	c0.208,0.467,0.382,0.941,0.525,1.426c0.141,0.479,0.257,0.971,0.35,1.475c0.098,0.511,0.173,1.027,0.225,1.55
	c0.049,0.522,0.074,1.048,0.075,1.575c-0.001,0.528-0.026,1.053-0.075,1.575c-0.052,0.523-0.127,1.04-0.225,1.55
	c-0.093,0.504-0.209,0.995-0.35,1.475c-0.143,0.49-0.31,0.966-0.5,1.426H34.25z"/>
<path style="fill-rule:evenodd;clip-rule:evenodd;fill:#B4B4B4;" d="M297.25,341.775l-0.025-11.025l0.025-0.025
	c0.198,0.438,0.364,0.88,0.5,1.325c0.14,0.451,0.256,0.909,0.35,1.375c0.089,0.462,0.155,0.929,0.2,1.4
	c0.039,0.474,0.056,0.948,0.05,1.425c0.006,0.477-0.011,0.951-0.05,1.425c-0.045,0.472-0.111,0.938-0.2,1.4
	c-0.094,0.466-0.21,0.924-0.35,1.375c-0.137,0.452-0.295,0.894-0.475,1.325H297.25z"/>
<path style="fill-rule:evenodd;clip-rule:evenodd;fill:#3F3F3F;" d="M300.25,343.775l-0.025-12.025l0.025-0.025
	c0.207,0.467,0.382,0.941,0.525,1.426c0.14,0.479,0.257,0.971,0.35,1.475c0.099,0.511,0.173,1.027,0.225,1.55
	c0.049,0.522,0.074,1.048,0.075,1.575c-0.001,0.528-0.026,1.053-0.075,1.575c-0.052,0.523-0.126,1.04-0.225,1.55
	c-0.093,0.504-0.21,0.995-0.35,1.475c-0.144,0.49-0.311,0.966-0.5,1.426H300.25z"/>
<path style="fill-rule:evenodd;clip-rule:evenodd;fill:#3F3F3F;" d="M30.3,344.075l0.1,2.325l0.025,2.35L30.4,351.1l-0.1,2.325
	l-0.175,2.25c-0.064,0.744-0.139,1.47-0.225,2.175c-0.088,0.692-0.188,1.359-0.3,2c-0.114,0.647-0.239,1.265-0.375,1.851
	c-0.138,0.588-0.289,1.138-0.45,1.649c-0.156,0.517-0.322,0.991-0.5,1.426H28.25l-0.025-32.025l0.025-0.025
	c0.195,0.441,0.37,0.916,0.525,1.426c0.162,0.512,0.312,1.062,0.45,1.649c0.136,0.586,0.261,1.203,0.375,1.851
	c0.112,0.64,0.211,1.307,0.3,2c0.086,0.705,0.161,1.43,0.225,2.175L30.3,344.075z"/>
<path style="fill-rule:evenodd;clip-rule:evenodd;fill:#B4B4B4;" d="M31.2,334.75l0.05-0.025l2.025,28.025l-0.05,0.025
	c-0.327-0.283-0.619-0.608-0.875-0.976c-0.254-0.365-0.479-0.773-0.675-1.225c-0.188-0.449-0.355-0.933-0.5-1.45
	c-0.157-0.527-0.29-1.086-0.4-1.675c-0.101-0.585-0.185-1.193-0.25-1.825c-0.068-0.623-0.118-1.265-0.15-1.925
	c-0.029-0.672-0.045-1.355-0.05-2.05c-0.013-0.693-0.013-1.394,0-2.101l0.075-2.125l0.125-2.125l0.125-2.075l0.15-1.975l0.275-3.625
	l0.1-1.55L31.2,334.75z"/>
<path style="fill-rule:evenodd;clip-rule:evenodd;fill:#B4B4B4;" d="M299.25,351.775l-0.025-7.025l0.025-0.025
	c0.15,0.33,0.275,0.646,0.375,0.95c0.1,0.3,0.184,0.591,0.25,0.875c0.066,0.285,0.116,0.568,0.15,0.851
	c0.033,0.286,0.05,0.57,0.05,0.85c0,0.28-0.017,0.563-0.05,0.85c-0.034,0.282-0.084,0.565-0.15,0.851
	c-0.066,0.283-0.15,0.575-0.25,0.875c-0.101,0.311-0.217,0.627-0.35,0.95H299.25z"/>
<path style="fill-rule:evenodd;clip-rule:evenodd;fill:#3F3F3F;" d="M97.25,356.775l-0.025-6.025l0.025-0.025
	c0.14,0.292,0.257,0.566,0.35,0.825l0.225,0.775c0.118,0.488,0.176,0.963,0.175,1.425c0.001,0.462-0.057,0.937-0.175,1.425
	L97.6,355.95l-0.325,0.825H97.25z"/>
<path style="fill-rule:evenodd;clip-rule:evenodd;fill:#CFCCCC;" d="M140.25,361.775l-0.025-11.025l0.025-0.025
	c0.198,0.438,0.364,0.88,0.5,1.325c0.14,0.451,0.256,0.909,0.35,1.375c0.088,0.462,0.155,0.929,0.2,1.4
	c0.04,0.474,0.056,0.948,0.05,1.425c0.006,0.477-0.011,0.951-0.05,1.425c-0.044,0.472-0.111,0.938-0.2,1.4
	c-0.094,0.466-0.21,0.924-0.35,1.375c-0.137,0.452-0.295,0.894-0.475,1.325H140.25z"/>
<path style="fill-rule:evenodd;clip-rule:evenodd;fill:#949494;" d="M94.25,358.775l-0.025-6.025l0.025-0.025
	c0.14,0.292,0.257,0.566,0.35,0.825l0.225,0.775c0.118,0.488,0.176,0.963,0.175,1.425c0.001,0.462-0.057,0.937-0.175,1.425
	L94.6,357.95l-0.325,0.825H94.25z"/>
<path style="fill-rule:evenodd;clip-rule:evenodd;fill:#3F3F3F;" d="M176.025,356.4c0.033,0.286,0.05,0.57,0.05,0.85
	c0,0.28-0.017,0.563-0.05,0.85c-0.034,0.282-0.084,0.565-0.15,0.851c-0.066,0.283-0.15,0.575-0.25,0.875
	c-0.101,0.311-0.217,0.627-0.35,0.95h-0.025l-0.025-7.025l0.025-0.025c0.15,0.33,0.275,0.646,0.375,0.95
	c0.1,0.3,0.184,0.591,0.25,0.875C175.941,355.835,175.991,356.118,176.025,356.4z"/>
<path style="fill-rule:evenodd;clip-rule:evenodd;fill:#FFFFFF;" d="M173.15,360.85l0.274,1l0.275,1l0.225,1.025l0.425,1.9
	l0.325,1.675l0.226,1.3c0.309,1.684,0.559,3.4,0.75,5.15c0.185,1.754,0.31,3.529,0.375,5.324c0.065,1.801,0.1,3.617,0.1,5.45
	c-0.001,1.83-0.034,3.663-0.1,5.5l-0.226,5.5l-0.25,5.476c-0.095,1.809-0.17,3.601-0.225,5.375
	c-0.046,1.771-0.071,3.513-0.075,5.225l-0.05,0.025h-27l-0.025-0.025c-0.001-0.95-0.018-1.934-0.05-2.95
	c-0.035-1.016-0.085-2.058-0.15-3.125l-0.45-6.625l-0.2-3.45l-0.175-3.5c-0.045-1.16-0.07-2.318-0.075-3.475
	c-0.012-1.168-0.004-2.326,0.025-3.475c0.035-1.146,0.101-2.279,0.2-3.4c0.094-1.112,0.219-2.204,0.375-3.275
	c0.165-1.075,0.373-2.125,0.625-3.149c0.25-1.032,0.541-2.032,0.875-3c0.67-1.936,1.562-3.711,2.675-5.325
	c1.115-1.608,2.499-3.008,4.15-4.2c0.409-0.296,0.868-0.662,1.375-1.1l1.625-1.425l0.9-0.775l0.949-0.8l0.95-0.775l1-0.725
	c0.331-0.231,0.664-0.448,1-0.65c0.342-0.208,0.684-0.399,1.025-0.575c0.342-0.181,0.684-0.339,1.024-0.475
	c0.336-0.132,0.67-0.24,1-0.325c0.44-0.105,0.874-0.155,1.301-0.149c0.219-0.007,0.436,0.002,0.649,0.024
	c0.314,0.043,0.623,0.127,0.925,0.25c0.309,0.128,0.608,0.294,0.9,0.5c0.288,0.205,0.563,0.505,0.825,0.9
	c0.264,0.404,0.514,0.88,0.75,1.425l0.35,0.85l0.3,0.9L173.15,360.85z"/>
<path style="fill-rule:evenodd;clip-rule:evenodd;fill:#949494;" d="M172.25,363.775l-0.025-8.025l0.025-0.025
	c0.169,0.359,0.311,0.71,0.425,1.051c0.109,0.338,0.201,0.672,0.275,1c0.068,0.333,0.118,0.667,0.149,1
	c0.035,0.327,0.052,0.652,0.051,0.975c0.001,0.322-0.016,0.647-0.051,0.975c-0.031,0.333-0.081,0.667-0.149,1
	c-0.074,0.329-0.166,0.662-0.275,1c-0.115,0.349-0.249,0.698-0.399,1.051H172.25z"/>
<path style="fill-rule:evenodd;clip-rule:evenodd;fill:#949494;" d="M269.025,358.4c0.033,0.286,0.05,0.57,0.05,0.85
	c0,0.28-0.017,0.563-0.05,0.85c-0.034,0.282-0.084,0.565-0.15,0.851c-0.066,0.283-0.15,0.575-0.25,0.875
	c-0.101,0.311-0.217,0.627-0.35,0.95h-0.025l-0.025-7.025l0.025-0.025c0.15,0.33,0.275,0.646,0.375,0.95
	c0.1,0.3,0.184,0.591,0.25,0.875C268.941,357.835,268.991,358.118,269.025,358.4z"/>
<path style="fill-rule:evenodd;clip-rule:evenodd;fill:#3F3F3F;" d="M265.25,364.775l-0.025-8.025l0.025-0.025
	c0.169,0.359,0.311,0.71,0.425,1.051c0.109,0.338,0.201,0.672,0.275,1c0.068,0.333,0.118,0.667,0.149,1
	c0.035,0.327,0.052,0.652,0.051,0.975c0.001,0.322-0.016,0.647-0.051,0.975c-0.031,0.333-0.081,0.667-0.149,1
	c-0.074,0.329-0.166,0.662-0.275,1c-0.115,0.349-0.249,0.698-0.399,1.051H265.25z"/>
<polygon style="fill-rule:evenodd;clip-rule:evenodd;fill:#3F3F3F;" points="49.275,364.775 49.225,361.75 49.275,361.725 
	51.275,363.725 51.275,363.775 "/>
<path style="fill-rule:evenodd;clip-rule:evenodd;fill:#949494;" d="M63.95,363.35c0.688,0.005,1.372,0.029,2.05,0.075
	c0.685,0.038,1.36,0.096,2.025,0.175c0.754,0.098,1.488,0.239,2.2,0.426c0.709,0.182,1.393,0.406,2.05,0.675v0.05l-2.2,0.05
	L67.8,364.9l-2.35,0.125l-2.35,0.05h-0.55c-0.688,0.004-1.372-0.013-2.05-0.05c-0.686-0.038-1.361-0.097-2.025-0.176
	c-0.755-0.097-1.488-0.238-2.2-0.425c-0.709-0.182-1.393-0.407-2.05-0.675v-0.05l2.2-0.05l2.275-0.125l2.35-0.101l2.35-0.05
	L63.95,363.35z"/>
<path style="fill-rule:evenodd;clip-rule:evenodd;fill:#3F3F3F;" d="M111.55,368.475c-0.327,0.029-0.661,0.046-1,0.051
	c-0.375-0.003-0.758-0.02-1.15-0.051c-0.553-0.036-1.103-0.095-1.65-0.175c-0.548-0.087-1.09-0.195-1.625-0.325
	c-0.542-0.125-1.059-0.267-1.55-0.425c-0.479-0.159-0.929-0.334-1.35-0.524c-0.431-0.189-0.814-0.39-1.15-0.601
	c-0.333-0.208-0.617-0.424-0.85-0.649l0.025-0.051c0.609,0.145,1.226,0.278,1.85,0.4c0.62,0.12,1.245,0.229,1.875,0.325
	c0.629,0.102,1.263,0.186,1.9,0.25c0.643,0.061,1.284,0.103,1.925,0.125l0.85,0.024c0.493,0,0.984-0.017,1.475-0.05
	c0.496-0.033,0.987-0.084,1.475-0.149c0.624-0.081,1.241-0.197,1.85-0.351c0.603-0.157,1.195-0.349,1.775-0.575l0.05,0.025
	c-0.18,0.759-0.604,1.351-1.275,1.775c-0.326,0.209-0.693,0.384-1.1,0.524c-0.421,0.144-0.879,0.252-1.375,0.325
	C112.208,368.421,111.883,368.454,111.55,368.475z"/>
<path style="fill-rule:evenodd;clip-rule:evenodd;fill:#3F3F3F;" d="M63.975,366.25c0.748,0.005,1.489,0.03,2.225,0.075
	c0.736,0.038,1.461,0.096,2.175,0.175c0.871,0.098,1.712,0.248,2.525,0.45c0.827,0.208,1.619,0.466,2.375,0.774v0.051l-2.525,0.074
	l-2.65,0.125l-2.75,0.15l-2.775,0.1h-1.05c-0.748,0.004-1.489-0.013-2.225-0.05c-0.736-0.039-1.461-0.098-2.175-0.175
	c-0.871-0.098-1.712-0.248-2.525-0.45c-0.826-0.208-1.618-0.466-2.375-0.774v-0.051l2.525-0.074l2.65-0.125l2.75-0.15l2.775-0.1
	L63.975,366.25z"/>
<path style="fill-rule:evenodd;clip-rule:evenodd;fill:#B4B4B4;" d="M148.475,371.75c0.163,0.786,0.313,1.619,0.45,2.5
	c0.148,0.892,0.281,1.825,0.4,2.8c0.105,0.962,0.197,1.953,0.275,2.976c0.09,1.027,0.165,2.077,0.225,3.149
	c0.054,0.998,0.095,2.006,0.125,3.025c0.029,1.021,0.045,2.045,0.05,3.075v0.949c-0.004,1.03-0.021,2.056-0.05,3.075
	c-0.03,1.02-0.071,2.027-0.125,3.025c-0.061,1.073-0.135,2.123-0.225,3.149c-0.078,1.022-0.169,2.015-0.275,2.976
	c-0.119,0.975-0.252,1.908-0.4,2.8c-0.136,0.881-0.287,1.714-0.45,2.5c-0.169,0.793-0.353,1.526-0.55,2.2
	c-0.203,0.673-0.42,1.281-0.65,1.825h-0.025l-0.025-44.025l0.025-0.025c0.248,0.552,0.473,1.16,0.675,1.825
	C148.123,370.224,148.306,370.957,148.475,371.75z"/>
<path style="fill-rule:evenodd;clip-rule:evenodd;fill:#3F3F3F;" d="M176.475,371.75c0.164,0.786,0.313,1.619,0.45,2.5
	c0.147,0.892,0.281,1.825,0.4,2.8c0.105,0.962,0.197,1.953,0.274,2.976c0.09,1.027,0.165,2.077,0.226,3.149
	c0.054,0.998,0.096,2.006,0.125,3.025c0.029,1.021,0.046,2.045,0.05,3.075v0.949c-0.004,1.03-0.021,2.056-0.05,3.075
	s-0.071,2.027-0.125,3.025c-0.061,1.073-0.136,2.123-0.226,3.149c-0.077,1.022-0.169,2.015-0.274,2.976
	c-0.119,0.975-0.253,1.908-0.4,2.8c-0.137,0.881-0.286,1.714-0.45,2.5c-0.169,0.793-0.352,1.526-0.55,2.2
	c-0.203,0.673-0.42,1.281-0.649,1.825h-0.025l-0.025-44.025l0.025-0.025c0.248,0.552,0.473,1.16,0.675,1.825
	C176.123,370.224,176.306,370.957,176.475,371.75z"/>
<polygon style="fill-rule:evenodd;clip-rule:evenodd;fill:#3F3F3F;" points="231.25,373.775 231.225,373.75 231.225,368.75 
	231.25,368.725 232.275,372.725 236.25,373.725 236.275,373.775 "/>
<path style="fill-rule:evenodd;clip-rule:evenodd;fill:#949494;" d="M177.375,374.425c0.154,0.726,0.296,1.492,0.425,2.3
	c0.131,0.806,0.247,1.647,0.351,2.525c0.104,0.873,0.195,1.773,0.274,2.7c0.08,0.93,0.146,1.88,0.2,2.85
	c0.055,0.973,0.097,1.956,0.125,2.95c0.029,0.996,0.046,1.996,0.05,3c-0.004,1.005-0.021,2.005-0.05,3
	c-0.028,0.994-0.07,1.978-0.125,2.95c-0.054,0.97-0.12,1.92-0.2,2.85c-0.079,0.927-0.171,1.827-0.274,2.7
	c-0.104,0.878-0.22,1.72-0.351,2.525c-0.129,0.808-0.271,1.575-0.425,2.3c-0.161,0.719-0.337,1.386-0.525,2
	c-0.179,0.623-0.37,1.189-0.574,1.7h-0.051L176.2,370.75l0.05-0.025c0.222,0.518,0.422,1.084,0.6,1.7
	C177.038,373.039,177.214,373.706,177.375,374.425z"/>
<polygon style="fill-rule:evenodd;clip-rule:evenodd;fill:#060606;" points="155.25,372.725 155.275,372.775 153.275,376.775 
	153.25,376.775 153.225,376.75 153.225,372.75 153.25,372.725 "/>
<polygon style="fill-rule:evenodd;clip-rule:evenodd;fill:#3F3F3F;" points="162.275,385.775 162.225,382.75 162.275,382.725 
	164.275,384.725 164.275,384.775 "/>
<path style="fill-rule:evenodd;clip-rule:evenodd;fill:#060606;" d="M158.25,390.775l-0.025-0.051l3-6l0.051,0.025
	c0.045,0.349,0.07,0.683,0.074,1c-0.004,0.318-0.028,0.618-0.074,0.9c-0.093,0.571-0.268,1.097-0.525,1.574
	c-0.253,0.469-0.586,0.911-1,1.325c-0.413,0.416-0.905,0.824-1.475,1.226H158.25z"/>
<path style="fill-rule:evenodd;clip-rule:evenodd;fill:#060606;" d="M157.25,398.775l-6.025-5v-0.051
	c0.428,0.108,0.819,0.225,1.175,0.351c0.345,0.128,0.661,0.262,0.95,0.399c0.596,0.274,1.121,0.599,1.575,0.976
	c0.446,0.371,0.854,0.82,1.225,1.35c0.192,0.272,0.383,0.572,0.575,0.9c0.185,0.315,0.368,0.657,0.55,1.024L157.25,398.775z"/>
<polygon style="fill-rule:evenodd;clip-rule:evenodd;fill:#060606;" points="165.225,397.75 167.25,397.725 167.275,397.775 
	164.275,403.775 "/>
<path style="fill-rule:evenodd;clip-rule:evenodd;fill:#060606;" d="M161.25,407.775l-7.025-3l0.025-0.051l1.125,0.051l1.05,0.1
	c0.328,0.044,0.645,0.103,0.95,0.175c0.305,0.069,0.597,0.153,0.875,0.25c0.282,0.092,0.558,0.209,0.825,0.351
	c0.259,0.143,0.509,0.31,0.75,0.5c0.498,0.391,0.981,0.915,1.45,1.574L161.25,407.775z"/>
<path style="fill-rule:evenodd;clip-rule:evenodd;fill:#AE303B;" d="M176.8,414.575c-0.238-0.152-0.497-0.294-0.774-0.425
	c-0.285-0.134-0.585-0.259-0.9-0.375h-27.85c0.01,0.874,0.035,1.774,0.075,2.699c0.035,0.932,0.085,1.882,0.15,2.851l0.4,5.95
	l0.175,3.05l0.125,3.05c0.017,1.009,0.008,2.009-0.025,3c-0.024,0.999-0.074,1.982-0.15,2.95c-0.077,0.954-0.194,1.888-0.35,2.8
	c-0.161,0.919-0.361,1.811-0.6,2.675c-0.473,1.736-1.156,3.328-2.05,4.775c-0.901,1.442-2.068,2.692-3.5,3.75
	c-1.439,1.057-3.198,1.873-5.275,2.45l-0.025-0.025l8.975-7.15c0.277-0.522,0.527-1.081,0.75-1.675
	c0.229-0.594,0.429-1.219,0.6-1.875c0.165-0.656,0.306-1.34,0.425-2.05c0.114-0.703,0.206-1.429,0.275-2.175
	c0.075-0.757,0.134-1.532,0.175-2.325c0.042-0.787,0.067-1.587,0.075-2.4l-0.025-2.5l-0.075-2.5l-0.15-2.524l-0.175-2.525
	l-0.375-4.875l-0.2-2.325l-0.15-2.199l-0.1-2.025l-0.025-1.875l0.05-0.025c0.394,0.213,0.869,0.396,1.425,0.551
	c0.556,0.154,1.189,0.279,1.9,0.375c0.721,0.091,1.496,0.166,2.325,0.225c0.819,0.066,1.686,0.116,2.6,0.15l2.825,0.074l2.976,0.051
	l3,0.05l2.975,0.125c0.974,0.053,1.915,0.128,2.825,0.225c0.922,0.088,1.806,0.195,2.65,0.325c0.626,0.105,1.218,0.23,1.774,0.375
	c0.563,0.14,1.089,0.298,1.575,0.475h2.125L177.5,415c0.416,0.375,0.732,0.8,0.95,1.275c0.43,0.93,0.371,2.097-0.175,3.5h-0.051
	l-0.8-4.726C177.238,414.882,177.03,414.724,176.8,414.575z"/>
<polygon style="fill-rule:evenodd;clip-rule:evenodd;fill:#61060B;" points="178.25,410.725 178.275,410.75 178.275,412.75 
	178.25,412.775 176.225,410.775 176.25,410.725 "/>
<path style="fill-rule:evenodd;clip-rule:evenodd;fill:#F7959B;" d="M163.725,410.95c0.866,0.005,1.725,0.03,2.575,0.075
	c0.854,0.038,1.696,0.097,2.525,0.175c2.36,0.222,4.511,0.722,6.45,1.5v0.05c-1.064,0.027-2.164,0.069-3.301,0.125
	c-1.136,0.047-2.311,0.113-3.524,0.2l-3.675,0.225L161,413.475l-1.125,0.051h-1.1c-0.866,0.003-1.725-0.014-2.575-0.051
	c-0.855-0.039-1.697-0.097-2.525-0.175c-2.361-0.23-4.511-0.738-6.45-1.524v-0.051c1.063-0.019,2.163-0.053,3.3-0.1
	c1.136-0.056,2.312-0.131,3.525-0.225l3.675-0.226L161.5,411l1.125-0.025L163.725,410.95z"/>
<path style="fill-rule:evenodd;clip-rule:evenodd;fill:#ED1B30;" d="M177.25,413.725c0.281,1.608,0.498,3.183,0.65,4.726
	c0.162,1.55,0.271,3.066,0.324,4.55c0.047,1.479,0.063,2.955,0.051,4.425c-0.013,1.474-0.054,2.933-0.125,4.375l-0.226,4.351
	l-0.274,4.399c-0.093,1.477-0.167,2.984-0.226,4.525c-0.067,1.537-0.117,3.096-0.149,4.675l0.024,2.775l0.05,2.85
	c0.024,0.942,0.024,1.884,0,2.825c-0.025,0.949-0.075,1.892-0.149,2.825c-0.077,0.93-0.21,1.847-0.4,2.75
	c-0.187,0.911-0.428,1.803-0.725,2.675c-0.604,1.737-1.555,3.362-2.851,4.875c-0.626,0.715-1.268,1.391-1.925,2.024
	c-0.664,0.637-1.339,1.229-2.024,1.775c-0.687,0.552-1.387,1.068-2.101,1.55c-0.707,0.472-1.424,0.905-2.149,1.3
	c-0.729,0.405-1.471,0.78-2.226,1.125c-0.76,0.341-1.526,0.649-2.3,0.926c-0.772,0.273-1.556,0.523-2.35,0.75
	c-0.795,0.234-1.595,0.442-2.4,0.625c-0.807,0.168-1.624,0.318-2.45,0.449c-0.821,0.137-1.646,0.254-2.475,0.351
	c-0.834,0.097-1.675,0.18-2.525,0.25c-0.856,0.072-1.714,0.131-2.575,0.175l-2.575,0.1l-2.625,0.051h-4.275h-1l-4.375,0.1h-0.65
	c-0.647-0.001-1.289-0.025-1.925-0.075c-0.626-0.042-1.243-0.109-1.85-0.2c-1.44-0.231-2.732-0.731-3.875-1.5
	c-1.138-0.761-2.021-1.927-2.65-3.5c-0.844-2.249-1.21-4.266-1.1-6.05c0.121-1.774,0.613-3.366,1.475-4.774
	c0.864-1.408,1.989-2.684,3.375-3.825c0.692-0.569,1.425-1.119,2.2-1.65c0.765-0.53,1.564-1.039,2.4-1.524
	c0.843-0.49,1.702-0.974,2.575-1.45c0.875-0.477,1.758-0.943,2.65-1.4l2.625-1.375c0.86-0.464,1.702-0.931,2.525-1.399
	c0.823-0.474,1.607-0.965,2.35-1.476c0.746-0.51,1.445-1.035,2.1-1.575c1.311-1.075,2.344-2.267,3.1-3.574
	c0.268-0.483,0.509-1,0.725-1.551c0.211-0.562,0.395-1.153,0.55-1.774c0.163-0.615,0.305-1.258,0.425-1.925
	c0.114-0.662,0.206-1.346,0.275-2.051c0.075-0.716,0.133-1.449,0.175-2.199c0.041-0.747,0.066-1.505,0.075-2.275l-0.025-2.325
	l-0.075-2.375l-0.125-2.399l-0.175-2.375l-0.375-4.601l-0.15-2.2l-0.15-2.05l-0.1-1.925l-0.05-1.75l0.05-0.025H177.25z"/>
<path style="fill-rule:evenodd;clip-rule:evenodd;fill:#DD5B63;" d="M180.95,431.75l-0.025,1.575l-0.075,1.524l-0.125,1.525
	l-0.199,1.45l-0.226,1.399c-0.091,0.441-0.19,0.866-0.3,1.275c-0.1,0.419-0.208,0.819-0.325,1.2
	c-0.125,0.38-0.259,0.738-0.399,1.075h-0.025l-0.025-22.025l0.025-0.025c0.159,0.344,0.301,0.702,0.425,1.075
	c0.117,0.372,0.226,0.764,0.325,1.175c0.109,0.417,0.209,0.851,0.3,1.301l0.226,1.399l0.199,1.45l0.125,1.525l0.075,1.524
	L180.95,431.75z"/>
<path style="fill-rule:evenodd;clip-rule:evenodd;fill:#AE303B;" d="M179.425,448.775c-0.01,0.816-0.034,1.642-0.075,2.475
	c-0.036,0.833-0.086,1.658-0.149,2.475c-0.07,0.813-0.153,1.614-0.25,2.4c-0.088,0.788-0.188,1.547-0.3,2.275
	c-0.122,0.728-0.256,1.419-0.4,2.074c-0.14,0.653-0.29,1.254-0.45,1.801c-0.165,0.557-0.341,1.057-0.524,1.5l0.949-25.025
	l0.025-0.025c0.186,0.451,0.344,0.951,0.475,1.5c0.129,0.547,0.237,1.147,0.325,1.801c0.092,0.655,0.167,1.347,0.226,2.074
	c0.059,0.729,0.101,1.487,0.125,2.275C179.424,447.161,179.432,447.961,179.425,448.775z"/>
<polygon style="fill-rule:evenodd;clip-rule:evenodd;fill:#EE747E;" points="136.25,452.725 136.275,452.775 134.275,454.775 
	134.225,454.775 134.225,452.75 134.25,452.725 "/>
<path style="fill-rule:evenodd;clip-rule:evenodd;fill:#AE303B;" d="M128.25,459.775l-0.025-0.025c0.197-0.341,0.397-0.657,0.6-0.95
	c0.197-0.288,0.397-0.555,0.6-0.8c0.412-0.499,0.854-0.94,1.325-1.325c0.237-0.182,0.487-0.357,0.75-0.524
	c0.264-0.175,0.539-0.342,0.825-0.5l0.9-0.476l1-0.45l0.05,0.025l-6,5.025H128.25z"/>
<path style="fill-rule:evenodd;clip-rule:evenodd;fill:#AE303B;" d="M122.25,464.775l-0.025-0.025c0.323-0.678,0.64-1.261,0.95-1.75
	c0.323-0.483,0.673-0.908,1.05-1.275c0.366-0.377,0.792-0.727,1.275-1.05c0.485-0.312,1.06-0.628,1.725-0.95l0.05,0.025l-5,5.025
	H122.25z"/>
<path style="fill-rule:evenodd;clip-rule:evenodd;fill:#EE747E;" d="M120.25,478.775c-0.748-0.661-1.281-1.428-1.6-2.301
	c-0.157-0.433-0.282-0.883-0.375-1.35c-0.091-0.471-0.149-0.954-0.175-1.45c-0.021-0.495-0.03-0.995-0.025-1.5
	c-0.005-0.499,0.003-0.999,0.025-1.5l0.075-1.5l0.025-1.425l0.05-0.025l2.025,11.025L120.25,478.775z"/>
<path style="fill-rule:evenodd;clip-rule:evenodd;fill:#DD5B63;" d="M173.275,473.775l-6,4h-0.025l-0.025-0.051
	c0.122-0.398,0.256-0.773,0.4-1.125c0.147-0.352,0.307-0.676,0.475-0.975c0.167-0.305,0.35-0.579,0.551-0.825
	c0.209-0.239,0.434-0.447,0.675-0.625c0.235-0.184,0.493-0.334,0.774-0.45c0.279-0.109,0.579-0.185,0.9-0.225
	c0.175-0.021,0.358-0.028,0.55-0.025c0.26-0.004,0.535,0.013,0.825,0.051c0.278,0.038,0.57,0.096,0.875,0.175L173.275,473.775z"/>
<polygon style="fill-rule:evenodd;clip-rule:evenodd;fill:#FDB0B5;" points="122.25,479.725 122.275,479.75 122.275,481.75 
	122.25,481.775 120.225,479.775 120.25,479.725 "/>
<path style="fill-rule:evenodd;clip-rule:evenodd;fill:#EE747E;" d="M143.15,481.825c0.681,0.012,1.356,0.037,2.025,0.075
	c0.669,0.036,1.328,0.087,1.975,0.149c0.652,0.066,1.294,0.149,1.925,0.25c0.624,0.092,1.232,0.199,1.825,0.325
	c0.591,0.137,1.166,0.295,1.725,0.475c0.57,0.171,1.12,0.363,1.65,0.575v0.075l-1.775,0.025l-1.85,0.074l-1.925,0.125l-1.975,0.125
	l-4.1,0.275l-2.075,0.1l-2.1,0.101l-1.45,0.024l-1.45,0.025h-1.225c-0.681-0.012-1.356-0.037-2.025-0.075
	c-0.669-0.037-1.328-0.087-1.975-0.149c-0.652-0.066-1.294-0.149-1.925-0.25c-0.624-0.1-1.232-0.217-1.825-0.351
	c-0.591-0.128-1.166-0.278-1.725-0.45c-0.569-0.179-1.12-0.379-1.65-0.6v-0.05l1.775-0.05l1.85-0.075l1.9-0.101l2-0.125l4.1-0.274
	l2.075-0.125l2.1-0.075l1.45-0.05h1.45H143.15z"/>
</svg>
