<?xml version="1.0" encoding="iso-8859-1"?>
<!-- Generator: Adobe Illustrator 15.1.0, SVG Export Plug-In . SVG Version: 6.00 Build 0)  -->
<!DOCTYPE svg PUBLIC "-//W3C//DTD SVG 1.1//EN" "http://www.w3.org/Graphics/SVG/1.1/DTD/svg11.dtd">
<svg version="1.1" id="Layer_1" xmlns="http://www.w3.org/2000/svg" xmlns:xlink="http://www.w3.org/1999/xlink" x="0px" y="0px"
	 width="315px" height="488px" viewBox="0 0 315 488" style="enable-background:new 0 0 315 488;" xml:space="preserve">
<path style="fill-rule:evenodd;clip-rule:evenodd;fill:#060606;" d="M177.4,4.325c4.936-0.002,9.927,0.265,14.975,0.8
	c5.099,0.543,10.166,1.393,15.2,2.55c5.029,1.161,9.938,2.661,14.725,4.5c4.793,1.845,9.377,4.062,13.75,6.65
	c4.365,2.587,8.433,5.579,12.2,8.975c3.763,3.404,7.138,7.246,10.125,11.525c1.778,2.592,3.454,5.275,5.025,8.05
	c1.572,2.77,3.03,5.612,4.375,8.525c1.336,2.919,2.595,5.894,3.774,8.925c1.187,3.032,2.286,6.098,3.3,9.2
	c0.674,2.064,1.323,4.139,1.95,6.225c0.633,2.079,1.241,4.163,1.825,6.25c0.577,2.094,1.127,4.186,1.65,6.275l1.524,6.25l1.476,6.2
	l1.375,6.125c0.883,3.922,1.741,7.855,2.574,11.8c0.837,3.951,1.646,7.901,2.426,11.85c0.78,3.947,1.53,7.88,2.25,11.8
	c1.072,5.881,2.072,11.79,3,17.725c0.929,5.939,1.778,11.865,2.55,17.775c0.771,5.904,1.454,11.846,2.05,17.825
	c0.6,5.979,1.108,11.955,1.525,17.925c0.418,5.978,0.734,12.002,0.949,18.075c0.203,6.069,0.304,12.145,0.301,18.225l1.975,62
	l-3.75,18l-0.175,1.575l-0.15,1.625l-0.075,1.7l-0.074,1.75l-0.15,3.575l-0.1,1.825l-0.15,1.8c-0.062,0.595-0.137,1.187-0.225,1.774
	c-0.087,0.591-0.188,1.175-0.301,1.75c-0.114,0.575-0.247,1.142-0.399,1.7c-0.148,0.562-0.315,1.112-0.5,1.65
	c-0.184,0.537-0.393,1.062-0.625,1.575c-0.235,0.516-0.493,1.016-0.775,1.5c-0.277,0.476-0.586,0.934-0.925,1.375
	c-0.339,0.445-0.705,0.87-1.1,1.274c-0.482,0.475-1.016,0.925-1.601,1.351c-0.586,0.427-1.219,0.826-1.899,1.199
	c-0.682,0.372-1.398,0.723-2.15,1.051c-0.745,0.333-1.52,0.641-2.325,0.925c-0.807,0.278-1.632,0.536-2.475,0.774
	c-0.846,0.238-1.704,0.455-2.575,0.65c-0.874,0.192-1.749,0.367-2.625,0.525c-0.871,0.16-1.738,0.302-2.6,0.425
	c-0.858,0.115-1.7,0.216-2.525,0.3c-0.83,0.091-1.639,0.166-2.425,0.225l-2.275,0.125c-0.722,0.022-1.404,0.031-2.05,0.025
	l-5-19.925l-5.875,11.6c-1.476,2.392-3.067,4.35-4.775,5.875c-1.704,1.527-3.545,2.728-5.524,3.601
	c-1.977,0.862-4.109,1.504-6.4,1.925c-1.143,0.212-2.335,0.396-3.575,0.55c-1.242,0.154-2.526,0.279-3.85,0.375l-6.175-19.425
	c-0.32-0.373-0.645-0.707-0.976-1c-0.322-0.284-0.646-0.526-0.975-0.726c-0.329-0.202-0.663-0.368-1-0.5
	c-0.341-0.136-0.683-0.236-1.025-0.3c-0.332-0.054-0.665-0.078-1-0.075c-0.357,0-0.716,0.034-1.074,0.101
	c-0.35,0.065-0.699,0.157-1.051,0.274c-0.343,0.117-0.685,0.259-1.024,0.426c-0.343,0.162-0.685,0.345-1.025,0.55
	c-0.345,0.214-0.687,0.447-1.024,0.7c-0.344,0.25-0.686,0.517-1.025,0.8c-0.329,0.276-0.654,0.568-0.975,0.875
	c-0.329,0.312-0.654,0.638-0.976,0.975c-0.314,0.333-0.622,0.675-0.925,1.025l-0.9,1.1l-0.85,1.101l-0.825,1.125l-0.774,1.125
	l-0.726,1.1l-0.649,1.075l-0.601,1.024l-0.524,0.95l-0.476,0.9l-0.399,0.8l-29.025,4l-0.375-1.675l-0.4-1.976L175,364.525
	l-0.275-1.125l-0.3-1.125l-0.3-1.101l-0.375-1.075l-0.375-1.024l-0.425-0.976c-0.293-0.609-0.609-1.151-0.95-1.625
	c-0.34-0.473-0.706-0.856-1.1-1.149c-0.257-0.188-0.548-0.329-0.875-0.425c-0.342-0.089-0.717-0.13-1.125-0.125
	c-0.335,0.001-0.692,0.034-1.075,0.1c-0.651,0.108-1.343,0.283-2.075,0.525c-0.739,0.243-1.515,0.551-2.325,0.925
	c-0.807,0.375-1.624,0.792-2.45,1.25c-0.82,0.462-1.646,0.962-2.475,1.5c-0.838,0.534-1.655,1.084-2.45,1.649
	c-0.793,0.563-1.56,1.139-2.3,1.726c-0.736,0.595-1.42,1.178-2.05,1.75c-0.633,0.565-1.208,1.115-1.725,1.649
	c-0.518,0.539-0.951,1.039-1.3,1.5c-0.354,0.458-0.621,0.875-0.8,1.25c-0.332,0.756-0.615,1.531-0.85,2.325
	c-0.233,0.803-0.417,1.619-0.55,2.45l-0.2,1.325v8.3l0.1,0.875l0.275,2.75l0.35,2.75l0.35,2.775l0.3,2.75
	c0.096,0.911,0.171,1.82,0.225,2.725c0.054,0.901,0.087,1.793,0.1,2.675c0.009,0.884-0.016,1.759-0.075,2.625
	c-0.057,0.872-0.149,1.73-0.275,2.575c-0.125,0.838-0.3,1.662-0.525,2.475c-0.228,0.819-0.502,1.619-0.825,2.4h-0.025l-0.025-27.35
	c-0.065-0.761-0.115-1.52-0.15-2.275c-0.041-0.758-0.065-1.508-0.075-2.25c-0.002-0.638,0.015-1.271,0.05-1.9
	c0.04-0.642,0.098-1.275,0.175-1.899v-8.325c-2.191-0.031-3.908-0.356-5.15-0.975c-1.247-0.634-2.146-1.526-2.7-2.676
	c-0.543-1.149-0.877-2.517-1-4.1c-0.068-0.786-0.118-1.619-0.15-2.5c-0.019-0.876-0.019-1.792,0-2.75
	c-0.589,0.014-1.197,0.055-1.825,0.125c-0.618,0.056-1.251,0.139-1.9,0.25c-0.661,0.122-1.328,0.272-2,0.45
	c-0.667,0.182-1.333,0.39-2,0.625c-0.677,0.222-1.343,0.472-2,0.75c-0.648,0.291-1.281,0.607-1.9,0.95
	c-0.617,0.339-1.208,0.705-1.775,1.1c-0.571,0.384-1.113,0.792-1.625,1.225c-1.03,0.892-1.888,1.884-2.575,2.976
	c-0.681,1.078-1.131,2.253-1.35,3.524l-3,2.025L101.7,365.2c-0.227-0.154-0.477-0.38-0.75-0.675
	c-0.283-0.289-0.591-0.647-0.925-1.075L99,362.025l-1.175-1.676l-1.225-1.8l-1.3-1.875c-0.431-0.622-0.865-1.222-1.3-1.8
	c-0.442-0.584-0.884-1.143-1.325-1.675c-0.44-0.528-0.874-1.004-1.3-1.425c-0.427-0.423-0.844-0.79-1.25-1.101
	c-0.724-0.55-1.39-0.825-2-0.825h-0.2c-0.66,0.073-1.218,0.615-1.675,1.625c-0.466,1.026-0.791,2.651-0.975,4.875L75.25,365.2
	c-0.492,0.252-1.025,0.477-1.6,0.675c-0.586,0.202-1.211,0.377-1.875,0.525c-0.655,0.147-1.339,0.272-2.05,0.375
	c-0.71,0.098-1.444,0.173-2.2,0.225l-1.7,0.1l-1.75,0.025H62.85c-0.796-0.019-1.588-0.052-2.375-0.1
	c-0.785-0.052-1.56-0.119-2.325-0.2c-0.762-0.081-1.504-0.172-2.225-0.275c-0.726-0.098-1.425-0.206-2.1-0.325
	c-0.679-0.125-1.32-0.259-1.925-0.399c-0.591-0.144-1.141-0.294-1.65-0.45L46.225,352.4c-0.474,0.255-0.907,0.521-1.3,0.8
	c-0.393,0.273-0.743,0.557-1.05,0.85c-0.316,0.292-0.599,0.601-0.85,0.925c-0.243,0.337-0.451,0.687-0.625,1.051
	c-0.182,0.354-0.34,0.729-0.475,1.125c-0.124,0.406-0.224,0.831-0.3,1.274c-0.089,0.44-0.164,0.907-0.225,1.4
	c-0.056,0.485-0.098,0.994-0.125,1.524l-12.025,4.025l-0.025-0.025v-4.725l0.05-4.7l0.075-4.7l0.1-4.675l0.175-4.675l0.2-4.65
	l0.275-4.649l0.3-4.65l0.4-4.649l0.45-4.625l0.5-4.676c0.188-1.546,0.388-3.088,0.6-4.625l4.775-16L37.5,288.2l0.325-5.15
	L38.1,277.9l0.225-5.15l0.45-10.25L39,257.35l0.25-5.1l0.3-5.125L39.875,242c0.128-1.695,0.27-3.395,0.425-5.1
	c0.146-1.714,0.304-3.422,0.475-5.125c0.173-1.694,0.364-3.395,0.575-5.1c0.216-1.714,0.449-3.423,0.7-5.125
	c0.251-1.694,0.526-3.394,0.825-5.1c0.295-1.706,0.612-3.406,0.95-5.1l2.85-14.325l0.95-4.725l0.95-4.75l0.975-4.7l1-4.725l1-4.7
	l1.05-4.675l1.075-4.65l1.125-4.675l1.15-4.625l1.2-4.625l1.275-4.625l1.3-4.575L61.1,136.4l1.45-4.575
	c0.498-1.524,1.006-3.041,1.525-4.55c0.509-1.506,1.034-3.015,1.575-4.525c0.553-1.511,1.119-3.02,1.7-4.525
	c0.571-1.507,1.154-3.007,1.75-4.5c0.598-1.49,1.215-2.981,1.85-4.475c0.633-1.495,1.283-2.986,1.95-4.475
	c0.669-1.491,1.353-2.974,2.05-4.45l6.075-18.975c1.105-2.092,2.289-4.217,3.55-6.375c1.272-2.157,2.614-4.332,4.025-6.525
	c0.938-1.461,1.904-2.928,2.9-4.4c0.99-1.474,2.006-2.949,3.05-4.425c1.052-1.47,2.127-2.937,3.225-4.4
	c3.294-4.416,6.769-8.741,10.425-12.975c3.658-4.239,7.441-8.289,11.35-12.15c3.908-3.855,7.883-7.421,11.925-10.7
	c4.047-3.27,8.106-6.153,12.175-8.65c0.542-0.331,1.108-0.647,1.7-0.95c0.587-0.299,1.196-0.583,1.825-0.85
	c0.623-0.263,1.264-0.513,1.925-0.75c0.669-0.24,1.352-0.465,2.05-0.675c0.695-0.211,1.403-0.412,2.125-0.6
	c0.725-0.188,1.458-0.363,2.2-0.525l2.25-0.45L160,5.55l2.275-0.325l2.3-0.25l2.274-0.225l2.226-0.175l2.175-0.125l2.1-0.075
	l1.95-0.05h1.875h0.075H177.4z"/>
<path style="fill-rule:evenodd;clip-rule:evenodd;fill:#4F4F4F;" d="M182,5.7c0.798,0.005,1.59,0.03,2.375,0.075
	c0.787,0.039,1.562,0.098,2.325,0.175c2.021,0.212,3.879,0.662,5.575,1.35v0.05l-2.851,0.075c-0.979,0.043-1.987,0.101-3.024,0.175
	l-3.15,0.175l-3.2,0.125l-1.55,0.025c-0.798,0.003-1.59-0.013-2.375-0.05c-0.787-0.039-1.562-0.097-2.325-0.175
	c-2.021-0.213-3.879-0.663-5.575-1.35V6.3l2.851-0.075c0.979-0.042,1.987-0.101,3.024-0.175l3.15-0.175l3.2-0.15L182,5.7z"/>
<path style="fill-rule:evenodd;clip-rule:evenodd;fill:#FFFFFF;" d="M279.875,105.325c1.464,6.359,2.864,12.734,4.2,19.125
	c1.331,6.396,2.59,12.763,3.774,19.1c1.18,6.331,2.28,12.689,3.301,19.075c1.028,6.392,1.97,12.767,2.824,19.125
	c0.847,6.35,1.597,12.742,2.25,19.175c0.659,6.446,1.218,12.888,1.676,19.325c0.453,6.429,0.795,12.912,1.024,19.45
	c0.23,6.533,0.347,13.074,0.351,19.625l0.05,6.225l0.075,6.226l0.1,6.199l0.1,6.15l0.051,6.2l0.05,6.149
	c0.001,2.036-0.016,4.078-0.05,6.125c-0.032,2.06-0.082,4.118-0.15,6.176c-0.074,2.049-0.166,4.09-0.275,6.125
	c-0.148,3.062-0.365,6.138-0.649,9.225c-0.293,3.084-0.651,6.159-1.075,9.225l-0.2,1.575l-0.125,1.625l-0.125,1.65l-0.075,1.675
	l-0.199,3.425l-0.15,1.7l-0.175,1.7c-0.07,0.562-0.154,1.119-0.25,1.675c-0.096,0.558-0.204,1.107-0.325,1.65
	c-0.123,0.539-0.265,1.072-0.425,1.6c-0.157,0.535-0.333,1.06-0.525,1.575c-0.192,0.51-0.409,1.01-0.649,1.5
	c-0.244,0.487-0.511,0.963-0.801,1.425c-0.286,0.472-0.603,0.93-0.949,1.375c-0.348,0.433-0.723,0.85-1.125,1.25
	c-0.241,0.239-0.508,0.473-0.801,0.7c-0.292,0.224-0.608,0.44-0.949,0.649c-0.339,0.207-0.697,0.406-1.075,0.601
	c-0.383,0.199-0.783,0.391-1.2,0.575L286.1,361.8l-1.375,0.5l-1.399,0.45l-1.45,0.425l-1.475,0.375l-1.476,0.351l-1.45,0.3
	l-1.399,0.3l-2.601,0.5l-2.225,0.375c-0.232-0.519-0.44-1.043-0.625-1.575c-0.195-0.531-0.379-1.073-0.55-1.625l-0.476-1.7
	l-0.475-1.699l-0.45-1.7l-0.5-1.7c-0.163-0.559-0.338-1.108-0.524-1.65c-0.182-0.537-0.373-1.062-0.575-1.574
	c-0.214-0.525-0.447-1.033-0.7-1.525c-0.24-0.478-0.499-0.937-0.775-1.375c-0.289-0.449-0.605-0.874-0.949-1.275
	c-0.334-0.401-0.692-0.776-1.075-1.125c-0.382-0.34-0.799-0.647-1.25-0.925c-0.46-0.283-0.952-0.533-1.476-0.75
	c-0.508-0.214-1.058-0.389-1.649-0.524c-0.604-0.132-1.245-0.224-1.925-0.275l-0.15,1.1l-0.25,1.226l-0.325,1.35l-0.399,1.425
	L255.675,351l-0.524,1.55l-0.625,1.601l-0.676,1.6c-0.238,0.536-0.488,1.069-0.75,1.6c-0.257,0.532-0.523,1.057-0.8,1.575
	c-0.28,0.51-0.572,1.01-0.875,1.5c-0.299,0.496-0.607,0.979-0.925,1.45c-0.322,0.475-0.656,0.933-1,1.375
	c-0.341,0.437-0.691,0.853-1.05,1.25c-0.356,0.397-0.724,0.772-1.101,1.125c-0.376,0.351-0.759,0.676-1.149,0.975
	c-0.391,0.306-0.791,0.581-1.2,0.825c-0.409,0.24-0.826,0.449-1.25,0.625c-0.425,0.179-0.858,0.32-1.3,0.425
	c-0.444,0.097-0.894,0.155-1.351,0.176l-0.399,0.024c-0.394-0.001-0.794-0.034-1.2-0.1c-0.404-0.068-0.813-0.168-1.225-0.3
	c-0.484-0.148-0.976-0.349-1.476-0.601c-0.495-0.258-0.995-0.566-1.5-0.925c-1.061-0.763-1.894-1.63-2.5-2.6
	c-0.294-0.484-0.552-0.984-0.774-1.5c-0.229-0.513-0.421-1.038-0.575-1.575c-0.157-0.545-0.299-1.095-0.425-1.65
	c-0.125-0.557-0.233-1.114-0.325-1.675l-0.3-1.65l-0.301-1.6c-0.107-0.518-0.241-1.018-0.399-1.5
	c-0.168-0.496-0.359-0.971-0.575-1.425c-0.42-0.895-1.02-1.67-1.8-2.325s-1.821-1.147-3.125-1.475
	c-0.512-0.133-1.079-0.232-1.7-0.301c-0.616-0.065-1.283-0.099-2-0.1l-1.25,0.025l-5.925,1.274l-6.55,8.976
	c-0.444,0.466-0.937,0.933-1.476,1.399c-0.539,0.471-1.122,0.938-1.75,1.4c-0.624,0.463-1.283,0.912-1.975,1.35
	c-0.696,0.441-1.422,0.866-2.175,1.275c-0.748,0.408-1.515,0.791-2.301,1.149c-0.794,0.353-1.603,0.678-2.425,0.976
	c-0.812,0.304-1.629,0.57-2.45,0.8c-0.826,0.23-1.651,0.423-2.475,0.575c-0.605,0.102-1.205,0.177-1.8,0.225
	c-0.593,0.061-1.177,0.094-1.75,0.101c-0.421-0.002-0.837-0.019-1.25-0.051c-1.548-0.106-2.981-0.464-4.3-1.074
	c-0.951-0.47-1.718-1.054-2.301-1.75c-0.287-0.349-0.546-0.715-0.774-1.101c-0.223-0.383-0.415-0.783-0.575-1.2
	c-0.173-0.416-0.331-0.841-0.475-1.274c-0.132-0.428-0.249-0.861-0.351-1.3l-0.649-2.65c-0.109-0.429-0.234-0.845-0.375-1.25
	c-0.144-0.415-0.302-0.815-0.476-1.2c-0.167-0.373-0.367-0.723-0.6-1.05c-0.236-0.334-0.503-0.642-0.8-0.925
	c-0.294-0.283-0.636-0.533-1.025-0.75c-0.396-0.21-0.837-0.385-1.325-0.525c-0.397-0.121-0.84-0.213-1.325-0.274
	c-0.484-0.063-1.01-0.098-1.574-0.101l-0.775,0.025c-0.523,0.032-1.04,0.115-1.55,0.25c-0.51,0.133-1.01,0.316-1.5,0.55
	c-0.495,0.24-0.987,0.515-1.476,0.825c-0.49,0.3-0.974,0.634-1.449,1c-0.477,0.373-0.951,0.765-1.426,1.175
	c-0.471,0.418-0.938,0.851-1.399,1.3l-2.775,2.65c-0.462,0.449-0.929,0.882-1.4,1.3c-0.474,0.409-0.949,0.802-1.425,1.175
	c-0.476,0.375-0.959,0.717-1.45,1.025c-0.479,0.31-0.963,0.585-1.45,0.825c-0.499,0.233-1.007,0.417-1.525,0.55
	c-0.519,0.144-1.044,0.234-1.575,0.274h-0.4c-0.465,0.003-0.94-0.047-1.425-0.149c-0.485-0.106-0.977-0.265-1.475-0.476
	c-0.32-0.142-0.603-0.309-0.85-0.5c-0.255-0.192-0.472-0.409-0.65-0.649c-0.167-0.241-0.309-0.5-0.425-0.775
	c-0.126-0.276-0.226-0.568-0.3-0.875c-0.064-0.298-0.114-0.606-0.15-0.925c-0.039-0.326-0.063-0.659-0.075-1l-0.05-2.05l-0.05-1
	l-0.1-0.95c-0.037-0.321-0.096-0.629-0.175-0.925c-0.087-0.291-0.195-0.565-0.325-0.825c-0.244-0.509-0.619-0.935-1.125-1.275
	c-0.262-0.178-0.571-0.328-0.925-0.449c-0.349-0.112-0.74-0.196-1.175-0.25l-0.875-0.101l-0.875-0.024
	c-0.473,0-0.939,0.024-1.4,0.074c-0.459,0.051-0.909,0.126-1.35,0.226c-0.705,0.162-1.396,0.371-2.075,0.625
	c-0.685,0.248-1.351,0.539-2,0.875c-0.65,0.33-1.292,0.688-1.925,1.075c-0.637,0.399-1.262,0.825-1.875,1.274l-1.825,1.351
	l-1.775,1.399l-1.775,1.375l-1.775,1.325c-0.585,0.421-1.177,0.812-1.775,1.175c-0.598,0.373-1.198,0.715-1.8,1.025
	c-0.614,0.307-1.239,0.564-1.875,0.774c-0.627,0.208-1.26,0.366-1.9,0.476l-0.8,0.1l-0.8,0.025c-0.402,0.007-0.81-0.01-1.225-0.05
	c-0.405-0.052-0.813-0.127-1.225-0.226c-1.196-0.294-2.204-0.761-3.025-1.399c-0.416-0.328-0.799-0.687-1.15-1.075
	c-0.342-0.381-0.65-0.789-0.925-1.226c-0.277-0.432-0.535-0.882-0.775-1.35c-0.245-0.478-0.47-0.969-0.675-1.475L99.125,355
	l-0.575-1.525c-0.174-0.509-0.357-1.009-0.55-1.5c-0.2-0.495-0.409-0.979-0.625-1.449c-0.218-0.465-0.46-0.906-0.725-1.325
	c-0.261-0.426-0.544-0.826-0.85-1.2c-0.605-0.748-1.355-1.349-2.25-1.8c-0.448-0.217-0.948-0.384-1.5-0.5
	c-0.551-0.126-1.151-0.201-1.8-0.226h-0.225c-0.668-0.001-1.301,0.049-1.9,0.15c-0.588,0.107-1.138,0.266-1.65,0.475
	c-0.546,0.216-1.062,0.475-1.55,0.775c-0.49,0.301-0.948,0.643-1.375,1.025c-0.426,0.38-0.834,0.788-1.225,1.225
	c-0.387,0.442-0.754,0.908-1.1,1.4c-0.349,0.495-0.69,1.003-1.025,1.524c-0.334,0.516-0.66,1.041-0.975,1.575l-0.95,1.625
	l-0.975,1.575c-0.327,0.525-0.669,1.034-1.025,1.524c-0.354,0.479-0.721,0.938-1.1,1.375c-0.382,0.45-0.791,0.867-1.225,1.25
	c-0.435,0.378-0.894,0.72-1.375,1.025c-0.966,0.61-2.074,1.019-3.325,1.225l-1.05,0.15l-1.2,0.15l-1.325,0.125l-1.425,0.1
	l-0.95,0.025l-0.975,0.024l-1-0.024c-0.49-0.012-0.974-0.036-1.45-0.075c-0.485-0.045-0.96-0.103-1.425-0.175
	c-0.46-0.065-0.902-0.148-1.325-0.25c-0.421-0.107-0.821-0.232-1.2-0.375c-0.388-0.144-0.746-0.311-1.075-0.5
	c-0.324-0.195-0.615-0.412-0.875-0.65c-0.469-0.438-0.877-0.954-1.225-1.55c-0.175-0.304-0.341-0.62-0.5-0.95
	c-0.151-0.322-0.293-0.656-0.425-1l-0.4-1.05l-0.4-1.101l-0.375-1.074l-0.4-1.075c-0.132-0.352-0.274-0.693-0.425-1.025
	c-0.159-0.328-0.326-0.646-0.5-0.95c-0.168-0.301-0.352-0.584-0.55-0.85c-0.203-0.271-0.42-0.521-0.65-0.75
	c-0.452-0.449-0.986-0.79-1.6-1.025c-0.271-0.109-0.562-0.192-0.875-0.25c-0.314-0.051-0.647-0.076-1-0.074h-0.325
	c-0.356,0.026-0.698,0.084-1.025,0.175c-0.333,0.076-0.65,0.185-0.95,0.325c-0.303,0.15-0.594,0.325-0.875,0.524
	c-0.279,0.193-0.546,0.41-0.8,0.65c-0.257,0.241-0.507,0.499-0.75,0.774c-0.242,0.276-0.476,0.568-0.7,0.875l-0.65,0.95l-0.625,1
	l-1.275,2.075L36.05,357.4l-0.675,0.949c-0.444,0.644-0.919,1.227-1.425,1.75c-0.512,0.516-1.07,0.94-1.675,1.275l-0.05-0.025
	l3-46.024l3-0.025c-0.006-1.945,0.002-3.896,0.025-5.85c0.028-1.943,0.07-3.886,0.125-5.825c0.053-1.949,0.12-3.892,0.2-5.825
	l0.3-5.825l0.325-5.824l0.425-5.825l0.475-5.8l0.525-5.801l0.6-5.774l0.625-5.8l0.675-5.801l0.725-5.75l0.75-5.774l0.775-5.8
	l0.825-5.75l0.825-5.775l0.85-5.775l0.875-5.775l2.65-17.3l0.875-5.775l0.875-5.775l0.875-5.775
	c0.299-1.964,0.641-3.923,1.025-5.875c0.377-1.953,0.793-3.886,1.25-5.8c0.458-1.92,0.95-3.837,1.475-5.75
	c0.529-1.909,1.087-3.8,1.675-5.675c0.585-1.875,1.193-3.75,1.825-5.625c0.631-1.872,1.281-3.73,1.95-5.575
	c0.669-1.847,1.353-3.697,2.05-5.55c0.7-1.853,1.408-3.694,2.125-5.525l4.325-11.05l2.15-5.525l2.1-5.55
	c0.691-1.838,1.366-3.688,2.025-5.55c0.654-1.868,1.288-3.734,1.9-5.6c0.609-1.867,1.193-3.75,1.75-5.65
	c0.563-1.897,1.097-3.798,1.6-5.7c0.182-0.676,0.399-1.359,0.65-2.05c0.251-0.689,0.534-1.381,0.85-2.075
	c0.314-0.695,0.655-1.395,1.025-2.1c0.367-0.7,0.759-1.4,1.175-2.1c0.421-0.707,0.863-1.415,1.325-2.125
	c0.466-0.703,0.949-1.403,1.45-2.1c0.495-0.7,1.003-1.4,1.525-2.1c0.515-0.705,1.04-1.405,1.575-2.1l1.65-2.075l1.675-2.025
	l3.325-3.95l3.15-3.75l1.45-1.75l1.35-1.7l4.225-5.425l2.25-2.85l2.325-2.875l2.4-2.925l2.475-2.9c0.836-0.971,1.687-1.938,2.55-2.9
	c0.859-0.961,1.725-1.911,2.6-2.85c0.888-0.945,1.788-1.879,2.7-2.8c0.902-0.918,1.811-1.818,2.725-2.7
	c0.921-0.878,1.855-1.737,2.8-2.575c0.936-0.842,1.878-1.659,2.825-2.45c0.956-0.787,1.922-1.545,2.9-2.275
	c0.979-0.734,1.963-1.434,2.95-2.1c0.982-0.662,1.974-1.287,2.975-1.875c0.998-0.6,1.998-1.158,3-1.675
	c4.057-2.019,8.391-3.577,13-4.675c4.609-1.109,9.393-1.792,14.35-2.05l2.375-0.075l2.375-0.025c1.702-0.004,3.419,0.038,5.15,0.125
	c1.723,0.088,3.447,0.222,5.175,0.4c5.105,0.538,10.181,1.43,15.225,2.675c5.033,1.248,9.933,2.814,14.7,4.7
	c4.769,1.883,9.302,4.05,13.6,6.5c4.296,2.452,8.255,5.152,11.875,8.1c3.623,2.955,6.807,6.122,9.551,9.5
	c0.883,1.102,1.741,2.244,2.574,3.425c0.84,1.186,1.648,2.402,2.426,3.65c0.771,1.244,1.521,2.519,2.25,3.825
	c0.735,1.302,1.443,2.627,2.125,3.975c0.669,1.359,1.319,2.742,1.949,4.15c0.642,1.394,1.258,2.802,1.851,4.225
	c0.584,1.433,1.15,2.883,1.7,4.35c0.555,1.469,1.088,2.944,1.6,4.425c0.507,1.474,0.999,2.958,1.475,4.45
	c0.485,1.493,0.952,2.985,1.4,4.475c0.438,1.49,0.863,2.982,1.275,4.475c0.415,1.501,0.815,2.993,1.199,4.475l1.15,4.4l1.05,4.325
	l1,4.25L279.875,105.325z"/>
<path style="fill-rule:evenodd;clip-rule:evenodd;fill:#949494;" d="M217.65,37.175l0.925,0.025
	c0.601,0.026,1.192,0.084,1.774,0.175c0.597,0.093,1.18,0.218,1.75,0.375c0.567,0.157,1.118,0.365,1.65,0.625
	c0.529,0.266,1.038,0.583,1.525,0.95l-0.025,0.05l-14-2l-0.025-0.05l1.825-0.05l1.825-0.075l0.95-0.025h0.925H217.65z"/>
<path style="fill-rule:evenodd;clip-rule:evenodd;fill:#060606;" d="M216.075,38.025c0.896,0,1.78,0.058,2.649,0.175
	c0.869,0.117,1.72,0.292,2.551,0.525c1.801,0.512,3.401,1.312,4.8,2.4c1.395,1.091,2.462,2.483,3.2,4.175l-0.051,0.05l-10.975-4.8
	l-17,4.8c0.886-1.578,2.086-2.903,3.6-3.975c1.509-1.065,3.192-1.882,5.051-2.45c1.859-0.561,3.768-0.861,5.725-0.9H216.075z"/>
<path style="fill-rule:evenodd;clip-rule:evenodd;fill:#060606;" d="M212.8,56.475c0.473,0.036,0.956,0.127,1.45,0.275
	c0.5,0.137,1.009,0.329,1.525,0.575c0.514,0.251,1.038,0.568,1.574,0.95c0.534,0.388,1.075,0.837,1.625,1.35
	c1.364,1.269,2.506,2.636,3.426,4.1c0.462,0.728,0.878,1.478,1.25,2.25c0.372,0.775,0.697,1.567,0.975,2.375
	c0.27,0.8,0.503,1.617,0.7,2.45c0.204,0.839,0.37,1.689,0.5,2.55c0.119,0.856,0.211,1.723,0.274,2.6
	c0.07,0.879,0.112,1.762,0.125,2.65c0.011,0.887,0.003,1.779-0.024,2.675c-0.022,0.893-0.064,1.785-0.125,2.675l-0.226,2.675
	l-0.3,2.65l-0.625,5.175l-0.3,2.5l-0.25,2.375l-0.15,1.85l-0.125,1.85l-0.25,3.675l-0.175,1.825l-0.2,1.8
	c-0.07,0.586-0.153,1.169-0.25,1.75c-0.104,0.591-0.221,1.174-0.35,1.75c-0.123,0.571-0.265,1.138-0.425,1.7
	c-0.166,0.559-0.349,1.108-0.55,1.65c-0.2,0.548-0.425,1.09-0.676,1.625c-0.251,0.536-0.525,1.061-0.824,1.575
	c-0.303,0.508-0.637,1.008-1,1.5c-0.354,0.503-0.738,0.995-1.15,1.475c-0.421,0.476-0.879,0.942-1.375,1.4
	c-0.491,0.454-1.016,0.896-1.575,1.325c-1.273,0.938-2.698,1.596-4.274,1.975c-0.78,0.185-1.581,0.326-2.4,0.425
	c-0.827,0.102-1.669,0.16-2.525,0.175h-1.149l-1.976-0.025L201,128.55l-2.45-0.125l-2.325-0.05c-0.316-1.221-0.6-2.421-0.85-3.6
	c-0.258-1.17-0.491-2.321-0.7-3.45c-0.204-1.141-0.387-2.282-0.55-3.425c-0.163-1.132-0.305-2.257-0.425-3.375
	c-0.12-1.127-0.22-2.269-0.3-3.425c-0.079-1.152-0.138-2.311-0.176-3.475c-0.035-1.164-0.052-2.355-0.05-3.575
	c-0.01-1.222-0.002-2.464,0.025-3.725l3.825-18l0.149-1.1l0.226-1.275l0.3-1.4l0.35-1.55l0.425-1.625l0.5-1.7l0.575-1.75
	l0.625-1.775c0.222-0.594,0.455-1.186,0.7-1.775c0.24-0.583,0.49-1.157,0.75-1.725c0.264-0.57,0.538-1.128,0.825-1.675
	c0.29-0.549,0.59-1.082,0.899-1.6c0.306-0.521,0.622-1.021,0.95-1.5c0.332-0.481,0.674-0.939,1.025-1.375
	c0.354-0.429,0.721-0.829,1.1-1.2c0.374-0.373,0.758-0.714,1.15-1.025c0.388-0.313,0.788-0.588,1.2-0.825
	c0.416-0.239,0.841-0.439,1.274-0.6c0.366-0.124,0.741-0.216,1.125-0.275c0.378-0.066,0.761-0.1,1.15-0.1H212.8z"/>
<path style="fill-rule:evenodd;clip-rule:evenodd;fill:#CFCCCC;" d="M146.35,60.625l1.7,0.025l1.675,0.075
	c0.717,0.056,1.417,0.131,2.1,0.225c0.68,0.089,1.338,0.197,1.975,0.325c0.638,0.12,1.247,0.262,1.825,0.425
	c0.584,0.171,1.134,0.362,1.65,0.575v0.075H133.25l-0.025-0.05c0.542-0.167,1.109-0.317,1.7-0.45c0.589-0.144,1.206-0.277,1.85-0.4
	c0.654-0.112,1.329-0.212,2.025-0.3c0.685-0.095,1.385-0.178,2.1-0.25c0.725-0.072,1.458-0.131,2.2-0.175
	c0.738-0.048,1.48-0.081,2.225-0.1H146.35z"/>
<path style="fill-rule:evenodd;clip-rule:evenodd;fill:#060606;" d="M147.2,61.525l1.2,0.075c0.681,0.04,1.347,0.098,2,0.175
	c0.661,0.082,1.302,0.182,1.925,0.3c0.627,0.115,1.227,0.249,1.8,0.4c0.564,0.158,1.097,0.333,1.6,0.525
	c0.507,0.183,0.973,0.382,1.4,0.6c0.426,0.226,0.81,0.467,1.15,0.725l-0.025,0.05l-27,2l-0.025-0.05
	c0.502-0.749,1.194-1.407,2.075-1.975c0.439-0.279,0.914-0.538,1.425-0.775c0.518-0.239,1.067-0.456,1.65-0.65
	c0.576-0.195,1.176-0.37,1.8-0.525c0.623-0.154,1.264-0.288,1.925-0.4c0.663-0.111,1.338-0.203,2.025-0.275
	c0.693-0.078,1.393-0.137,2.1-0.175l0.9-0.025h0.9H147.2z"/>
<path style="fill-rule:evenodd;clip-rule:evenodd;fill:#CFCCCC;" d="M147.975,64.85c0.747,0.005,1.489,0.03,2.225,0.075
	c0.736,0.038,1.46,0.097,2.175,0.175c0.871,0.098,1.712,0.248,2.525,0.45c0.827,0.208,1.619,0.466,2.375,0.775v0.05l-2.525,0.075
	l-2.65,0.125l-2.75,0.15l-2.775,0.1h-1.05c-0.748,0.003-1.489-0.013-2.225-0.05c-0.736-0.039-1.46-0.097-2.175-0.175
	c-0.871-0.098-1.712-0.248-2.525-0.45c-0.826-0.207-1.618-0.465-2.375-0.775v-0.05l2.525-0.075l2.65-0.125l2.75-0.15l2.775-0.1
	L147.975,64.85z"/>
<path style="fill-rule:evenodd;clip-rule:evenodd;fill:#3F3F3F;" d="M200.25,71.375l-0.025-6.025l0.025-0.025
	c0.14,0.291,0.257,0.566,0.35,0.825l0.226,0.775c0.117,0.489,0.176,0.963,0.175,1.425c0.001,0.461-0.058,0.937-0.175,1.425
	L200.6,70.55l-0.324,0.825H200.25z"/>
<path style="fill-rule:evenodd;clip-rule:evenodd;fill:#3F3F3F;" d="M204.15,70.025c0.051,0.656,0.067,1.331,0.05,2.025
	c-0.008,0.694-0.05,1.403-0.125,2.125c-0.083,0.721-0.191,1.454-0.325,2.2c-0.134,0.75-0.292,1.509-0.475,2.275
	c-0.185,0.761-0.384,1.527-0.601,2.3c-0.21,0.774-0.436,1.549-0.675,2.325l-0.75,2.325l-0.775,2.3l-1.55,4.5l-0.725,2.15l-0.65,2.05
	c-0.197,0.669-0.372,1.319-0.524,1.95c-0.165,0.624-0.307,1.224-0.426,1.8c-0.406,2.306-0.539,4.506-0.399,6.6
	c0.072,1.042,0.181,2.075,0.325,3.1c0.141,1.024,0.315,2.033,0.524,3.025l1.3,6.025c0.214,0.997,0.397,2.013,0.551,3.05
	c0.156,1.045,0.281,2.104,0.375,3.175c0.811-0.003,1.585-0.029,2.324-0.075c0.741-0.045,1.449-0.112,2.125-0.2
	c0.689-0.081,1.364-0.189,2.025-0.325c0.651-0.14,1.285-0.307,1.9-0.5c0.624-0.192,1.249-0.417,1.875-0.675
	c0.62-0.261,1.237-0.553,1.85-0.875c0.609-0.32,1.234-0.679,1.875-1.075c0.648-0.39,1.307-0.815,1.975-1.275l0.051,0.025
	c-0.632,1.771-1.573,3.096-2.825,3.975c-1.253,0.87-2.686,1.445-4.3,1.725c-0.753,0.133-1.52,0.233-2.301,0.3
	c-0.791,0.066-1.591,0.1-2.399,0.1h-0.3l-4.926-0.075l-0.574-3.425c-0.194-1.126-0.402-2.234-0.625-3.325l-0.65-3.275l-0.6-3.275
	c-0.184-1.085-0.334-2.186-0.45-3.3c-0.126-1.11-0.218-2.227-0.275-3.35c-0.058-1.131-0.058-2.29,0-3.475
	c0.067-1.181,0.192-2.381,0.375-3.6l7.775-33l0.075-0.025c0.227,0.576,0.409,1.175,0.55,1.8
	C203.978,68.738,204.086,69.372,204.15,70.025z"/>
<path style="fill-rule:evenodd;clip-rule:evenodd;fill:#060606;" d="M158.725,79.3c0.234,0.638,0.442,1.297,0.625,1.975
	c0.172,0.664,0.322,1.347,0.45,2.05c0.14,0.71,0.256,1.436,0.351,2.175c0.085,0.744,0.151,1.502,0.199,2.275
	c0.053,0.767,0.086,1.542,0.101,2.325c0.015,0.783,0.015,1.575,0,2.375c-0.018,0.797-0.051,1.597-0.101,2.4
	c-0.045,0.805-0.104,1.613-0.175,2.425c-0.079,0.819-0.171,1.636-0.274,2.45l-0.325,2.4l-0.375,2.375l-0.45,2.35l-0.475,2.25
	l-0.5,2.175l-0.525,2.075l-0.525,1.975l-0.55,1.825l-0.525,1.675l-0.525,1.5c-0.168,0.513-0.318,1.038-0.45,1.575
	c-0.135,0.542-0.252,1.092-0.35,1.65L154,125.25l-0.325,1.65c-0.121,0.554-0.271,1.095-0.45,1.625
	c-0.172,0.523-0.372,1.032-0.6,1.525c-0.468,1.007-1.143,1.916-2.025,2.725c-0.28,0.247-0.588,0.472-0.925,0.675
	c-0.349,0.207-0.724,0.39-1.125,0.55c-0.387,0.152-0.795,0.285-1.225,0.4c-0.439,0.119-0.898,0.219-1.375,0.3
	c-0.469,0.082-0.953,0.148-1.45,0.2c-0.506,0.049-1.022,0.082-1.55,0.1l-1.175,0.025l-1-0.025l-1.025-0.05l-1.625-0.1l-1.625-0.15
	l-1.6-0.2l-1.525-0.225l-1.45-0.225l-1.375-0.25l-2.325-0.425c-0.218-1.625-0.401-3.225-0.55-4.8
	c-0.15-1.568-0.275-3.11-0.375-4.625c-0.095-1.518-0.162-3.035-0.2-4.55c-0.037-1.521-0.045-3.029-0.025-4.525
	c0.017-1.496,0.066-3.004,0.15-4.525c0.092-1.523,0.217-3.048,0.375-4.575c0.154-1.523,0.345-3.073,0.575-4.65
	c0.223-1.584,0.481-3.184,0.775-4.8l5.25-22l1.25-0.175c0.403-0.065,0.803-0.148,1.2-0.25l1.2-0.35l1.175-0.425l1.175-0.45
	l1.175-0.475l1.15-0.45l1.175-0.425c0.381-0.138,0.765-0.263,1.15-0.375c0.393-0.105,0.784-0.197,1.175-0.275
	c0.381-0.087,0.765-0.153,1.15-0.2c0.392-0.038,0.784-0.054,1.175-0.05c0.412-0.004,0.821,0.021,1.225,0.075
	c0.399,0.063,0.799,0.154,1.2,0.275c0.404,0.113,0.812,0.263,1.225,0.45c0.415,0.198,0.832,0.431,1.25,0.7
	c0.513,0.332,0.997,0.699,1.45,1.1c0.449,0.401,0.866,0.835,1.25,1.3c0.394,0.47,0.76,0.97,1.1,1.5
	c0.338,0.532,0.646,1.09,0.925,1.675C158.249,78.075,158.499,78.675,158.725,79.3z"/>
<path style="fill-rule:evenodd;clip-rule:evenodd;fill:#3F3F3F;" d="M151.275,73.225l0.975,0.05l2.025,5.025l-0.025,0.05l-3.025-4
	c-0.711,0.053-1.378,0.145-2,0.275c-0.624,0.137-1.199,0.312-1.725,0.525c-1.053,0.416-1.936,0.99-2.65,1.725
	c-0.717,0.733-1.283,1.633-1.7,2.7c-0.208,0.538-0.382,1.121-0.525,1.75c-0.15,0.625-0.267,1.292-0.35,2l-4.025,0.025l-0.975-5.6V80
	l-0.075,1.3l-0.125,1.25c-0.053,0.411-0.128,0.819-0.225,1.225c-0.096,0.405-0.213,0.805-0.35,1.2c-0.144,0.4-0.319,0.8-0.525,1.2
	c-0.204,0.396-0.438,0.787-0.7,1.175l0.125-1.675L135.55,84c0.043-0.564,0.101-1.122,0.175-1.675c0.084-0.551,0.185-1.092,0.3-1.625
	c0.106-0.534,0.248-1.051,0.425-1.55c0.183-0.503,0.399-0.987,0.65-1.45l0.125-0.2v-0.175l0.025-0.05l0.05,0.075
	c0.242-0.388,0.525-0.755,0.85-1.1c0.319-0.341,0.677-0.658,1.075-0.95l0.05,0.025v6.95h1.95c0.056-1.878,0.323-3.428,0.8-4.65
	c0.493-1.238,1.202-2.197,2.125-2.875c0.918-0.668,2.051-1.11,3.4-1.325c0.418-0.067,0.86-0.117,1.325-0.15
	c0.472-0.034,0.963-0.05,1.475-0.05H151.275z"/>
<path style="fill-rule:evenodd;clip-rule:evenodd;fill:#CFCCCC;" d="M227.95,83.35l-0.025,1.575l-0.075,1.525l-0.125,1.525
	l-0.199,1.45l-0.226,1.4c-0.091,0.441-0.19,0.866-0.3,1.275c-0.1,0.419-0.208,0.819-0.325,1.2c-0.125,0.38-0.259,0.739-0.399,1.075
	h-0.025l-0.025-22.025l0.025-0.025c0.159,0.343,0.301,0.702,0.425,1.075c0.117,0.372,0.226,0.764,0.325,1.175
	c0.109,0.417,0.209,0.85,0.3,1.3l0.226,1.4l0.199,1.45l0.125,1.525l0.075,1.525L227.95,83.35z"/>
<path style="fill-rule:evenodd;clip-rule:evenodd;fill:#949494;" d="M133.25,80.375l-0.025-6.025l0.025-0.025
	c0.14,0.291,0.257,0.566,0.35,0.825l0.225,0.775c0.118,0.489,0.176,0.963,0.175,1.425c0.001,0.461-0.057,0.937-0.175,1.425
	L133.6,79.55l-0.325,0.825H133.25z"/>
<path style="fill-rule:evenodd;clip-rule:evenodd;fill:#6E6E6E;" d="M161.25,88.325l0.1,2.25l0.025,2.275l-0.025,2.275l-0.1,2.25
	l-0.175,2.175c-0.064,0.719-0.14,1.419-0.226,2.1c-0.088,0.674-0.188,1.324-0.3,1.95c-0.105,0.629-0.223,1.229-0.35,1.8
	c-0.13,0.569-0.271,1.103-0.425,1.6c-0.156,0.498-0.323,0.956-0.5,1.375h-0.025l-0.025-31.025l0.025-0.025
	c0.194,0.426,0.37,0.884,0.525,1.375c0.153,0.505,0.295,1.047,0.425,1.625c0.127,0.562,0.244,1.154,0.35,1.775
	c0.111,0.625,0.212,1.275,0.3,1.95c0.086,0.682,0.161,1.382,0.226,2.1L161.25,88.325z"/>
<path style="fill-rule:evenodd;clip-rule:evenodd;fill:#3F3F3F;" d="M158.35,91.675l-0.024,1.65L158.225,95l-0.149,1.675l-0.2,1.65
	l-0.225,1.65l-0.275,1.6l-0.3,1.55l-0.325,1.475l-0.35,1.4l-0.4,1.325l-0.4,1.2l-0.425,1.1c-0.147,0.34-0.297,0.657-0.45,0.95
	c-0.148,0.292-0.298,0.559-0.45,0.8h-0.025l-0.025-0.025c0.094-1.366,0.202-2.725,0.325-4.075c0.12-1.342,0.253-2.667,0.4-3.975
	l0.425-3.95l0.375-3.925c0.117-1.297,0.2-2.606,0.25-3.925c0.042-1.323,0.05-2.648,0.025-3.975
	c-0.017-1.321-0.092-2.663-0.225-4.025c-0.135-1.373-0.327-2.756-0.575-4.15l0.05-0.025c0.23,0.206,0.447,0.439,0.65,0.7
	c0.207,0.258,0.398,0.542,0.575,0.85c0.171,0.301,0.329,0.626,0.475,0.975c0.147,0.354,0.28,0.729,0.4,1.125
	c0.119,0.398,0.228,0.815,0.325,1.25c0.104,0.434,0.195,0.884,0.274,1.35L158.15,87l0.125,1.5l0.074,1.575V91.675z"/>
<path style="fill-rule:evenodd;clip-rule:evenodd;fill:#3F3F3F;" d="M279.25,92.375l-0.025-6.025l0.025-0.025
	c0.14,0.291,0.257,0.566,0.35,0.825l0.226,0.775c0.117,0.489,0.176,0.963,0.175,1.425c0.001,0.461-0.058,0.937-0.175,1.425
	L279.6,91.55l-0.324,0.825H279.25z"/>
<path style="fill-rule:evenodd;clip-rule:evenodd;fill:#3F3F3F;" d="M133.25,94.375l-0.025-6.025l0.025-0.025
	c0.14,0.291,0.257,0.566,0.35,0.825l0.225,0.775c0.118,0.489,0.176,0.963,0.175,1.425c0.001,0.461-0.057,0.937-0.175,1.425
	L133.6,93.55l-0.325,0.825H133.25z"/>
<path style="fill-rule:evenodd;clip-rule:evenodd;fill:#3F3F3F;" d="M222.775,104.775c-0.075,0.82-0.184,1.637-0.325,2.45
	c-0.141,0.812-0.316,1.612-0.525,2.4c-0.208,0.793-0.45,1.568-0.725,2.325c-0.273,0.752-0.582,1.477-0.925,2.175
	c-0.343,0.691-0.718,1.349-1.125,1.975c-0.824,1.271-1.782,2.362-2.875,3.275l1.199-3.4c0.386-1.099,0.735-2.166,1.051-3.2
	c0.321-1.035,0.612-2.068,0.875-3.1c0.256-1.025,0.481-2.042,0.675-3.05c0.201-1.013,0.376-2.046,0.524-3.1
	c0.144-1.054,0.261-2.12,0.351-3.2c0.089-1.082,0.155-2.207,0.2-3.375c0.048-1.165,0.072-2.365,0.074-3.6l0.025-0.025
	c0.293,0.659,0.543,1.342,0.75,2.05c0.201,0.707,0.368,1.44,0.5,2.2c0.133,0.758,0.233,1.533,0.3,2.325
	c0.059,0.797,0.084,1.605,0.075,2.425C222.876,103.139,222.843,103.956,222.775,104.775z"/>
<path style="fill-rule:evenodd;clip-rule:evenodd;fill:#6E6E6E;" d="M224.25,111.375l-0.025-16.025l0.025-0.025
	c0.245,0.561,0.453,1.153,0.625,1.775c0.17,0.617,0.312,1.267,0.425,1.95c0.112,0.694,0.195,1.402,0.25,2.125
	c0.062,0.716,0.096,1.441,0.101,2.175c-0.005,0.734-0.039,1.459-0.101,2.175c-0.055,0.723-0.138,1.432-0.25,2.125
	c-0.113,0.684-0.255,1.334-0.425,1.95c-0.173,0.629-0.372,1.221-0.6,1.775H224.25z"/>
<path style="fill-rule:evenodd;clip-rule:evenodd;fill:#3F3F3F;" d="M127.25,110.375l-0.025-11.025l0.025-0.025
	c0.198,0.438,0.364,0.879,0.5,1.325c0.14,0.451,0.256,0.909,0.35,1.375c0.088,0.462,0.155,0.929,0.2,1.4
	c0.04,0.474,0.056,0.949,0.05,1.425c0.006,0.476-0.011,0.951-0.05,1.425c-0.044,0.471-0.111,0.938-0.2,1.4
	c-0.094,0.466-0.21,0.924-0.35,1.375c-0.137,0.452-0.295,0.894-0.475,1.325H127.25z"/>
<path style="fill-rule:evenodd;clip-rule:evenodd;fill:#CFCCCC;" d="M279.25,106.375l-0.025-6.025l0.025-0.025
	c0.14,0.291,0.257,0.566,0.35,0.825l0.226,0.775c0.117,0.489,0.176,0.963,0.175,1.425c0.001,0.461-0.058,0.937-0.175,1.425
	l-0.226,0.775l-0.324,0.825H279.25z"/>
<path style="fill-rule:evenodd;clip-rule:evenodd;fill:#3F3F3F;" d="M130.25,111.375l-0.025-10.025l0.025-0.025
	c0.695,1.634,1.045,3.309,1.05,5.025c-0.006,1.722-0.348,3.397-1.025,5.025H130.25z"/>
<path style="fill-rule:evenodd;clip-rule:evenodd;fill:#6E6E6E;" d="M284.25,113.375l-0.025-6.025l0.025-0.025
	c0.26,0.58,0.451,1.113,0.575,1.6c0.117,0.489,0.176,0.963,0.175,1.425c0.001,0.461-0.058,0.937-0.175,1.425l-0.226,0.775
	l-0.324,0.825H284.25z"/>
<path style="fill-rule:evenodd;clip-rule:evenodd;fill:#6E6E6E;" d="M281.25,114.375l-0.025-6.025l0.025-0.025
	c0.14,0.291,0.257,0.566,0.35,0.825l0.226,0.775c0.117,0.489,0.176,0.963,0.175,1.425c0.001,0.461-0.058,0.937-0.175,1.425
	l-0.226,0.775l-0.324,0.825H281.25z"/>
<path style="fill-rule:evenodd;clip-rule:evenodd;fill:#949494;" d="M125.25,125.375l-0.025-14.025l0.025-0.025
	c0.226,0.514,0.418,1.047,0.575,1.6c0.159,0.553,0.292,1.127,0.4,1.725c0.1,0.599,0.175,1.207,0.225,1.825
	c0.051,0.619,0.076,1.244,0.075,1.875c0.001,0.631-0.024,1.256-0.075,1.875c-0.05,0.619-0.125,1.227-0.225,1.825
	c-0.107,0.598-0.241,1.173-0.4,1.725c-0.158,0.56-0.342,1.093-0.55,1.6H125.25z"/>
<path style="fill-rule:evenodd;clip-rule:evenodd;fill:#3F3F3F;" d="M152.475,115.85c0.305-0.665,0.605-1.29,0.9-1.875
	c0.291-0.593,0.574-1.144,0.85-1.65l0.05,0.025c0.093,0.532,0.152,1.082,0.175,1.65c0.01,0.578-0.015,1.169-0.075,1.775
	c-0.047,0.599-0.122,1.207-0.225,1.825c-0.115,0.628-0.256,1.261-0.425,1.9c-0.163,0.631-0.346,1.265-0.55,1.9
	c-0.198,0.636-0.414,1.269-0.65,1.9c-0.245,0.63-0.503,1.255-0.775,1.875c-0.272,0.619-0.556,1.227-0.85,1.825
	c-0.286,0.606-0.577,1.198-0.875,1.775c-0.305,0.568-0.613,1.118-0.925,1.65l-0.925,1.55c-0.304,0.492-0.604,0.959-0.9,1.4h-0.025
	l-17-2l-0.025-0.025l1-4l0.05-0.025c1.606,1.798,3.106,3.082,4.5,3.85c1.271,0.709,2.463,1.068,3.575,1.075l0.3-0.025
	c1.199-0.064,2.315-0.447,3.35-1.15c1.028-0.71,1.987-1.644,2.875-2.8c0.447-0.583,0.88-1.2,1.3-1.85
	c0.425-0.646,0.833-1.321,1.225-2.025c0.386-0.707,0.761-1.424,1.125-2.15c0.363-0.721,0.713-1.446,1.05-2.175L152.475,115.85z"/>
<path style="fill-rule:evenodd;clip-rule:evenodd;fill:#3F3F3F;" d="M128.25,125.375l-0.025-12.025l0.025-0.025
	c0.208,0.466,0.382,0.941,0.525,1.425c0.141,0.479,0.257,0.971,0.35,1.475c0.098,0.51,0.173,1.027,0.225,1.55
	c0.049,0.522,0.074,1.047,0.075,1.575c-0.001,0.528-0.026,1.053-0.075,1.575c-0.052,0.523-0.127,1.041-0.225,1.55
	c-0.093,0.504-0.209,0.996-0.35,1.475c-0.143,0.49-0.31,0.965-0.5,1.425H128.25z"/>
<path style="fill-rule:evenodd;clip-rule:evenodd;fill:#3F3F3F;" d="M154.25,126.375l-0.025-7.025l0.025-0.025
	c0.15,0.33,0.275,0.646,0.375,0.95c0.1,0.299,0.183,0.591,0.25,0.875c0.066,0.285,0.117,0.568,0.15,0.85
	c0.033,0.287,0.05,0.57,0.05,0.85s-0.017,0.563-0.05,0.85c-0.033,0.282-0.083,0.565-0.15,0.85c-0.067,0.284-0.15,0.576-0.25,0.875
	c-0.101,0.311-0.217,0.627-0.35,0.95H154.25z"/>
<path style="fill-rule:evenodd;clip-rule:evenodd;fill:#B4B4B4;" d="M284.625,128.425c-0.101,0.311-0.217,0.627-0.35,0.95h-0.025
	l-0.025-7.025l0.025-0.025c0.15,0.33,0.275,0.646,0.375,0.95c0.1,0.299,0.184,0.591,0.25,0.875c0.066,0.285,0.116,0.568,0.15,0.85
	c0.033,0.287,0.05,0.57,0.05,0.85s-0.017,0.563-0.05,0.85c-0.034,0.282-0.084,0.565-0.15,0.85
	C284.809,127.833,284.725,128.125,284.625,128.425z"/>
<path style="fill-rule:evenodd;clip-rule:evenodd;fill:#949494;" d="M205.275,128.025c0.671-0.004,1.338,0.013,2,0.05
	c0.667,0.037,1.326,0.096,1.975,0.175c0.71,0.091,1.401,0.225,2.075,0.4c0.673,0.176,1.322,0.393,1.95,0.65v0.05l-2.101,0.05
	l-2.149,0.1l-2.2,0.1l-2.226,0.05h-0.375c-0.672,0.004-1.339-0.013-2-0.05c-0.668-0.047-1.326-0.114-1.975-0.2
	c-0.71-0.091-1.401-0.225-2.075-0.4c-0.673-0.168-1.323-0.376-1.95-0.625v-0.05l2.101-0.075l2.149-0.1l2.2-0.075l2.226-0.05H205.275
	z"/>
<path style="fill-rule:evenodd;clip-rule:evenodd;fill:#4F4F4F;" d="M286.25,139.375l-1.025-10.025l0.051-0.025
	c0.289,0.384,0.547,0.775,0.774,1.175c0.225,0.386,0.416,0.778,0.575,1.175c0.155,0.411,0.28,0.828,0.375,1.25
	c0.098,0.414,0.164,0.831,0.2,1.25c0.036,0.421,0.045,0.846,0.024,1.275c-0.021,0.432-0.071,0.865-0.149,1.3
	c-0.081,0.431-0.189,0.864-0.325,1.3c-0.132,0.442-0.29,0.884-0.475,1.325H286.25z"/>
<path style="fill-rule:evenodd;clip-rule:evenodd;fill:#3F3F3F;" d="M140.95,133.95c0.688,0.004,1.372,0.029,2.05,0.075
	c0.685,0.038,1.36,0.096,2.025,0.175c0.754,0.097,1.488,0.239,2.2,0.425c0.709,0.182,1.393,0.407,2.05,0.675v0.05l-2.2,0.05
	l-2.275,0.1l-2.35,0.125l-2.35,0.05h-0.55c-0.688,0.004-1.372-0.012-2.05-0.05c-0.685-0.038-1.36-0.096-2.025-0.175
	c-0.755-0.098-1.488-0.239-2.2-0.425c-0.709-0.182-1.393-0.407-2.05-0.675v-0.05l2.2-0.05l2.275-0.125l2.35-0.1l2.35-0.05
	L140.95,133.95z"/>
<path style="fill-rule:evenodd;clip-rule:evenodd;fill:#949494;" d="M289.25,157.375l-0.025-10.025l0.025-0.025
	c0.694,1.634,1.045,3.309,1.05,5.025c-0.006,1.722-0.348,3.397-1.024,5.025H289.25z"/>
<path style="fill-rule:evenodd;clip-rule:evenodd;fill:#B4B4B4;" d="M57.25,159.375l-0.025-6.025l0.025-0.025
	c0.14,0.291,0.257,0.566,0.35,0.825l0.225,0.775c0.118,0.489,0.176,0.963,0.175,1.425c0.001,0.461-0.057,0.937-0.175,1.425
	L57.6,158.55l-0.325,0.825H57.25z"/>
<path style="fill-rule:evenodd;clip-rule:evenodd;fill:#6E6E6E;" d="M52.25,168.375l-0.025-6.025l0.025-0.025
	c0.14,0.291,0.257,0.566,0.35,0.825l0.225,0.775c0.118,0.489,0.176,0.963,0.175,1.425c0.001,0.461-0.057,0.937-0.175,1.425
	L52.6,167.55l-0.325,0.825H52.25z"/>
<path style="fill-rule:evenodd;clip-rule:evenodd;fill:#CFCCCC;" d="M292.25,173.375l-0.025-10.025l0.025-0.025
	c0.695,1.634,1.045,3.309,1.05,5.025c-0.006,1.722-0.348,3.397-1.024,5.025H292.25z"/>
<path style="fill-rule:evenodd;clip-rule:evenodd;fill:#B4B4B4;" d="M299.25,189.375l-0.025-6.025l0.025-0.025
	c0.14,0.291,0.257,0.566,0.35,0.825l0.226,0.775c0.117,0.489,0.176,0.963,0.175,1.425c0.001,0.461-0.058,0.937-0.175,1.425
	l-0.226,0.775l-0.324,0.825H299.25z"/>
<path style="fill-rule:evenodd;clip-rule:evenodd;fill:#060606;" d="M124.35,187.325c1.911-0.008,3.803,0.025,5.675,0.1
	c1.883,0.084,3.733,0.209,5.55,0.375c1.819,0.162,3.627,0.371,5.425,0.625c1.807,0.255,3.59,0.556,5.35,0.9
	c1.76,0.349,3.519,0.75,5.275,1.2c1.755,0.444,3.497,0.936,5.225,1.475c1.725,0.544,3.458,1.145,5.2,1.8
	c1.746,0.649,3.487,1.349,5.226,2.1l2.125,0.925l2.25,1c0.769,0.35,1.526,0.725,2.274,1.125c0.74,0.394,1.466,0.811,2.175,1.25
	c1.429,0.886,2.688,1.911,3.775,3.075c1.09,1.176,1.89,2.534,2.4,4.075l-0.025,0.025c-0.896-0.178-1.779-0.386-2.65-0.625
	c-0.866-0.237-1.716-0.504-2.55-0.8c-0.84-0.304-1.673-0.628-2.5-0.975c-0.82-0.339-1.628-0.697-2.425-1.075
	c-0.802-0.379-1.602-0.771-2.4-1.175c-0.799-0.407-1.59-0.824-2.375-1.25l-4.699-2.6l-2.375-1.275l-2.4-1.225
	c-0.797-0.407-1.605-0.798-2.425-1.175c-0.819-0.376-1.645-0.734-2.475-1.075c-0.842-0.333-1.701-0.642-2.575-0.925
	c-0.865-0.286-1.74-0.544-2.625-0.775c-0.888-0.234-1.796-0.435-2.725-0.6c-0.927-0.168-1.869-0.302-2.825-0.4l-1.025-0.075
	l-1.125-0.05l-2.425-0.05l-1.3-0.05l-1.3-0.05l-1.325-0.075l-1.3-0.1l-1.3-0.175l-1.25-0.225c-0.403-0.079-0.794-0.17-1.175-0.275
	c-0.381-0.111-0.748-0.236-1.1-0.375c-0.358-0.14-0.7-0.298-1.025-0.475c-0.328-0.175-0.636-0.367-0.925-0.575
	c-0.28-0.211-0.539-0.444-0.775-0.7c-0.241-0.246-0.458-0.513-0.65-0.8l0.025-0.05H124.35z"/>
<path style="fill-rule:evenodd;clip-rule:evenodd;fill:#949494;" d="M298.425,195.2c0.164,0.755,0.313,1.555,0.45,2.4
	c0.139,0.844,0.264,1.728,0.375,2.65c0.105,0.921,0.196,1.872,0.275,2.85c0.08,0.978,0.146,1.978,0.199,3
	c0.056,1.021,0.098,2.054,0.125,3.1c0.031,1.045,0.048,2.095,0.051,3.15c-0.003,1.055-0.02,2.105-0.051,3.15
	c-0.027,1.045-0.069,2.079-0.125,3.1c-0.053,1.021-0.119,2.021-0.199,3c-0.079,0.978-0.17,1.928-0.275,2.85
	c-0.111,0.922-0.236,1.805-0.375,2.65c-0.137,0.844-0.286,1.644-0.45,2.4c-0.16,0.756-0.336,1.456-0.524,2.1
	c-0.196,0.652-0.404,1.244-0.625,1.775h-0.025l-0.025-42.025l0.025-0.025c0.238,0.538,0.455,1.13,0.65,1.775
	C298.089,193.744,298.265,194.444,298.425,195.2z"/>
<path style="fill-rule:evenodd;clip-rule:evenodd;fill:#3F3F3F;" d="M301.4,195.1c0.163,0.74,0.312,1.523,0.449,2.35
	c0.131,0.829,0.247,1.696,0.351,2.6c0.113,0.898,0.213,1.823,0.3,2.775c0.081,0.954,0.147,1.929,0.2,2.925
	c0.046,0.997,0.079,2.005,0.1,3.025c0.03,1.021,0.047,2.045,0.05,3.075c-0.003,1.03-0.02,2.055-0.05,3.075
	c-0.021,1.02-0.054,2.028-0.1,3.025c-0.053,0.996-0.119,1.97-0.2,2.925c-0.087,0.952-0.187,1.877-0.3,2.775
	c-0.104,0.904-0.22,1.771-0.351,2.6c-0.137,0.827-0.286,1.61-0.449,2.35c-0.161,0.737-0.337,1.42-0.525,2.05
	c-0.188,0.634-0.388,1.208-0.6,1.725h-0.025l-0.025-41.025l0.025-0.025c0.23,0.523,0.438,1.098,0.625,1.725
	C301.063,193.679,301.239,194.363,301.4,195.1z"/>
<path style="fill-rule:evenodd;clip-rule:evenodd;fill:#CFCCCC;" d="M49.25,201.375l-0.025-6.025l0.025-0.025
	c0.14,0.291,0.257,0.566,0.35,0.825l0.225,0.775c0.118,0.489,0.176,0.963,0.175,1.425c0.001,0.461-0.057,0.937-0.175,1.425
	c-0.125,0.494-0.308,1.027-0.55,1.6H49.25z"/>
<path style="fill-rule:evenodd;clip-rule:evenodd;fill:#B4B4B4;" d="M44.25,237.375l-0.025-15.025l0.025-0.025
	c0.236,0.533,0.436,1.092,0.6,1.675c0.169,0.588,0.311,1.205,0.425,1.85c0.102,0.646,0.177,1.304,0.225,1.975
	c0.061,0.667,0.094,1.343,0.1,2.025c-0.006,0.682-0.039,1.357-0.1,2.025c-0.048,0.671-0.123,1.329-0.225,1.975
	c-0.114,0.644-0.255,1.261-0.425,1.85c-0.165,0.59-0.357,1.148-0.575,1.675H44.25z"/>
<path style="fill-rule:evenodd;clip-rule:evenodd;fill:#4F4F4F;" d="M300.325,239.35c0.091,0.705,0.157,1.422,0.2,2.15
	c0.041,0.728,0.058,1.461,0.05,2.2l-0.05,2.225l-0.101,2.2l-0.1,2.175l-0.05,2.05l0.05,2.575l0.125,2.75l0.175,2.9l0.225,3
	l0.476,6.25l0.2,3.225l0.175,3.2c0.055,1.069,0.096,2.136,0.125,3.2c0.021,1.067,0.029,2.126,0.024,3.175
	c-0.005,1.045-0.03,2.078-0.074,3.1c-0.039,1.027-0.098,2.035-0.176,3.025c-0.081,0.979-0.189,1.938-0.324,2.875
	c-0.133,0.943-0.291,1.86-0.476,2.75c-0.191,0.896-0.416,1.763-0.675,2.6c-0.252,0.835-0.535,1.636-0.85,2.4h-0.025l-0.025-64.025
	l0.025-0.025c0.274,0.634,0.499,1.284,0.675,1.95C300.101,237.948,300.233,238.64,300.325,239.35z"/>
<path style="fill-rule:evenodd;clip-rule:evenodd;fill:#6E6E6E;" d="M303.725,241.1c0.184,0.858,0.342,1.741,0.476,2.65
	c0.125,0.905,0.226,1.831,0.3,2.775c0.086,0.94,0.152,1.898,0.2,2.875c0.035,0.98,0.052,1.972,0.05,2.975
	c0.005,0.998-0.004,2.007-0.025,3.025c-0.021,1.022-0.054,2.048-0.1,3.074l-0.15,3.075l-0.199,3.05l-0.45,6l-0.2,2.875l-0.175,2.775
	l-0.125,2.625l-0.05,2.475l0.05,2.051l0.1,2.175l0.101,2.2l0.05,2.225c0.008,0.739-0.009,1.473-0.05,2.2
	c-0.043,0.728-0.109,1.444-0.2,2.149c-0.092,0.711-0.225,1.402-0.4,2.075c-0.176,0.674-0.393,1.323-0.649,1.95h-0.025l-0.025-62.025
	l0.025-0.025c0.323,0.74,0.606,1.507,0.85,2.3C303.341,239.422,303.549,240.248,303.725,241.1z"/>
<path style="fill-rule:evenodd;clip-rule:evenodd;fill:#4F4F4F;" d="M39.25,247.375l-0.025-6.025l0.025-0.025
	c0.14,0.291,0.257,0.566,0.35,0.825l0.225,0.775c0.118,0.489,0.176,0.963,0.175,1.425c0.001,0.462-0.057,0.937-0.175,1.426
	L39.6,246.55l-0.325,0.825H39.25z"/>
<path style="fill-rule:evenodd;clip-rule:evenodd;fill:#6E6E6E;" d="M42.25,247.375l-0.025-6.025l0.025-0.025
	c0.14,0.291,0.257,0.566,0.35,0.825l0.225,0.775c0.118,0.489,0.176,0.963,0.175,1.425c0.001,0.462-0.057,0.937-0.175,1.426
	L42.6,246.55l-0.325,0.825H42.25z"/>
<path style="fill-rule:evenodd;clip-rule:evenodd;fill:#B4B4B4;" d="M37.25,257.375l-0.025-7.025l0.025-0.024
	c0.15,0.329,0.275,0.646,0.375,0.95c0.1,0.299,0.183,0.591,0.25,0.875c0.066,0.284,0.117,0.567,0.15,0.85
	c0.033,0.287,0.05,0.57,0.05,0.85c0,0.28-0.017,0.563-0.05,0.851c-0.033,0.281-0.083,0.565-0.15,0.85
	c-0.067,0.284-0.15,0.575-0.25,0.875c-0.101,0.311-0.217,0.628-0.35,0.95H37.25z"/>
<path style="fill-rule:evenodd;clip-rule:evenodd;fill:#CFCCCC;" d="M42.1,253.375c0.035,0.327,0.052,0.652,0.05,0.975
	c0.002,0.323-0.015,0.648-0.05,0.976c-0.032,0.333-0.082,0.666-0.15,1c-0.073,0.328-0.165,0.661-0.275,1
	c-0.115,0.348-0.249,0.698-0.4,1.05H41.25l-0.025-8.025l0.025-0.024c0.169,0.359,0.311,0.709,0.425,1.05
	c0.11,0.339,0.202,0.672,0.275,1C42.018,252.709,42.068,253.042,42.1,253.375z"/>
<path style="fill-rule:evenodd;clip-rule:evenodd;fill:#3F3F3F;" d="M37.35,262.875c0.154,0.686,0.296,1.411,0.425,2.175
	c0.121,0.767,0.229,1.566,0.325,2.4c0.104,0.833,0.195,1.691,0.275,2.575c0.071,0.881,0.129,1.78,0.175,2.699
	c0.055,0.924,0.096,1.856,0.125,2.801c0.021,0.938,0.03,1.879,0.025,2.824c0.004,0.946-0.004,1.888-0.025,2.825
	c-0.029,0.943-0.07,1.877-0.125,2.8c-0.045,0.919-0.104,1.819-0.175,2.7c-0.08,0.883-0.171,1.741-0.275,2.575
	c-0.096,0.833-0.204,1.634-0.325,2.4c-0.129,0.764-0.271,1.488-0.425,2.175c-0.153,0.69-0.32,1.332-0.5,1.925
	c-0.18,0.595-0.371,1.136-0.575,1.625H36.25l-0.025-38.025l0.025-0.024c0.222,0.496,0.421,1.037,0.6,1.625
	C37.03,261.543,37.197,262.185,37.35,262.875z"/>
<path style="fill-rule:evenodd;clip-rule:evenodd;fill:#949494;" d="M40.35,263.875c0.154,0.686,0.296,1.411,0.425,2.175
	c0.121,0.767,0.229,1.566,0.325,2.4c0.104,0.833,0.195,1.691,0.275,2.575c0.071,0.881,0.129,1.78,0.175,2.699
	c0.055,0.924,0.096,1.856,0.125,2.801c0.021,0.938,0.03,1.879,0.025,2.824c0.004,0.946-0.004,1.888-0.025,2.825
	c-0.029,0.943-0.07,1.877-0.125,2.8c-0.045,0.919-0.104,1.819-0.175,2.7c-0.08,0.883-0.171,1.741-0.275,2.575
	c-0.096,0.833-0.204,1.634-0.325,2.4c-0.129,0.764-0.271,1.488-0.425,2.175c-0.153,0.69-0.32,1.332-0.5,1.925
	c-0.18,0.595-0.371,1.136-0.575,1.625H39.25l-0.025-38.025l0.025-0.024c0.222,0.496,0.421,1.037,0.6,1.625
	C40.03,262.543,40.197,263.185,40.35,263.875z"/>
<path style="fill-rule:evenodd;clip-rule:evenodd;fill:#CFCCCC;" d="M300.25,319.375l-0.025-18.025l0.025-0.024
	c0.264,0.6,0.488,1.241,0.675,1.925c0.182,0.696,0.331,1.438,0.45,2.225c0.122,0.774,0.214,1.565,0.275,2.375
	c0.063,0.82,0.097,1.654,0.1,2.5c-0.003,0.847-0.036,1.68-0.1,2.5c-0.062,0.811-0.153,1.603-0.275,2.375
	c-0.119,0.787-0.269,1.528-0.45,2.226c-0.187,0.691-0.403,1.333-0.649,1.925H300.25z"/>
<path style="fill-rule:evenodd;clip-rule:evenodd;fill:#3F3F3F;" d="M37.25,314.375l-0.025-12.025l0.025-0.024
	c0.208,0.466,0.382,0.941,0.525,1.425c0.141,0.479,0.257,0.972,0.35,1.475c0.098,0.511,0.173,1.027,0.225,1.551
	c0.049,0.521,0.074,1.047,0.075,1.574c-0.001,0.528-0.026,1.054-0.075,1.575c-0.052,0.523-0.127,1.04-0.225,1.55
	c-0.093,0.504-0.209,0.996-0.35,1.476c-0.143,0.49-0.31,0.965-0.5,1.425H37.25z"/>
<path style="fill-rule:evenodd;clip-rule:evenodd;fill:#4F4F4F;" d="M32.825,317.75l-0.075,1.4l-0.125,1.375l-0.175,1.3l-0.2,1.274
	l-0.275,1.176c-0.101,0.383-0.208,0.749-0.325,1.1c-0.117,0.352-0.242,0.686-0.375,1H31.25l-0.025-20.025l0.025-0.024
	c0.15,0.322,0.284,0.655,0.4,1c0.117,0.351,0.225,0.717,0.325,1.1l0.275,1.175l0.2,1.275l0.175,1.3l0.125,1.375l0.075,1.4
	l0.025,1.399L32.825,317.75z"/>
<path style="fill-rule:evenodd;clip-rule:evenodd;fill:#6E6E6E;" d="M34.25,327.375l-0.025-12.025l0.025-0.024
	c0.208,0.466,0.382,0.941,0.525,1.425c0.141,0.479,0.257,0.972,0.35,1.475c0.098,0.511,0.173,1.027,0.225,1.551
	c0.049,0.521,0.074,1.047,0.075,1.574c-0.001,0.528-0.026,1.054-0.075,1.575c-0.052,0.523-0.127,1.04-0.225,1.55
	c-0.093,0.504-0.209,0.996-0.35,1.476c-0.143,0.49-0.31,0.965-0.5,1.425H34.25z"/>
<path style="fill-rule:evenodd;clip-rule:evenodd;fill:#B4B4B4;" d="M298.3,334.425c0.039,0.474,0.056,0.949,0.05,1.425
	c0.006,0.477-0.011,0.952-0.05,1.426c-0.044,0.471-0.111,0.938-0.2,1.399c-0.094,0.466-0.211,0.925-0.35,1.375
	c-0.137,0.452-0.295,0.894-0.475,1.325h-0.025l-0.025-11.025l0.025-0.024c0.197,0.438,0.364,0.88,0.5,1.325
	c0.139,0.45,0.256,0.908,0.35,1.375C298.188,333.487,298.256,333.954,298.3,334.425z"/>
<path style="fill-rule:evenodd;clip-rule:evenodd;fill:#3F3F3F;" d="M300.25,343.375l-0.025-12.025l0.025-0.024
	c0.207,0.466,0.382,0.941,0.525,1.425c0.14,0.479,0.257,0.972,0.35,1.475c0.099,0.511,0.173,1.027,0.225,1.551
	c0.049,0.521,0.074,1.047,0.075,1.574c-0.001,0.528-0.026,1.054-0.075,1.575c-0.052,0.523-0.126,1.04-0.225,1.55
	c-0.093,0.504-0.21,0.996-0.35,1.476c-0.144,0.49-0.311,0.965-0.5,1.425H300.25z"/>
<path style="fill-rule:evenodd;clip-rule:evenodd;fill:#3F3F3F;" d="M30.3,343.675L30.4,346l0.025,2.35L30.4,350.7l-0.1,2.325
	l-0.175,2.25c-0.064,0.744-0.139,1.469-0.225,2.175c-0.088,0.692-0.188,1.358-0.3,2c-0.114,0.647-0.239,1.264-0.375,1.85
	c-0.138,0.588-0.289,1.138-0.45,1.65c-0.156,0.516-0.322,0.99-0.5,1.425H28.25l-0.025-32.025l0.025-0.024
	c0.195,0.44,0.37,0.915,0.525,1.425c0.162,0.513,0.312,1.062,0.45,1.65c0.136,0.586,0.261,1.202,0.375,1.85
	c0.112,0.641,0.211,1.308,0.3,2c0.086,0.705,0.161,1.43,0.225,2.175L30.3,343.675z"/>
<path style="fill-rule:evenodd;clip-rule:evenodd;fill:#B4B4B4;" d="M31.2,334.35l0.05-0.024l2.025,28.024l-0.05,0.025
	c-0.327-0.282-0.619-0.607-0.875-0.975c-0.254-0.366-0.479-0.774-0.675-1.226c-0.188-0.448-0.355-0.932-0.5-1.45
	c-0.157-0.527-0.29-1.085-0.4-1.675c-0.101-0.585-0.185-1.193-0.25-1.825c-0.068-0.622-0.118-1.264-0.15-1.925
	c-0.029-0.672-0.045-1.354-0.05-2.05c-0.013-0.692-0.013-1.393,0-2.1l0.075-2.125l0.125-2.125l0.125-2.075l0.15-1.976l0.275-3.625
	l0.1-1.55L31.2,334.35z"/>
<path style="fill-rule:evenodd;clip-rule:evenodd;fill:#B4B4B4;" d="M300.025,347c0.033,0.287,0.05,0.57,0.05,0.85
	c0,0.28-0.017,0.563-0.05,0.851c-0.034,0.281-0.084,0.565-0.15,0.85s-0.15,0.575-0.25,0.875c-0.101,0.311-0.218,0.628-0.35,0.95
	h-0.025l-0.025-7.025l0.025-0.024c0.15,0.329,0.275,0.646,0.375,0.95c0.1,0.299,0.184,0.591,0.25,0.875S299.991,346.718,300.025,347
	z"/>
<path style="fill-rule:evenodd;clip-rule:evenodd;fill:#3F3F3F;" d="M97.25,356.375l-0.025-6.025l0.025-0.024
	c0.14,0.291,0.257,0.566,0.35,0.825l0.225,0.774c0.118,0.488,0.176,0.964,0.175,1.425c0.001,0.462-0.057,0.937-0.175,1.426
	L97.6,355.55l-0.325,0.825H97.25z"/>
<path style="fill-rule:evenodd;clip-rule:evenodd;fill:#CFCCCC;" d="M140.25,361.375l-0.025-11.025l0.025-0.024
	c0.198,0.438,0.364,0.88,0.5,1.325c0.14,0.45,0.256,0.908,0.35,1.375c0.088,0.462,0.155,0.929,0.2,1.399
	c0.04,0.474,0.056,0.949,0.05,1.425c0.006,0.477-0.011,0.952-0.05,1.426c-0.044,0.471-0.111,0.938-0.2,1.399
	c-0.094,0.466-0.21,0.925-0.35,1.375c-0.137,0.452-0.295,0.894-0.475,1.325H140.25z"/>
<path style="fill-rule:evenodd;clip-rule:evenodd;fill:#949494;" d="M94.25,358.375l-0.025-6.025l0.025-0.024
	c0.14,0.291,0.257,0.566,0.35,0.825l0.225,0.774c0.118,0.488,0.176,0.964,0.175,1.425c0.001,0.462-0.057,0.937-0.175,1.426
	L94.6,357.55l-0.325,0.825H94.25z"/>
<path style="fill-rule:evenodd;clip-rule:evenodd;fill:#3F3F3F;" d="M176.025,356c0.033,0.287,0.05,0.57,0.05,0.85
	c0,0.28-0.017,0.563-0.05,0.851c-0.034,0.281-0.084,0.565-0.15,0.85s-0.15,0.575-0.25,0.875c-0.101,0.311-0.217,0.628-0.35,0.95
	h-0.025l-0.025-7.025l0.025-0.024c0.15,0.329,0.275,0.646,0.375,0.95c0.1,0.299,0.184,0.591,0.25,0.875S175.991,355.718,176.025,356
	z"/>
<path style="fill-rule:evenodd;clip-rule:evenodd;fill:#FFFFFF;" d="M173.15,360.45l0.274,1l0.275,1l0.225,1.024l0.425,1.9
	l0.325,1.675l0.226,1.3c0.309,1.684,0.559,3.4,0.75,5.15c0.185,1.754,0.31,3.529,0.375,5.325c0.065,1.8,0.1,3.616,0.1,5.45
	c-0.001,1.829-0.034,3.663-0.1,5.5l-0.226,5.5l-0.25,5.475c-0.095,1.809-0.17,3.601-0.225,5.375
	c-0.046,1.771-0.071,3.513-0.075,5.225l-0.05,0.025h-27l-0.025-0.025c-0.001-0.95-0.018-1.934-0.05-2.949
	c-0.035-1.017-0.085-2.058-0.15-3.125l-0.45-6.625l-0.2-3.45l-0.175-3.5c-0.045-1.16-0.07-2.318-0.075-3.476
	c-0.012-1.167-0.004-2.326,0.025-3.475c0.035-1.146,0.101-2.279,0.2-3.4c0.094-1.112,0.219-2.204,0.375-3.274
	c0.165-1.075,0.373-2.125,0.625-3.15c0.25-1.032,0.541-2.032,0.875-3c0.67-1.936,1.562-3.711,2.675-5.325
	c1.115-1.607,2.499-3.008,4.15-4.199c0.409-0.296,0.868-0.663,1.375-1.101l1.625-1.425l0.9-0.775l0.949-0.8l0.95-0.774l1-0.726
	c0.331-0.23,0.664-0.447,1-0.649c0.342-0.208,0.684-0.4,1.025-0.575c0.342-0.181,0.684-0.34,1.024-0.476
	c0.336-0.131,0.67-0.239,1-0.324c0.44-0.106,0.874-0.156,1.301-0.15c0.219-0.006,0.436,0.002,0.649,0.025
	c0.314,0.043,0.623,0.126,0.925,0.25c0.309,0.127,0.608,0.294,0.9,0.5c0.288,0.204,0.563,0.504,0.825,0.899
	c0.264,0.405,0.514,0.88,0.75,1.425l0.35,0.851l0.3,0.899L173.15,360.45z"/>
<path style="fill-rule:evenodd;clip-rule:evenodd;fill:#949494;" d="M172.25,363.375l-0.025-8.025l0.025-0.024
	c0.169,0.359,0.311,0.709,0.425,1.05c0.109,0.339,0.201,0.672,0.275,1c0.068,0.334,0.118,0.667,0.149,1
	c0.035,0.327,0.052,0.652,0.051,0.975c0.001,0.323-0.016,0.648-0.051,0.976c-0.031,0.333-0.081,0.666-0.149,1
	c-0.074,0.328-0.166,0.661-0.275,1c-0.115,0.348-0.249,0.698-0.399,1.05H172.25z"/>
<path style="fill-rule:evenodd;clip-rule:evenodd;fill:#949494;" d="M269.025,358c0.033,0.287,0.05,0.57,0.05,0.85
	c0,0.28-0.017,0.563-0.05,0.851c-0.034,0.281-0.084,0.565-0.15,0.85s-0.15,0.575-0.25,0.875c-0.101,0.311-0.217,0.628-0.35,0.95
	h-0.025l-0.025-7.025l0.025-0.024c0.15,0.329,0.275,0.646,0.375,0.95c0.1,0.299,0.184,0.591,0.25,0.875S268.991,357.718,269.025,358
	z"/>
<path style="fill-rule:evenodd;clip-rule:evenodd;fill:#3F3F3F;" d="M265.25,364.375l-0.025-8.025l0.025-0.024
	c0.169,0.359,0.311,0.709,0.425,1.05c0.109,0.339,0.201,0.672,0.275,1c0.068,0.334,0.118,0.667,0.149,1
	c0.035,0.327,0.052,0.652,0.051,0.975c0.001,0.323-0.016,0.648-0.051,0.976c-0.031,0.333-0.081,0.666-0.149,1
	c-0.074,0.328-0.166,0.661-0.275,1c-0.115,0.348-0.249,0.698-0.399,1.05H265.25z"/>
<polygon style="fill-rule:evenodd;clip-rule:evenodd;fill:#3F3F3F;" points="49.275,364.375 49.225,361.35 49.275,361.325 
	51.275,363.325 51.275,363.375 "/>
<path style="fill-rule:evenodd;clip-rule:evenodd;fill:#949494;" d="M63.95,362.95c0.688,0.004,1.372,0.029,2.05,0.075
	c0.685,0.037,1.36,0.096,2.025,0.175c0.754,0.098,1.488,0.239,2.2,0.425c0.709,0.182,1.393,0.407,2.05,0.675v0.05l-2.2,0.051
	l-2.275,0.1l-2.35,0.125l-2.35,0.05h-0.55c-0.688,0.004-1.372-0.013-2.05-0.05c-0.686-0.038-1.361-0.096-2.025-0.175
	c-0.755-0.098-1.488-0.239-2.2-0.425c-0.709-0.183-1.393-0.407-2.05-0.676v-0.05l2.2-0.05l2.275-0.125l2.35-0.1l2.35-0.051
	L63.95,362.95z"/>
<path style="fill-rule:evenodd;clip-rule:evenodd;fill:#3F3F3F;" d="M111.55,368.075c-0.327,0.028-0.661,0.045-1,0.05
	c-0.375-0.003-0.758-0.02-1.15-0.05c-0.553-0.037-1.103-0.095-1.65-0.175c-0.548-0.087-1.09-0.195-1.625-0.325
	c-0.542-0.126-1.059-0.268-1.55-0.425c-0.479-0.16-0.929-0.335-1.35-0.525c-0.431-0.189-0.814-0.39-1.15-0.6
	c-0.333-0.208-0.617-0.425-0.85-0.65l0.025-0.05c0.609,0.145,1.226,0.277,1.85,0.399c0.62,0.12,1.245,0.229,1.875,0.325
	c0.629,0.103,1.263,0.186,1.9,0.25c0.643,0.062,1.284,0.103,1.925,0.125l0.85,0.025c0.493,0,0.984-0.017,1.475-0.05
	c0.496-0.034,0.987-0.084,1.475-0.15c0.624-0.081,1.241-0.197,1.85-0.35c0.603-0.157,1.195-0.35,1.775-0.575l0.05,0.024
	c-0.18,0.76-0.604,1.351-1.275,1.775c-0.326,0.209-0.693,0.384-1.1,0.525c-0.421,0.143-0.879,0.251-1.375,0.324
	C112.208,368.021,111.883,368.054,111.55,368.075z"/>
<path style="fill-rule:evenodd;clip-rule:evenodd;fill:#3F3F3F;" d="M63.975,365.85c0.748,0.005,1.489,0.03,2.225,0.075
	c0.736,0.038,1.461,0.097,2.175,0.175c0.871,0.099,1.712,0.248,2.525,0.45c0.827,0.208,1.619,0.467,2.375,0.775v0.05l-2.525,0.075
	l-2.65,0.125l-2.75,0.149l-2.775,0.101h-1.05c-0.748,0.003-1.489-0.014-2.225-0.05c-0.736-0.039-1.461-0.098-2.175-0.176
	c-0.871-0.098-1.712-0.247-2.525-0.449c-0.826-0.208-1.618-0.467-2.375-0.775v-0.05l2.525-0.075l2.65-0.125l2.75-0.15l2.775-0.1
	L63.975,365.85z"/>
<path style="fill-rule:evenodd;clip-rule:evenodd;fill:#B4B4B4;" d="M148.475,371.35c0.163,0.786,0.313,1.62,0.45,2.5
	c0.148,0.893,0.281,1.825,0.4,2.801c0.105,0.961,0.197,1.953,0.275,2.975c0.09,1.027,0.165,2.077,0.225,3.15
	c0.054,0.997,0.095,2.006,0.125,3.024c0.029,1.021,0.045,2.046,0.05,3.075v0.95c-0.004,1.029-0.021,2.055-0.05,3.075
	c-0.03,1.019-0.071,2.027-0.125,3.024c-0.061,1.073-0.135,2.124-0.225,3.15c-0.078,1.022-0.169,2.014-0.275,2.975
	c-0.119,0.975-0.252,1.908-0.4,2.8c-0.136,0.881-0.287,1.714-0.45,2.5c-0.169,0.793-0.353,1.526-0.55,2.2
	c-0.203,0.673-0.42,1.281-0.65,1.825h-0.025l-0.025-44.025l0.025-0.024c0.248,0.551,0.473,1.159,0.675,1.825
	C148.123,369.824,148.306,370.558,148.475,371.35z"/>
<path style="fill-rule:evenodd;clip-rule:evenodd;fill:#3F3F3F;" d="M176.475,371.35c0.164,0.786,0.313,1.62,0.45,2.5
	c0.147,0.893,0.281,1.825,0.4,2.801c0.105,0.961,0.197,1.953,0.274,2.975c0.09,1.027,0.165,2.077,0.226,3.15
	c0.054,0.997,0.096,2.006,0.125,3.024c0.029,1.021,0.046,2.046,0.05,3.075v0.95c-0.004,1.029-0.021,2.055-0.05,3.075
	c-0.029,1.019-0.071,2.027-0.125,3.024c-0.061,1.073-0.136,2.124-0.226,3.15c-0.077,1.022-0.169,2.014-0.274,2.975
	c-0.119,0.975-0.253,1.908-0.4,2.8c-0.137,0.881-0.286,1.714-0.45,2.5c-0.169,0.793-0.352,1.526-0.55,2.2
	c-0.203,0.673-0.42,1.281-0.649,1.825h-0.025l-0.025-44.025l0.025-0.024c0.248,0.551,0.473,1.159,0.675,1.825
	C176.123,369.824,176.306,370.558,176.475,371.35z"/>
<polygon style="fill-rule:evenodd;clip-rule:evenodd;fill:#3F3F3F;" points="231.25,373.375 231.225,373.35 231.225,368.35 
	231.25,368.325 232.275,372.325 236.25,373.325 236.275,373.375 "/>
<path style="fill-rule:evenodd;clip-rule:evenodd;fill:#949494;" d="M177.375,374.025c0.154,0.725,0.296,1.491,0.425,2.3
	c0.131,0.806,0.247,1.647,0.351,2.524c0.104,0.874,0.195,1.773,0.274,2.7c0.08,0.93,0.146,1.88,0.2,2.851
	c0.055,0.972,0.097,1.955,0.125,2.949c0.029,0.996,0.046,1.996,0.05,3c-0.004,1.005-0.021,2.005-0.05,3
	c-0.028,0.995-0.07,1.979-0.125,2.95c-0.054,0.97-0.12,1.92-0.2,2.851c-0.079,0.926-0.171,1.826-0.274,2.699
	c-0.104,0.878-0.22,1.72-0.351,2.525c-0.129,0.809-0.271,1.575-0.425,2.3c-0.161,0.719-0.337,1.386-0.525,2
	c-0.179,0.624-0.37,1.19-0.574,1.7h-0.051L176.2,370.35l0.05-0.024c0.222,0.517,0.422,1.084,0.6,1.7
	C177.038,372.64,177.214,373.306,177.375,374.025z"/>
<polygon style="fill-rule:evenodd;clip-rule:evenodd;fill:#060606;" points="155.25,372.325 155.275,372.375 153.275,376.375 
	153.25,376.375 153.225,376.35 153.225,372.35 153.25,372.325 "/>
<polygon style="fill-rule:evenodd;clip-rule:evenodd;fill:#3F3F3F;" points="162.275,385.375 162.225,382.35 162.275,382.325 
	164.275,384.325 164.275,384.375 "/>
<path style="fill-rule:evenodd;clip-rule:evenodd;fill:#060606;" d="M158.25,390.375l-0.025-0.05l3-6l0.051,0.024
	c0.045,0.35,0.07,0.683,0.074,1c-0.004,0.318-0.028,0.618-0.074,0.9c-0.093,0.571-0.268,1.097-0.525,1.575
	c-0.253,0.469-0.586,0.91-1,1.325c-0.413,0.415-0.905,0.823-1.475,1.225H158.25z"/>
<path style="fill-rule:evenodd;clip-rule:evenodd;fill:#060606;" d="M157.25,398.375l-6.025-5v-0.05
	c0.428,0.107,0.819,0.225,1.175,0.35c0.345,0.129,0.661,0.262,0.95,0.4c0.596,0.273,1.121,0.599,1.575,0.975
	c0.446,0.371,0.854,0.821,1.225,1.351c0.192,0.271,0.383,0.571,0.575,0.899c0.185,0.316,0.368,0.658,0.55,1.025L157.25,398.375z"/>
<polygon style="fill-rule:evenodd;clip-rule:evenodd;fill:#060606;" points="165.225,397.35 167.25,397.325 167.275,397.375 
	164.275,403.375 "/>
<path style="fill-rule:evenodd;clip-rule:evenodd;fill:#060606;" d="M161.25,407.375l-7.025-3l0.025-0.05l1.125,0.05l1.05,0.1
	c0.328,0.044,0.645,0.103,0.95,0.176c0.305,0.069,0.597,0.152,0.875,0.25c0.282,0.092,0.558,0.208,0.825,0.35
	c0.259,0.143,0.509,0.31,0.75,0.5c0.498,0.391,0.981,0.916,1.45,1.575L161.25,407.375z"/>
<path style="fill-rule:evenodd;clip-rule:evenodd;fill:#AE303B;" d="M177.5,414.6c0.416,0.375,0.732,0.8,0.95,1.275
	c0.43,0.931,0.371,2.097-0.175,3.5l-0.051-0.025l-0.8-4.699c-0.383-0.343-0.85-0.643-1.399-0.9c-0.285-0.133-0.585-0.258-0.9-0.375
	h-27.85c0.003,0.875,0.02,1.783,0.05,2.725l0.15,2.9l0.175,3.075l0.25,3.2l0.5,6.675l0.225,3.399l0.2,3.426
	c0.056,1.144,0.098,2.286,0.125,3.425c0.022,1.136,0.031,2.261,0.025,3.375c0.004,1.112-0.012,2.213-0.05,3.3
	c-0.045,1.087-0.112,2.153-0.2,3.2c-0.088,1.047-0.205,2.072-0.35,3.075c-0.139,1.004-0.306,1.979-0.5,2.925
	c-0.197,0.948-0.431,1.865-0.7,2.75c-0.266,0.888-0.566,1.737-0.9,2.55h-0.025l-0.025-53.025l0.05-0.024
	c0.394,0.212,0.869,0.396,1.425,0.55c0.556,0.154,1.189,0.279,1.9,0.375c0.721,0.091,1.496,0.166,2.325,0.225
	c0.819,0.067,1.686,0.117,2.6,0.15l2.825,0.075l2.976,0.05l3,0.05l2.975,0.125c0.975,0.054,1.916,0.129,2.825,0.226
	c0.922,0.087,1.805,0.195,2.65,0.324c0.626,0.105,1.218,0.23,1.774,0.375c0.563,0.14,1.089,0.298,1.575,0.476h2.125L177.5,414.6z"/>
<polygon style="fill-rule:evenodd;clip-rule:evenodd;fill:#61060B;" points="178.25,410.325 178.275,410.35 178.275,412.35 
	178.25,412.375 176.225,410.375 176.25,410.325 "/>
<path style="fill-rule:evenodd;clip-rule:evenodd;fill:#F7959B;" d="M163.725,410.55c0.866,0.006,1.725,0.03,2.575,0.075
	c0.854,0.039,1.696,0.098,2.525,0.175c2.36,0.223,4.511,0.723,6.45,1.5v0.05c-1.064,0.028-2.164,0.069-3.301,0.125
	c-1.136,0.048-2.311,0.114-3.524,0.2l-3.675,0.226L161,413.075l-1.125,0.05h-1.1c-0.866,0.003-1.725-0.014-2.575-0.05
	c-0.855-0.039-1.697-0.098-2.525-0.175c-2.361-0.23-4.511-0.739-6.45-1.525v-0.05c1.063-0.02,2.163-0.053,3.3-0.101
	c1.136-0.056,2.312-0.13,3.525-0.225l3.675-0.225l3.775-0.176l1.125-0.024L163.725,410.55z"/>
<path style="fill-rule:evenodd;clip-rule:evenodd;fill:#ED1B30;" d="M177.25,413.325l4.025,38h12.975l3.025,4
	c1.285,0.141,2.277,0.474,2.975,1c0.708,0.526,1.208,1.201,1.5,2.024c0.138,0.407,0.246,0.841,0.325,1.301
	c0.079,0.468,0.13,0.96,0.149,1.475l0.051,1.575v1.649l-0.051,0.025l-1.949-0.975v4.949l-10,6.426l-24.025,3.875
	c-0.52,0.091-1.054,0.199-1.6,0.324c-0.558,0.126-1.124,0.268-1.7,0.426l-1.726,0.449l-1.75,0.4
	c-0.525,0.103-1.051,0.178-1.574,0.225c-0.53,0.062-1.055,0.095-1.575,0.101h-0.35c-0.576-0.017-1.143-0.092-1.7-0.226
	c-0.554-0.133-1.096-0.325-1.625-0.574c-0.308-0.15-0.6-0.325-0.875-0.525c-0.269-0.2-0.519-0.426-0.75-0.675
	c-0.239-0.247-0.464-0.514-0.675-0.8c-0.199-0.291-0.382-0.6-0.55-0.926c-0.178-0.318-0.345-0.652-0.5-1
	c-0.154-0.354-0.296-0.721-0.425-1.1c-0.118-0.375-0.227-0.758-0.325-1.15l-0.3-1.199l-0.225-1.226l-0.175-1.225l-0.15-1.226
	l-0.125-1.199l-0.15-2.25l-0.125-1.926l-0.075-50l0.025-0.024H177.25z"/>
<path style="fill-rule:evenodd;clip-rule:evenodd;fill:#DD5B63;" d="M181.15,431.9l0.05,1.949l-0.05,1.95l-0.075,1.95l-0.15,1.875
	l-0.2,1.8c-0.081,0.586-0.173,1.152-0.274,1.7c-0.099,0.548-0.207,1.073-0.325,1.575c-0.123,0.504-0.256,0.979-0.4,1.425
	c-0.14,0.448-0.29,0.865-0.449,1.25h-0.025l-0.025-27.025l0.025-0.024c0.177,0.392,0.336,0.809,0.475,1.25
	c0.145,0.446,0.277,0.921,0.4,1.425c0.118,0.502,0.227,1.026,0.325,1.575c0.102,0.547,0.193,1.113,0.274,1.7l0.2,1.8l0.15,1.875
	L181.15,431.9z"/>
<path style="fill-rule:evenodd;clip-rule:evenodd;fill:#AE303B;" d="M192.25,452.35c-0.495-0.169-0.979-0.319-1.45-0.449
	c-0.463-0.137-0.912-0.253-1.35-0.351c-0.443-0.1-0.885-0.183-1.325-0.25c-0.438-0.066-0.871-0.116-1.3-0.149L186,451.1
	l-0.825-0.024l-1.024,0.024l-1.4,0.101l-1.5,0.149l-0.025-0.05c0.744-0.828,1.619-1.411,2.625-1.75c0.378-0.131,0.761-0.23,1.15-0.3
	c0.388-0.057,0.779-0.082,1.175-0.075c0.265-0.006,0.531,0.003,0.8,0.025c0.532,0.057,1.049,0.165,1.551,0.325
	c0.502,0.166,0.985,0.383,1.449,0.649c0.936,0.523,1.702,1.231,2.301,2.125L192.25,452.35z"/>
<rect x="194.25" y="451.35" style="fill-rule:evenodd;clip-rule:evenodd;fill:#AE303B;" width="2" height="2"/>
<polygon style="fill-rule:evenodd;clip-rule:evenodd;fill:#DD5B63;" points="199.25,453.325 199.275,453.375 197.275,455.375 
	197.225,455.375 197.225,453.35 197.25,453.325 "/>
<path style="fill-rule:evenodd;clip-rule:evenodd;fill:#F7959B;" d="M202.225,455.35l0.025-0.024
	c0.211,0.477,0.386,0.951,0.525,1.425c0.145,0.473,0.261,0.948,0.35,1.425c0.089,0.476,0.146,0.95,0.175,1.425
	c0.021,0.479,0.014,0.953-0.024,1.426c-0.035,0.479-0.102,0.954-0.2,1.425c-0.102,0.466-0.235,0.925-0.4,1.375
	c-0.165,0.443-0.364,0.877-0.6,1.3c-0.233,0.43-0.5,0.847-0.8,1.25L202.225,455.35z"/>
<path style="fill-rule:evenodd;clip-rule:evenodd;fill:#AE303B;" d="M200.25,467.375l-0.025-4.025l0.025-0.024
	c0.295,0.465,0.511,0.848,0.65,1.149c0.134,0.316,0.201,0.608,0.199,0.875c0.001,0.258-0.065,0.541-0.199,0.851
	c-0.143,0.315-0.351,0.707-0.625,1.175H200.25z"/>
<path style="fill-rule:evenodd;clip-rule:evenodd;fill:#FDB0B5;" d="M148.1,469.375c0.035,0.327,0.052,0.652,0.05,0.975
	c0.002,0.323-0.015,0.648-0.05,0.976c-0.032,0.333-0.082,0.666-0.15,1c-0.074,0.328-0.165,0.661-0.275,1
	c-0.115,0.348-0.249,0.698-0.4,1.05h-0.025l-0.025-8.025l0.025-0.024c0.169,0.359,0.311,0.709,0.425,1.05
	c0.11,0.339,0.202,0.672,0.275,1C148.018,468.709,148.068,469.042,148.1,469.375z"/>
<path style="fill-rule:evenodd;clip-rule:evenodd;fill:#AE303B;" d="M196.25,471.375l-0.025-0.025
	c0.109-0.584,0.218-1.051,0.325-1.399c0.118-0.354,0.276-0.63,0.476-0.825c0.195-0.199,0.471-0.357,0.824-0.475
	c0.35-0.108,0.816-0.217,1.4-0.325l0.025,0.024l-3,3.025H196.25z"/>
<path style="fill-rule:evenodd;clip-rule:evenodd;fill:#DD5B63;" d="M195.275,470.325c0.277,0.536,0.436,0.978,0.475,1.325
	c0.047,0.351-0.021,0.634-0.2,0.85c-0.19,0.214-0.482,0.389-0.875,0.525c-0.384,0.126-0.859,0.242-1.425,0.35l1.975-3.05H195.275z"
	/>
<polygon style="fill-rule:evenodd;clip-rule:evenodd;fill:#FDB0B5;" points="193.25,474.325 193.275,474.375 191.275,476.375 
	191.225,476.375 191.225,474.35 191.25,474.325 "/>
<path style="fill-rule:evenodd;clip-rule:evenodd;fill:#DD5B63;" d="M186.3,475.225c0.398-0.004,0.798,0.013,1.2,0.051
	c0.393,0.046,0.784,0.112,1.175,0.199c0.451,0.098,0.893,0.215,1.325,0.351c0.438,0.131,0.862,0.281,1.275,0.45v0.05l-10.025,1.024
	l-0.025-0.05c0.622-0.7,1.339-1.217,2.15-1.55c0.403-0.162,0.82-0.287,1.25-0.375c0.432-0.087,0.873-0.137,1.325-0.15H186.3z"/>
</svg>
