<?xml version="1.0" encoding="iso-8859-1"?>
<!-- Generator: Adobe Illustrator 15.1.0, SVG Export Plug-In . SVG Version: 6.00 Build 0)  -->
<!DOCTYPE svg PUBLIC "-//W3C//DTD SVG 1.1//EN" "http://www.w3.org/Graphics/SVG/1.1/DTD/svg11.dtd">
<svg version="1.1" id="Layer_1" xmlns="http://www.w3.org/2000/svg" xmlns:xlink="http://www.w3.org/1999/xlink" x="0px" y="0px"
	 width="315px" height="488px" viewBox="0 0 315 488" style="enable-background:new 0 0 315 488;" xml:space="preserve">
<path style="fill-rule:evenodd;clip-rule:evenodd;fill:#949494;" d="M181.75,3c0.849,0.005,1.69,0.03,2.525,0.075
	c0.829,0.039,1.646,0.097,2.449,0.175c2.282,0.224,4.366,0.715,6.25,1.475v0.05l-3.175,0.1c-1.098,0.048-2.23,0.115-3.399,0.2
	l-3.575,0.2l-3.601,0.175l-1.05,0.025L177.15,5.5c-0.85-0.005-1.69-0.03-2.525-0.075c-0.83-0.039-1.646-0.097-2.45-0.175
	c-2.282-0.224-4.365-0.715-6.25-1.475v-0.05l3.175-0.1c1.098-0.048,2.231-0.115,3.4-0.2l3.575-0.225l3.6-0.15l1.05-0.025L181.75,3z"
	/>
<path style="fill-rule:evenodd;clip-rule:evenodd;fill:#060606;" d="M177.1,4.725c4.937-0.001,9.928,0.265,14.976,0.8
	c5.099,0.543,10.165,1.393,15.2,2.55c5.029,1.161,9.938,2.661,14.725,4.5c4.793,1.845,9.376,4.062,13.75,6.65
	c4.365,2.587,8.432,5.579,12.2,8.975c3.763,3.404,7.138,7.246,10.125,11.525c1.778,2.592,3.453,5.276,5.024,8.05
	c1.573,2.77,3.031,5.612,4.375,8.525c1.337,2.919,2.596,5.894,3.775,8.925c1.187,3.032,2.286,6.099,3.3,9.2
	c0.673,2.064,1.323,4.139,1.95,6.225c0.633,2.08,1.241,4.163,1.825,6.25c0.577,2.094,1.127,4.186,1.649,6.275l1.525,6.25l1.475,6.2
	l1.375,6.125c0.884,3.922,1.742,7.856,2.575,11.8c0.837,3.952,1.646,7.901,2.425,11.85c0.781,3.947,1.531,7.88,2.25,11.8
	c1.073,5.881,2.073,11.789,3,17.725c0.93,5.939,1.779,11.865,2.551,17.775c0.771,5.904,1.453,11.846,2.05,17.825
	c0.6,5.979,1.107,11.955,1.524,17.925c0.418,5.977,0.735,12.002,0.95,18.075c0.203,6.07,0.303,12.145,0.3,18.225l1.976,62l-3.75,18
	l-0.175,1.575l-0.15,1.625l-0.075,1.7l-0.075,1.75l-0.149,3.574l-0.101,1.825l-0.149,1.8c-0.062,0.596-0.137,1.188-0.226,1.775
	c-0.087,0.591-0.187,1.174-0.3,1.75c-0.114,0.575-0.248,1.142-0.399,1.7c-0.149,0.562-0.315,1.111-0.5,1.649
	c-0.184,0.538-0.393,1.063-0.625,1.575c-0.235,0.517-0.494,1.017-0.775,1.5c-0.278,0.477-0.586,0.935-0.925,1.375
	c-0.339,0.446-0.706,0.871-1.101,1.275c-0.481,0.475-1.015,0.925-1.6,1.35c-0.586,0.427-1.219,0.827-1.9,1.2
	c-0.681,0.372-1.397,0.722-2.149,1.05c-0.745,0.333-1.521,0.642-2.325,0.925c-0.807,0.278-1.632,0.537-2.475,0.775
	c-0.847,0.238-1.704,0.455-2.575,0.65c-0.874,0.192-1.749,0.367-2.625,0.524c-0.871,0.161-1.738,0.303-2.601,0.425
	c-0.857,0.116-1.699,0.216-2.524,0.301c-0.83,0.091-1.639,0.166-2.425,0.225L269,368.75c-0.722,0.022-1.405,0.03-2.05,0.025
	l-5.025-19.95c-0.622,0.597-1.205,1.205-1.75,1.825c-0.543,0.626-1.043,1.26-1.5,1.899c-0.466,0.646-0.907,1.297-1.325,1.95
	c-0.409,0.659-0.793,1.317-1.149,1.975l-1.075,1.95l-1.025,1.9c-0.324,0.63-0.657,1.246-1,1.85c-0.352,0.602-0.71,1.185-1.074,1.75
	c-0.358,0.563-0.741,1.104-1.15,1.625c-0.41,0.525-0.844,1.025-1.3,1.5c-0.458,0.479-0.958,0.93-1.5,1.351
	c-0.536,0.415-1.111,0.799-1.726,1.149c-0.623,0.355-1.307,0.672-2.05,0.95c-0.737,0.273-1.528,0.507-2.375,0.7
	c-0.841,0.188-1.758,0.329-2.75,0.425c-0.989,0.097-2.047,0.146-3.175,0.15c1.103,2.32,2.486,4.604,4.15,6.85
	c0.838,1.13,1.722,2.246,2.649,3.35c0.929,1.104,1.896,2.188,2.9,3.25c1.002,1.062,2.019,2.104,3.05,3.125
	c1.034,1.012,2.075,1.995,3.125,2.95c1.049,0.962,2.082,1.896,3.1,2.8c1.022,0.91,2.022,1.785,3,2.625l-1,4.025l-0.05,0.025
	l-9.95-7.95v4.925l-0.024,0.025h-4l-0.025-0.025c0.172-0.574,0.313-1.124,0.425-1.65c0.114-0.52,0.197-1.011,0.25-1.475
	c0.059-0.468,0.092-0.918,0.101-1.35c0.008-0.43-0.009-0.838-0.05-1.226c-0.048-0.386-0.115-0.761-0.2-1.125
	c-0.082-0.363-0.182-0.714-0.3-1.05c-0.112-0.337-0.237-0.671-0.375-1c-0.146-0.332-0.305-0.657-0.476-0.975l-0.524-0.976
	l-0.575-0.95l-0.601-1l-0.6-1.05c-0.196-0.366-0.388-0.75-0.575-1.149l-0.55-1.2c-0.177-0.418-0.344-0.86-0.5-1.325
	c-0.161-0.463-0.312-0.946-0.45-1.45l-4.975,0.976l-0.025-0.025l-0.625-3.55l-0.399-2.3l-0.476-2.551
	c-0.175-0.875-0.366-1.767-0.575-2.675c-0.201-0.915-0.418-1.84-0.649-2.774c-0.238-0.937-0.496-1.861-0.775-2.775
	c-0.273-0.909-0.564-1.801-0.875-2.675c-0.317-0.881-0.659-1.723-1.024-2.525c-0.354-0.803-0.729-1.561-1.125-2.274
	c-0.813-1.423-1.729-2.573-2.75-3.45c-1.018-0.879-2.151-1.379-3.4-1.5l-0.45-0.025c-1.125,0.002-2.35,0.377-3.675,1.125l-5.9,8.25
	l-5.25,6.726h-5c0.043,2.388,0.443,4.588,1.2,6.6c0.768,2.009,1.809,3.876,3.125,5.6c1.312,1.729,2.812,3.361,4.5,4.9
	c0.848,0.768,1.723,1.525,2.625,2.275c0.903,0.747,1.828,1.48,2.775,2.199l5.725,4.325c0.965,0.719,1.915,1.452,2.851,2.2
	c0.929,0.749,1.837,1.507,2.725,2.275c1.776,1.545,3.393,3.187,4.85,4.925c1.453,1.731,2.661,3.606,3.625,5.625l2.976-0.976l2.024,4
	l-0.024,0.051l-4-2c-1.472-0.079-2.764-0.438-3.875-1.075c-0.549-0.324-1.074-0.69-1.575-1.101c-0.511-0.401-0.994-0.844-1.45-1.324
	c-0.445-0.494-0.887-1.002-1.325-1.525c-0.44-0.514-0.874-1.039-1.3-1.575c-0.426-0.538-0.868-1.063-1.325-1.575
	c-0.454-0.508-0.921-1-1.399-1.475c-0.596-0.574-1.212-1.141-1.851-1.7c-0.641-0.553-1.299-1.095-1.975-1.625l-2.05-1.6
	l-2.101-1.575l-2.125-1.575l-2.125-1.6c-0.702-0.531-1.394-1.072-2.074-1.625c-0.682-0.552-1.349-1.11-2-1.675
	c-0.646-0.559-1.271-1.134-1.875-1.726c-0.617-0.604-1.209-1.221-1.775-1.85c-0.557-0.619-1.082-1.261-1.575-1.925
	c-0.494-0.674-0.952-1.366-1.375-2.075c-0.426-0.704-0.81-1.438-1.149-2.2c-0.346-0.76-0.646-1.543-0.9-2.35
	c-0.245-0.808-0.437-1.649-0.575-2.525c-0.138-0.871-0.221-1.771-0.25-2.7l-20.975,1.976l-0.4-2l-0.225-1.15l-0.25-1.225
	l-0.275-1.25l-0.325-1.301l-0.375-1.3l-0.425-1.274c-0.147-0.419-0.307-0.827-0.475-1.226c-0.175-0.396-0.358-0.779-0.55-1.149
	c-0.18-0.377-0.372-0.735-0.575-1.075c-0.215-0.338-0.439-0.654-0.675-0.95c-0.236-0.301-0.486-0.576-0.75-0.825
	c-0.256-0.244-0.522-0.461-0.801-0.649c-0.283-0.192-0.583-0.352-0.899-0.476c-0.312-0.127-0.637-0.218-0.976-0.274h-0.225
	c-0.316-0.002-0.684,0.064-1.1,0.199c-0.411,0.142-0.87,0.35-1.375,0.625c-0.573,0.307-1.189,0.665-1.851,1.075
	c-0.661,0.409-1.36,0.867-2.1,1.375L156.6,361.2c-0.826,0.583-1.66,1.149-2.5,1.7c-0.849,0.544-1.699,1.069-2.55,1.574
	c-0.845,0.51-1.679,0.968-2.5,1.375c-0.826,0.404-1.634,0.754-2.425,1.051c-0.681,0.255-1.339,0.446-1.975,0.574
	c-0.635,0.132-1.243,0.198-1.825,0.2l-0.575-0.024c-1.327-0.103-2.444-0.694-3.35-1.775c-0.902-1.084-1.519-2.792-1.85-5.125
	l-0.125-6.975c-0.667,0.01-1.309,0.052-1.925,0.125c-0.605,0.077-1.18,0.186-1.725,0.324c-0.553,0.135-1.086,0.293-1.6,0.476
	c-0.523,0.177-1.023,0.377-1.5,0.6c-0.463,0.233-0.913,0.483-1.35,0.75c-0.45,0.26-0.883,0.534-1.3,0.825
	c-0.415,0.298-0.823,0.606-1.225,0.925c-0.401,0.317-0.792,0.643-1.175,0.976l-2.275,2l-1.175,1l-1.175,0.975
	c-0.403,0.312-0.819,0.612-1.25,0.9c-0.431,0.289-0.872,0.563-1.325,0.824c-0.454,0.254-0.929,0.487-1.425,0.7
	c-0.491,0.222-0.999,0.421-1.525,0.601v5.975l-0.025,0.025c-0.406-0.034-0.797-0.051-1.175-0.051
	c-1.454,0.007-2.696,0.273-3.725,0.801c-1.292,0.654-2.375,1.579-3.25,2.774c-0.436,0.599-0.852,1.231-1.25,1.9
	c-0.396,0.67-0.771,1.37-1.125,2.1c-0.354,0.733-0.72,1.467-1.1,2.2c-0.381,0.729-0.773,1.455-1.175,2.175l-1,1.75l-1.025,1.851
	L99.05,389.2l-1.125,1.975l-1.175,2l-1.225,1.976c-0.412,0.657-0.837,1.307-1.275,1.949c-0.44,0.646-0.89,1.279-1.35,1.9
	c-0.46,0.617-0.936,1.217-1.425,1.8c-0.497,0.588-1.005,1.154-1.525,1.7c-0.509,0.542-1.034,1.059-1.575,1.55
	c-0.545,0.487-1.104,0.945-1.675,1.375c-0.581,0.436-1.181,0.835-1.8,1.2c-0.61,0.362-1.235,0.688-1.875,0.975
	c-0.637,0.286-1.295,0.528-1.975,0.726c-0.684,0.195-1.384,0.346-2.1,0.45l-0.025-0.051c1.179-1.714,2.395-3.422,3.65-5.125
	c1.253-1.7,2.537-3.384,3.85-5.05l3.95-5.024l3.925-5.075c1.315-1.687,2.598-3.403,3.85-5.15c1.24-1.748,2.44-3.516,3.6-5.3
	c2.331-3.574,4.381-7.316,6.15-11.225c-0.704-0.019-1.362-0.068-1.975-0.15c-0.609-0.086-1.167-0.202-1.675-0.35
	c-0.52-0.148-1.003-0.323-1.45-0.525c-0.448-0.2-0.856-0.425-1.225-0.675c-0.359-0.254-0.693-0.529-1-0.825
	c-0.319-0.298-0.611-0.614-0.875-0.95c-0.256-0.335-0.498-0.686-0.725-1.05c-0.233-0.363-0.45-0.738-0.65-1.125l-0.575-1.2
	l-0.575-1.225l-0.575-1.275l-0.625-1.25c-0.213-0.428-0.447-0.854-0.7-1.274c-0.249-0.415-0.515-0.823-0.8-1.226
	c-0.293-0.401-0.618-0.793-0.975-1.175c-0.354-0.388-0.737-0.763-1.15-1.125c-0.371-0.315-0.729-0.574-1.075-0.775
	c-0.348-0.2-0.681-0.342-1-0.425c-0.295-0.071-0.578-0.104-0.85-0.1c-0.316-0.003-0.616,0.047-0.9,0.149
	c-0.532,0.195-1.007,0.521-1.425,0.976c-0.206,0.229-0.398,0.479-0.575,0.75c-0.182,0.272-0.349,0.563-0.5,0.875
	c-0.148,0.308-0.282,0.624-0.4,0.95c-0.116,0.326-0.216,0.66-0.3,1c-0.091,0.338-0.167,0.671-0.225,1
	c-0.058,0.331-0.1,0.656-0.125,0.975c-0.54,0.189-1.032,0.398-1.475,0.625c-0.452,0.223-0.86,0.473-1.225,0.75
	c-0.362,0.271-0.704,0.562-1.025,0.875c-0.323,0.323-0.623,0.665-0.9,1.025l-0.85,1.1l-0.8,1.175
	c-0.272,0.404-0.564,0.812-0.875,1.226c-0.316,0.415-0.65,0.831-1,1.25l-18.625,22c-0.419,0.507-0.819,1.016-1.2,1.524
	c-0.388,0.511-0.755,1.02-1.1,1.525c-0.336,0.503-0.678,0.995-1.025,1.475c-0.348,0.481-0.698,0.948-1.05,1.4
	c-0.355,0.457-0.738,0.891-1.15,1.3c-0.407,0.402-0.84,0.777-1.3,1.125c-0.939,0.703-2.081,1.253-3.425,1.65l-0.025-0.051
	c1.252-2.905,2.777-5.614,4.575-8.125c0.899-1.26,1.832-2.501,2.8-3.725c0.964-1.218,1.956-2.41,2.975-3.575l3.075-3.5l3.025-3.55
	c1.996-2.365,3.83-4.856,5.5-7.475l-19.925-1L45.925,352.8c-0.474,0.256-0.907,0.522-1.3,0.8c-0.394,0.273-0.744,0.558-1.05,0.851
	c-0.316,0.292-0.599,0.601-0.85,0.925c-0.243,0.336-0.451,0.687-0.625,1.05c-0.182,0.354-0.34,0.729-0.475,1.125
	c-0.125,0.406-0.224,0.832-0.3,1.275c-0.089,0.44-0.164,0.907-0.225,1.399c-0.056,0.486-0.098,0.994-0.125,1.525l-12.025,4.025
	l-0.025-0.025v-4.725l0.05-4.7l0.075-4.7l0.1-4.675l0.175-4.675l0.2-4.65l0.275-4.65l0.3-4.649l0.4-4.65
	c0.137-1.537,0.287-3.078,0.45-4.625c0.154-1.559,0.32-3.116,0.5-4.675c0.188-1.546,0.388-3.088,0.6-4.625l4.775-16l0.375-5.15
	l0.325-5.149l0.275-5.15l0.225-5.149l0.45-10.25l0.225-5.15l0.25-5.1l0.3-5.125l0.325-5.125c0.128-1.694,0.27-3.394,0.425-5.1
	c0.146-1.714,0.304-3.423,0.475-5.125c0.173-1.694,0.364-3.394,0.575-5.1c0.216-1.714,0.45-3.423,0.7-5.125
	c0.251-1.694,0.526-3.395,0.825-5.1c0.294-1.706,0.611-3.406,0.95-5.1l2.85-14.325l0.95-4.725l0.95-4.75l0.975-4.7l1-4.725l1-4.7
	l1.05-4.675l1.075-4.65l1.125-4.675l1.15-4.625l1.2-4.625l1.275-4.625l1.3-4.575L60.8,136.8l1.45-4.575
	c0.498-1.524,1.006-3.041,1.525-4.55c0.509-1.506,1.034-3.015,1.575-4.525c0.553-1.511,1.119-3.02,1.7-4.525
	c0.571-1.507,1.155-3.007,1.75-4.5c0.598-1.49,1.215-2.981,1.85-4.475c0.634-1.494,1.284-2.986,1.95-4.475
	c0.669-1.491,1.352-2.975,2.05-4.45l6.075-18.975c1.106-2.092,2.289-4.217,3.55-6.375c1.273-2.156,2.615-4.331,4.025-6.525
	c0.938-1.461,1.904-2.928,2.9-4.4c0.989-1.475,2.006-2.949,3.05-4.425c1.052-1.47,2.126-2.937,3.225-4.4
	c3.294-4.416,6.769-8.741,10.425-12.975c3.659-4.239,7.442-8.29,11.35-12.15c3.907-3.854,7.882-7.421,11.925-10.7
	c4.048-3.27,8.106-6.153,12.175-8.65c0.542-0.331,1.108-0.647,1.7-0.95c0.588-0.3,1.196-0.583,1.825-0.85
	c0.622-0.263,1.264-0.513,1.925-0.75c0.669-0.24,1.353-0.465,2.05-0.675c0.694-0.211,1.402-0.412,2.125-0.6
	c0.724-0.188,1.458-0.363,2.2-0.525l2.25-0.45l2.275-0.4l2.274-0.325l2.301-0.25l2.274-0.225l2.226-0.175l2.175-0.125l2.1-0.075
	l1.95-0.05h1.875h0.075H177.1z"/>
<path style="fill-rule:evenodd;clip-rule:evenodd;fill:#4F4F4F;" d="M181.7,6.1c0.798,0.005,1.59,0.03,2.375,0.075
	c0.787,0.039,1.562,0.098,2.325,0.175c2.02,0.212,3.878,0.662,5.574,1.35v0.05l-2.85,0.075C188.146,7.868,187.137,7.926,186.1,8
	l-3.149,0.175l-3.2,0.125l-1.55,0.025c-0.798,0.003-1.59-0.014-2.375-0.05c-0.787-0.039-1.562-0.097-2.325-0.175
	c-2.021-0.212-3.879-0.663-5.575-1.35V6.7l2.851-0.075c0.979-0.042,1.987-0.101,3.024-0.175l3.15-0.175l3.2-0.15L181.7,6.1z"/>
<path style="fill-rule:evenodd;clip-rule:evenodd;fill:#FFFFFF;" d="M279.575,105.725c1.464,6.359,2.863,12.734,4.2,19.125
	c1.331,6.396,2.59,12.763,3.774,19.1c1.18,6.33,2.28,12.688,3.3,19.075c1.028,6.392,1.971,12.767,2.825,19.125
	c0.846,6.35,1.596,12.742,2.25,19.175c0.659,6.445,1.217,12.887,1.675,19.325c0.454,6.429,0.796,12.912,1.025,19.45
	c0.229,6.533,0.347,13.075,0.35,19.625l0.051,6.226l0.074,6.225l0.101,6.2l0.1,6.15l0.05,6.199l0.051,6.15
	c0.001,2.036-0.016,4.077-0.051,6.125c-0.031,2.06-0.082,4.117-0.149,6.175c-0.074,2.049-0.166,4.091-0.275,6.125
	c-0.148,3.062-0.365,6.138-0.649,9.226c-0.293,3.084-0.651,6.159-1.075,9.225l-0.2,1.575l-0.125,1.625l-0.125,1.649l-0.075,1.676
	l-0.2,3.425l-0.149,1.7l-0.175,1.699c-0.07,0.561-0.154,1.119-0.25,1.676s-0.204,1.106-0.325,1.649
	c-0.123,0.54-0.265,1.073-0.425,1.601c-0.158,0.534-0.333,1.06-0.525,1.574c-0.192,0.51-0.409,1.01-0.65,1.5
	c-0.244,0.488-0.511,0.963-0.8,1.426c-0.286,0.471-0.603,0.929-0.95,1.375c-0.348,0.433-0.723,0.849-1.125,1.25
	c-0.24,0.239-0.507,0.473-0.8,0.699c-0.292,0.226-0.608,0.441-0.95,0.65c-0.338,0.207-0.696,0.407-1.074,0.6
	c-0.383,0.199-0.783,0.391-1.2,0.575L285.8,362.2l-1.375,0.5l-1.399,0.45l-1.45,0.425l-1.476,0.375l-1.475,0.35l-1.45,0.3
	l-1.399,0.301l-2.601,0.5l-2.225,0.375c-0.232-0.519-0.44-1.044-0.625-1.575c-0.195-0.531-0.379-1.073-0.55-1.625l-0.476-1.7
	l-0.475-1.7l-0.45-1.7l-0.5-1.699c-0.163-0.559-0.338-1.109-0.525-1.65c-0.181-0.537-0.373-1.062-0.574-1.575
	c-0.214-0.524-0.447-1.033-0.7-1.524c-0.24-0.479-0.499-0.937-0.775-1.375c-0.289-0.449-0.606-0.874-0.95-1.275
	c-0.333-0.401-0.691-0.776-1.074-1.125c-0.383-0.34-0.799-0.648-1.25-0.925c-0.461-0.283-0.952-0.533-1.476-0.75
	c-0.508-0.214-1.058-0.389-1.649-0.525c-0.604-0.131-1.245-0.223-1.926-0.274l-0.149,1.1l-0.25,1.225l-0.325,1.351l-0.4,1.425
	l-0.475,1.525l-0.525,1.55l-0.625,1.6l-0.675,1.601c-0.238,0.535-0.488,1.069-0.75,1.6c-0.257,0.531-0.523,1.057-0.8,1.575
	c-0.28,0.51-0.572,1.01-0.875,1.5c-0.3,0.496-0.608,0.979-0.925,1.45c-0.322,0.474-0.656,0.933-1,1.375
	c-0.342,0.436-0.692,0.852-1.05,1.25c-0.356,0.397-0.724,0.772-1.101,1.125c-0.376,0.35-0.76,0.675-1.149,0.975
	c-0.391,0.306-0.791,0.581-1.2,0.825c-0.41,0.24-0.826,0.448-1.25,0.625c-0.425,0.18-0.858,0.321-1.3,0.425
	c-0.444,0.097-0.895,0.155-1.351,0.175l-0.399,0.025c-0.394-0.001-0.794-0.034-1.2-0.101c-0.405-0.067-0.813-0.168-1.226-0.3
	c-0.483-0.148-0.975-0.348-1.475-0.6c-0.495-0.259-0.995-0.567-1.5-0.925c-1.061-0.763-1.894-1.63-2.5-2.601
	c-0.294-0.483-0.552-0.983-0.775-1.5c-0.229-0.512-0.42-1.037-0.574-1.575c-0.157-0.544-0.299-1.094-0.426-1.649
	c-0.124-0.557-0.232-1.115-0.324-1.675l-0.301-1.65l-0.3-1.6c-0.108-0.518-0.241-1.018-0.399-1.5
	c-0.168-0.496-0.359-0.971-0.575-1.426c-0.42-0.894-1.02-1.669-1.8-2.324c-0.78-0.656-1.822-1.147-3.125-1.476
	c-0.513-0.132-1.079-0.231-1.7-0.3c-0.616-0.065-1.283-0.099-2-0.1l-1.25,0.024l-5.925,1.275l-6.551,8.975
	c-0.443,0.467-0.936,0.934-1.475,1.4c-0.539,0.47-1.122,0.937-1.75,1.399c-0.625,0.463-1.283,0.913-1.975,1.351
	c-0.696,0.44-1.422,0.865-2.176,1.274c-0.747,0.408-1.514,0.792-2.3,1.15c-0.794,0.353-1.603,0.678-2.425,0.975
	c-0.812,0.305-1.629,0.571-2.45,0.801c-0.826,0.23-1.651,0.422-2.475,0.574c-0.605,0.103-1.205,0.178-1.8,0.226
	c-0.593,0.061-1.177,0.094-1.75,0.1c-0.421-0.002-0.838-0.019-1.25-0.05c-1.548-0.106-2.981-0.465-4.301-1.075
	c-0.95-0.469-1.717-1.053-2.3-1.75c-0.287-0.347-0.546-0.713-0.774-1.1c-0.224-0.384-0.415-0.783-0.575-1.2
	c-0.173-0.416-0.331-0.841-0.476-1.275c-0.131-0.427-0.248-0.86-0.35-1.3l-0.65-2.649c-0.108-0.43-0.233-0.846-0.375-1.25
	c-0.143-0.415-0.301-0.815-0.475-1.2c-0.167-0.373-0.367-0.724-0.6-1.05c-0.236-0.334-0.503-0.643-0.801-0.926
	c-0.293-0.283-0.635-0.533-1.024-0.75c-0.396-0.209-0.838-0.385-1.325-0.524c-0.398-0.121-0.84-0.213-1.325-0.275
	c-0.484-0.063-1.01-0.097-1.575-0.1l-0.774,0.024c-0.512,0.033-1.021,0.116-1.525,0.25c-0.498,0.126-0.99,0.301-1.475,0.525
	c-0.494,0.231-0.985,0.498-1.476,0.8c-0.479,0.301-0.955,0.635-1.425,1c-0.475,0.365-0.95,0.748-1.425,1.15
	c-0.479,0.4-0.953,0.817-1.425,1.25l-2.825,2.625c-0.471,0.439-0.946,0.864-1.425,1.274c-0.483,0.409-0.966,0.801-1.45,1.176
	c-0.478,0.373-0.961,0.714-1.45,1.024c-0.489,0.309-0.98,0.584-1.475,0.825c-0.5,0.24-1.009,0.432-1.525,0.575
	c-0.512,0.149-1.029,0.249-1.55,0.3l-0.575,0.025c-0.435,0.003-0.876-0.039-1.325-0.125c-0.446-0.098-0.896-0.239-1.35-0.426
	c-0.653-0.267-1.153-0.633-1.5-1.1c-0.347-0.474-0.589-1.015-0.725-1.625c-0.072-0.298-0.13-0.606-0.175-0.925
	c-0.04-0.325-0.064-0.658-0.075-1l-0.05-2.05l-0.025-1l-0.1-0.976c-0.037-0.32-0.096-0.629-0.175-0.925
	c-0.079-0.29-0.179-0.565-0.3-0.825c-0.252-0.519-0.636-0.952-1.15-1.3c-0.254-0.179-0.554-0.329-0.9-0.45
	c-0.357-0.112-0.757-0.195-1.2-0.25l-0.85-0.1l-0.85-0.025c-0.472,0-0.938,0.025-1.4,0.075c-0.458,0.051-0.909,0.126-1.35,0.225
	c-0.711,0.164-1.411,0.372-2.1,0.625c-0.683,0.249-1.35,0.54-2,0.875c-0.649,0.331-1.291,0.689-1.925,1.075
	c-0.637,0.393-1.262,0.809-1.875,1.25l-1.85,1.351l-1.8,1.399l-1.8,1.375l-1.775,1.325c-0.594,0.42-1.194,0.812-1.8,1.175
	c-0.598,0.372-1.198,0.714-1.8,1.025c-0.606,0.306-1.223,0.564-1.85,0.774c-0.628,0.209-1.261,0.367-1.9,0.476l-0.825,0.125
	l-0.8,0.024c-0.387-0.002-0.778-0.026-1.175-0.074c-0.397-0.044-0.797-0.11-1.2-0.2c-1.196-0.294-2.204-0.761-3.025-1.4
	c-0.415-0.318-0.798-0.669-1.15-1.05c-0.342-0.389-0.65-0.805-0.925-1.25c-0.277-0.433-0.535-0.883-0.775-1.35
	c-0.246-0.478-0.471-0.97-0.675-1.476l-0.575-1.524l-0.575-1.525c-0.174-0.509-0.357-1.009-0.55-1.5
	c-0.201-0.495-0.409-0.979-0.625-1.45c-0.218-0.464-0.46-0.905-0.725-1.325c-0.261-0.426-0.544-0.825-0.85-1.199
	c-0.605-0.749-1.355-1.349-2.25-1.801c-0.448-0.217-0.948-0.384-1.5-0.5c-0.551-0.126-1.151-0.2-1.8-0.225h-0.225
	c-0.649-0.001-1.266,0.049-1.85,0.15c-0.586,0.107-1.136,0.266-1.65,0.475c-0.544,0.216-1.061,0.474-1.55,0.775
	c-0.488,0.301-0.947,0.642-1.375,1.024c-0.434,0.389-0.85,0.806-1.25,1.25c-0.395,0.442-0.77,0.908-1.125,1.4
	c-0.356,0.486-0.707,0.986-1.05,1.5c-0.343,0.523-0.677,1.057-1,1.6l-1,1.601l-1,1.574c-0.328,0.526-0.67,1.035-1.025,1.525
	c-0.364,0.479-0.739,0.938-1.125,1.375c-0.385,0.45-0.793,0.867-1.225,1.25c-0.429,0.378-0.879,0.72-1.35,1.025
	c-0.953,0.609-2.036,1.018-3.25,1.225l-1.05,0.15l-1.2,0.149l-1.325,0.125l-1.4,0.101L63,364.175l-0.95,0.025L61,364.175
	c-0.491-0.011-0.974-0.035-1.45-0.075c-0.477-0.044-0.943-0.102-1.4-0.175c-0.459-0.064-0.901-0.148-1.325-0.25
	c-0.43-0.106-0.838-0.231-1.225-0.375c-0.38-0.144-0.73-0.31-1.05-0.5c-0.323-0.194-0.615-0.411-0.875-0.649
	c-0.468-0.437-0.877-0.954-1.225-1.551c-0.175-0.303-0.342-0.619-0.5-0.949c-0.151-0.323-0.292-0.656-0.425-1l-0.4-1.051l-0.4-1.1
	l-0.375-1.075l-0.4-1.075c-0.132-0.352-0.274-0.692-0.425-1.024c-0.158-0.329-0.325-0.646-0.5-0.95
	c-0.168-0.302-0.352-0.585-0.55-0.85c-0.203-0.271-0.419-0.521-0.65-0.75c-0.229-0.227-0.479-0.427-0.75-0.601
	c-0.264-0.169-0.547-0.311-0.85-0.425c-0.271-0.109-0.562-0.192-0.875-0.25c-0.314-0.051-0.648-0.076-1-0.075h-0.325
	c-0.356,0.026-0.698,0.085-1.025,0.175c-0.333,0.077-0.65,0.186-0.95,0.325c-0.302,0.15-0.594,0.326-0.875,0.525
	c-0.279,0.193-0.546,0.41-0.8,0.649c-0.257,0.241-0.507,0.5-0.75,0.775c-0.242,0.276-0.476,0.568-0.7,0.875l-0.65,0.95l-0.625,1
	l-1.275,2.075L35.75,357.8l-0.675,0.95c-0.445,0.643-0.919,1.226-1.425,1.75c-0.512,0.516-1.07,0.94-1.675,1.275l-0.05-0.025
	l3-46.025l3-0.024c-0.005-1.945,0.003-3.896,0.025-5.851c0.028-1.943,0.07-3.885,0.125-5.824c0.053-1.95,0.12-3.892,0.2-5.825
	l0.3-5.825l0.325-5.825l0.425-5.825l0.475-5.8l0.525-5.8l0.6-5.775l0.625-5.8l0.675-5.8L42.95,246l0.75-5.775l0.775-5.8l0.825-5.75
	l0.825-5.775l0.85-5.775l0.875-5.775l2.65-17.3l0.875-5.75l0.875-5.8l0.875-5.775c0.299-1.964,0.641-3.923,1.025-5.875
	c0.377-1.953,0.794-3.887,1.25-5.8c0.458-1.92,0.95-3.836,1.475-5.75c0.529-1.908,1.087-3.8,1.675-5.675
	c0.585-1.875,1.193-3.75,1.825-5.625c0.631-1.872,1.281-3.73,1.95-5.575c0.668-1.846,1.352-3.696,2.05-5.55
	c0.699-1.851,1.407-3.693,2.125-5.525l4.325-11.05l2.15-5.525l2.1-5.55c0.691-1.837,1.366-3.688,2.025-5.55
	c0.654-1.867,1.287-3.733,1.9-5.6c0.609-1.868,1.192-3.751,1.75-5.65c0.563-1.897,1.097-3.797,1.6-5.7
	c0.182-0.676,0.398-1.359,0.65-2.05c0.25-0.69,0.534-1.381,0.85-2.075c0.313-0.696,0.655-1.396,1.025-2.1
	c0.367-0.7,0.759-1.4,1.175-2.1c0.421-0.706,0.863-1.414,1.325-2.125c0.458-0.702,0.933-1.402,1.425-2.1
	c0.503-0.7,1.02-1.4,1.55-2.1c0.515-0.705,1.04-1.405,1.575-2.1l1.65-2.075l1.675-2.025l3.325-3.95l3.15-3.75l1.45-1.75l1.35-1.7
	l4.225-5.425l2.25-2.85l2.325-2.875l2.4-2.925l2.475-2.9c0.835-0.971,1.686-1.938,2.55-2.9c0.858-0.96,1.725-1.91,2.6-2.85
	c0.879-0.945,1.771-1.878,2.675-2.8c0.91-0.918,1.827-1.818,2.75-2.7c0.922-0.878,1.855-1.737,2.8-2.575
	c0.936-0.842,1.877-1.659,2.825-2.45c0.956-0.787,1.923-1.545,2.9-2.275c0.98-0.734,1.963-1.434,2.95-2.1
	c0.982-0.662,1.974-1.287,2.975-1.875c0.998-0.599,1.998-1.158,3-1.675c4.057-2.019,8.39-3.577,13-4.675
	c4.61-1.108,9.394-1.792,14.351-2.05l2.375-0.075l2.375-0.025c1.702-0.004,3.419,0.038,5.149,0.125
	c1.723,0.089,3.448,0.222,5.176,0.4c5.105,0.538,10.181,1.429,15.225,2.675c5.032,1.248,9.933,2.814,14.7,4.7
	c4.768,1.883,9.302,4.05,13.6,6.5c4.296,2.453,8.254,5.152,11.875,8.1c3.623,2.955,6.807,6.122,9.55,9.5
	c0.884,1.103,1.742,2.244,2.575,3.425c0.84,1.186,1.647,2.402,2.425,3.65c0.772,1.244,1.522,2.519,2.25,3.825
	c0.735,1.302,1.444,2.627,2.125,3.975c0.67,1.359,1.32,2.742,1.95,4.15c0.641,1.402,1.258,2.819,1.851,4.25
	c0.584,1.425,1.15,2.867,1.699,4.325c0.556,1.468,1.089,2.943,1.601,4.425c0.507,1.474,0.998,2.958,1.475,4.45
	c0.485,1.493,0.952,2.985,1.4,4.475c0.438,1.491,0.863,2.982,1.274,4.475c0.416,1.501,0.816,2.993,1.2,4.475l1.15,4.4l1.05,4.325
	l1,4.25L279.575,105.725z"/>
<path style="fill-rule:evenodd;clip-rule:evenodd;fill:#949494;" d="M217.35,37.575l0.926,0.025
	c0.601,0.026,1.191,0.084,1.774,0.175c0.596,0.093,1.18,0.218,1.75,0.375c0.567,0.157,1.117,0.365,1.65,0.625
	c0.529,0.267,1.037,0.583,1.524,0.95l-0.024,0.05l-14-2l-0.025-0.05l1.825-0.05l1.825-0.075l0.95-0.025h0.925H217.35z"/>
<path style="fill-rule:evenodd;clip-rule:evenodd;fill:#060606;" d="M215.775,38.425c0.896,0,1.779,0.058,2.649,0.175
	c0.869,0.116,1.72,0.292,2.55,0.525c1.802,0.513,3.402,1.313,4.801,2.4c1.395,1.091,2.461,2.483,3.199,4.175l-0.024,0.05l-11-4.8
	l-17,4.8l-0.025-0.05c0.908-1.544,2.116-2.853,3.625-3.925c1.509-1.065,3.192-1.882,5.05-2.45c1.86-0.562,3.769-0.862,5.726-0.9
	H215.775z"/>
<path style="fill-rule:evenodd;clip-rule:evenodd;fill:#060606;" d="M212.5,56.875c0.472,0.036,0.955,0.127,1.45,0.275
	c0.5,0.137,1.009,0.329,1.524,0.575c0.515,0.251,1.039,0.568,1.575,0.95c0.534,0.388,1.075,0.837,1.625,1.35
	c1.363,1.269,2.505,2.636,3.425,4.1c0.463,0.728,0.879,1.478,1.25,2.25c0.373,0.775,0.698,1.567,0.976,2.375
	c0.27,0.8,0.503,1.617,0.7,2.45c0.203,0.839,0.37,1.689,0.5,2.55c0.119,0.856,0.21,1.723,0.274,2.6
	c0.07,0.879,0.112,1.763,0.125,2.65c0.011,0.887,0.002,1.779-0.024,2.675c-0.022,0.893-0.064,1.785-0.125,2.675l-0.226,2.675
	l-0.3,2.65l-0.625,5.175l-0.3,2.5l-0.25,2.375l-0.15,1.85l-0.125,1.85l-0.25,3.675l-0.175,1.825l-0.2,1.8
	c-0.07,0.586-0.153,1.17-0.25,1.75c-0.104,0.591-0.221,1.174-0.35,1.75c-0.123,0.571-0.265,1.138-0.425,1.7
	c-0.166,0.559-0.349,1.109-0.551,1.65c-0.199,0.548-0.425,1.09-0.675,1.625c-0.251,0.535-0.526,1.06-0.825,1.575
	c-0.303,0.508-0.636,1.008-1,1.5c-0.354,0.503-0.737,0.995-1.149,1.475c-0.421,0.476-0.88,0.943-1.375,1.4
	c-0.491,0.454-1.016,0.896-1.575,1.325c-1.273,0.938-2.699,1.597-4.275,1.975c-0.78,0.184-1.58,0.326-2.399,0.425
	c-0.827,0.102-1.669,0.16-2.525,0.175h-1.149l-1.976-0.025l-1.975-0.075l-2.45-0.125l-2.325-0.05c-0.316-1.221-0.6-2.421-0.85-3.6
	c-0.258-1.17-0.491-2.32-0.7-3.45c-0.204-1.141-0.388-2.282-0.55-3.425c-0.163-1.132-0.305-2.257-0.425-3.375
	c-0.12-1.127-0.22-2.269-0.301-3.425c-0.078-1.152-0.137-2.31-0.175-3.475c-0.035-1.164-0.052-2.355-0.05-3.575
	c-0.01-1.223-0.002-2.464,0.025-3.725l3.824-18l0.15-1.1l0.225-1.275l0.301-1.4l0.35-1.55l0.425-1.625l0.5-1.7l0.575-1.75
	l0.625-1.775c0.222-0.594,0.455-1.186,0.7-1.775c0.24-0.582,0.49-1.157,0.75-1.725c0.264-0.57,0.538-1.128,0.825-1.675
	c0.29-0.549,0.59-1.082,0.899-1.6c0.305-0.52,0.622-1.02,0.95-1.5c0.332-0.481,0.674-0.939,1.025-1.375
	c0.354-0.429,0.721-0.829,1.1-1.2c0.374-0.373,0.757-0.715,1.15-1.025c0.388-0.312,0.788-0.588,1.199-0.825
	c0.417-0.239,0.842-0.439,1.275-0.6c0.366-0.124,0.741-0.216,1.125-0.275c0.378-0.066,0.761-0.1,1.15-0.1H212.5z"/>
<path style="fill-rule:evenodd;clip-rule:evenodd;fill:#CFCCCC;" d="M146.05,61.025l1.7,0.025l1.675,0.075
	c0.717,0.056,1.417,0.131,2.1,0.225c0.681,0.089,1.339,0.198,1.975,0.325c0.638,0.12,1.247,0.262,1.825,0.425
	c0.584,0.171,1.134,0.362,1.65,0.575v0.075H132.95l-0.025-0.05c0.543-0.168,1.109-0.318,1.7-0.45c0.588-0.143,1.205-0.276,1.85-0.4
	c0.654-0.112,1.329-0.212,2.025-0.3c0.685-0.095,1.385-0.178,2.1-0.25c0.725-0.072,1.458-0.13,2.2-0.175
	c0.738-0.048,1.48-0.081,2.225-0.1H146.05z"/>
<path style="fill-rule:evenodd;clip-rule:evenodd;fill:#060606;" d="M146.9,61.925L148.1,62c0.681,0.04,1.347,0.098,2,0.175
	c0.661,0.082,1.302,0.182,1.925,0.3c0.627,0.115,1.227,0.249,1.8,0.4c0.564,0.158,1.097,0.333,1.6,0.525
	c0.507,0.183,0.974,0.382,1.4,0.6c0.426,0.226,0.81,0.468,1.149,0.725l-0.024,0.05l-27,2l-0.025-0.05
	c0.503-0.749,1.194-1.407,2.075-1.975c0.439-0.279,0.914-0.538,1.425-0.775c0.518-0.239,1.068-0.456,1.65-0.65
	c0.576-0.195,1.176-0.371,1.8-0.525c0.622-0.154,1.264-0.288,1.925-0.4c0.664-0.111,1.338-0.203,2.025-0.275
	c0.693-0.078,1.393-0.137,2.1-0.175l0.9-0.025h0.9H146.9z"/>
<path style="fill-rule:evenodd;clip-rule:evenodd;fill:#CFCCCC;" d="M147.675,65.25c0.748,0.005,1.489,0.03,2.225,0.075
	c0.736,0.038,1.461,0.096,2.175,0.175c0.871,0.098,1.712,0.248,2.525,0.45c0.827,0.208,1.618,0.466,2.375,0.775v0.05l-2.525,0.075
	l-2.65,0.125l-2.75,0.15l-2.775,0.1h-1.05c-0.748,0.003-1.489-0.013-2.225-0.05c-0.736-0.039-1.461-0.097-2.175-0.175
	c-0.871-0.098-1.713-0.248-2.525-0.45c-0.826-0.207-1.617-0.465-2.375-0.775v-0.05l2.525-0.075l2.65-0.125l2.75-0.15l2.775-0.1
	L147.675,65.25z"/>
<path style="fill-rule:evenodd;clip-rule:evenodd;fill:#3F3F3F;" d="M199.95,71.775l-0.025-6.025l0.025-0.025
	c0.14,0.291,0.257,0.566,0.35,0.825l0.226,0.775c0.117,0.488,0.176,0.963,0.175,1.425c0.001,0.461-0.058,0.937-0.175,1.425
	L200.3,70.95l-0.325,0.825H199.95z"/>
<path style="fill-rule:evenodd;clip-rule:evenodd;fill:#3F3F3F;" d="M203.85,70.425c0.052,0.656,0.068,1.332,0.051,2.025
	c-0.008,0.694-0.049,1.402-0.125,2.125c-0.084,0.721-0.192,1.454-0.325,2.2c-0.135,0.751-0.293,1.509-0.476,2.275
	c-0.184,0.76-0.384,1.527-0.6,2.3c-0.211,0.774-0.436,1.549-0.675,2.325L200.95,86l-0.775,2.3l-1.55,4.5l-0.725,2.15L197.25,97
	c-0.197,0.669-0.372,1.319-0.525,1.95c-0.164,0.623-0.306,1.223-0.425,1.8c-0.407,2.306-0.541,4.506-0.399,6.6
	c0.072,1.042,0.181,2.075,0.324,3.1c0.141,1.024,0.315,2.032,0.525,3.025l1.3,6.025c0.214,0.997,0.397,2.013,0.55,3.05
	c0.157,1.045,0.282,2.104,0.375,3.175c0.811-0.003,1.586-0.028,2.325-0.075c0.741-0.045,1.449-0.112,2.125-0.2
	c0.689-0.081,1.364-0.189,2.025-0.325c0.651-0.14,1.285-0.307,1.899-0.5c0.625-0.192,1.25-0.417,1.875-0.675
	c0.621-0.261,1.237-0.553,1.851-0.875c0.609-0.321,1.234-0.679,1.875-1.075c0.648-0.39,1.307-0.815,1.975-1.275l0.05,0.025
	c-0.631,1.771-1.573,3.096-2.824,3.975c-1.253,0.87-2.687,1.445-4.301,1.725c-0.752,0.133-1.519,0.232-2.3,0.3
	c-0.791,0.067-1.592,0.1-2.399,0.1h-0.301l-4.925-0.075l-0.575-3.425c-0.193-1.126-0.402-2.234-0.625-3.325l-0.649-3.275
	l-0.601-3.275c-0.183-1.085-0.333-2.185-0.449-3.3c-0.126-1.11-0.218-2.227-0.275-3.35c-0.058-1.131-0.058-2.29,0-3.475
	c0.067-1.181,0.192-2.381,0.375-3.6l7.775-33l0.074-0.025c0.227,0.576,0.41,1.176,0.551,1.8
	C203.678,69.138,203.786,69.771,203.85,70.425z"/>
<path style="fill-rule:evenodd;clip-rule:evenodd;fill:#060606;" d="M158.425,79.7c0.227,0.638,0.426,1.296,0.601,1.975
	c0.18,0.664,0.338,1.347,0.475,2.05c0.139,0.71,0.255,1.436,0.35,2.175c0.085,0.744,0.152,1.503,0.2,2.275
	c0.053,0.767,0.086,1.542,0.101,2.325c0.016,0.783,0.016,1.575,0,2.375c-0.018,0.797-0.052,1.597-0.101,2.4
	c-0.054,0.805-0.121,1.613-0.2,2.425c-0.07,0.819-0.153,1.636-0.25,2.45l-0.324,2.4l-0.375,2.375l-0.45,2.35l-0.476,2.25l-0.5,2.175
	l-0.524,2.075l-0.525,1.975l-0.55,1.825l-0.525,1.675l-0.525,1.5c-0.168,0.513-0.318,1.038-0.45,1.575
	c-0.136,0.542-0.253,1.092-0.35,1.65l-0.325,1.675l-0.325,1.65c-0.121,0.554-0.271,1.095-0.45,1.625
	c-0.172,0.523-0.372,1.032-0.6,1.525c-0.467,1.007-1.143,1.915-2.025,2.725c-0.279,0.247-0.588,0.472-0.925,0.675
	c-0.349,0.207-0.724,0.391-1.125,0.55c-0.387,0.152-0.795,0.285-1.225,0.4c-0.439,0.12-0.897,0.219-1.375,0.3
	c-0.469,0.082-0.952,0.148-1.45,0.2c-0.506,0.049-1.022,0.082-1.55,0.1l-1.175,0.025l-1-0.025l-1.025-0.05l-1.65-0.1l-1.6-0.15
	l-1.6-0.2l-1.525-0.225l-1.475-0.225l-1.35-0.25l-2.325-0.425c-0.217-1.625-0.4-3.225-0.55-4.8
	c-0.151-1.568-0.276-3.109-0.375-4.625c-0.096-1.518-0.162-3.035-0.2-4.55c-0.037-1.52-0.045-3.029-0.025-4.525
	c0.017-1.496,0.067-3.004,0.15-4.525c0.092-1.523,0.217-3.048,0.375-4.575c0.154-1.523,0.346-3.073,0.575-4.65
	c0.223-1.584,0.481-3.184,0.775-4.8l5.25-22l1.25-0.175c0.404-0.065,0.805-0.148,1.2-0.25l1.2-0.35l1.175-0.425l1.175-0.45
	l1.175-0.475l1.15-0.45l1.175-0.425c0.382-0.138,0.765-0.263,1.15-0.375c0.393-0.105,0.785-0.197,1.175-0.275
	c0.38-0.087,0.764-0.154,1.15-0.2c0.392-0.038,0.783-0.054,1.175-0.05c0.413-0.004,0.821,0.021,1.225,0.075
	c0.399,0.063,0.799,0.154,1.2,0.275c0.404,0.113,0.812,0.263,1.225,0.45c0.406,0.198,0.814,0.431,1.225,0.7
	c0.521,0.332,1.013,0.698,1.475,1.1c0.449,0.401,0.866,0.835,1.25,1.3c0.394,0.47,0.76,0.97,1.1,1.5
	c0.338,0.532,0.646,1.09,0.925,1.675C157.949,78.475,158.199,79.075,158.425,79.7z"/>
<path style="fill-rule:evenodd;clip-rule:evenodd;fill:#3F3F3F;" d="M150.975,73.625l0.975,0.05l2.025,5.025l-0.025,0.05l-3.025-4
	c-0.711,0.053-1.378,0.145-2,0.275c-0.624,0.137-1.198,0.312-1.725,0.525c-1.053,0.416-1.936,0.99-2.65,1.725
	c-0.716,0.733-1.283,1.634-1.7,2.7c-0.208,0.538-0.382,1.121-0.525,1.75c-0.15,0.625-0.267,1.292-0.35,2l-4.025,0.025l-0.975-5.6
	v2.25l-0.075,1.3l-0.125,1.25c-0.053,0.41-0.128,0.819-0.225,1.225c-0.096,0.405-0.212,0.805-0.35,1.2
	c-0.144,0.4-0.319,0.8-0.525,1.2c-0.204,0.395-0.438,0.787-0.7,1.175l0.125-1.675l0.15-1.675c0.042-0.563,0.101-1.122,0.175-1.675
	c0.085-0.551,0.185-1.092,0.3-1.625c0.106-0.534,0.248-1.05,0.425-1.55c0.183-0.503,0.399-0.987,0.65-1.45l0.125-0.2v-0.175
	l0.025-0.05L137,77.75c0.241-0.388,0.525-0.755,0.85-1.1c0.319-0.341,0.677-0.658,1.075-0.95l0.05,0.025v6.95h1.95
	c0.056-1.878,0.323-3.428,0.8-4.65c0.493-1.238,1.201-2.196,2.125-2.875c0.917-0.668,2.051-1.11,3.4-1.325
	c0.418-0.067,0.86-0.117,1.325-0.15c0.472-0.034,0.963-0.05,1.475-0.05H150.975z"/>
<path style="fill-rule:evenodd;clip-rule:evenodd;fill:#CFCCCC;" d="M227.65,83.75l-0.025,1.575l-0.075,1.525l-0.125,1.525
	l-0.2,1.45l-0.225,1.4c-0.091,0.441-0.191,0.866-0.3,1.275c-0.1,0.419-0.208,0.819-0.325,1.2c-0.125,0.38-0.259,0.738-0.4,1.075
	h-0.024l-0.025-22.025l0.025-0.025c0.158,0.343,0.3,0.702,0.425,1.075c0.117,0.372,0.226,0.764,0.325,1.175
	c0.108,0.417,0.209,0.85,0.3,1.3l0.225,1.4l0.2,1.45l0.125,1.525l0.075,1.525L227.65,83.75z"/>
<path style="fill-rule:evenodd;clip-rule:evenodd;fill:#949494;" d="M132.95,80.775l-0.025-6.025l0.025-0.025
	c0.14,0.291,0.256,0.566,0.35,0.825l0.225,0.775c0.118,0.488,0.176,0.963,0.175,1.425c0.001,0.461-0.058,0.937-0.175,1.425
	L133.3,79.95l-0.325,0.825H132.95z"/>
<path style="fill-rule:evenodd;clip-rule:evenodd;fill:#6E6E6E;" d="M160.95,88.725l0.1,2.25l0.025,2.275l-0.025,2.275l-0.1,2.25
	l-0.175,2.175c-0.064,0.71-0.14,1.402-0.226,2.075c-0.089,0.683-0.188,1.341-0.3,1.975c-0.105,0.621-0.223,1.212-0.35,1.775
	c-0.13,0.578-0.272,1.119-0.426,1.625c-0.155,0.498-0.322,0.956-0.5,1.375h-0.024l-0.025-31.025l0.025-0.025
	c0.194,0.426,0.369,0.885,0.524,1.375c0.153,0.506,0.296,1.047,0.426,1.625c0.127,0.563,0.244,1.154,0.35,1.775
	c0.111,0.625,0.211,1.275,0.3,1.95c0.086,0.681,0.161,1.381,0.226,2.1L160.95,88.725z"/>
<path style="fill-rule:evenodd;clip-rule:evenodd;fill:#3F3F3F;" d="M158.05,92.075l-0.024,1.65l-0.101,1.675l-0.149,1.675
	l-0.2,1.65l-0.226,1.65l-0.274,1.6l-0.3,1.55L156.45,105l-0.35,1.4l-0.4,1.325l-0.4,1.2l-0.425,1.1
	c-0.147,0.341-0.298,0.657-0.45,0.95c-0.148,0.292-0.298,0.559-0.45,0.8h-0.025l-0.025-0.025c0.094-1.366,0.203-2.724,0.325-4.075
	c0.119-1.342,0.252-2.667,0.4-3.975l0.425-3.95l0.375-3.925c0.116-1.298,0.2-2.606,0.25-3.925c0.042-1.323,0.05-2.648,0.025-3.975
	c-0.017-1.321-0.092-2.663-0.225-4.025c-0.135-1.373-0.327-2.756-0.575-4.15l0.05-0.025c0.23,0.206,0.447,0.439,0.65,0.7
	c0.207,0.258,0.398,0.542,0.575,0.85c0.17,0.302,0.329,0.626,0.475,0.975c0.147,0.354,0.28,0.729,0.4,1.125
	c0.119,0.398,0.228,0.815,0.325,1.25c0.103,0.434,0.194,0.884,0.274,1.35l0.175,1.425l0.125,1.5l0.075,1.575V92.075z"/>
<path style="fill-rule:evenodd;clip-rule:evenodd;fill:#3F3F3F;" d="M132.95,94.775l-0.025-6.025l0.025-0.025
	c0.14,0.291,0.256,0.566,0.35,0.825l0.225,0.775c0.118,0.488,0.176,0.963,0.175,1.425c0.001,0.461-0.058,0.937-0.175,1.425
	L133.3,93.95l-0.325,0.825H132.95z"/>
<path style="fill-rule:evenodd;clip-rule:evenodd;fill:#3F3F3F;" d="M222.475,105.175c-0.074,0.82-0.183,1.637-0.324,2.45
	c-0.142,0.812-0.316,1.612-0.525,2.4c-0.208,0.793-0.45,1.568-0.725,2.325c-0.273,0.752-0.582,1.477-0.926,2.175
	c-0.342,0.691-0.717,1.349-1.125,1.975c-0.823,1.271-1.782,2.362-2.875,3.275l1.2-3.4c0.386-1.099,0.735-2.166,1.05-3.2
	c0.321-1.035,0.613-2.068,0.875-3.1c0.257-1.026,0.481-2.042,0.676-3.05c0.2-1.013,0.376-2.046,0.524-3.1
	c0.144-1.053,0.261-2.12,0.351-3.2c0.089-1.082,0.155-2.207,0.199-3.375c0.048-1.165,0.073-2.365,0.075-3.6l0.025-0.025
	c0.293,0.659,0.543,1.342,0.75,2.05c0.201,0.707,0.368,1.44,0.5,2.2c0.133,0.758,0.233,1.533,0.3,2.325
	c0.059,0.797,0.084,1.605,0.075,2.425C222.576,103.54,222.543,104.356,222.475,105.175z"/>
<path style="fill-rule:evenodd;clip-rule:evenodd;fill:#3F3F3F;" d="M193.825,106.875l0.024,1.875l-0.024,1.875l-0.101,1.875
	l-0.149,1.8l-0.2,1.725c-0.073,0.568-0.157,1.118-0.25,1.65c-0.099,0.53-0.207,1.039-0.325,1.525
	c-0.114,0.476-0.239,0.926-0.375,1.35c-0.141,0.438-0.29,0.846-0.45,1.225h-0.024l-0.025-26.025l0.025-0.025
	c0.177,0.386,0.335,0.794,0.475,1.225c0.136,0.423,0.261,0.873,0.375,1.35c0.118,0.487,0.227,0.995,0.325,1.525
	c0.093,0.532,0.177,1.082,0.25,1.65l0.2,1.725l0.149,1.8L193.825,106.875z"/>
<path style="fill-rule:evenodd;clip-rule:evenodd;fill:#6E6E6E;" d="M223.95,111.775l-0.025-16.025l0.025-0.025
	c0.245,0.562,0.453,1.153,0.625,1.775c0.17,0.617,0.312,1.267,0.425,1.95c0.111,0.694,0.195,1.402,0.25,2.125
	c0.062,0.716,0.095,1.441,0.1,2.175c-0.005,0.734-0.038,1.459-0.1,2.175c-0.055,0.723-0.139,1.432-0.25,2.125
	c-0.113,0.684-0.255,1.334-0.425,1.95c-0.173,0.629-0.373,1.221-0.601,1.775H223.95z"/>
<path style="fill-rule:evenodd;clip-rule:evenodd;fill:#3F3F3F;" d="M126.95,110.775l-0.025-11.025l0.025-0.025
	c0.198,0.438,0.364,0.879,0.5,1.325c0.139,0.451,0.256,0.909,0.35,1.375c0.089,0.462,0.156,0.929,0.2,1.4
	c0.039,0.474,0.056,0.949,0.05,1.425c0.006,0.476-0.011,0.951-0.05,1.425c-0.044,0.471-0.111,0.938-0.2,1.4
	c-0.094,0.466-0.21,0.924-0.35,1.375c-0.137,0.452-0.295,0.894-0.475,1.325H126.95z"/>
<path style="fill-rule:evenodd;clip-rule:evenodd;fill:#CFCCCC;" d="M278.95,106.775l-0.025-6.025l0.025-0.025
	c0.14,0.291,0.257,0.566,0.35,0.825l0.226,0.775c0.117,0.488,0.176,0.963,0.175,1.425c0.001,0.461-0.058,0.937-0.175,1.425
	l-0.226,0.775l-0.325,0.825H278.95z"/>
<path style="fill-rule:evenodd;clip-rule:evenodd;fill:#3F3F3F;" d="M129.95,111.775l-0.025-10.025l0.025-0.025
	c0.695,1.634,1.044,3.309,1.05,5.025c-0.006,1.722-0.348,3.397-1.025,5.025H129.95z"/>
<path style="fill-rule:evenodd;clip-rule:evenodd;fill:#6E6E6E;" d="M283.95,113.775l-0.025-6.025l0.025-0.025
	c0.14,0.291,0.257,0.566,0.35,0.825l0.226,0.775c0.117,0.488,0.176,0.963,0.175,1.425c0.001,0.461-0.058,0.937-0.175,1.425
	l-0.226,0.775l-0.325,0.825H283.95z"/>
<path style="fill-rule:evenodd;clip-rule:evenodd;fill:#6E6E6E;" d="M280.95,114.775l-0.025-6.025l0.025-0.025
	c0.14,0.291,0.257,0.566,0.35,0.825l0.226,0.775c0.117,0.488,0.176,0.963,0.175,1.425c0.001,0.461-0.058,0.937-0.175,1.425
	l-0.226,0.775l-0.325,0.825H280.95z"/>
<path style="fill-rule:evenodd;clip-rule:evenodd;fill:#949494;" d="M124.95,125.775l-0.025-14.025l0.025-0.025
	c0.226,0.514,0.418,1.047,0.575,1.6c0.16,0.552,0.293,1.127,0.4,1.725c0.101,0.599,0.175,1.207,0.225,1.825
	c0.051,0.619,0.076,1.244,0.075,1.875c0.001,0.631-0.024,1.256-0.075,1.875c-0.05,0.619-0.125,1.227-0.225,1.825
	c-0.107,0.597-0.24,1.172-0.4,1.725c-0.158,0.56-0.341,1.093-0.55,1.6H124.95z"/>
<path style="fill-rule:evenodd;clip-rule:evenodd;fill:#3F3F3F;" d="M152.175,116.25c0.306-0.665,0.605-1.29,0.9-1.875
	c0.291-0.593,0.574-1.143,0.85-1.65l0.05,0.025c0.093,0.532,0.151,1.082,0.175,1.65c0.01,0.578-0.015,1.169-0.075,1.775
	c-0.047,0.599-0.122,1.207-0.225,1.825c-0.115,0.628-0.256,1.261-0.425,1.9c-0.163,0.631-0.346,1.265-0.55,1.9
	c-0.198,0.636-0.415,1.269-0.65,1.9c-0.245,0.63-0.503,1.255-0.775,1.875c-0.272,0.618-0.556,1.227-0.85,1.825
	c-0.286,0.606-0.578,1.198-0.875,1.775c-0.305,0.568-0.614,1.118-0.925,1.65l-0.925,1.55c-0.304,0.492-0.604,0.959-0.9,1.4h-0.025
	l-17-2l-0.025-0.025l1-4l0.05-0.025c1.606,1.798,3.106,3.082,4.5,3.85c1.271,0.709,2.463,1.067,3.575,1.075l0.3-0.025
	c1.198-0.064,2.315-0.447,3.35-1.15c1.028-0.71,1.987-1.644,2.875-2.8c0.447-0.583,0.88-1.2,1.3-1.85
	c0.424-0.646,0.833-1.321,1.225-2.025c0.386-0.707,0.761-1.424,1.125-2.15c0.363-0.721,0.713-1.445,1.05-2.175L152.175,116.25z"/>
<path style="fill-rule:evenodd;clip-rule:evenodd;fill:#3F3F3F;" d="M127.95,125.775l-0.025-12.025l0.025-0.025
	c0.207,0.466,0.382,0.941,0.525,1.425c0.141,0.479,0.257,0.971,0.35,1.475c0.098,0.51,0.173,1.027,0.225,1.55
	c0.049,0.522,0.074,1.047,0.075,1.575c-0.001,0.528-0.026,1.053-0.075,1.575c-0.051,0.523-0.126,1.04-0.225,1.55
	c-0.093,0.504-0.209,0.996-0.35,1.475c-0.144,0.49-0.31,0.965-0.5,1.425H127.95z"/>
<path style="fill-rule:evenodd;clip-rule:evenodd;fill:#3F3F3F;" d="M153.95,126.775l-0.025-7.025l0.025-0.025
	c0.15,0.33,0.275,0.646,0.375,0.95c0.1,0.299,0.183,0.591,0.25,0.875c0.066,0.285,0.116,0.568,0.15,0.85
	c0.033,0.287,0.05,0.57,0.05,0.85s-0.017,0.563-0.05,0.85c-0.034,0.282-0.083,0.565-0.15,0.85c-0.067,0.283-0.15,0.575-0.25,0.875
	c-0.101,0.311-0.217,0.627-0.35,0.95H153.95z"/>
<path style="fill-rule:evenodd;clip-rule:evenodd;fill:#B4B4B4;" d="M284.325,128.825c-0.101,0.311-0.217,0.627-0.351,0.95h-0.024
	l-0.025-7.025l0.025-0.025c0.15,0.33,0.275,0.646,0.375,0.95c0.101,0.299,0.184,0.591,0.25,0.875
	c0.066,0.285,0.116,0.568,0.149,0.85c0.033,0.287,0.05,0.57,0.051,0.85c-0.001,0.28-0.018,0.563-0.051,0.85
	c-0.033,0.282-0.083,0.565-0.149,0.85C284.509,128.233,284.426,128.525,284.325,128.825z"/>
<path style="fill-rule:evenodd;clip-rule:evenodd;fill:#949494;" d="M204.975,128.425c0.672-0.004,1.339,0.013,2,0.05
	c0.668,0.038,1.326,0.096,1.976,0.175c0.71,0.091,1.401,0.225,2.075,0.4c0.673,0.176,1.322,0.393,1.949,0.65v0.05l-2.1,0.05
	l-2.15,0.1l-2.199,0.1l-2.226,0.05h-0.375c-0.672,0.004-1.339-0.012-2-0.05c-0.668-0.047-1.326-0.114-1.975-0.2
	c-0.71-0.091-1.401-0.225-2.075-0.4c-0.673-0.168-1.323-0.376-1.95-0.625v-0.05l2.101-0.075l2.149-0.1l2.2-0.075l2.225-0.05H204.975
	z"/>
<path style="fill-rule:evenodd;clip-rule:evenodd;fill:#4F4F4F;" d="M285.95,139.775l-1.025-10.025l0.05-0.025
	c0.29,0.384,0.548,0.775,0.775,1.175c0.225,0.386,0.416,0.778,0.575,1.175c0.155,0.411,0.28,0.827,0.375,1.25
	c0.098,0.414,0.164,0.83,0.2,1.25c0.036,0.421,0.045,0.846,0.024,1.275c-0.021,0.432-0.071,0.865-0.149,1.3
	c-0.081,0.431-0.189,0.864-0.325,1.3c-0.133,0.442-0.291,0.883-0.476,1.325H285.95z"/>
<path style="fill-rule:evenodd;clip-rule:evenodd;fill:#3F3F3F;" d="M140.65,134.35c0.689,0.004,1.372,0.029,2.05,0.075
	c0.685,0.038,1.36,0.096,2.025,0.175c0.754,0.098,1.488,0.239,2.2,0.425c0.709,0.182,1.393,0.407,2.05,0.675v0.05l-2.2,0.05
	l-2.275,0.1l-2.35,0.125l-2.35,0.05h-0.55c-0.688,0.004-1.372-0.013-2.05-0.05c-0.685-0.038-1.36-0.096-2.025-0.175
	c-0.754-0.098-1.488-0.239-2.2-0.425c-0.709-0.182-1.393-0.407-2.05-0.675v-0.05l2.2-0.05l2.275-0.125l2.35-0.1l2.35-0.05
	L140.65,134.35z"/>
<path style="fill-rule:evenodd;clip-rule:evenodd;fill:#949494;" d="M288.95,157.775l-0.025-10.025l0.025-0.025
	c0.694,1.634,1.045,3.309,1.05,5.025c-0.006,1.722-0.348,3.397-1.025,5.025H288.95z"/>
<path style="fill-rule:evenodd;clip-rule:evenodd;fill:#B4B4B4;" d="M56.95,159.775l-0.025-6.025l0.025-0.025
	c0.14,0.291,0.256,0.566,0.35,0.825l0.225,0.775c0.118,0.488,0.176,0.963,0.175,1.425c0.001,0.461-0.058,0.937-0.175,1.425
	L57.3,158.95l-0.325,0.825H56.95z"/>
<path style="fill-rule:evenodd;clip-rule:evenodd;fill:#6E6E6E;" d="M51.95,168.775l-0.025-6.025l0.025-0.025
	c0.14,0.291,0.256,0.566,0.35,0.825l0.225,0.775c0.118,0.488,0.176,0.963,0.175,1.425c0.001,0.461-0.058,0.937-0.175,1.425
	L52.3,167.95l-0.325,0.825H51.95z"/>
<path style="fill-rule:evenodd;clip-rule:evenodd;fill:#CFCCCC;" d="M291.95,173.775l-0.025-10.025l0.025-0.025
	c0.694,1.634,1.045,3.309,1.05,5.025c-0.006,1.722-0.348,3.397-1.025,5.025H291.95z"/>
<path style="fill-rule:evenodd;clip-rule:evenodd;fill:#B4B4B4;" d="M298.95,189.775l-0.025-6.025l0.025-0.025
	c0.14,0.291,0.257,0.566,0.35,0.825l0.226,0.775c0.117,0.488,0.176,0.963,0.175,1.425c0.001,0.461-0.058,0.937-0.175,1.425
	l-0.226,0.775l-0.325,0.825H298.95z"/>
<path style="fill-rule:evenodd;clip-rule:evenodd;fill:#060606;" d="M124.05,187.725c1.912-0.008,3.803,0.026,5.675,0.1
	c1.883,0.084,3.733,0.209,5.55,0.375c1.819,0.162,3.627,0.37,5.425,0.625c1.807,0.255,3.59,0.555,5.35,0.9
	c1.76,0.35,3.519,0.75,5.275,1.2c1.755,0.445,3.497,0.936,5.225,1.475c1.726,0.545,3.459,1.145,5.2,1.8
	c1.746,0.649,3.487,1.349,5.225,2.1l2.125,0.925l2.25,1c0.769,0.35,1.527,0.725,2.275,1.125c0.74,0.394,1.465,0.811,2.175,1.25
	c1.429,0.886,2.687,1.911,3.775,3.075c1.09,1.176,1.89,2.534,2.399,4.075l-0.024,0.025c-0.896-0.178-1.78-0.386-2.65-0.625
	c-0.866-0.237-1.716-0.504-2.55-0.8c-0.84-0.304-1.673-0.628-2.5-0.975c-0.82-0.339-1.628-0.697-2.425-1.075
	c-0.802-0.379-1.602-0.771-2.4-1.175c-0.799-0.407-1.59-0.823-2.375-1.25l-4.7-2.6L159.975,198l-2.399-1.225
	c-0.797-0.407-1.605-0.798-2.425-1.175c-0.819-0.376-1.644-0.734-2.475-1.075c-0.842-0.333-1.7-0.641-2.575-0.925
	c-0.865-0.286-1.74-0.544-2.625-0.775c-0.888-0.235-1.796-0.435-2.725-0.6c-0.927-0.168-1.869-0.302-2.825-0.4l-1.025-0.075
	l-1.125-0.05l-2.425-0.05l-1.3-0.05l-1.3-0.05l-1.325-0.075l-1.3-0.1l-1.3-0.175l-1.25-0.225c-0.403-0.078-0.794-0.17-1.175-0.275
	c-0.38-0.112-0.747-0.237-1.1-0.375c-0.358-0.141-0.7-0.299-1.025-0.475c-0.327-0.175-0.635-0.366-0.925-0.575
	c-0.281-0.211-0.539-0.444-0.775-0.7c-0.241-0.247-0.458-0.513-0.65-0.8l0.025-0.05H124.05z"/>
<path style="fill-rule:evenodd;clip-rule:evenodd;fill:#949494;" d="M298.125,195.6c0.163,0.755,0.313,1.555,0.45,2.4
	c0.139,0.845,0.264,1.728,0.375,2.65c0.104,0.921,0.196,1.872,0.274,2.85c0.08,0.978,0.147,1.978,0.2,3
	c0.056,1.021,0.097,2.054,0.125,3.1c0.031,1.045,0.048,2.095,0.05,3.15c-0.002,1.055-0.019,2.105-0.05,3.15
	c-0.028,1.045-0.069,2.079-0.125,3.1c-0.053,1.021-0.12,2.021-0.2,3c-0.078,0.978-0.17,1.928-0.274,2.85
	c-0.111,0.922-0.236,1.805-0.375,2.65c-0.137,0.844-0.287,1.644-0.45,2.4c-0.161,0.756-0.336,1.456-0.525,2.1
	c-0.195,0.652-0.403,1.244-0.625,1.775h-0.024l-0.025-42.025l0.025-0.025c0.238,0.538,0.455,1.13,0.649,1.775
	C297.789,194.144,297.964,194.844,298.125,195.6z"/>
<path style="fill-rule:evenodd;clip-rule:evenodd;fill:#3F3F3F;" d="M301.1,195.5c0.163,0.74,0.313,1.523,0.45,2.35
	c0.13,0.829,0.247,1.696,0.351,2.6c0.113,0.897,0.213,1.822,0.3,2.775c0.08,0.954,0.147,1.929,0.2,2.925
	c0.046,0.997,0.079,2.005,0.1,3.025c0.03,1.021,0.047,2.045,0.05,3.075c-0.003,1.03-0.02,2.055-0.05,3.075
	c-0.021,1.02-0.054,2.028-0.1,3.025c-0.053,0.996-0.12,1.971-0.2,2.925c-0.087,0.953-0.187,1.877-0.3,2.775
	c-0.104,0.904-0.221,1.771-0.351,2.6c-0.137,0.827-0.287,1.61-0.45,2.35c-0.161,0.737-0.336,1.421-0.524,2.05
	c-0.188,0.634-0.388,1.208-0.601,1.725h-0.024l-0.025-41.025l0.025-0.025c0.23,0.523,0.438,1.099,0.625,1.725
	C300.764,194.079,300.938,194.763,301.1,195.5z"/>
<path style="fill-rule:evenodd;clip-rule:evenodd;fill:#CFCCCC;" d="M48.95,201.775l-0.025-6.025l0.025-0.025
	c0.14,0.291,0.256,0.566,0.35,0.825l0.225,0.775c0.118,0.488,0.176,0.963,0.175,1.425c0.001,0.461-0.058,0.937-0.175,1.425
	L49.3,200.95l-0.325,0.825H48.95z"/>
<path style="fill-rule:evenodd;clip-rule:evenodd;fill:#B4B4B4;" d="M43.95,237.775l-0.025-15.025l0.025-0.025
	c0.236,0.533,0.436,1.092,0.6,1.675c0.17,0.588,0.312,1.205,0.425,1.85c0.102,0.646,0.177,1.304,0.225,1.975
	c0.061,0.668,0.094,1.343,0.1,2.025c-0.006,0.682-0.039,1.357-0.1,2.025c-0.048,0.671-0.123,1.329-0.225,1.975
	c-0.114,0.644-0.255,1.261-0.425,1.85c-0.165,0.59-0.356,1.148-0.575,1.675H43.95z"/>
<path style="fill-rule:evenodd;clip-rule:evenodd;fill:#4F4F4F;" d="M300.5,240.725c0.184,0.89,0.343,1.806,0.475,2.75
	c0.136,0.938,0.243,1.896,0.325,2.875c0.078,0.99,0.136,1.999,0.175,3.025c0.045,1.021,0.069,2.055,0.075,3.1
	c0.005,1.048-0.004,2.106-0.024,3.176c-0.029,1.063-0.07,2.13-0.125,3.199l-0.176,3.2l-0.199,3.226l-0.476,6.25l-0.225,3
	l-0.175,2.899l-0.125,2.75l-0.051,2.575l0.051,2.05l0.1,2.175l0.1,2.2l0.051,2.226c0.008,0.739-0.009,1.473-0.051,2.199
	c-0.042,0.729-0.108,1.445-0.199,2.15c-0.092,0.71-0.226,1.401-0.4,2.075c-0.176,0.673-0.393,1.322-0.65,1.95h-0.024l-0.025-64.025
	l0.025-0.025c0.332,0.771,0.624,1.571,0.875,2.4C300.084,238.962,300.309,239.829,300.5,240.725z"/>
<path style="fill-rule:evenodd;clip-rule:evenodd;fill:#6E6E6E;" d="M303.425,241.5c0.184,0.858,0.342,1.742,0.476,2.65
	c0.125,0.905,0.226,1.83,0.3,2.774c0.085,0.941,0.152,1.899,0.2,2.875c0.035,0.98,0.052,1.973,0.05,2.976
	c0.005,0.998-0.004,2.006-0.025,3.024c-0.021,1.023-0.054,2.048-0.1,3.075l-0.15,3.075l-0.2,3.05l-0.449,6l-0.2,2.875l-0.175,2.775
	l-0.125,2.625l-0.051,2.475l0.051,2.05l0.1,2.175l0.1,2.2l0.051,2.226c0.008,0.739-0.009,1.472-0.051,2.199
	c-0.042,0.729-0.108,1.445-0.199,2.15c-0.092,0.71-0.226,1.401-0.4,2.075c-0.176,0.673-0.393,1.323-0.65,1.95h-0.024l-0.025-62.025
	l0.025-0.025c0.322,0.74,0.606,1.507,0.85,2.3C303.041,239.823,303.249,240.647,303.425,241.5z"/>
<path style="fill-rule:evenodd;clip-rule:evenodd;fill:#4F4F4F;" d="M38.95,247.775l-0.025-6.025l0.025-0.025
	c0.14,0.291,0.256,0.566,0.35,0.825l0.225,0.775c0.118,0.488,0.176,0.963,0.175,1.425c0.001,0.462-0.058,0.937-0.175,1.425
	L39.3,246.95l-0.325,0.825H38.95z"/>
<path style="fill-rule:evenodd;clip-rule:evenodd;fill:#6E6E6E;" d="M41.95,247.775l-0.025-6.025l0.025-0.025
	c0.14,0.291,0.256,0.566,0.35,0.825l0.225,0.775c0.118,0.488,0.176,0.963,0.175,1.425c0.001,0.462-0.058,0.937-0.175,1.425
	L42.3,246.95l-0.325,0.825H41.95z"/>
<path style="fill-rule:evenodd;clip-rule:evenodd;fill:#B4B4B4;" d="M37.575,252.55c0.066,0.285,0.116,0.568,0.15,0.851
	c0.033,0.286,0.05,0.569,0.05,0.85c0,0.279-0.017,0.563-0.05,0.85c-0.034,0.282-0.083,0.565-0.15,0.851
	c-0.067,0.284-0.15,0.575-0.25,0.875c-0.101,0.311-0.217,0.627-0.35,0.95H36.95l-0.025-7.025l0.025-0.025
	c0.15,0.33,0.275,0.646,0.375,0.95C37.425,251.975,37.508,252.266,37.575,252.55z"/>
<path style="fill-rule:evenodd;clip-rule:evenodd;fill:#CFCCCC;" d="M40.95,258.775l-0.025-8.025l0.025-0.025
	c0.168,0.359,0.31,0.71,0.425,1.051c0.11,0.338,0.201,0.672,0.275,1c0.068,0.333,0.119,0.667,0.15,1
	c0.035,0.327,0.052,0.652,0.05,0.975c0.001,0.322-0.015,0.647-0.05,0.975c-0.031,0.333-0.082,0.667-0.15,1
	c-0.074,0.329-0.165,0.662-0.275,1c-0.116,0.349-0.249,0.698-0.4,1.051H40.95z"/>
<path style="fill-rule:evenodd;clip-rule:evenodd;fill:#3F3F3F;" d="M37.05,263.275c0.154,0.686,0.295,1.41,0.425,2.175
	c0.121,0.766,0.229,1.566,0.325,2.399c0.104,0.834,0.196,1.692,0.275,2.575c0.071,0.881,0.129,1.781,0.175,2.7
	c0.054,0.923,0.096,1.856,0.125,2.8c0.021,0.938,0.03,1.88,0.025,2.825c0.005,0.945-0.003,1.888-0.025,2.825
	c-0.029,0.944-0.071,1.877-0.125,2.8c-0.045,0.919-0.104,1.819-0.175,2.7c-0.079,0.883-0.171,1.741-0.275,2.575
	c-0.095,0.833-0.204,1.633-0.325,2.399c-0.13,0.764-0.271,1.489-0.425,2.175c-0.153,0.69-0.32,1.332-0.5,1.926
	c-0.179,0.594-0.371,1.136-0.575,1.625H35.95l-0.025-38.025l0.025-0.025c0.221,0.496,0.421,1.038,0.6,1.625
	C36.73,261.943,36.897,262.585,37.05,263.275z"/>
<path style="fill-rule:evenodd;clip-rule:evenodd;fill:#949494;" d="M40.05,264.275c0.154,0.686,0.295,1.41,0.425,2.175
	c0.121,0.766,0.229,1.566,0.325,2.399c0.104,0.834,0.196,1.692,0.275,2.575c0.071,0.881,0.129,1.781,0.175,2.7
	c0.054,0.923,0.096,1.856,0.125,2.8c0.021,0.938,0.03,1.88,0.025,2.825c0.005,0.945-0.003,1.888-0.025,2.825
	c-0.029,0.944-0.071,1.877-0.125,2.8c-0.045,0.919-0.104,1.819-0.175,2.7c-0.079,0.883-0.171,1.741-0.275,2.575
	c-0.095,0.833-0.204,1.633-0.325,2.399c-0.13,0.764-0.271,1.489-0.425,2.175c-0.153,0.69-0.32,1.332-0.5,1.926
	c-0.179,0.594-0.371,1.136-0.575,1.625H38.95l-0.025-38.025l0.025-0.025c0.221,0.496,0.421,1.038,0.6,1.625
	C39.73,262.943,39.897,263.585,40.05,264.275z"/>
<path style="fill-rule:evenodd;clip-rule:evenodd;fill:#CFCCCC;" d="M299.95,319.775l-0.025-18.025l0.025-0.025
	c0.264,0.6,0.488,1.241,0.675,1.926c0.181,0.697,0.331,1.438,0.45,2.225c0.121,0.773,0.213,1.565,0.274,2.375
	c0.064,0.82,0.098,1.653,0.101,2.5c-0.003,0.847-0.036,1.68-0.101,2.5c-0.062,0.81-0.153,1.602-0.274,2.375
	c-0.119,0.786-0.27,1.527-0.45,2.225c-0.187,0.691-0.403,1.333-0.65,1.926H299.95z"/>
<path style="fill-rule:evenodd;clip-rule:evenodd;fill:#3F3F3F;" d="M36.95,314.775l-0.025-12.025l0.025-0.025
	c0.207,0.467,0.382,0.941,0.525,1.426c0.141,0.479,0.257,0.971,0.35,1.475c0.098,0.511,0.173,1.027,0.225,1.55
	c0.049,0.522,0.074,1.048,0.075,1.575c-0.001,0.528-0.026,1.053-0.075,1.575c-0.051,0.523-0.126,1.04-0.225,1.55
	c-0.093,0.504-0.209,0.995-0.35,1.475c-0.144,0.49-0.31,0.966-0.5,1.426H36.95z"/>
<path style="fill-rule:evenodd;clip-rule:evenodd;fill:#4F4F4F;" d="M32.525,318.15l-0.075,1.399l-0.125,1.375l-0.175,1.3
	l-0.2,1.275l-0.275,1.175c-0.1,0.383-0.208,0.75-0.325,1.101c-0.117,0.352-0.242,0.685-0.375,1H30.95l-0.025-20.025l0.025-0.025
	c0.15,0.322,0.284,0.655,0.4,1c0.116,0.351,0.225,0.718,0.325,1.101L31.95,310l0.2,1.275l0.175,1.3l0.125,1.375l0.075,1.399
	l0.025,1.4L32.525,318.15z"/>
<path style="fill-rule:evenodd;clip-rule:evenodd;fill:#6E6E6E;" d="M35.05,320.175c0.049,0.522,0.074,1.048,0.075,1.575
	c-0.001,0.528-0.026,1.053-0.075,1.575c-0.051,0.523-0.126,1.04-0.225,1.55c-0.092,0.504-0.209,0.995-0.35,1.475
	c-0.144,0.49-0.31,0.966-0.5,1.426H33.95l-0.025-12.025l0.025-0.025c0.208,0.467,0.383,0.941,0.525,1.426
	c0.141,0.479,0.258,0.971,0.35,1.475C34.923,319.136,34.999,319.652,35.05,320.175z"/>
<path style="fill-rule:evenodd;clip-rule:evenodd;fill:#3F3F3F;" d="M299.925,331.75l0.025-0.025
	c0.207,0.467,0.382,0.941,0.524,1.426c0.142,0.479,0.258,0.971,0.351,1.475c0.098,0.511,0.173,1.027,0.225,1.55
	c0.049,0.522,0.074,1.048,0.075,1.575c-0.001,0.528-0.026,1.053-0.075,1.575c-0.052,0.523-0.127,1.04-0.225,1.55
	c-0.093,0.504-0.209,0.995-0.351,1.475c-0.143,0.49-0.31,0.966-0.5,1.426L299.925,331.75z M30,344.075l0.1,2.325l0.025,2.35
	L30.1,351.1l-0.1,2.325l-0.175,2.25c-0.064,0.744-0.14,1.47-0.225,2.175c-0.089,0.692-0.189,1.359-0.3,2
	c-0.114,0.647-0.239,1.265-0.375,1.851c-0.138,0.588-0.288,1.138-0.45,1.649c-0.156,0.517-0.323,0.991-0.5,1.426H27.95
	l-0.025-32.025l0.025-0.025c0.194,0.441,0.369,0.916,0.525,1.426c0.162,0.512,0.312,1.062,0.45,1.649
	c0.136,0.586,0.261,1.203,0.375,1.851c0.111,0.64,0.211,1.307,0.3,2c0.085,0.705,0.161,1.43,0.225,2.175L30,344.075z"/>
<path style="fill-rule:evenodd;clip-rule:evenodd;fill:#B4B4B4;" d="M30.9,334.75l0.05-0.025l2.025,28.025l-0.05,0.025
	c-0.327-0.283-0.619-0.608-0.875-0.976c-0.254-0.365-0.479-0.773-0.675-1.225c-0.189-0.449-0.355-0.933-0.5-1.45
	c-0.157-0.527-0.29-1.086-0.4-1.675c-0.102-0.585-0.185-1.193-0.25-1.825c-0.068-0.623-0.118-1.265-0.15-1.925
	c-0.029-0.672-0.045-1.355-0.05-2.05c-0.013-0.693-0.013-1.394,0-2.101l0.075-2.125l0.125-2.125l0.125-2.075l0.15-1.975l0.275-3.625
	l0.1-1.55L30.9,334.75z"/>
<path style="fill-rule:evenodd;clip-rule:evenodd;fill:#B4B4B4;" d="M298.95,351.775l-0.025-7.025l0.025-0.025
	c0.15,0.33,0.275,0.646,0.375,0.95c0.1,0.3,0.184,0.591,0.25,0.875c0.066,0.285,0.116,0.568,0.149,0.851
	c0.034,0.286,0.051,0.57,0.051,0.85c0,0.28-0.017,0.563-0.051,0.85c-0.033,0.282-0.083,0.565-0.149,0.851
	c-0.066,0.283-0.15,0.575-0.25,0.875c-0.101,0.311-0.218,0.627-0.351,0.95H298.95z"/>
<path style="fill-rule:evenodd;clip-rule:evenodd;fill:#FFFFFF;" d="M107.975,367.775l-20.45,32l-11.55,11H75.95l-24.025-13
	c0.325-0.954,0.708-1.88,1.15-2.775c0.434-0.904,0.917-1.788,1.45-2.65c0.529-0.851,1.096-1.692,1.7-2.524
	c0.608-0.841,1.25-1.666,1.925-2.476c0.679-0.804,1.378-1.604,2.1-2.399c0.708-0.793,1.434-1.577,2.175-2.351l2.275-2.324
	l2.275-2.325c0.761-0.769,1.511-1.544,2.25-2.325c0.732-0.782,1.448-1.565,2.15-2.35c0.71-0.788,1.394-1.588,2.05-2.4
	c0.649-0.81,1.266-1.627,1.85-2.45c0.586-0.823,1.127-1.665,1.625-2.524c0.498-0.854,0.947-1.722,1.35-2.601
	c0.805-1.769,1.364-3.619,1.675-5.55l5-0.025c0.019-0.72,0.069-1.386,0.15-2c0.085-0.615,0.202-1.174,0.35-1.675
	c0.298-1.009,0.756-1.826,1.375-2.45c0.624-0.618,1.441-1.077,2.45-1.375c0.5-0.147,1.058-0.265,1.675-0.35
	c0.621-0.082,1.296-0.132,2.025-0.15l5.025,16l9.975,2L107.975,367.775z"/>
<path style="fill-rule:evenodd;clip-rule:evenodd;fill:#3F3F3F;" d="M96.95,356.775l-0.025-6.025l0.025-0.025
	c0.14,0.292,0.256,0.566,0.35,0.825l0.225,0.775c0.118,0.488,0.176,0.963,0.175,1.425c0.001,0.462-0.058,0.937-0.175,1.425
	L97.3,355.95l-0.325,0.825H96.95z"/>
<path style="fill-rule:evenodd;clip-rule:evenodd;fill:#CFCCCC;" d="M139.95,361.775l-0.025-11.025l0.025-0.025
	c0.198,0.438,0.364,0.88,0.5,1.325c0.139,0.451,0.256,0.909,0.35,1.375c0.089,0.462,0.156,0.929,0.2,1.4
	c0.039,0.474,0.056,0.948,0.05,1.425c0.006,0.477-0.011,0.951-0.05,1.425c-0.044,0.472-0.111,0.938-0.2,1.4
	c-0.094,0.466-0.21,0.924-0.35,1.375c-0.137,0.452-0.295,0.894-0.475,1.325H139.95z"/>
<path style="fill-rule:evenodd;clip-rule:evenodd;fill:#6E6E6E;" d="M219.925,350.725c0.392-0.008,0.783,0.001,1.175,0.025
	c0.386,0.034,0.77,0.084,1.15,0.15c0.45,0.08,0.9,0.188,1.35,0.324c0.462,0.132,0.921,0.29,1.375,0.476v0.05H213.95l-0.025-0.025
	c0.473-0.154,0.939-0.287,1.4-0.399c0.459-0.113,0.917-0.213,1.375-0.3c0.465-0.085,0.932-0.151,1.399-0.2
	c0.46-0.052,0.919-0.085,1.375-0.101H219.925z"/>
<path style="fill-rule:evenodd;clip-rule:evenodd;fill:#FFFFFF;" d="M221.175,351.425c0.345,0.017,0.687,0.066,1.025,0.15
	c0.339,0.092,0.672,0.217,1,0.375c0.321,0.152,0.638,0.345,0.95,0.575c0.315,0.229,0.623,0.495,0.925,0.8l2.225,10.399l4.675,16.976
	l4.95-2l0.7,1.399c0.212,0.444,0.429,0.869,0.65,1.275l0.699,1.175l0.676,1.125l1.324,2.101l0.601,1l0.524,1
	c0.167,0.335,0.316,0.677,0.45,1.024c0.134,0.346,0.251,0.696,0.351,1.05c0.104,0.354,0.188,0.722,0.25,1.101
	c0.056,0.382,0.089,0.773,0.1,1.175c0.011,0.399-0.006,0.815-0.05,1.25c-0.047,0.427-0.122,0.868-0.226,1.325
	c-0.101,0.46-0.234,0.943-0.399,1.45c-0.16,0.496-0.352,1.013-0.575,1.55c0.449,0.045,0.865,0.069,1.25,0.075
	c0.373-0.006,0.715-0.031,1.025-0.075c0.315-0.04,0.606-0.107,0.875-0.2c0.275-0.091,0.525-0.207,0.75-0.35
	c0.445-0.295,0.829-0.72,1.149-1.275c0.157-0.275,0.307-0.593,0.45-0.95c0.149-0.361,0.291-0.762,0.425-1.2l0.05-0.024
	c1.58,0.833,2.747,1.824,3.5,2.975c0.761,1.146,1.169,2.354,1.226,3.625c0.048,1.267-0.193,2.5-0.726,3.7
	c-0.539,1.195-1.306,2.263-2.3,3.2c-0.983,0.941-2.134,1.657-3.45,2.149c-0.508,0.188-1.032,0.33-1.574,0.426
	c-0.537,0.097-1.087,0.146-1.65,0.149c-0.353-0.007-0.711-0.031-1.075-0.075c-0.404-0.041-0.805-0.107-1.2-0.199
	c-0.391-0.101-0.773-0.226-1.149-0.375c-0.379-0.146-0.754-0.313-1.125-0.5c-0.374-0.189-0.74-0.397-1.101-0.625
	c-0.362-0.234-0.721-0.484-1.074-0.75c-0.349-0.262-0.69-0.537-1.025-0.825c-0.337-0.281-0.67-0.573-1-0.875
	c-0.331-0.309-0.656-0.625-0.975-0.95l-0.95-1l-0.925-1.025l-0.875-1l-0.875-1.024l-1.65-1.95l-0.775-0.9l-0.75-0.824
	c-0.586-0.609-1.194-1.201-1.824-1.775c-0.624-0.571-1.266-1.121-1.926-1.65c-0.662-0.525-1.338-1.042-2.024-1.55
	c-0.693-0.521-1.394-1.028-2.101-1.524l-4.199-2.9c-0.701-0.483-1.394-0.975-2.075-1.475c-0.673-0.503-1.331-1.012-1.976-1.525
	c-0.653-0.516-1.287-1.049-1.899-1.6c-0.608-0.544-1.191-1.103-1.75-1.676c-0.557-0.572-1.082-1.172-1.575-1.8
	c-0.493-0.627-0.952-1.277-1.375-1.95c-0.427-0.681-0.81-1.397-1.15-2.149c-0.337-0.744-0.629-1.52-0.875-2.325
	c-0.246-0.813-0.438-1.672-0.574-2.575c-0.132-0.895-0.206-1.827-0.226-2.8l0.025-0.05h3.975c0.14-0.466,0.34-0.99,0.601-1.575
	l0.425-0.925l0.524-1l0.601-1.05l0.649-1.075l0.726-1.101l0.8-1.125l0.85-1.1l0.875-1.075c0.311-0.358,0.627-0.708,0.95-1.05
	c0.312-0.335,0.629-0.66,0.95-0.975c0.328-0.321,0.662-0.63,1-0.926c0.339-0.289,0.681-0.564,1.025-0.824
	c0.338-0.269,0.68-0.519,1.024-0.75c0.35-0.229,0.699-0.437,1.05-0.625c0.349-0.19,0.699-0.357,1.051-0.5
	c0.359-0.149,0.718-0.274,1.074-0.375c0.589-0.156,1.173-0.231,1.75-0.226H221.175z"/>
<path style="fill-rule:evenodd;clip-rule:evenodd;fill:#949494;" d="M93.95,358.775l-0.025-6.025l0.025-0.025
	c0.14,0.292,0.256,0.566,0.35,0.825l0.225,0.775c0.118,0.488,0.176,0.963,0.175,1.425c0.001,0.462-0.058,0.937-0.175,1.425
	L94.3,357.95l-0.325,0.825H93.95z"/>
<path style="fill-rule:evenodd;clip-rule:evenodd;fill:#3F3F3F;" d="M175.725,356.4c0.033,0.286,0.05,0.57,0.051,0.85
	c-0.001,0.28-0.018,0.563-0.051,0.85c-0.033,0.282-0.083,0.565-0.149,0.851c-0.067,0.283-0.15,0.575-0.25,0.875
	c-0.101,0.311-0.218,0.627-0.351,0.95h-0.024l-0.025-7.025l0.025-0.025c0.15,0.33,0.275,0.646,0.375,0.95
	c0.1,0.3,0.183,0.591,0.25,0.875C175.642,355.835,175.691,356.118,175.725,356.4z"/>
<path style="fill-rule:evenodd;clip-rule:evenodd;fill:#949494;" d="M171.95,363.775l-0.025-8.025l0.025-0.025
	c0.168,0.359,0.311,0.71,0.425,1.051c0.109,0.338,0.201,0.672,0.275,1c0.068,0.333,0.118,0.667,0.149,1
	c0.035,0.327,0.052,0.652,0.05,0.975c0.002,0.322-0.015,0.647-0.05,0.975c-0.031,0.333-0.081,0.667-0.149,1
	c-0.074,0.329-0.166,0.662-0.275,1c-0.116,0.349-0.249,0.698-0.4,1.051H171.95z"/>
<path style="fill-rule:evenodd;clip-rule:evenodd;fill:#CFCCCC;" d="M226.95,366.775l-0.025-11.025l0.025-0.025
	c0.197,0.438,0.364,0.88,0.5,1.325c0.14,0.451,0.256,0.909,0.35,1.375c0.089,0.462,0.155,0.929,0.2,1.4
	c0.039,0.474,0.056,0.948,0.05,1.425c0.006,0.477-0.011,0.951-0.05,1.425c-0.045,0.472-0.111,0.938-0.2,1.4
	c-0.094,0.466-0.21,0.924-0.35,1.375c-0.137,0.452-0.295,0.894-0.476,1.325H226.95z"/>
<path style="fill-rule:evenodd;clip-rule:evenodd;fill:#949494;" d="M268.725,358.4c0.033,0.286,0.05,0.57,0.051,0.85
	c-0.001,0.28-0.018,0.563-0.051,0.85c-0.033,0.282-0.083,0.565-0.149,0.851c-0.067,0.283-0.15,0.575-0.25,0.875
	c-0.101,0.311-0.218,0.627-0.351,0.95h-0.024l-0.025-7.025l0.025-0.025c0.15,0.33,0.275,0.646,0.375,0.95
	c0.1,0.3,0.183,0.591,0.25,0.875C268.642,357.835,268.691,358.118,268.725,358.4z"/>
<path style="fill-rule:evenodd;clip-rule:evenodd;fill:#3F3F3F;" d="M264.95,364.775l-0.025-8.025l0.025-0.025
	c0.168,0.359,0.311,0.71,0.425,1.051c0.109,0.338,0.201,0.672,0.275,1c0.068,0.333,0.118,0.667,0.149,1
	c0.035,0.327,0.052,0.652,0.05,0.975c0.002,0.322-0.015,0.647-0.05,0.975c-0.031,0.333-0.081,0.667-0.149,1
	c-0.074,0.329-0.166,0.662-0.275,1c-0.116,0.349-0.249,0.698-0.4,1.051H264.95z"/>
<polygon style="fill-rule:evenodd;clip-rule:evenodd;fill:#3F3F3F;" points="48.975,364.775 48.925,361.75 48.975,361.725 
	50.975,363.725 50.975,363.775 "/>
<path style="fill-rule:evenodd;clip-rule:evenodd;fill:#CFCCCC;" d="M80.95,368.775l-0.025-6.025l0.025-0.025
	c0.14,0.292,0.256,0.566,0.35,0.825l0.225,0.775c0.118,0.488,0.176,0.963,0.175,1.425c0.001,0.462-0.058,0.937-0.175,1.425
	L81.3,367.95l-0.325,0.825H80.95z"/>
<path style="fill-rule:evenodd;clip-rule:evenodd;fill:#949494;" d="M63.65,363.35c0.689,0.005,1.372,0.029,2.05,0.075
	c0.685,0.038,1.36,0.096,2.025,0.175c0.754,0.098,1.488,0.239,2.2,0.426c0.709,0.182,1.393,0.406,2.05,0.675v0.05l-2.2,0.05
	L67.5,364.9l-2.35,0.125l-2.35,0.05h-0.55c-0.688,0.004-1.372-0.013-2.05-0.05c-0.685-0.038-1.36-0.097-2.025-0.176
	c-0.754-0.097-1.488-0.238-2.2-0.425c-0.709-0.182-1.393-0.407-2.05-0.675v-0.05l2.2-0.05l2.275-0.125l2.35-0.101l2.35-0.05
	L63.65,363.35z"/>
<path style="fill-rule:evenodd;clip-rule:evenodd;fill:#3F3F3F;" d="M115.8,368.775c0.035,0.327,0.052,0.652,0.05,0.975
	c0.001,0.322-0.015,0.647-0.05,0.975c-0.032,0.333-0.082,0.667-0.15,1c-0.073,0.329-0.165,0.662-0.275,1
	c-0.115,0.349-0.249,0.698-0.4,1.051h-0.025l-0.025-8.025l0.025-0.025c0.169,0.359,0.311,0.71,0.425,1.051
	c0.11,0.338,0.202,0.672,0.275,1C115.718,368.108,115.768,368.442,115.8,368.775z"/>
<path style="fill-rule:evenodd;clip-rule:evenodd;fill:#3F3F3F;" d="M149.95,366.775c-0.457,0.138-0.915,0.263-1.375,0.375
	c-0.46,0.113-0.918,0.213-1.375,0.3c-0.465,0.084-0.932,0.15-1.4,0.2c-0.46,0.051-0.918,0.084-1.375,0.1l-0.45,0.025
	c-0.392-0.001-0.783-0.018-1.175-0.051c-0.385-0.033-0.769-0.083-1.15-0.149c-0.45-0.081-0.9-0.189-1.35-0.325
	c-0.462-0.132-0.92-0.29-1.375-0.475v-0.051l10.025-1l1.025,1L149.95,366.775z"/>
<path style="fill-rule:evenodd;clip-rule:evenodd;fill:#3F3F3F;" d="M61.5,366.225l1.3,0.025l1.25,0.075
	c0.409,0.036,0.809,0.086,1.2,0.149c0.396,0.07,0.779,0.154,1.15,0.25c0.365,0.092,0.715,0.2,1.05,0.325
	c0.342,0.126,0.667,0.268,0.975,0.425c0.296,0.162,0.571,0.346,0.825,0.551c0.264,0.204,0.506,0.43,0.725,0.675l-0.025,0.05l-18-2
	l-0.025-0.05l1-0.05L54,366.6l2.35-0.149l2.55-0.175l1.3-0.051H61.5z"/>
<rect x="81.95" y="366.75" style="fill-rule:evenodd;clip-rule:evenodd;fill:#060606;" width="9" height="2"/>
<rect x="213.95" y="366.75" style="fill-rule:evenodd;clip-rule:evenodd;fill:#060606;" width="8" height="2"/>
<path style="fill-rule:evenodd;clip-rule:evenodd;fill:#3F3F3F;" d="M230.95,376.775l-0.025-8.025l0.025-0.025
	c0.168,0.359,0.311,0.71,0.425,1.051c0.109,0.338,0.201,0.672,0.275,1c0.068,0.333,0.118,0.667,0.149,1
	c0.035,0.327,0.052,0.652,0.05,0.975c0.002,0.322-0.015,0.647-0.05,0.975c-0.031,0.333-0.081,0.667-0.149,1
	c-0.074,0.329-0.166,0.662-0.275,1c-0.116,0.349-0.249,0.698-0.4,1.051H230.95z"/>
<path style="fill-rule:evenodd;clip-rule:evenodd;fill:#060606;" d="M76.95,381.775l-0.025-2.025l12-5.025l0.05,0.051
	c-0.316,0.599-0.658,1.157-1.025,1.675c-0.369,0.52-0.761,0.994-1.175,1.425c-0.409,0.437-0.842,0.837-1.3,1.2
	c-0.462,0.356-0.946,0.673-1.45,0.95c-0.501,0.283-1.026,0.533-1.575,0.75c-0.555,0.21-1.13,0.385-1.725,0.524
	c-0.586,0.139-1.195,0.247-1.825,0.325C78.268,381.706,77.618,381.756,76.95,381.775z"/>
<polygon style="fill-rule:evenodd;clip-rule:evenodd;fill:#060606;" points="215.95,381.775 209.95,379.775 210.925,375.75 
	210.975,375.725 215.975,377.725 215.975,381.75 "/>
<path style="fill-rule:evenodd;clip-rule:evenodd;fill:#CFCCCC;" d="M235.95,380.775L235,380.7l-0.75-0.101
	c-0.458-0.075-0.833-0.209-1.125-0.399c-0.296-0.184-0.537-0.467-0.725-0.851c-0.089-0.196-0.172-0.43-0.25-0.699
	c-0.081-0.266-0.156-0.565-0.226-0.9l0.05-0.025l4,3L235.95,380.775z"/>
<path style="fill-rule:evenodd;clip-rule:evenodd;fill:#060606;" d="M230.95,386.825c0.206,0.441,0.397,0.908,0.575,1.399
	c0.165,0.487,0.315,0.996,0.449,1.525l-0.024,0.025h-4l-3.025-9.025l0.05-0.025c0.485,0.255,0.944,0.521,1.375,0.801
	c0.43,0.281,0.83,0.572,1.2,0.875c0.381,0.3,0.739,0.616,1.075,0.949c0.325,0.337,0.625,0.687,0.9,1.051
	c0.276,0.362,0.535,0.746,0.774,1.149C230.537,385.957,230.754,386.383,230.95,386.825z"/>
<path style="fill-rule:evenodd;clip-rule:evenodd;fill:#CFCCCC;" d="M65.95,392.775l-0.025-7.025l0.025-0.025
	c0.15,0.33,0.275,0.646,0.375,0.95c0.1,0.3,0.183,0.591,0.25,0.875c0.066,0.285,0.116,0.568,0.15,0.851
	c0.033,0.286,0.05,0.57,0.05,0.85c0,0.28-0.017,0.563-0.05,0.85c-0.034,0.282-0.083,0.565-0.15,0.851
	c-0.067,0.283-0.15,0.575-0.25,0.875c-0.101,0.311-0.217,0.627-0.35,0.95H65.95z"/>
<path style="fill-rule:evenodd;clip-rule:evenodd;fill:#060606;" d="M72.95,395.775c-0.656-0.222-1.248-0.464-1.775-0.726
	c-0.531-0.272-0.997-0.564-1.4-0.875c-0.8-0.619-1.383-1.336-1.75-2.149c-0.188-0.404-0.329-0.837-0.425-1.301
	c-0.088-0.465-0.13-0.956-0.125-1.475c-0.004-0.516,0.029-1.065,0.1-1.65c0.079-0.586,0.196-1.203,0.35-1.85l2.025-0.025L73,395.75
	L72.95,395.775z"/>
<path style="fill-rule:evenodd;clip-rule:evenodd;fill:#060606;" d="M82.575,390.8c-0.216-0.006-0.441-0.039-0.675-0.1
	c-0.287-0.064-0.596-0.173-0.925-0.325c-0.331-0.156-0.681-0.356-1.05-0.6l0.025-0.051l6-2l0.025,0.025
	c-0.201,0.38-0.401,0.722-0.6,1.025c-0.201,0.308-0.4,0.583-0.6,0.824c-0.413,0.487-0.855,0.829-1.325,1.025
	C83.178,390.74,82.886,390.798,82.575,390.8z"/>
<path style="fill-rule:evenodd;clip-rule:evenodd;fill:#3F3F3F;" d="M243.95,394.775l-0.025-7.025l0.025-0.025
	c0.15,0.33,0.275,0.646,0.375,0.95c0.1,0.3,0.184,0.591,0.25,0.875c0.066,0.285,0.116,0.568,0.149,0.851
	c0.034,0.286,0.051,0.57,0.051,0.85c0,0.28-0.017,0.563-0.051,0.85c-0.033,0.282-0.083,0.565-0.149,0.851
	c-0.066,0.283-0.15,0.575-0.25,0.875c-0.101,0.311-0.218,0.627-0.351,0.95H243.95z"/>
<path style="fill-rule:evenodd;clip-rule:evenodd;fill:#AE303B;" d="M46.125,399c0.405-0.443,0.838-0.752,1.3-0.925
	c0.287-0.104,0.595-0.153,0.925-0.15c0.208-0.003,0.425,0.014,0.65,0.05c0.286,0.049,0.595,0.133,0.925,0.25
	c0.33,0.125,0.68,0.283,1.05,0.476l-0.025,0.05l-6,2C45.328,400.017,45.72,399.433,46.125,399z"/>
<path style="fill-rule:evenodd;clip-rule:evenodd;fill:#AE303B;" d="M256.95,400.75l-0.025-0.05c0.337-0.5,0.637-0.892,0.9-1.175
	c0.271-0.277,0.545-0.452,0.825-0.525c0.11-0.022,0.227-0.03,0.35-0.025c0.192-0.003,0.4,0.03,0.625,0.101
	c0.366,0.113,0.816,0.312,1.35,0.6l-0.024,0.075L256.95,400.75z"/>
<path style="fill-rule:evenodd;clip-rule:evenodd;fill:#ED1B30;" d="M78.675,410.675h0.275l0.05,0.05l-0.15,2.95l-0.125,3.125
	c-0.037,1.072-0.053,2.155-0.05,3.25c0.005,1.097,0.03,2.196,0.075,3.3c0.037,1.104,0.112,2.195,0.225,3.275
	c0.121,1.077,0.279,2.136,0.475,3.175c0.385,2.083,0.993,4.017,1.825,5.8c0.256,0.531,0.539,1.056,0.85,1.575
	c0.308,0.518,0.641,1.026,1,1.525c0.368,0.493,0.751,0.985,1.15,1.475c0.396,0.497,0.804,0.989,1.225,1.476l2.55,2.925
	c0.426,0.486,0.843,0.978,1.25,1.475c0.412,0.49,0.812,0.981,1.2,1.476c0.389,0.507,0.755,1.023,1.1,1.55
	c0.341,0.519,0.657,1.044,0.95,1.575c0.293,0.527,0.552,1.069,0.775,1.625c0.22,0.558,0.403,1.124,0.55,1.699
	c0.156,0.575,0.265,1.167,0.325,1.775c0.056,0.612,0.064,1.237,0.025,1.875c-0.039,0.637-0.139,1.296-0.3,1.975
	c-0.165,0.684-0.39,1.384-0.675,2.101c-0.217,0.521-0.467,1.005-0.75,1.45c-0.285,0.457-0.602,0.874-0.95,1.25
	c-0.34,0.365-0.707,0.698-1.1,1c-0.401,0.309-0.827,0.584-1.275,0.824c-0.447,0.242-0.914,0.459-1.4,0.65
	c-0.484,0.186-0.984,0.344-1.5,0.475c-0.521,0.137-1.054,0.254-1.6,0.351c-0.541,0.095-1.091,0.17-1.65,0.225
	c-0.569,0.055-1.144,0.097-1.725,0.125c-0.573,0.021-1.148,0.03-1.725,0.025h-0.1L77.8,468.05L76.15,468l-3.275-0.15l-1.5-0.074
	l-1.425-0.025c-0.895-0.003-1.836-0.036-2.825-0.1c-0.993-0.062-2.026-0.153-3.1-0.275c-1.079-0.123-2.179-0.281-3.3-0.475
	c-1.112-0.19-2.237-0.416-3.375-0.676c-1.147-0.268-2.289-0.576-3.425-0.925c-1.13-0.337-2.247-0.712-3.35-1.125
	c-1.107-0.423-2.183-0.889-3.225-1.399c-1.04-0.51-2.04-1.06-3-1.65c-1.92-1.18-3.586-2.546-5-4.1
	c-1.419-1.563-2.478-3.33-3.175-5.301c-0.538-1.655-0.821-3.414-0.85-5.274c-0.017-0.921,0-1.854,0.05-2.8
	c0.058-0.952,0.15-1.911,0.275-2.875L36,437.9l0.4-2.825c0.134-0.937,0.243-1.854,0.325-2.75c0.085-0.893,0.143-1.759,0.175-2.601
	l0.075-2l0.15-1.85l0.175-1.725l0.25-1.625c0.09-0.528,0.19-1.045,0.3-1.551c0.107-0.496,0.224-0.979,0.35-1.449l0.425-1.426
	c0.149-0.459,0.307-0.909,0.475-1.35l0.525-1.35l0.6-1.325l0.675-1.3l0.725-1.351l0.775-1.35l0.875-1.4l0.9-1.475l1-1.525
	c0.193-0.32,0.352-0.646,0.475-0.975c0.127-0.323,0.219-0.648,0.275-0.976l0.3-1.949c0.056-0.309,0.147-0.6,0.275-0.875
	c0.124-0.276,0.282-0.535,0.475-0.775c0.4-0.485,1.084-0.86,2.05-1.125c0.513-0.132,1.021-0.232,1.525-0.3
	c0.5-0.066,0.991-0.1,1.475-0.101c0.378,0.007,0.753,0.032,1.125,0.075c0.664,0.062,1.322,0.171,1.975,0.325
	c0.644,0.163,1.277,0.372,1.9,0.625c0.628,0.253,1.253,0.536,1.875,0.85c0.625,0.313,1.242,0.655,1.85,1.025
	c0.601,0.359,1.2,0.734,1.8,1.125c0.605,0.396,1.205,0.805,1.8,1.225l3.575,2.5c0.588,0.409,1.18,0.801,1.775,1.176
	c0.6,0.37,1.2,0.72,1.8,1.05c0.593,0.334,1.193,0.635,1.8,0.899c0.614,0.262,1.23,0.486,1.85,0.676
	c0.575,0.177,1.159,0.31,1.75,0.399C77.487,410.637,78.079,410.678,78.675,410.675z"/>
<path style="fill-rule:evenodd;clip-rule:evenodd;fill:#3F3F3F;" d="M90.9,400.9c-0.267-0.006-0.584-0.048-0.95-0.125l-0.025-0.051
	l2-2l0.05,0.025c0.1,0.463,0.142,0.846,0.125,1.15c-0.033,0.307-0.133,0.54-0.3,0.699c-0.16,0.168-0.393,0.268-0.7,0.301H90.9z"/>
<path style="fill-rule:evenodd;clip-rule:evenodd;fill:#ED1B30;" d="M257.8,401.725c0.331,0.004,0.673,0.046,1.025,0.125
	c0.35,0.088,0.708,0.213,1.075,0.375c0.373,0.156,0.765,0.356,1.175,0.601c0.409,0.249,0.834,0.541,1.274,0.875
	c0.433,0.332,0.891,0.716,1.375,1.149c0.494,0.436,1.011,0.919,1.551,1.45l4.675,5.4l8.975-5.125c2.975-0.963,5.541-1.446,7.7-1.45
	h0.325c2.229,0.054,4.054,0.537,5.475,1.45c1.414,0.912,2.464,2.154,3.15,3.725c0.679,1.58,1.037,3.389,1.075,5.425
	c0.044,2.029-0.189,4.188-0.7,6.476c-0.257,1.146-0.573,2.305-0.95,3.475c-0.376,1.163-0.81,2.33-1.3,3.5
	c-0.5,1.172-1.05,2.33-1.65,3.476c-0.587,1.146-1.221,2.271-1.899,3.375c-1.383,2.21-2.916,4.252-4.601,6.125
	c-1.675,1.867-3.458,3.468-5.35,4.8c-1.9,1.334-3.867,2.301-5.9,2.899c-0.645,0.188-1.295,0.33-1.95,0.426
	c-0.649,0.098-1.299,0.147-1.949,0.149c-0.382-0.001-0.765-0.018-1.15-0.05c-0.376-0.035-0.751-0.085-1.125-0.15
	c-2.086-0.341-4.152-1.249-6.2-2.725l-7.325-10.55l-7.675-10.175c-0.344-0.049-0.702-0.14-1.075-0.275
	c-0.371-0.132-0.755-0.308-1.149-0.525c-0.391-0.217-0.782-0.467-1.175-0.75c-0.401-0.286-0.802-0.603-1.2-0.949
	c-0.395-0.346-0.778-0.713-1.15-1.101c-0.373-0.39-0.73-0.799-1.075-1.225c-0.342-0.433-0.658-0.875-0.949-1.325
	c-0.295-0.443-0.562-0.894-0.801-1.35c-0.238-0.462-0.438-0.92-0.6-1.375c-0.156-0.448-0.272-0.89-0.35-1.325
	c-0.078-0.448-0.103-0.881-0.075-1.3c0.022-0.409,0.097-0.802,0.225-1.176l8.351-5.3l1.675-1.149l1.5-1.075l2.575-1.95l1.125-0.85
	l1.074-0.726c0.337-0.217,0.671-0.408,1-0.575c0.332-0.167,0.656-0.309,0.976-0.425c0.305-0.11,0.612-0.193,0.925-0.25
	c0.299-0.053,0.599-0.077,0.9-0.075H257.8z"/>
<path style="fill-rule:evenodd;clip-rule:evenodd;fill:#060606;" d="M268.95,407.775c-0.43-0.163-0.839-0.329-1.226-0.5
	c-0.389-0.172-0.756-0.347-1.1-0.525c-0.34-0.188-0.665-0.388-0.975-0.6c-0.31-0.206-0.601-0.423-0.875-0.65
	c-0.554-0.458-1.062-0.991-1.525-1.6c-0.239-0.299-0.472-0.623-0.7-0.976c-0.215-0.358-0.423-0.742-0.625-1.149l0.025-0.051l7.024,6
	L268.95,407.775z"/>
<path style="fill-rule:evenodd;clip-rule:evenodd;fill:#AE303B;" d="M41.95,407.775l-0.025-0.025c0.359-0.626,0.692-1.135,1-1.525
	c0.304-0.388,0.628-0.688,0.975-0.899c0.35-0.211,0.766-0.361,1.25-0.45l0.825-0.1l0.975-0.051l0.025,0.025l-5,3.025H41.95z"/>
<polygon style="fill-rule:evenodd;clip-rule:evenodd;fill:#DD5B63;" points="257.975,403.725 258.975,405.725 258.95,405.775 
	256.95,405.775 256.925,405.725 257.925,403.725 "/>
<path style="fill-rule:evenodd;clip-rule:evenodd;fill:#FDB0B5;" d="M247.55,406.675c0.191-0.257,0.392-0.423,0.601-0.5
	c0.091-0.033,0.19-0.05,0.3-0.05c0.129,0,0.271,0.024,0.425,0.075c0.289,0.092,0.655,0.259,1.1,0.5l-0.024,0.05l-3,1
	C247.163,407.28,247.363,406.922,247.55,406.675z"/>
<path style="fill-rule:evenodd;clip-rule:evenodd;fill:#AE303B;" d="M298.95,406.725l0.024,0.025l0.025,2.7l-0.05,1.3
	c-0.021,0.433-0.055,0.857-0.101,1.275c-0.051,0.41-0.126,0.819-0.225,1.225c-0.093,0.406-0.21,0.806-0.35,1.2
	c-0.147,0.394-0.331,0.785-0.551,1.175c-0.216,0.389-0.466,0.771-0.75,1.15l0.075-1.4l0.101-1.275
	c0.021-0.412,0.028-0.82,0.024-1.225c-0.004-0.407-0.021-0.808-0.05-1.2c-0.033-0.388-0.083-0.779-0.15-1.175
	c-0.058-0.398-0.133-0.799-0.225-1.2c-0.096-0.404-0.213-0.821-0.35-1.25c-0.139-0.416-0.297-0.841-0.476-1.274l0.025-0.051H298.95z
	"/>
<path style="fill-rule:evenodd;clip-rule:evenodd;fill:#AE303B;" d="M78.95,415.775l-2.025-5l1-3.025l0.05-0.025
	c0.25,0.327,0.476,0.652,0.675,0.976c0.194,0.329,0.36,0.654,0.5,0.975c0.143,0.314,0.259,0.631,0.35,0.95
	c0.093,0.316,0.159,0.634,0.2,0.95c0.042,0.326,0.058,0.66,0.05,1c-0.008,0.329-0.042,0.662-0.1,1
	c-0.059,0.347-0.142,0.705-0.25,1.075c-0.118,0.365-0.259,0.74-0.425,1.125H78.95z"/>
<path style="fill-rule:evenodd;clip-rule:evenodd;fill:#EE747E;" d="M37.95,415.775l-0.025-0.025l1-6l0.025-0.025
	c0.145,0.331,0.262,0.64,0.35,0.926c0.079,0.284,0.138,0.551,0.175,0.8c0.083,0.514,0.083,0.996,0,1.45
	c-0.084,0.452-0.251,0.911-0.5,1.375c-0.251,0.459-0.584,0.959-1,1.5H37.95z"/>
<path style="fill-rule:evenodd;clip-rule:evenodd;fill:#61060B;" d="M238.175,411.475c-0.179,0.004-0.37-0.013-0.575-0.05
	c-0.278-0.056-0.562-0.139-0.85-0.25c-0.29-0.116-0.565-0.249-0.825-0.399l0.025-0.051l3-1c0.183,0.394,0.266,0.71,0.25,0.95
	c-0.017,0.254-0.101,0.445-0.25,0.575c-0.147,0.125-0.34,0.2-0.575,0.225H238.175z"/>
<polygon style="fill-rule:evenodd;clip-rule:evenodd;fill:#AE303B;" points="235.95,416.775 235.925,411.75 235.95,411.725 
	238.95,412.725 238.975,412.775 235.975,416.775 "/>
<path style="fill-rule:evenodd;clip-rule:evenodd;fill:#FDB0B5;" d="M78.725,418.4c0.033,0.286,0.05,0.57,0.05,0.85
	c0,0.28-0.017,0.563-0.05,0.85c-0.034,0.282-0.083,0.565-0.15,0.851c-0.067,0.283-0.15,0.575-0.25,0.875
	c-0.101,0.311-0.217,0.627-0.35,0.95H77.95l-0.025-7.025l0.025-0.025c0.15,0.33,0.275,0.646,0.375,0.95
	c0.1,0.3,0.183,0.591,0.25,0.875C78.642,417.835,78.691,418.118,78.725,418.4z"/>
<path style="fill-rule:evenodd;clip-rule:evenodd;fill:#DD5B63;" d="M35.95,433.775l-0.025-12.025l0.025-0.025
	c0.207,0.467,0.382,0.941,0.525,1.426c0.141,0.479,0.257,0.971,0.35,1.475c0.098,0.511,0.173,1.027,0.225,1.55
	c0.049,0.522,0.074,1.048,0.075,1.575c-0.001,0.528-0.026,1.053-0.075,1.575c-0.051,0.523-0.126,1.04-0.225,1.55
	c-0.093,0.504-0.209,0.995-0.35,1.475c-0.144,0.49-0.31,0.966-0.5,1.426H35.95z"/>
<path style="fill-rule:evenodd;clip-rule:evenodd;fill:#DD5B63;" d="M76.1,425.625c0.149,0.342,0.283,0.691,0.4,1.05
	c0.117,0.36,0.217,0.728,0.3,1.101c0.082,0.369,0.149,0.744,0.2,1.125c0.057,0.38,0.099,0.764,0.125,1.149
	c0.014,0.391,0.014,0.782,0,1.175c-0.002,0.385-0.019,0.769-0.05,1.15c-0.036,0.387-0.086,0.77-0.15,1.15
	c-0.07,0.38-0.153,0.755-0.25,1.125c-0.087,0.364-0.188,0.723-0.3,1.074c-0.121,0.359-0.254,0.709-0.4,1.051H75.95l-1.025-13.025
	l0.05-0.025c0.225,0.297,0.434,0.604,0.625,0.926C75.785,424.965,75.952,425.29,76.1,425.625z"/>
<path style="fill-rule:evenodd;clip-rule:evenodd;fill:#AE303B;" d="M250.85,431.95c0.517,0.558,1.017,1.116,1.5,1.675
	c0.479,0.559,0.938,1.142,1.375,1.75c0.44,0.612,0.856,1.246,1.25,1.9c0.396,0.653,0.762,1.354,1.101,2.1
	c0.33,0.751,0.631,1.542,0.899,2.375l-0.024,0.025c-0.431-0.299-0.856-0.607-1.275-0.926l-1.225-1
	c-0.414-0.339-0.822-0.688-1.226-1.05c-0.4-0.367-0.792-0.742-1.175-1.125c-0.377-0.381-0.744-0.772-1.1-1.175
	c-0.363-0.399-0.714-0.809-1.05-1.225c-0.332-0.423-0.649-0.856-0.95-1.301c-0.31-0.434-0.602-0.875-0.875-1.324
	c-0.262-0.457-0.504-0.924-0.726-1.4c-0.23-0.476-0.438-0.959-0.625-1.45c-0.184-0.489-0.342-0.989-0.475-1.5
	c-0.135-0.51-0.243-1.026-0.325-1.55l0.025-0.025l1.7,1.825l1.625,1.726C249.812,430.83,250.338,431.388,250.85,431.95z"/>
<path style="fill-rule:evenodd;clip-rule:evenodd;fill:#AE303B;" d="M36.325,444.025c-0.087,0.717-0.196,1.417-0.325,2.1
	c-0.128,0.689-0.278,1.34-0.45,1.95c-0.17,0.61-0.362,1.177-0.575,1.7l0.95-16.025h0.05c0.129,0.543,0.237,1.126,0.325,1.75
	c0.087,0.622,0.154,1.28,0.2,1.975c0.046,0.702,0.071,1.419,0.075,2.15c0.004,0.724-0.012,1.457-0.05,2.2
	C36.48,442.57,36.413,443.304,36.325,444.025z"/>
<path style="fill-rule:evenodd;clip-rule:evenodd;fill:#F7959B;" d="M33.95,449.775l-0.025-15.025l0.025-0.025
	c0.236,0.534,0.436,1.092,0.6,1.676c0.17,0.588,0.312,1.204,0.425,1.85c0.102,0.646,0.177,1.305,0.225,1.975
	c0.061,0.668,0.094,1.343,0.1,2.025c-0.006,0.683-0.039,1.357-0.1,2.025c-0.048,0.671-0.123,1.329-0.225,1.975
	c-0.114,0.645-0.255,1.261-0.425,1.85c-0.165,0.591-0.356,1.149-0.575,1.676H33.95z"/>
<path style="fill-rule:evenodd;clip-rule:evenodd;fill:#DD5B63;" d="M89.7,449.75c0.279,0.496,0.529,0.996,0.75,1.5
	c0.222,0.499,0.414,0.999,0.575,1.5c0.163,0.507,0.288,1.016,0.375,1.525c0.081,0.502,0.122,1.002,0.125,1.5
	c0.006,0.502-0.036,1.002-0.125,1.5c-0.095,0.497-0.236,0.988-0.425,1.475l-0.025,0.025l-10.025-18
	c-0.574-0.109-1.032-0.218-1.375-0.325c-0.354-0.119-0.629-0.277-0.825-0.476c-0.199-0.195-0.357-0.471-0.475-0.824
	c-0.108-0.35-0.216-0.815-0.325-1.4l0.05-0.025l1.125,0.825l1.2,0.925l1.275,1.025l1.3,1.125c0.428,0.387,0.853,0.786,1.275,1.2
	c0.431,0.414,0.856,0.839,1.275,1.274c0.412,0.44,0.812,0.89,1.2,1.351c0.397,0.451,0.781,0.909,1.15,1.375
	c0.361,0.476,0.703,0.959,1.025,1.45C89.123,448.763,89.422,449.254,89.7,449.75z M83.925,440.775l-2-3l0.025-0.051
	c0.566,0.108,1.041,0.225,1.425,0.351c0.393,0.136,0.685,0.311,0.875,0.524c0.18,0.216,0.247,0.5,0.2,0.851
	c-0.039,0.347-0.197,0.789-0.475,1.325H83.925z"/>
<polygon style="fill-rule:evenodd;clip-rule:evenodd;fill:#EE747E;" points="85.95,442.775 85.925,442.75 85.925,440.75 
	85.975,440.725 87.975,442.725 87.95,442.775 "/>
<path style="fill-rule:evenodd;clip-rule:evenodd;fill:#EE747E;" d="M93.95,460.775l-0.025-8.025l0.025-0.025
	c0.168,0.359,0.31,0.71,0.425,1.051c0.11,0.338,0.201,0.672,0.275,1c0.068,0.333,0.119,0.667,0.15,1
	c0.035,0.327,0.052,0.652,0.05,0.975c0.001,0.322-0.015,0.647-0.05,0.975c-0.031,0.333-0.082,0.667-0.15,1
	c-0.074,0.329-0.165,0.662-0.275,1c-0.116,0.349-0.249,0.698-0.4,1.051H93.95z"/>
<path style="fill-rule:evenodd;clip-rule:evenodd;fill:#FDB0B5;" d="M79.425,466.95c0.866,0.005,1.724,0.03,2.575,0.075
	c0.854,0.038,1.696,0.097,2.525,0.175c2.361,0.222,4.511,0.722,6.45,1.5v0.05c-1.064,0.027-2.164,0.069-3.3,0.125
	c-1.136,0.047-2.311,0.114-3.525,0.2l-3.675,0.225l-3.775,0.175l-1.125,0.051h-1.1c-0.866,0.003-1.724-0.014-2.575-0.051
	c-0.854-0.039-1.696-0.097-2.525-0.175c-2.361-0.23-4.511-0.738-6.45-1.524v-0.051c1.063-0.019,2.164-0.053,3.3-0.1
	c1.136-0.056,2.311-0.131,3.525-0.225l3.675-0.226L77.2,467l1.125-0.025L79.425,466.95z"/>
</svg>
