<?xml version="1.0" encoding="iso-8859-1"?>
<!-- Generator: Adobe Illustrator 15.1.0, SVG Export Plug-In . SVG Version: 6.00 Build 0)  -->
<!DOCTYPE svg PUBLIC "-//W3C//DTD SVG 1.1//EN" "http://www.w3.org/Graphics/SVG/1.1/DTD/svg11.dtd">
<svg version="1.1" id="Layer_1" xmlns="http://www.w3.org/2000/svg" xmlns:xlink="http://www.w3.org/1999/xlink" x="0px" y="0px"
	 width="352px" height="405px" viewBox="0 0 352 405" style="enable-background:new 0 0 352 405;" xml:space="preserve">
<path style="fill-rule:evenodd;clip-rule:evenodd;fill:#006600;" d="M173.525,214.425c-1.433,1.18-2.924,2.438-4.475,3.775
	c-10.367,9.434-15.683,14.233-15.95,14.399c-0.133,0.101-0.283,0.217-0.45,0.351c-3.5,2.866-5.816,6.767-6.95,11.7
	c-0.467,2.433-0.867,4.149-1.2,5.149c-0.5,1.7-1.233,2.917-2.2,3.65c-3.533-2.8-8.316-7.95-14.35-15.45
	c-2.374-2.893-4.465-5.426-6.275-7.6c-3.876-4.659-6.452-7.659-7.725-9c-4.5-4.634-13.4-7.967-26.7-10
	c-7.633-1.067-13.35-1.884-17.15-2.45c-6.867-1-12.45-2.134-16.75-3.4c-11.333-3.333-19.667-7.816-25-13.45
	c-3.434-3.6-6.667-9.267-9.7-17c-1.5-3.9-4.9-9.617-10.2-17.15c-5-7-8.083-12.517-9.25-16.55c-0.467-1.533-1.067-5.933-1.8-13.2
	c-0.733-7.267-1.2-11.267-1.4-12c0.1-0.034,0.1-0.217,0-0.55c0.067-0.367,0.6-0.7,1.6-1c1-0.267,4.25,1.517,9.75,5.35
	c5.867,4.2,9.683,6.417,11.45,6.65c0.967,0.2,5.567,0.233,13.8,0.1c8.467,0.233,14.217,1.167,17.25,2.8
	c-0.567-0.833-1.75-2.733-3.55-5.7c-1.667-2.867-2.533-4.45-2.6-4.75c-6.233-21.233-3.284-40.917,8.85-59.05
	C62.583,45.05,78,32.133,98.8,21.3c17.5-9.066,34.967-15.033,52.4-17.9c7.6-1.267,13.85-1.6,18.75-1
	c4.933,0.567,7.733,2.017,8.399,4.35c0.134,0.4-0.466,2.1-1.8,5.1c-1.767,4.2-3.183,8.333-4.25,12.4
	c-3.867,14.633-4.417,32.05-1.65,52.25c2.033-5.567,10.3-13.983,24.8-25.25c15.5-11.967,28.916-19.6,40.25-22.9
	c14.1-4.133,26.833-5.133,38.2-3c9.533,1.833,18.767,6.033,27.699,12.6c5.567,4.066,13.051,10.933,22.45,20.6
	c9.767,9.934,17.217,16.9,22.351,20.9c0.1,0.533,0.149,0.933,0.149,1.2c-0.033,0.4-0.55,0.733-1.55,1
	c-0.9,0.267-2.934,0.233-6.1-0.1c-6.434-0.667-9.95-1.033-10.551-1.1c-10.933-0.9-20.466-0.15-28.6,2.25
	c-21.333,6.233-42.733,16.066-64.2,29.5c-18.533,11.5-31.267,21.633-38.2,30.4l-0.3,0.9c18.467,3.5,34.601,8.9,48.4,16.2
	c14.434,7.7,22.883,15.783,25.35,24.25c0.634,2.1,1.15,4.95,1.55,8.55c0.467,4.7,0.15,7.217-0.949,7.55
	c-2.301-0.1-5.634-0.216-10-0.35c-8.967-0.167-19.017-0.133-30.15,0.1c-1.033,0.034-4.45,0.767-10.25,2.2
	c-5.7,1.366-9.684,2.017-11.95,1.95c-2.6-0.033-4.983-0.517-7.149-1.45c-0.5-0.267-0.967-0.517-1.4-0.75c-1.8-1-4.384-1-7.75,0
	C188.733,202.926,182.325,207.151,173.525,214.425z"/>
<path style="fill-rule:evenodd;clip-rule:evenodd;fill:#330600;" d="M121.675,230.4c1.81,2.174,3.902,4.707,6.275,7.6
	c6.033,7.5,10.816,12.65,14.35,15.45c0.967-0.733,1.7-1.95,2.2-3.65c0.333-1,0.733-2.717,1.2-5.149
	c1.133-4.934,3.45-8.834,6.95-11.7c0.167-0.134,0.317-0.25,0.45-0.351c0.267-0.166,5.583-4.966,15.95-14.399
	c1.551-1.337,3.042-2.596,4.475-3.775c-1.683,4.12-2.525,8.045-2.525,11.775c0,5.566,1.7,20.666,5.1,45.3
	c3.2,23.267,5.084,35.75,5.65,37.45c1.5,4.066,4.2,11,8.1,20.8c3.7,9.4,6.334,16.217,7.9,20.45c2.9,8.166,7.384,15.1,13.45,20.8
	c5.333,5,12.233,9.483,20.7,13.45c1.199-0.267,2.416-0.55,3.649-0.851c5.533-1.3,9.434-2.1,11.7-2.399l0.75,1.5
	c-3.533,1.333-7.45,2.55-11.75,3.649c3,1.267,6.167,2.467,9.5,3.601l0.25,0.75c-0.2,0.633-0.417,1.066-0.65,1.3
	c-0.466,0.467-1.25,0.7-2.35,0.7c-6.3,0-12.25-1.283-17.85-3.851c-1.601,0.301-3.217,0.584-4.851,0.851
	c-18.033,3-39.3,4.416-63.8,4.25h-55.75c-4.9,1.066-10.1,2.05-15.6,2.95c-7.467,1.199-13.017,1.8-16.65,1.8
	c-7.4-1.134-13.133-2.134-17.2-3c-0.1,0-0.2,0-0.3,0c-1.3,0-2.867-0.217-4.7-0.65c-1.9-0.467-3.333-1-4.3-1.6v-2.25
	c0.567-0.134,1.467-0.184,2.7-0.15c0.133-0.033,0.267-0.066,0.4-0.1c0.633-0.167,1.433-0.25,2.4-0.25c1.033,0,2.8,0.233,5.3,0.7
	c13.7-1.101,27.1-15.483,40.2-43.15c5-10.533,9.5-22.1,13.5-34.7c3.333-10.5,5.583-19.233,6.75-26.2
	c2.267-11.366,3.983-20.05,5.15-26.05c2.067-10.833,3.184-19.649,3.35-26.45C121.717,233.32,121.692,231.837,121.675,230.4z"/>
</svg>
