<?xml version="1.0" encoding="iso-8859-1"?>
<!-- Generator: Adobe Illustrator 15.1.0, SVG Export Plug-In . SVG Version: 6.00 Build 0)  -->
<!DOCTYPE svg PUBLIC "-//W3C//DTD SVG 1.0//EN" "http://www.w3.org/TR/2001/REC-SVG-20010904/DTD/svg10.dtd">
<svg version="1.0" xmlns="http://www.w3.org/2000/svg" xmlns:xlink="http://www.w3.org/1999/xlink" x="0px" y="0px" width="200px"
	 height="200px" viewBox="0 0 200 200" style="enable-background:new 0 0 200 200;" xml:space="preserve">
<g id="Layer_1">
	<path style="fill:#FFFFFF;stroke:#000000;stroke-miterlimit:10;" d="M111.331,232.812"/>
	<path style="fill:#8C6239;stroke:#000000;stroke-miterlimit:10;" d="M194.5,170.609c0,15.375-12.096,28.891-28.175,28.891h-138.3
		c-16.08,0-28.525-13.516-28.525-28.891V26.772C-0.5,11.397,11.945-0.5,28.025-0.5h138.3c16.079,0,28.175,11.897,28.175,27.272
		V170.609z"/>
</g>
<g id="Layer_2">
	<g>
		<path d="M16.473,72.692c2.322-0.55,6.05-0.917,9.717-0.917c5.316,0,8.739,0.917,11.244,2.995c2.139,1.589,3.483,4.033,3.483,7.272
			c0,4.033-2.688,7.517-6.966,9.044v0.184c3.911,0.917,8.494,4.155,8.494,10.267c0,3.544-1.405,6.294-3.544,8.25
			c-2.811,2.628-7.456,3.85-14.178,3.85c-3.667,0-6.478-0.245-8.25-0.489V72.692z M21.789,89.559h4.828
			c5.561,0,8.861-2.994,8.861-6.966c0-4.767-3.605-6.723-8.983-6.723c-2.445,0-3.85,0.184-4.706,0.367V89.559z M21.789,109.237
			c1.1,0.183,2.567,0.244,4.461,0.244c5.5,0,10.572-2.017,10.572-8.005c0-5.561-4.828-7.944-10.633-7.944h-4.4V109.237z"/>
		<path d="M70.858,93.959h-15.95v14.85h17.845v4.461H49.531V72.081h22.306v4.461H54.908v13.017h15.95V93.959z"/>
		<path d="M86.317,100.314l-4.278,12.956h-5.5l14.056-41.189h6.355l14.056,41.189h-5.684l-4.4-12.956H86.317z M99.884,96.159
			l-4.095-11.855c-0.917-2.689-1.528-5.133-2.139-7.517h-0.123c-0.611,2.383-1.222,4.95-2.078,7.456l-4.033,11.917H99.884z"/>
		<path d="M117.053,113.27V72.081h5.867l13.139,20.839c2.995,4.828,5.439,9.167,7.333,13.383l0.184-0.061
			c-0.489-5.5-0.611-10.511-0.611-16.928V72.081h5.011v41.189h-5.378l-13.078-20.9c-2.873-4.583-5.623-9.289-7.639-13.75
			l-0.183,0.062c0.306,5.194,0.367,10.144,0.367,16.989v17.6H117.053z"/>
		<path d="M156.588,106.792c2.384,1.528,5.806,2.689,9.473,2.689c5.438,0,8.616-2.872,8.616-7.028c0-3.789-2.2-6.05-7.761-8.127
			c-6.723-2.445-10.878-5.989-10.878-11.733c0-6.417,5.316-11.184,13.322-11.184c4.155,0,7.272,0.978,9.044,2.017l-1.466,4.339
			c-1.284-0.794-4.034-1.956-7.762-1.956c-5.622,0-7.761,3.361-7.761,6.172c0,3.85,2.505,5.745,8.188,7.944
			c6.967,2.689,10.45,6.05,10.45,12.1c0,6.355-4.645,11.917-14.361,11.917c-3.972,0-8.311-1.222-10.511-2.689L156.588,106.792z"/>
	</g>
</g>
</svg>
