<?xml version="1.0" encoding="utf-8"?>
<!-- Generator: Adobe Illustrator 15.1.0, SVG Export Plug-In . SVG Version: 6.00 Build 0)  -->
<!DOCTYPE svg PUBLIC "-//W3C//DTD SVG 1.1//EN" "http://www.w3.org/Graphics/SVG/1.1/DTD/svg11.dtd">
<svg version="1.1" id="Layer_1" xmlns="http://www.w3.org/2000/svg" xmlns:xlink="http://www.w3.org/1999/xlink" x="0px" y="0px"
	 width="239.809px" height="437.838px" viewBox="0 0 239.809 437.838" enable-background="new 0 0 239.809 437.838"
	 xml:space="preserve">
<path fill="#2F0F01" d="M239.808,437.872c-0.541-0.227-1.324-0.091-1.907-0.091h-4.088h-14.168h-49.136H0.123V0.192h239.686
	c-1.191-0.5-3.334-0.091-4.632-0.091h-10.81h-37.782H55.616H13.747H3.484H1.031c-0.255,0-0.725-0.083-0.905,0.146
	c-0.212,0.268-0.094,0.896-0.094,1.217v3.18v12.533v48.592v188.097v136.417v35.148v9.082v2.271l0.094,0.945
	c0.192,0.242,0.727,0.145,0.996,0.145h2.635h10.809h44.321h180.921V437.872z"/>
<path fill="#5D1F03" d="M0.123,0.192v437.589h239.686V0.192H0.123z"/>
<path fill="#010101" d="M20.559,19.537v159.216h196.452V19.537H20.559z"/>
<path fill="#2F0F01" d="M26.19,173.12c0.409-0.976,0.091-2.663,0.091-3.724v-8.72v-30.334V25.259h185.009V173.12
	c0.327-0.781,0.091-2.06,0.091-2.906v-6.722v-23.251V59.499V33.706v-6.358c0-0.437,0.224-1.794-0.146-2.086
	c-0.349-0.276-1.334-0.093-1.763-0.093h-4.724h-18.255h-71.206h-67.21H31.639h-3.996c-0.33,0-1.129-0.146-1.359,0.146
	c-0.378,0.478-0.094,2.071-0.094,2.67v7.267v28.246V173.12z"/>
<path fill="#5D1F03" d="M26.281,25.259V173.12h185.009V25.259H26.281z"/>
<path fill="#010101" d="M35.363,33.888v131.693h167.025V33.888H35.363z"/>
<path fill="#7F751F" d="M40.994,96.646c0.198-0.475,0.091-1.124,0.091-1.636v-3.27V80.025V39.608h73.295v57.037
	c0.418-0.997,0.092-2.73,0.092-3.814v-8.99V52.869v-9.991v-2.36c0-0.254,0.082-0.725-0.146-0.905
	c-0.464-0.368-1.997-0.094-2.579-0.094h-7.267H76.234H49.712h-6.447c-0.451,0-1.879-0.232-2.179,0.146
	c-0.188,0.238-0.093,0.752-0.093,1.035v2.815v10.898L40.994,96.646 M122.009,39.519c0.562,0.236,1.391,0.091,1.998,0.091h4.358
	h15.259h53.041v57.037c0.419-0.997,0.092-2.729,0.092-3.813v-8.991V52.87v-9.99v-2.361c0-0.254,0.084-0.725-0.146-0.905
	c-0.295-0.233-1.042-0.094-1.398-0.094h-3.633h-14.26L122.009,39.519L122.009,39.519z"/>
<path fill="#FFE93F" d="M41.085,39.609v57.037h73.295V39.609H41.085 M122.009,39.609v57.037h74.656V39.609H122.009z"/>
<path fill="#7F751F" d="M41.139,104.279c-0.43,0.34-0.146,2.195-0.146,2.722v7.992v32.878v8.992v2.18
	c0,0.238-0.068,0.646,0.146,0.813c0.253,0.201,0.823,0.095,1.127,0.095h3.088h11.987h42.233h10.898h2.815
	c0.283,0,0.797,0.095,1.035-0.095c0.213-0.168,0.146-0.576,0.146-0.813v-2.18v-8.992v-32.878v-7.992
	c0-0.527,0.283-2.382-0.146-2.722c-0.238-0.188-0.752-0.093-1.035-0.093h-2.815H99.484H57.341H45.353h-3.088
	C41.964,104.186,41.392,104.078,41.139,104.279 M122.009,104.186c0.562,0.235,1.391,0.091,1.998,0.091h4.449h15.26h52.949v55.584
	h-74.656c0.474,0.199,1.123,0.091,1.635,0.091h3.27h11.717h40.416h12.988h3.36c0.319,0,0.95,0.118,1.217-0.094
	c0.431-0.341,0.146-2.195,0.146-2.722v-7.993v-32.878v-8.991v-2.18c0-0.238,0.067-0.646-0.146-0.815
	c-0.295-0.232-1.042-0.093-1.397-0.093h-3.634h-14.26H122.009L122.009,104.186z"/>
<path fill="#FFE93F" d="M41.085,104.276v55.584h73.295v-55.584H41.085 M122.009,104.276v55.584h74.656v-55.584H122.009z"/>
<path fill="#2F0F01" d="M20.559,178.752c0.474,0.198,1.124,0.091,1.635,0.091h3.271h11.625h40.325h139.598
	c-0.476-0.198-1.125-0.091-1.636-0.091h-3.27h-11.626h-40.234H20.559 M3.938,204.546v19.892c0.227-0.541,0.091-1.324,0.091-1.908
	v-3.996v-13.896h32.878c-0.803-0.337-2.126-0.092-2.997-0.092h-6.721H3.938z"/>
<path fill="#010101" d="M4.029,204.636v13.17c0,2.031,0.317,4.355-0.021,6.356c-0.187,1.104-1.111,2.293-1.518,3.361
	c-0.769,2.024-1.093,4.29-1.096,6.448c-0.003,2.071,0.275,4.314,1.005,6.267c0.431,1.152,1.467,2.529,1.617,3.724
	c0.295,2.345,0.012,4.903,0.012,7.268v14.804h32.878v-14.714c0-2.408-0.245-4.962,0.011-7.355c0.058-0.539,0.456-1.064,0.693-1.545
	l1.052-2.634c0.726-2.226,0.791-4.495,0.788-6.812c-0.004-1.997-0.468-4.055-1.209-5.903c-0.365-0.913-1.169-1.949-1.314-2.907
	c-0.313-2.051-0.021-4.372-0.021-6.447v-13.078H4.029V204.636z"/>
<path fill="#FFE93F" d="M9.659,210.268v7.991l3.725-1.941c3.725-1.457,7.924-1.791,11.808-0.77c1.389,0.366,2.715,0.908,3.996,1.555
	l1.998,1.065v-7.9H9.659z"/>
<path fill="#7F751F" d="M31.185,210.268v5.177c0,0.914,0.122,1.924-0.091,2.814c0.385-0.336,0.182-1.418,0.182-1.906v-4.178
	C31.276,211.591,31.411,210.808,31.185,210.268 M18.652,214.99l0.636,0.091L18.652,214.99 M21.649,214.99l0.545,0.091L21.649,214.99
	 M17.834,215.081l0.454,0.092L17.834,215.081 M22.648,215.081l0.363,0.092L22.648,215.081 M17.289,215.173l0.272,0.091
	L17.289,215.173 M23.374,215.173l0.272,0.091L23.374,215.173 M16.744,215.263l0.272,0.091L16.744,215.263 M23.919,215.263
	l0.272,0.091L23.919,215.263 M16.29,215.354l0.272,0.091L16.29,215.354 M24.434,215.384l0.061,0.03L24.434,215.384 M15.988,215.475
	l0.061,0.03L15.988,215.475z"/>
<path fill="#BFAF2F" d="M24.888,215.475l0.061,0.03L24.888,215.475z"/>
<path fill="#7F751F" d="M15.624,215.565l0.062,0.031L15.624,215.565z"/>
<path fill="#BFAF2F" d="M25.251,215.565l0.062,0.031L25.251,215.565z"/>
<path fill="#7F751F" d="M15.261,215.656l0.061,0.03L15.261,215.656 M25.554,215.626l0.091,0.092L25.554,215.626 M14.989,215.747
	l0.062,0.031L14.989,215.747z"/>
<path fill="#BFAF2F" d="M25.887,215.747l0.061,0.031L25.887,215.747z"/>
<path fill="#3F3B0F" d="M14.716,215.839l0.061,0.029L14.716,215.839z"/>
<path fill="#7F751F" d="M26.159,215.839l0.062,0.029L26.159,215.839z"/>
<path fill="#3F3B0F" d="M14.444,215.929l0.062,0.03L14.444,215.929z"/>
<path fill="#7F751F" d="M26.462,215.898l0.092,0.091L26.462,215.898z"/>
<path fill="#3F3B0F" d="M14.171,216.02l0.062,0.03L14.171,216.02z"/>
<path fill="#BFAF2F" d="M26.977,216.11l0.061,0.031L26.977,216.11z"/>
<path fill="#7F751F" d="M13.626,216.201l0.062,0.03L13.626,216.201 M27.189,216.171l0.091,0.092L27.189,216.171z"/>
<path fill="#3F3B0F" d="M13.445,216.292l0.061,0.031L13.445,216.292z"/>
<path fill="#7F751F" d="M13.173,216.384l0.06,0.029L13.173,216.384 M27.643,216.353l0.091,0.091L27.643,216.353z"/>
<path fill="#3F3B0F" d="M12.99,216.474l0.061,0.031L12.99,216.474z"/>
<path fill="#7F751F" d="M12.748,216.534l0.091,0.092L12.748,216.534 M28.097,216.534l0.091,0.092L28.097,216.534 M12.536,216.655
	l0.061,0.031L12.536,216.655 M28.279,216.625l0.091,0.091L28.279,216.625 M28.46,216.716l0.092,0.092L28.46,216.716 M29.368,217.171
	l0.091,0.091L29.368,217.171 M29.55,217.261l0.091,0.091L29.55,217.261 M11.113,217.352l0.091,0.091L11.113,217.352 M29.732,217.352
	l0.091,0.091L29.732,217.352 M10.931,217.442l0.091,0.091L10.931,217.442 M30.186,217.624l0.091,0.092L30.186,217.624
	 M10.477,217.716l0.091,0.091L10.477,217.716 M10.204,217.896l0.091,0.091L10.204,217.896 M30.64,217.896l0.091,0.091L30.64,217.896
	 M30.912,218.078l0.091,0.091L30.912,218.078 M19.56,220.622c0.496,0.207,1.188,0.09,1.726,0.09
	C20.788,220.505,20.096,220.622,19.56,220.622 M18.742,220.712l0.363,0.093L18.742,220.712z"/>
<path fill="#FFE93F" d="M19.106,220.751c-2.274,0.303-4.355,1.004-6.267,2.293c-1.37,0.924-2.539,2.104-3.451,3.48
	c-5.072,7.656-1.059,18.24,7.9,20.47c1.548,0.385,3.142,0.493,4.724,0.304c1.967-0.236,3.847-0.897,5.54-1.922
	c1.312-0.794,2.444-1.852,3.396-3.048c4.149-5.216,3.671-13.089-1.038-17.798c-1.626-1.625-3.705-2.734-5.899-3.363
	C22.466,220.724,20.703,220.539,19.106,220.751z"/>
<path fill="#7F751F" d="M21.83,220.712l0.363,0.093L21.83,220.712 M18.107,220.804l0.271,0.09L18.107,220.804 M22.617,220.833
	l0.062,0.031L22.617,220.833 M17.653,220.894l0.272,0.092L17.653,220.894 M23.011,220.894l0.271,0.092L23.011,220.894
	 M17.35,221.015l0.061,0.031L17.35,221.015 M23.526,221.015l0.061,0.031L23.526,221.015z"/>
<path fill="#BFAF2F" d="M16.987,221.105l0.062,0.03L16.987,221.105z"/>
<path fill="#7F751F" d="M23.889,221.105l0.061,0.03L23.889,221.105 M16.654,221.167l0.091,0.09L16.654,221.167 M24.161,221.196
	l0.062,0.031L24.161,221.196 M16.351,221.287l0.061,0.031L16.351,221.287z"/>
<path fill="#3F3B0F" d="M24.525,221.287l0.061,0.031L24.525,221.287 M24.798,221.378l0.061,0.031L24.798,221.378z"/>
<path fill="#7F751F" d="M15.836,221.438l0.091,0.092L15.836,221.438 M25.009,221.438l0.091,0.092L25.009,221.438 M15.564,221.53
	l0.091,0.09L15.564,221.53 M25.251,221.56l0.062,0.031L25.251,221.56z"/>
<path fill="#3F3B0F" d="M25.524,221.65l0.061,0.031L25.524,221.65z"/>
<path fill="#BFAF2F" d="M15.17,221.741l0.062,0.031L15.17,221.741z"/>
<path fill="#7F751F" d="M14.928,221.802l0.091,0.092L14.928,221.802 M25.887,221.832l0.061,0.031L25.887,221.832 M14.746,221.894
	l0.091,0.09L14.746,221.894 M26.099,221.894l0.091,0.09L26.099,221.894 M26.281,221.983l0.091,0.092L26.281,221.983 M26.462,222.075
	l0.092,0.09L26.462,222.075 M14.201,222.165l0.091,0.092L14.201,222.165 M26.644,222.165l0.091,0.092L26.644,222.165 M14.02,222.257
	l0.091,0.091L14.02,222.257 M26.825,222.257l0.091,0.091L26.825,222.257 M13.839,222.347l0.091,0.092L13.839,222.347 M27.28,222.528
	l0.091,0.092L27.28,222.528 M13.384,222.62l0.091,0.09L13.384,222.62 M13.112,222.802l0.091,0.09L13.112,222.802 M12.839,222.983
	l0.092,0.09L12.839,222.983 M28.369,223.255l0.091,0.093L28.369,223.255 M30.277,224.981l0.091,0.09L30.277,224.981 M30.822,225.616
	l0.091,0.092L30.822,225.616 M31.366,226.343l0.091,0.092L31.366,226.343 M9.387,226.435l0.091,0.09L9.387,226.435 M31.548,226.616
	l0.092,0.09L31.548,226.616 M9.205,226.706l0.091,0.092L9.205,226.706 M31.73,226.888l0.091,0.092L31.73,226.888 M8.933,227.161
	l0.091,0.092L8.933,227.161 M32.002,227.343l0.091,0.091L32.002,227.343 M8.66,227.615l0.091,0.091L8.66,227.615 M8.57,227.798
	l0.091,0.091L8.57,227.798 M8.479,227.979l0.091,0.091L8.479,227.979 M8.388,228.16l0.091,0.091L8.388,228.16 M8.298,228.341
	l0.091,0.092L8.298,228.341z"/>
<path fill="#BFAF2F" d="M8.237,228.584l0.03,0.061L8.237,228.584z"/>
<path fill="#7F751F" d="M32.638,228.614l0.091,0.091L32.638,228.614 M32.729,228.796l0.091,0.092L32.729,228.796 M8.025,228.978
	l0.091,0.091L8.025,228.978z"/>
<path fill="#BFAF2F" d="M7.964,229.22l0.03,0.061L7.964,229.22z"/>
<path fill="#7F751F" d="M32.91,229.25l0.091,0.091L32.91,229.25 M7.843,229.432l0.091,0.091L7.843,229.432 M33.001,229.522
	l0.092,0.091L33.001,229.522 M7.752,229.704l0.091,0.092L7.752,229.704 M33.091,229.796l0.092,0.091L33.091,229.796 M7.661,229.977
	l0.091,0.091L7.661,229.977 M33.183,230.067l0.091,0.091L33.183,230.067z"/>
<path fill="#BFAF2F" d="M7.601,230.31l0.029,0.061L7.601,230.31 M33.304,230.4l0.029,0.06L33.304,230.4 M7.509,230.673l0.03,0.062
	L7.509,230.673 M33.395,230.763l0.03,0.061L33.395,230.763 M7.419,231.036l0.03,0.062L7.419,231.036 M33.486,231.127l0.03,0.061
	L33.486,231.127z"/>
<path fill="#2F0F01" d="M39.269,231.066v0.363V231.066z"/>
<path fill="#7F751F" d="M7.328,231.399l0.03,0.061L7.328,231.399 M33.546,231.429v0.272V231.429z"/>
<path fill="#2F0F01" d="M1.486,231.611v0.363V231.611z"/>
<path fill="#7F751F" d="M7.207,231.793v0.272V231.793z"/>
<path fill="#2F0F01" d="M39.36,231.793v0.454V231.793z"/>
<path fill="#7F751F" d="M33.637,231.975v0.271V231.975 M7.116,232.429v0.453V232.429z"/>
<path fill="#2F0F01" d="M1.395,232.52v0.727C1.5,232.994,1.5,232.771,1.395,232.52z"/>
<path fill="#7F751F" d="M33.728,232.61v0.545C33.815,232.947,33.815,232.818,33.728,232.61z"/>
<path fill="#2F0F01" d="M39.45,232.792v2.452C39.681,234.694,39.681,233.343,39.45,232.792z"/>
<path fill="#7F751F" d="M7.026,233.519v0.999C7.156,234.208,7.156,233.828,7.026,233.519z"/>
<path fill="#2F0F01" d="M1.395,234.79v0.817C1.509,235.337,1.509,235.062,1.395,234.79z"/>
<path fill="#7F751F" d="M33.728,234.972v0.453V234.972 M7.116,235.244v0.363V235.244 M33.637,235.789v0.363V235.789z"/>
<path fill="#2F0F01" d="M39.36,235.88v0.363V235.88z"/>
<path fill="#7F751F" d="M7.207,235.97v0.272V235.97z"/>
<path fill="#2F0F01" d="M1.486,236.062v0.454V236.062z"/>
<path fill="#7F751F" d="M33.576,236.485l0.03,0.061L33.576,236.485 M7.328,236.576l0.03,0.062L7.328,236.576z"/>
<path fill="#2F0F01" d="M39.269,236.606v0.363V236.606 M1.576,236.788v0.363V236.788z"/>
<path fill="#7F751F" d="M33.486,236.939l0.03,0.061L33.486,236.939 M7.419,237.03l0.03,0.061L7.419,237.03 M33.395,237.302
	l0.03,0.062L33.395,237.302 M7.509,237.394l0.03,0.061L7.509,237.394z"/>
<path fill="#3F3B0F" d="M33.304,237.666l0.029,0.062L33.304,237.666 M7.601,237.757l0.029,0.062L7.601,237.757z"/>
<path fill="#7F751F" d="M33.214,237.938l0.029,0.061L33.214,237.938z"/>
<path fill="#3F3B0F" d="M7.692,238.03l0.03,0.061L7.692,238.03z"/>
<path fill="#7F751F" d="M33.122,238.212l0.03,0.061L33.122,238.212z"/>
<path fill="#3F3B0F" d="M7.782,238.302l0.03,0.061L7.782,238.302z"/>
<path fill="#7F751F" d="M33.031,238.483l0.03,0.061L33.031,238.483z"/>
<path fill="#3F3B0F" d="M7.873,238.575l0.03,0.061L7.873,238.575 M32.941,238.757l0.03,0.061L32.941,238.757z"/>
<path fill="#7F751F" d="M7.934,238.786l0.091,0.092L7.934,238.786 M32.85,238.938l0.03,0.06L32.85,238.938z"/>
<path fill="#3F3B0F" d="M32.759,239.21l0.029,0.062L32.759,239.21z"/>
<path fill="#7F751F" d="M8.115,239.24l0.091,0.091L8.115,239.24 M8.206,239.423l0.091,0.091L8.206,239.423 M32.577,239.573
	l0.03,0.061L32.577,239.573 M32.456,239.785l0.091,0.091L32.456,239.785 M32.365,239.966l0.091,0.092L32.365,239.966
	 M32.275,240.148l0.091,0.091L32.275,240.148 M8.751,240.511l0.092,0.092L8.751,240.511 M31.911,240.784l0.091,0.092L31.911,240.784
	 M9.024,240.966l0.091,0.092L9.024,240.966 M31.639,241.238l0.091,0.091L31.639,241.238 M31.457,241.511l0.091,0.091L31.457,241.511
	 M30.912,242.237l0.091,0.091L30.912,242.237z"/>
<path fill="#2F0F01" d="M3.938,243.6v22.434c0.199-0.474,0.091-1.124,0.091-1.635v-3.36v-11.807v-3.814
	C4.029,244.857,4.156,244.118,3.938,243.6z"/>
<path fill="#7F751F" d="M11.839,244.235l0.092,0.091L11.839,244.235 M28.642,244.509l0.091,0.091L28.642,244.509 M12.293,244.599
	l0.091,0.091L12.293,244.599 M28.279,244.78l0.091,0.091L28.279,244.78 M12.656,244.871l0.092,0.091L12.656,244.871 M12.93,245.052
	l0.091,0.092L12.93,245.052 M13.202,245.235l0.091,0.09L13.202,245.235 M13.656,245.507l0.091,0.093L13.656,245.507 M27.189,245.507
	l0.091,0.093L27.189,245.507 M27.007,245.599l0.092,0.09L27.007,245.599 M14.111,245.78l0.091,0.09L14.111,245.78 M14.292,245.87
	l0.092,0.092L14.292,245.87 M14.474,245.962l0.091,0.091L14.474,245.962 M14.656,246.052l0.091,0.092L14.656,246.052z"/>
<path fill="#BFAF2F" d="M14.898,246.173l0.061,0.031L14.898,246.173z"/>
<path fill="#3F3B0F" d="M25.796,246.263l0.062,0.031L25.796,246.263z"/>
<path fill="#7F751F" d="M15.291,246.325l0.091,0.09L15.291,246.325 M25.554,246.325l0.091,0.09L25.554,246.325z"/>
<path fill="#BFAF2F" d="M15.533,246.445l0.062,0.031L15.533,246.445z"/>
<path fill="#7F751F" d="M15.745,246.507l0.091,0.091L15.745,246.507 M25.1,246.507l0.091,0.091L25.1,246.507 M16.018,246.597
	l0.091,0.092L16.018,246.597z"/>
<path fill="#3F3B0F" d="M24.888,246.627l0.061,0.031L24.888,246.627z"/>
<path fill="#7F751F" d="M16.259,246.718l0.062,0.03L16.259,246.718z"/>
<path fill="#3F3B0F" d="M24.615,246.718l0.062,0.03L24.615,246.718z"/>
<path fill="#7F751F" d="M16.563,246.778l0.091,0.092L16.563,246.778z"/>
<path fill="#3F3B0F" d="M24.343,246.809l0.061,0.03L24.343,246.809z"/>
<path fill="#BFAF2F" d="M16.896,246.899l0.061,0.031L16.896,246.899z"/>
<path fill="#7F751F" d="M23.98,246.899l0.061,0.031L23.98,246.899z"/>
<path fill="#BFAF2F" d="M17.259,246.99l0.061,0.031L17.259,246.99z"/>
<path fill="#7F751F" d="M23.616,246.99l0.062,0.031L23.616,246.99 M17.622,247.081l0.062,0.031L17.622,247.081 M23.253,247.081
	l0.062,0.031L23.253,247.081 M17.925,247.142l0.271,0.092L17.925,247.142 M22.8,247.173l0.061,0.03L22.8,247.173 M18.47,247.233
	l0.362,0.09L18.47,247.233 M22.103,247.233l0.271,0.09L22.103,247.233 M19.197,247.323l0.636,0.092L19.197,247.323 M21.013,247.323
	l0.636,0.092L21.013,247.323z"/>
<path fill="#FFE93F" d="M9.659,249.776v10.535h21.525v-10.445c-1.849,0.678-3.423,1.9-5.358,2.479
	c-4.026,1.199-8.345,0.949-12.261-0.527L9.659,249.776z"/>
<path fill="#7F751F" d="M31.093,249.776c0.271,1.134,0.092,2.469,0.092,3.633v6.902c0.281-0.672,0.091-1.725,0.091-2.452v-5.631
	C31.276,251.657,31.536,250.162,31.093,249.776 M30.822,249.958l0.091,0.09L30.822,249.958 M10.295,250.14l0.091,0.09L10.295,250.14
	 M10.749,250.411l0.091,0.092L10.749,250.411 M30.095,250.411l0.091,0.092L30.095,250.411 M11.203,250.685l0.091,0.09
	L11.203,250.685 M11.384,250.774l0.092,0.092L11.384,250.774 M29.459,250.774l0.091,0.092L29.459,250.774 M11.567,250.866
	l0.091,0.09L11.567,250.866 M29.278,250.866l0.091,0.09L29.278,250.866 M29.096,250.956l0.091,0.092L29.096,250.956 M28.914,251.048
	l0.091,0.091L28.914,251.048 M12.112,251.138l0.091,0.092L12.112,251.138 M28.733,251.138l0.091,0.092L28.733,251.138
	 M12.293,251.229l0.091,0.09L12.293,251.229 M28.55,251.229l0.092,0.09L28.55,251.229 M12.475,251.319l0.091,0.092L12.475,251.319
	 M28.369,251.319l0.091,0.092L28.369,251.319z"/>
<path fill="#3F3B0F" d="M12.718,251.44l0.06,0.031L12.718,251.44z"/>
<path fill="#BFAF2F" d="M27.976,251.531l0.061,0.031L27.976,251.531z"/>
<path fill="#7F751F" d="M13.112,251.593l0.091,0.091L13.112,251.593 M27.734,251.593l0.091,0.091L27.734,251.593z"/>
<path fill="#3F3B0F" d="M13.354,251.714l0.06,0.03L13.354,251.714z"/>
<path fill="#7F751F" d="M13.535,251.804l0.062,0.03L13.535,251.804 M27.28,251.774l0.091,0.091L27.28,251.774z"/>
<path fill="#BFAF2F" d="M27.068,251.895l0.061,0.03L27.068,251.895z"/>
<path fill="#3F3B0F" d="M14.08,251.985l0.062,0.031L14.08,251.985z"/>
<path fill="#BFAF2F" d="M26.795,251.985l0.062,0.031L26.795,251.985z"/>
<path fill="#3F3B0F" d="M14.353,252.076l0.061,0.031L14.353,252.076z"/>
<path fill="#7F751F" d="M26.553,252.048l0.091,0.091L26.553,252.048z"/>
<path fill="#3F3B0F" d="M14.625,252.167l0.062,0.031L14.625,252.167z"/>
<path fill="#7F751F" d="M26.25,252.167l0.062,0.031L26.25,252.167 M14.898,252.259l0.061,0.03L14.898,252.259z"/>
<path fill="#BFAF2F" d="M25.978,252.259l0.061,0.03L25.978,252.259z"/>
<path fill="#7F751F" d="M15.17,252.349l0.062,0.031L15.17,252.349z"/>
<path fill="#BFAF2F" d="M25.705,252.349l0.062,0.031L25.705,252.349z"/>
<path fill="#7F751F" d="M15.533,252.439l0.062,0.03L15.533,252.439z"/>
<path fill="#BFAF2F" d="M25.341,252.439l0.062,0.03L25.341,252.439z"/>
<path fill="#7F751F" d="M15.897,252.53l0.061,0.031L15.897,252.53 M24.979,252.53l0.061,0.031L24.979,252.53 M16.259,252.621
	l0.062,0.031L16.259,252.621z"/>
<path fill="#BFAF2F" d="M24.615,252.621l0.062,0.031L24.615,252.621z"/>
<path fill="#7F751F" d="M16.714,252.712l0.062,0.031L16.714,252.712 M24.161,252.712l0.062,0.031L24.161,252.712 M17.108,252.773
	l0.271,0.091L17.108,252.773 M23.556,252.773l0.271,0.091L23.556,252.773 M17.653,252.864l0.363,0.091L17.653,252.864
	 M22.92,252.864l0.363,0.091L22.92,252.864 M18.379,252.955l0.454,0.091L18.379,252.955 M22.012,252.955l0.545,0.091L22.012,252.955
	 M19.651,253.046c0.474,0.198,1.123,0.092,1.635,0.092C20.811,252.938,20.162,253.046,19.651,253.046 M9.659,260.312
	c0.562,0.236,1.393,0.091,1.998,0.091h4.36h15.167c-0.562-0.236-1.392-0.091-1.998-0.091h-4.359H9.659z"/>
</svg>
