<?xml version="1.0" encoding="iso-8859-1"?>
<!-- Generator: Adobe Illustrator 15.1.0, SVG Export Plug-In . SVG Version: 6.00 Build 0)  -->
<!DOCTYPE svg PUBLIC "-//W3C//DTD SVG 1.1//EN" "http://www.w3.org/Graphics/SVG/1.1/DTD/svg11.dtd">
<svg version="1.1" id="Layer_1" xmlns="http://www.w3.org/2000/svg" xmlns:xlink="http://www.w3.org/1999/xlink" x="0px" y="0px"
	 width="315px" height="488px" viewBox="0 0 315 488" style="enable-background:new 0 0 315 488;" xml:space="preserve">
<path style="fill-rule:evenodd;clip-rule:evenodd;fill:#949494;" d="M186.95,5.075L183.375,5.3l-3.6,0.15l-1.051,0.025L177.7,5.5
	c-0.849-0.005-1.69-0.03-2.525-0.075c-0.829-0.039-1.646-0.097-2.45-0.175c-2.282-0.224-4.365-0.715-6.25-1.475v-0.05l3.176-0.1
	c1.097-0.048,2.229-0.115,3.399-0.2l3.575-0.225l3.6-0.15l1.051-0.025L182.3,3c0.849,0.005,1.69,0.03,2.525,0.075
	c0.829,0.039,1.646,0.097,2.45,0.175c2.282,0.224,4.365,0.715,6.25,1.475v0.05l-3.176,0.1C189.253,4.923,188.12,4.99,186.95,5.075z"
	/>
<path style="fill-rule:evenodd;clip-rule:evenodd;fill:#060606;" d="M177.65,4.725c4.936-0.001,9.928,0.265,14.975,0.8
	c5.099,0.543,10.166,1.393,15.2,2.55c5.029,1.161,9.938,2.661,14.725,4.5c4.793,1.845,9.377,4.062,13.75,6.65
	c4.365,2.587,8.433,5.579,12.2,8.975c3.763,3.404,7.138,7.246,10.125,11.525c1.778,2.592,3.454,5.276,5.025,8.05
	c1.572,2.77,3.03,5.612,4.375,8.525c1.337,2.919,2.595,5.894,3.774,8.925c1.187,3.032,2.286,6.099,3.3,9.2
	c0.674,2.064,1.323,4.139,1.95,6.225c0.633,2.08,1.241,4.163,1.825,6.25c0.577,2.094,1.127,4.186,1.65,6.275l1.524,6.25l1.476,6.2
	l1.375,6.125c0.883,3.922,1.741,7.856,2.574,11.8c0.837,3.952,1.645,7.902,2.426,11.85c0.78,3.947,1.53,7.88,2.25,11.8
	c1.072,5.881,2.072,11.79,3,17.725c0.929,5.939,1.778,11.865,2.55,17.775c0.771,5.904,1.454,11.845,2.05,17.825
	c0.6,5.979,1.108,11.955,1.525,17.925c0.418,5.978,0.734,12.002,0.949,18.075c0.203,6.07,0.304,12.145,0.301,18.225l1.975,62
	l-3.75,18l-0.175,1.575l-0.15,1.625l-0.075,1.7l-0.074,1.75l-0.15,3.574l-0.1,1.825l-0.15,1.8c-0.062,0.596-0.137,1.188-0.225,1.775
	c-0.087,0.591-0.188,1.174-0.301,1.75c-0.114,0.575-0.247,1.142-0.399,1.7c-0.148,0.562-0.315,1.112-0.5,1.649
	c-0.184,0.538-0.393,1.062-0.625,1.575c-0.235,0.517-0.493,1.017-0.775,1.5c-0.277,0.476-0.586,0.934-0.925,1.375
	c-0.339,0.445-0.705,0.87-1.1,1.275c-0.482,0.475-1.016,0.925-1.601,1.35c-0.586,0.427-1.219,0.827-1.899,1.2
	c-0.682,0.372-1.398,0.722-2.15,1.05c-0.745,0.334-1.52,0.642-2.325,0.925c-0.807,0.278-1.632,0.537-2.475,0.775
	c-0.847,0.238-1.705,0.455-2.575,0.65c-0.874,0.192-1.749,0.367-2.625,0.524c-0.871,0.161-1.738,0.303-2.6,0.425
	c-0.858,0.116-1.7,0.216-2.525,0.301c-0.83,0.091-1.639,0.166-2.425,0.225l-2.275,0.125c-0.722,0.022-1.405,0.03-2.05,0.025
	l-5.025-19.95c-0.622,0.597-1.205,1.205-1.75,1.825c-0.542,0.626-1.042,1.259-1.5,1.899c-0.465,0.646-0.907,1.297-1.324,1.95
	c-0.41,0.659-0.794,1.317-1.15,1.975l-1.075,1.95l-1.024,1.9c-0.325,0.63-0.658,1.246-1,1.85c-0.353,0.602-0.711,1.185-1.075,1.75
	c-0.358,0.563-0.742,1.104-1.15,1.625c-0.41,0.525-0.844,1.025-1.3,1.5c-0.458,0.479-0.958,0.93-1.5,1.351
	c-0.536,0.415-1.111,0.799-1.725,1.149c-0.624,0.355-1.308,0.672-2.051,0.95c-0.737,0.273-1.528,0.507-2.375,0.7
	c-0.84,0.188-1.757,0.33-2.75,0.425c-0.997,0.098-2.063,0.147-3.199,0.15c-0.011,0.896,0.023,1.779,0.1,2.649
	c0.083,0.86,0.208,1.702,0.375,2.525c0.159,0.826,0.351,1.643,0.575,2.45c0.227,0.814,0.485,1.614,0.774,2.399
	c0.295,0.788,0.611,1.571,0.95,2.351c0.33,0.769,0.681,1.526,1.05,2.274l1.15,2.25l1.225,2.25l2.476,4.476
	c0.411,0.741,0.812,1.491,1.2,2.25c0.38,0.763,0.747,1.529,1.1,2.3c0.364,0.771,0.706,1.554,1.025,2.35
	c0.308,0.793,0.592,1.593,0.85,2.4c0.259,0.808,0.484,1.633,0.675,2.475c0.195,0.848,0.354,1.705,0.476,2.575l-0.051,0.025
	c-1.128-0.878-2.104-1.953-2.925-3.226c-0.416-0.639-0.808-1.306-1.175-2c-0.36-0.686-0.693-1.395-1-2.125l-0.9-2.2
	c-0.279-0.743-0.546-1.484-0.8-2.225l-0.8-2.15l-0.775-2L230.7,372.6l-3.8-18.5c-0.301-0.444-0.609-0.845-0.926-1.199
	c-0.303-0.356-0.61-0.664-0.925-0.926c-0.327-0.256-0.66-0.473-1-0.649c-0.33-0.183-0.663-0.324-1-0.425
	c-0.493-0.148-0.993-0.224-1.5-0.226l-0.575,0.025c-0.348,0.037-0.697,0.104-1.05,0.2c-0.359,0.097-0.718,0.222-1.075,0.375
	c-0.357,0.159-0.716,0.343-1.074,0.55c-0.353,0.194-0.703,0.411-1.051,0.649c-0.351,0.249-0.701,0.516-1.05,0.801
	c-0.354,0.283-0.703,0.583-1.05,0.899c-0.346,0.312-0.687,0.638-1.025,0.976c-0.331,0.34-0.655,0.689-0.975,1.05l-0.95,1.125
	l-0.925,1.125l-0.875,1.175l-0.8,1.15l-0.775,1.149l-0.7,1.101l-0.625,1.05l-0.574,1l-0.476,0.899l-0.399,0.801h-5l-1.875,11.975
	c0.135,0.875,0.326,1.733,0.574,2.575c0.246,0.847,0.546,1.672,0.9,2.475c0.359,0.801,0.751,1.593,1.175,2.375
	c0.421,0.781,0.871,1.548,1.351,2.3l1.475,2.25l1.5,2.226c0.502,0.737,0.985,1.479,1.45,2.225c0.463,0.742,0.904,1.484,1.325,2.226
	c0.371,0.667,0.729,1.342,1.074,2.024c0.35,0.696,0.683,1.396,1,2.101l0.926,2.1l0.875,2.125l1.675,4.25l0.875,2.1l0.875,2.101
	c0.303,0.688,0.619,1.371,0.95,2.05c0.33,0.677,0.672,1.343,1.024,2c0.354,0.658,0.729,1.309,1.125,1.95
	c0.391,0.638,0.799,1.263,1.226,1.875c0.431,0.612,0.889,1.213,1.375,1.8c0.483,0.592,0.992,1.167,1.524,1.725
	c0.531,0.55,1.099,1.083,1.7,1.601c0.603,0.528,1.236,1.036,1.9,1.524l-1,3.025l-0.025,0.025c-1.727-1.443-3.317-3.019-4.775-4.726
	c-0.723-0.862-1.423-1.754-2.1-2.675c-0.678-0.91-1.328-1.843-1.95-2.8c-0.625-0.962-1.233-1.945-1.825-2.95
	c-0.588-1.001-1.154-2.019-1.699-3.05c-0.545-1.035-1.078-2.085-1.601-3.15c-0.531-1.06-1.048-2.126-1.55-3.2l-1.475-3.25
	l-1.426-3.25l-2.85-6.5c-0.475-1.067-0.958-2.125-1.45-3.175c-0.494-1.05-0.994-2.083-1.5-3.1c-0.501-1.018-1.018-2.018-1.55-3
	c-0.53-0.99-1.071-1.957-1.625-2.9c-0.266-0.477-0.508-0.993-0.725-1.55c-0.227-0.564-0.427-1.164-0.601-1.8l-1.024-3.851
	c-0.174-0.65-0.373-1.275-0.601-1.875c-0.225-0.597-0.475-1.163-0.75-1.699c-0.552-1.067-1.311-1.892-2.274-2.476l-15.65-0.024
	l-0.4-2l-0.225-1.15l-0.25-1.225l-0.275-1.25l-0.324-1.301l-0.375-1.3l-0.426-1.274c-0.147-0.418-0.306-0.826-0.475-1.226
	c-0.175-0.396-0.357-0.779-0.55-1.149c-0.18-0.377-0.371-0.735-0.575-1.075c-0.215-0.338-0.439-0.654-0.675-0.95
	c-0.236-0.301-0.486-0.576-0.75-0.825c-0.255-0.244-0.521-0.461-0.8-0.649c-0.285-0.192-0.585-0.352-0.9-0.476
	c-0.312-0.127-0.638-0.218-0.975-0.274H168.3c-0.316-0.002-0.684,0.064-1.1,0.199c-0.411,0.142-0.87,0.35-1.375,0.625
	c-0.572,0.307-1.189,0.665-1.851,1.075c-0.66,0.408-1.36,0.866-2.1,1.375l-4.725,3.275c-0.827,0.582-1.66,1.148-2.5,1.7
	c-0.849,0.544-1.699,1.069-2.55,1.574c-0.846,0.51-1.679,0.968-2.5,1.375c-0.826,0.404-1.634,0.754-2.425,1.051
	c-0.68,0.255-1.338,0.446-1.975,0.574c-0.635,0.131-1.244,0.197-1.825,0.2l-0.575-0.024c-1.327-0.103-2.444-0.694-3.35-1.775
	c-0.902-1.084-1.519-2.792-1.85-5.125l-0.125-6.975c-0.7,0.013-1.375,0.062-2.025,0.149c-0.646,0.089-1.263,0.214-1.85,0.375
	c-0.595,0.155-1.169,0.339-1.725,0.55c-0.556,0.215-1.089,0.457-1.6,0.726c-0.513,0.265-1.013,0.548-1.5,0.85
	c-0.482,0.309-0.949,0.634-1.4,0.976c-0.456,0.34-0.906,0.689-1.35,1.05c-0.442,0.359-0.875,0.726-1.3,1.1l-2.525,2.25
	c-0.426,0.376-0.859,0.742-1.3,1.101c-0.437,0.345-0.879,0.679-1.325,1c-0.444,0.335-0.902,0.651-1.375,0.949
	c-0.472,0.289-0.956,0.556-1.45,0.801c-0.496,0.245-1.012,0.462-1.55,0.649c-0.542,0.188-1.1,0.347-1.675,0.476
	c0.004,0.856-0.029,1.682-0.1,2.475c-0.072,0.795-0.18,1.554-0.325,2.275c-0.151,0.724-0.351,1.416-0.6,2.074
	c-0.245,0.663-0.536,1.288-0.875,1.875c-0.688,1.167-1.612,2.191-2.775,3.075c-1.168,0.883-2.619,1.624-4.35,2.226l-0.025-0.051
	c0.459-0.593,0.917-1.168,1.375-1.725c0.454-0.556,0.904-1.089,1.35-1.6c0.449-0.506,0.883-1.014,1.3-1.525
	c0.411-0.517,0.803-1.033,1.175-1.55c0.373-0.517,0.715-1.059,1.025-1.625c0.316-0.562,0.6-1.146,0.85-1.75
	c0.246-0.604,0.446-1.253,0.6-1.95c0.146-0.699,0.247-1.441,0.3-2.225l-1.1,0.024l-1.575-0.024l-1.5-0.025
	c-0.651-0.02-1.285-0.07-1.9-0.15c-0.614-0.086-1.206-0.203-1.775-0.35c-0.57-0.138-1.129-0.329-1.675-0.575
	c-0.541-0.248-1.066-0.548-1.575-0.899c-1.032-0.716-2.032-1.732-3-3.051c-0.295-0.408-0.57-0.874-0.825-1.399L97.15,359.5
	l-0.375-0.875L96.05,356.8l-0.375-0.95l-0.4-0.899l-0.425-0.875l-0.475-0.851c-0.315-0.529-0.666-1.005-1.05-1.425
	c-0.389-0.428-0.822-0.777-1.3-1.05c-0.243-0.134-0.502-0.242-0.775-0.325c-0.271-0.083-0.554-0.142-0.85-0.175l-0.525-0.025
	c-0.288,0.002-0.571,0.026-0.85,0.075c-0.273,0.043-0.54,0.11-0.8,0.2c-0.35,0.126-0.691,0.284-1.025,0.475
	c-0.327,0.187-0.644,0.403-0.95,0.65c-0.308,0.251-0.608,0.526-0.9,0.825c-0.302,0.295-0.593,0.611-0.875,0.95
	c-0.274,0.343-0.541,0.701-0.8,1.074c-0.267,0.371-0.525,0.755-0.775,1.15l-0.7,1.2l-0.675,1.25l-0.625,1.25l-0.6,1.225l-1.05,2.25
	l-0.475,1l-0.425,0.875l-25.825,41.101h-0.05c0.184-2.182,0.675-4.481,1.475-6.9c0.399-1.199,0.857-2.416,1.375-3.65
	c0.511-1.241,1.078-2.491,1.7-3.75c0.625-1.251,1.292-2.501,2-3.75c0.714-1.252,1.464-2.493,2.25-3.725
	c0.777-1.23,1.577-2.438,2.4-3.625c0.833-1.188,1.683-2.347,2.55-3.475c0.862-1.125,1.729-2.208,2.6-3.25
	c0.875-1.049,1.75-2.049,2.625-3c0.846-0.926,1.68-1.792,2.5-2.601c0.827-0.806,1.635-1.547,2.425-2.225
	c-0.624,0.143-1.265,0.275-1.925,0.399l-2,0.351c-0.712,0.111-1.437,0.212-2.175,0.3c-0.734,0.087-1.476,0.162-2.225,0.225
	c-0.761,0.063-1.527,0.114-2.3,0.15c-0.758,0.03-1.516,0.047-2.275,0.05H62.75l-1.925-0.024l-1.925-0.101
	c-0.75-0.051-1.492-0.117-2.225-0.2c-0.73-0.076-1.447-0.168-2.15-0.274c-0.708-0.115-1.399-0.249-2.075-0.4
	c-0.671-0.158-1.321-0.333-1.95-0.524L46.475,352.8c-0.474,0.256-0.907,0.522-1.3,0.8c-0.394,0.273-0.744,0.558-1.05,0.851
	c-0.316,0.292-0.599,0.601-0.85,0.925c-0.243,0.336-0.451,0.687-0.625,1.05c-0.182,0.354-0.34,0.729-0.475,1.125
	c-0.124,0.406-0.224,0.832-0.3,1.275c-0.089,0.44-0.164,0.907-0.225,1.399c-0.056,0.486-0.098,0.994-0.125,1.525L29.5,365.775
	l-0.025-0.025v-4.725l0.05-4.7l0.075-4.7l0.1-4.675l0.175-4.675l0.2-4.65l0.275-4.65l0.3-4.649l0.4-4.65
	c0.137-1.536,0.287-3.078,0.45-4.625c0.154-1.558,0.321-3.116,0.5-4.675c0.188-1.546,0.388-3.088,0.6-4.625l4.775-16l0.375-5.15
	l0.325-5.149l0.275-5.15l0.225-5.149l0.45-10.25l0.225-5.15l0.25-5.1l0.3-5.125l0.325-5.125c0.128-1.694,0.27-3.395,0.425-5.1
	c0.146-1.714,0.304-3.423,0.475-5.125c0.173-1.693,0.365-3.394,0.575-5.1c0.216-1.714,0.45-3.423,0.7-5.125
	c0.251-1.694,0.526-3.395,0.825-5.1c0.294-1.706,0.611-3.406,0.95-5.1l2.85-14.325l0.95-4.725l0.95-4.75l0.975-4.7l1-4.725l1-4.7
	l1.05-4.675l1.075-4.65l1.125-4.675l1.15-4.625l1.2-4.625l1.275-4.625l1.3-4.575l1.375-4.575l1.45-4.575
	c0.498-1.524,1.006-3.041,1.525-4.55c0.509-1.506,1.034-3.015,1.575-4.525c0.553-1.511,1.119-3.02,1.7-4.525
	c0.571-1.507,1.154-3.007,1.75-4.5c0.598-1.49,1.215-2.981,1.85-4.475c0.634-1.494,1.284-2.986,1.95-4.475
	c0.669-1.491,1.353-2.975,2.05-4.45l6.075-18.975c1.106-2.092,2.29-4.217,3.55-6.375c1.272-2.157,2.614-4.332,4.025-6.525
	c0.938-1.461,1.904-2.928,2.9-4.4c0.99-1.475,2.006-2.949,3.05-4.425c1.052-1.47,2.127-2.937,3.225-4.4
	c3.294-4.416,6.769-8.741,10.425-12.975c3.659-4.239,7.442-8.29,11.35-12.15c3.908-3.854,7.883-7.421,11.925-10.7
	c4.047-3.27,8.106-6.153,12.175-8.65c0.542-0.331,1.108-0.647,1.7-0.95c0.587-0.3,1.196-0.583,1.825-0.85
	c0.623-0.263,1.264-0.513,1.925-0.75c0.669-0.24,1.352-0.464,2.05-0.675c0.695-0.211,1.403-0.412,2.125-0.6
	c0.725-0.188,1.458-0.363,2.2-0.525l2.25-0.45c0.756-0.145,1.515-0.278,2.275-0.4l2.275-0.325l2.3-0.25L167.1,5.15l2.226-0.175
	L171.5,4.85l2.1-0.075l1.95-0.05h1.875h0.075H177.65z"/>
<path style="fill-rule:evenodd;clip-rule:evenodd;fill:#4F4F4F;" d="M182.25,6.1c0.798,0.005,1.59,0.03,2.375,0.075
	c0.787,0.039,1.562,0.098,2.325,0.175c2.021,0.212,3.879,0.662,5.575,1.35v0.05l-2.851,0.075c-0.979,0.042-1.987,0.101-3.024,0.175
	l-3.15,0.175L180.3,8.3l-1.55,0.025c-0.798,0.003-1.59-0.014-2.375-0.05c-0.787-0.039-1.562-0.097-2.325-0.175
	c-2.021-0.212-3.879-0.663-5.575-1.35V6.7l2.851-0.075c0.979-0.042,1.987-0.101,3.024-0.175l3.15-0.175l3.2-0.15L182.25,6.1z"/>
<path style="fill-rule:evenodd;clip-rule:evenodd;fill:#FFFFFF;" d="M280.125,105.725c1.464,6.359,2.864,12.734,4.2,19.125
	c1.331,6.396,2.59,12.763,3.774,19.1c1.18,6.33,2.28,12.688,3.301,19.075c1.028,6.392,1.97,12.767,2.824,19.125
	c0.847,6.35,1.597,12.742,2.25,19.175c0.659,6.445,1.218,12.887,1.676,19.325c0.453,6.429,0.795,12.912,1.024,19.45
	c0.23,6.533,0.347,13.075,0.351,19.625l0.05,6.226l0.075,6.225l0.1,6.2l0.1,6.15l0.051,6.199l0.05,6.15
	c0.001,2.036-0.016,4.077-0.05,6.125c-0.032,2.06-0.082,4.117-0.15,6.175c-0.074,2.049-0.166,4.091-0.275,6.125
	c-0.148,3.062-0.365,6.138-0.649,9.226c-0.293,3.084-0.651,6.159-1.075,9.225l-0.2,1.575l-0.125,1.625L297.3,338.6l-0.075,1.676
	l-0.199,3.425l-0.15,1.7L296.7,347.1c-0.07,0.562-0.154,1.12-0.25,1.676c-0.096,0.557-0.204,1.106-0.325,1.649
	c-0.123,0.54-0.265,1.073-0.425,1.601c-0.157,0.534-0.333,1.06-0.525,1.574c-0.192,0.51-0.409,1.01-0.649,1.5
	c-0.244,0.488-0.511,0.963-0.801,1.426c-0.286,0.471-0.603,0.929-0.949,1.375c-0.348,0.433-0.723,0.849-1.125,1.25
	c-0.241,0.239-0.508,0.473-0.801,0.699c-0.292,0.225-0.608,0.441-0.949,0.65c-0.339,0.206-0.697,0.406-1.075,0.6
	c-0.383,0.2-0.783,0.392-1.2,0.575l-1.275,0.525l-1.375,0.5l-1.399,0.45l-1.45,0.425l-1.475,0.375l-1.476,0.35l-1.45,0.3
	l-1.399,0.301l-2.601,0.5l-2.225,0.375c-0.232-0.519-0.44-1.044-0.625-1.575c-0.195-0.531-0.379-1.073-0.55-1.625l-0.476-1.7
	l-0.475-1.7l-0.45-1.7l-0.5-1.699c-0.163-0.559-0.338-1.109-0.524-1.65c-0.182-0.537-0.373-1.062-0.575-1.575
	c-0.214-0.524-0.447-1.033-0.7-1.524c-0.24-0.479-0.499-0.937-0.775-1.375c-0.289-0.449-0.605-0.874-0.949-1.275
	c-0.334-0.401-0.692-0.776-1.075-1.125c-0.382-0.34-0.799-0.648-1.25-0.925c-0.46-0.283-0.952-0.533-1.476-0.75
	c-0.508-0.214-1.058-0.389-1.649-0.525c-0.604-0.131-1.245-0.223-1.925-0.274l-0.15,1.1l-0.25,1.225l-0.325,1.351l-0.399,1.425
	l-0.476,1.525l-0.524,1.55l-0.625,1.6l-0.676,1.601c-0.238,0.535-0.488,1.069-0.75,1.6c-0.257,0.531-0.523,1.057-0.8,1.575
	c-0.28,0.51-0.572,1.01-0.875,1.5c-0.299,0.496-0.607,0.979-0.925,1.45c-0.322,0.474-0.656,0.933-1,1.375
	c-0.342,0.436-0.691,0.853-1.05,1.25c-0.356,0.397-0.724,0.772-1.101,1.125c-0.376,0.351-0.759,0.675-1.149,0.975
	c-0.391,0.306-0.791,0.58-1.2,0.825c-0.409,0.24-0.826,0.448-1.25,0.625c-0.425,0.179-0.858,0.32-1.3,0.425
	c-0.444,0.096-0.894,0.154-1.351,0.175l-0.399,0.025c-0.394-0.001-0.794-0.034-1.2-0.101c-0.404-0.067-0.813-0.168-1.225-0.3
	c-0.484-0.148-0.976-0.348-1.476-0.6c-0.495-0.259-0.995-0.566-1.5-0.925c-1.06-0.764-1.894-1.63-2.5-2.601
	c-0.294-0.483-0.552-0.983-0.774-1.5c-0.229-0.512-0.421-1.037-0.575-1.575c-0.157-0.544-0.299-1.095-0.425-1.649
	c-0.125-0.557-0.233-1.115-0.325-1.675l-0.3-1.65l-0.301-1.6c-0.107-0.518-0.241-1.018-0.399-1.5
	c-0.168-0.496-0.359-0.971-0.575-1.426c-0.42-0.894-1.02-1.669-1.8-2.324c-0.78-0.656-1.821-1.147-3.125-1.476
	c-0.512-0.132-1.078-0.231-1.7-0.3c-0.616-0.065-1.283-0.099-2-0.1l-1.25,0.024l-5.925,1.275l-6.55,8.975
	c-0.444,0.467-0.937,0.934-1.476,1.4c-0.539,0.47-1.122,0.937-1.75,1.399c-0.624,0.463-1.283,0.913-1.975,1.351
	c-0.696,0.44-1.422,0.865-2.175,1.274c-0.748,0.408-1.515,0.792-2.301,1.15c-0.794,0.353-1.603,0.678-2.425,0.975
	c-0.812,0.305-1.629,0.571-2.45,0.801c-0.826,0.23-1.651,0.422-2.475,0.574c-0.605,0.103-1.205,0.178-1.8,0.226
	c-0.593,0.061-1.177,0.094-1.75,0.1c-0.421-0.002-0.837-0.019-1.25-0.05c-1.548-0.106-2.981-0.465-4.3-1.075
	c-0.951-0.47-1.718-1.053-2.301-1.75c-0.287-0.348-0.546-0.714-0.774-1.1c-0.223-0.384-0.415-0.783-0.575-1.2
	c-0.173-0.416-0.331-0.841-0.475-1.275c-0.132-0.427-0.249-0.86-0.351-1.3l-0.649-2.649c-0.109-0.43-0.234-0.846-0.375-1.25
	c-0.144-0.415-0.302-0.815-0.476-1.2c-0.167-0.373-0.367-0.724-0.6-1.05c-0.236-0.334-0.503-0.643-0.8-0.926
	c-0.294-0.283-0.636-0.533-1.025-0.75c-0.396-0.209-0.837-0.385-1.325-0.524c-0.397-0.121-0.84-0.213-1.325-0.275
	c-0.484-0.063-1.01-0.097-1.574-0.1l-0.775,0.024c-0.512,0.033-1.021,0.116-1.525,0.25c-0.498,0.126-0.989,0.301-1.475,0.525
	c-0.493,0.231-0.985,0.498-1.475,0.8c-0.48,0.301-0.955,0.635-1.426,1c-0.475,0.365-0.949,0.748-1.425,1.15
	c-0.479,0.4-0.953,0.817-1.425,1.25l-2.825,2.625c-0.471,0.439-0.946,0.864-1.425,1.274c-0.483,0.409-0.966,0.801-1.45,1.176
	c-0.478,0.373-0.961,0.714-1.45,1.024c-0.489,0.309-0.981,0.584-1.475,0.825c-0.5,0.24-1.009,0.432-1.525,0.575
	c-0.512,0.149-1.029,0.249-1.55,0.3l-0.575,0.025c-0.435,0.003-0.877-0.039-1.325-0.125c-0.446-0.098-0.896-0.239-1.35-0.426
	c-0.329-0.132-0.62-0.291-0.875-0.475c-0.248-0.185-0.456-0.393-0.625-0.625c-0.347-0.474-0.588-1.015-0.725-1.625
	c-0.072-0.298-0.131-0.606-0.175-0.925c-0.04-0.325-0.064-0.658-0.075-1l-0.05-2.05l-0.025-1l-0.1-0.976
	c-0.037-0.32-0.096-0.629-0.175-0.925c-0.08-0.29-0.179-0.565-0.3-0.825c-0.252-0.519-0.636-0.952-1.15-1.3
	c-0.254-0.179-0.554-0.329-0.9-0.45c-0.356-0.112-0.756-0.195-1.2-0.25l-0.85-0.1l-0.85-0.025c-0.472,0-0.939,0.025-1.4,0.075
	c-0.459,0.05-0.909,0.125-1.35,0.225c-0.711,0.163-1.411,0.371-2.1,0.625c-0.683,0.248-1.35,0.54-2,0.875
	c-0.657,0.34-1.307,0.706-1.95,1.101c-0.645,0.392-1.278,0.808-1.9,1.25l-1.85,1.375l-1.8,1.375l-1.8,1.399l-1.8,1.325
	c-0.586,0.421-1.178,0.812-1.775,1.175c-0.607,0.374-1.216,0.716-1.825,1.025c-0.607,0.299-1.224,0.549-1.85,0.75
	c-0.621,0.217-1.246,0.384-1.875,0.5l-0.775,0.075l-0.775,0.05c-0.395,0-0.795-0.025-1.2-0.075c-0.398-0.051-0.798-0.126-1.2-0.225
	c-1.194-0.306-2.202-0.78-3.025-1.425c-0.406-0.328-0.781-0.687-1.125-1.075c-0.342-0.381-0.65-0.789-0.925-1.226
	c-0.284-0.44-0.551-0.898-0.8-1.375c-0.236-0.469-0.453-0.952-0.65-1.449l-0.6-1.525l-0.55-1.525
	c-0.182-0.509-0.374-1.009-0.575-1.5c-0.2-0.495-0.409-0.979-0.625-1.449c-0.218-0.465-0.46-0.906-0.725-1.325
	c-0.262-0.426-0.545-0.826-0.85-1.2c-0.607-0.74-1.357-1.332-2.25-1.775c-0.448-0.216-0.948-0.383-1.5-0.5
	c-0.552-0.125-1.152-0.2-1.8-0.225h-0.225c-0.668-0.002-1.301,0.048-1.9,0.15c-0.589,0.106-1.139,0.265-1.65,0.475
	c-0.546,0.216-1.062,0.474-1.55,0.775c-0.49,0.301-0.948,0.643-1.375,1.024c-0.426,0.389-0.834,0.806-1.225,1.25
	c-0.387,0.434-0.754,0.892-1.1,1.375c-0.349,0.496-0.69,1.004-1.025,1.525c-0.335,0.516-0.66,1.04-0.975,1.575l-0.95,1.625
	l-0.975,1.574c-0.327,0.526-0.668,1.035-1.025,1.525c-0.354,0.479-0.721,0.938-1.1,1.375c-0.382,0.45-0.791,0.867-1.225,1.25
	c-0.435,0.378-0.894,0.72-1.375,1.025c-0.966,0.61-2.075,1.019-3.325,1.225l-1.05,0.15l-1.2,0.149l-1.325,0.125L64.5,364.15
	l-0.95,0.024l-0.975,0.025l-1-0.025c-0.49-0.011-0.974-0.036-1.45-0.075c-0.485-0.044-0.96-0.103-1.425-0.175
	c-0.46-0.064-0.902-0.147-1.325-0.25c-0.421-0.106-0.821-0.231-1.2-0.375c-0.387-0.144-0.746-0.31-1.075-0.5
	c-0.323-0.194-0.615-0.41-0.875-0.649c-0.469-0.438-0.877-0.954-1.225-1.551c-0.175-0.303-0.342-0.619-0.5-0.949
	c-0.151-0.323-0.292-0.656-0.425-1l-0.4-1.051l-0.4-1.1l-0.375-1.075l-0.4-1.075c-0.132-0.352-0.274-0.693-0.425-1.024
	c-0.158-0.329-0.325-0.646-0.5-0.95c-0.168-0.302-0.352-0.585-0.55-0.85c-0.203-0.271-0.419-0.521-0.65-0.75
	c-0.229-0.227-0.479-0.427-0.75-0.601c-0.264-0.169-0.547-0.311-0.85-0.425c-0.271-0.109-0.562-0.192-0.875-0.25
	c-0.314-0.051-0.647-0.076-1-0.075h-0.325c-0.356,0.026-0.698,0.085-1.025,0.175c-0.333,0.077-0.65,0.186-0.95,0.325
	c-0.303,0.15-0.594,0.326-0.875,0.525c-0.279,0.193-0.546,0.41-0.8,0.649c-0.257,0.241-0.507,0.5-0.75,0.775
	c-0.242,0.276-0.475,0.568-0.7,0.875l-0.65,0.95l-0.625,1l-1.275,2.075L36.3,357.8l-0.675,0.95c-0.444,0.643-0.919,1.226-1.425,1.75
	c-0.254,0.255-0.521,0.488-0.8,0.7c-0.281,0.215-0.573,0.406-0.875,0.575l-0.05-0.025l3-46.025l3-0.024
	c-0.006-1.945,0.002-3.896,0.025-5.851c0.028-1.943,0.07-3.885,0.125-5.824c0.053-1.95,0.12-3.892,0.2-5.825l0.3-5.825l0.325-5.825
	l0.425-5.825l0.475-5.8l0.525-5.8l0.6-5.775l0.625-5.8l0.675-5.8L43.5,246l0.75-5.775l0.775-5.8l0.825-5.75l0.825-5.775l0.85-5.775
	l0.875-5.775l2.65-17.3l0.875-5.75l0.875-5.8l0.875-5.775c0.299-1.964,0.641-3.923,1.025-5.875c0.377-1.953,0.793-3.886,1.25-5.8
	c0.458-1.92,0.95-3.836,1.475-5.75c0.529-1.908,1.087-3.8,1.675-5.675c0.585-1.875,1.193-3.75,1.825-5.625
	c0.631-1.872,1.281-3.73,1.95-5.575c0.669-1.847,1.352-3.697,2.05-5.55c0.699-1.852,1.407-3.693,2.125-5.525l4.325-11.05l2.15-5.525
	l2.1-5.55c0.691-1.838,1.366-3.688,2.025-5.55c0.654-1.867,1.288-3.734,1.9-5.6c0.609-1.868,1.192-3.751,1.75-5.65
	c0.563-1.897,1.097-3.797,1.6-5.7c0.182-0.676,0.398-1.359,0.65-2.05c0.25-0.689,0.534-1.381,0.85-2.075
	c0.314-0.695,0.655-1.395,1.025-2.1c0.367-0.7,0.759-1.4,1.175-2.1c0.421-0.707,0.863-1.415,1.325-2.125
	c0.458-0.703,0.933-1.403,1.425-2.1c0.503-0.7,1.02-1.4,1.55-2.1c0.515-0.705,1.04-1.405,1.575-2.1l1.65-2.075l1.675-2.025
	l3.325-3.95l3.15-3.75l1.45-1.75l1.35-1.7L109.3,49.3l2.25-2.85l2.325-2.875l2.4-2.925l2.475-2.9c0.836-0.97,1.686-1.937,2.55-2.9
	c0.859-0.96,1.726-1.91,2.6-2.85c0.879-0.945,1.771-1.878,2.675-2.8c0.91-0.918,1.826-1.818,2.75-2.7
	c0.921-0.878,1.855-1.737,2.8-2.575c0.936-0.842,1.878-1.658,2.825-2.45c0.956-0.787,1.922-1.545,2.9-2.275
	c0.979-0.733,1.962-1.434,2.95-2.1c0.982-0.662,1.974-1.287,2.975-1.875c0.998-0.599,1.998-1.157,3-1.675
	c4.057-2.019,8.391-3.577,13-4.675c4.609-1.108,9.393-1.792,14.35-2.05L176.5,6.75l2.375-0.025c1.702-0.004,3.419,0.038,5.15,0.125
	c1.723,0.089,3.447,0.222,5.175,0.4c5.105,0.538,10.181,1.429,15.225,2.675c5.033,1.248,9.933,2.814,14.7,4.7
	c4.769,1.883,9.302,4.05,13.6,6.5c4.296,2.453,8.255,5.152,11.875,8.1c3.624,2.955,6.807,6.122,9.551,9.5
	c0.883,1.103,1.741,2.244,2.574,3.425c0.84,1.186,1.648,2.402,2.426,3.65c0.771,1.244,1.521,2.519,2.25,3.825
	c0.735,1.302,1.443,2.627,2.125,3.975c0.669,1.359,1.319,2.742,1.949,4.15c0.642,1.402,1.258,2.818,1.851,4.25
	c0.584,1.424,1.15,2.866,1.7,4.325c0.555,1.468,1.088,2.943,1.6,4.425c0.507,1.474,0.999,2.958,1.475,4.45
	c0.485,1.493,0.952,2.985,1.4,4.475c0.438,1.49,0.862,2.982,1.275,4.475c0.415,1.501,0.814,2.993,1.199,4.475l1.15,4.4l1.05,4.325
	l1,4.25L280.125,105.725z"/>
<path style="fill-rule:evenodd;clip-rule:evenodd;fill:#949494;" d="M217.9,37.575l0.925,0.025c0.6,0.026,1.191,0.084,1.774,0.175
	c0.597,0.093,1.18,0.218,1.75,0.375c0.567,0.157,1.118,0.365,1.65,0.625c0.529,0.267,1.038,0.583,1.525,0.95l-0.025,0.05l-14-2
	l-0.025-0.05l1.825-0.05l1.825-0.075l0.95-0.025H217H217.9z"/>
<path style="fill-rule:evenodd;clip-rule:evenodd;fill:#060606;" d="M216.325,38.425c0.896,0,1.779,0.058,2.649,0.175
	c0.869,0.117,1.72,0.292,2.551,0.525c1.801,0.512,3.401,1.312,4.8,2.4c1.395,1.091,2.462,2.483,3.2,4.175l-0.051,0.05l-10.975-4.8
	l-17,4.8c0.886-1.579,2.086-2.903,3.6-3.975c1.509-1.065,3.192-1.882,5.051-2.45c1.859-0.562,3.768-0.862,5.725-0.9H216.325z"/>
<path style="fill-rule:evenodd;clip-rule:evenodd;fill:#060606;" d="M213.05,56.875c0.473,0.036,0.956,0.127,1.45,0.275
	c0.5,0.137,1.009,0.329,1.525,0.575c0.514,0.252,1.038,0.568,1.574,0.95c0.534,0.388,1.075,0.838,1.625,1.35
	c1.364,1.27,2.506,2.636,3.426,4.1c0.462,0.728,0.878,1.478,1.25,2.25c0.372,0.775,0.697,1.567,0.975,2.375
	c0.27,0.801,0.503,1.618,0.7,2.45c0.204,0.84,0.37,1.69,0.5,2.55c0.119,0.856,0.211,1.723,0.274,2.6
	c0.07,0.879,0.112,1.763,0.125,2.65c0.011,0.887,0.003,1.779-0.024,2.675c-0.022,0.893-0.064,1.785-0.125,2.675l-0.226,2.675
	l-0.3,2.65l-0.625,5.175l-0.3,2.5l-0.25,2.375l-0.15,1.85l-0.125,1.85l-0.25,3.675l-0.175,1.825l-0.2,1.8
	c-0.07,0.586-0.153,1.17-0.25,1.75c-0.104,0.591-0.221,1.174-0.35,1.75c-0.123,0.571-0.265,1.137-0.425,1.7
	c-0.166,0.559-0.349,1.109-0.55,1.65c-0.2,0.548-0.425,1.089-0.676,1.625c-0.251,0.535-0.525,1.06-0.824,1.575
	c-0.303,0.508-0.637,1.008-1,1.5c-0.354,0.503-0.738,0.995-1.15,1.475c-0.421,0.476-0.879,0.942-1.375,1.4
	c-0.491,0.454-1.016,0.896-1.575,1.325c-1.273,0.938-2.698,1.597-4.274,1.975c-0.78,0.184-1.581,0.326-2.4,0.425
	c-0.827,0.102-1.669,0.16-2.525,0.175H205.2l-1.976-0.025l-1.975-0.075l-2.45-0.125l-2.325-0.05c-0.316-1.221-0.6-2.421-0.85-3.6
	c-0.258-1.178-0.491-2.337-0.7-3.475c-0.204-1.133-0.387-2.266-0.55-3.4c-0.163-1.132-0.305-2.257-0.425-3.375
	c-0.12-1.127-0.22-2.269-0.3-3.425c-0.079-1.152-0.138-2.311-0.176-3.475c-0.035-1.164-0.052-2.356-0.05-3.575
	c-0.01-1.223-0.002-2.464,0.025-3.725l3.825-18l0.149-1.1l0.226-1.275l0.3-1.4l0.35-1.55l0.425-1.625l0.5-1.7l0.575-1.75
	l0.625-1.775c0.222-0.595,0.455-1.186,0.7-1.775c0.24-0.582,0.49-1.157,0.75-1.725c0.264-0.57,0.538-1.128,0.825-1.675
	c0.29-0.549,0.59-1.082,0.899-1.6c0.306-0.52,0.622-1.02,0.95-1.5c0.332-0.482,0.674-0.94,1.025-1.375
	c0.354-0.429,0.721-0.829,1.1-1.2c0.374-0.373,0.758-0.715,1.15-1.025c0.388-0.312,0.788-0.588,1.2-0.825
	c0.416-0.239,0.841-0.439,1.274-0.6c0.366-0.124,0.741-0.216,1.125-0.275c0.378-0.066,0.761-0.1,1.15-0.1H213.05z"/>
<path style="fill-rule:evenodd;clip-rule:evenodd;fill:#CFCCCC;" d="M146.6,61.025l1.7,0.025l1.675,0.075
	c0.717,0.056,1.417,0.131,2.1,0.225c0.68,0.089,1.338,0.198,1.975,0.325c0.638,0.12,1.247,0.262,1.825,0.425
	c0.584,0.171,1.134,0.362,1.65,0.575v0.075H133.5l-0.025-0.05c0.542-0.168,1.109-0.318,1.7-0.45c0.589-0.143,1.206-0.276,1.85-0.4
	c0.654-0.112,1.329-0.212,2.025-0.3c0.685-0.095,1.385-0.178,2.1-0.25c0.725-0.072,1.458-0.13,2.2-0.175
	c0.738-0.048,1.48-0.081,2.225-0.1H146.6z"/>
<path style="fill-rule:evenodd;clip-rule:evenodd;fill:#060606;" d="M147.45,61.925l1.2,0.075c0.681,0.04,1.347,0.098,2,0.175
	c0.661,0.082,1.302,0.182,1.925,0.3c0.627,0.115,1.227,0.249,1.8,0.4c0.564,0.158,1.097,0.333,1.6,0.525
	c0.507,0.183,0.973,0.382,1.4,0.6c0.426,0.226,0.81,0.468,1.15,0.725l-0.025,0.05l-27,2l-0.025-0.05
	c0.502-0.749,1.194-1.407,2.075-1.975c0.439-0.279,0.914-0.538,1.425-0.775c0.518-0.239,1.067-0.456,1.65-0.65
	c0.576-0.195,1.176-0.371,1.8-0.525c0.623-0.154,1.264-0.288,1.925-0.4c0.663-0.111,1.338-0.203,2.025-0.275
	c0.693-0.078,1.393-0.137,2.1-0.175l0.9-0.025h0.9H147.45z"/>
<path style="fill-rule:evenodd;clip-rule:evenodd;fill:#CFCCCC;" d="M148.225,65.25c0.748,0.005,1.489,0.03,2.225,0.075
	c0.736,0.038,1.461,0.096,2.175,0.175c0.871,0.098,1.712,0.248,2.525,0.45c0.827,0.208,1.619,0.466,2.375,0.775v0.05L155,66.85
	l-2.65,0.125l-2.75,0.15l-2.775,0.1h-1.05c-0.748,0.003-1.489-0.013-2.225-0.05c-0.736-0.039-1.461-0.097-2.175-0.175
	c-0.871-0.098-1.712-0.248-2.525-0.45c-0.826-0.208-1.618-0.466-2.375-0.775v-0.05L139,65.65l2.65-0.125l2.75-0.15l2.775-0.1
	L148.225,65.25z"/>
<path style="fill-rule:evenodd;clip-rule:evenodd;fill:#3F3F3F;" d="M200.5,71.775l-0.025-6.025l0.025-0.025
	c0.14,0.291,0.257,0.566,0.35,0.825l0.226,0.775c0.117,0.488,0.176,0.963,0.175,1.425c0.001,0.461-0.058,0.937-0.175,1.425
	l-0.226,0.775l-0.324,0.825H200.5z"/>
<path style="fill-rule:evenodd;clip-rule:evenodd;fill:#3F3F3F;" d="M204.4,70.425c0.051,0.657,0.067,1.332,0.05,2.025
	c-0.007,0.695-0.049,1.403-0.125,2.125c-0.083,0.721-0.191,1.454-0.325,2.2c-0.134,0.751-0.292,1.509-0.475,2.275
	c-0.185,0.76-0.384,1.527-0.601,2.3c-0.211,0.774-0.436,1.549-0.675,2.325L201.5,86l-0.775,2.3l-1.55,4.5l-0.725,2.15L197.8,97
	c-0.197,0.669-0.372,1.319-0.524,1.95c-0.165,0.623-0.307,1.223-0.426,1.8c-0.407,2.306-0.54,4.506-0.399,6.6
	c0.072,1.042,0.181,2.075,0.325,3.1c0.14,1.024,0.314,2.032,0.524,3.025l1.3,6.025c0.214,0.997,0.397,2.013,0.551,3.05
	c0.156,1.045,0.281,2.104,0.375,3.175c0.811-0.003,1.585-0.028,2.324-0.075c0.741-0.045,1.449-0.112,2.125-0.2
	c0.689-0.081,1.364-0.189,2.025-0.325c0.651-0.14,1.285-0.307,1.9-0.5c0.624-0.192,1.249-0.417,1.875-0.675
	c0.62-0.261,1.237-0.553,1.85-0.875c0.609-0.321,1.234-0.679,1.875-1.075c0.648-0.39,1.307-0.815,1.975-1.275l0.051,0.025
	c-0.632,1.771-1.573,3.095-2.825,3.975c-1.253,0.869-2.686,1.444-4.3,1.725c-0.753,0.133-1.52,0.232-2.301,0.3
	c-0.791,0.067-1.591,0.1-2.399,0.1h-0.3l-4.926-0.075l-0.574-3.425c-0.194-1.126-0.402-2.234-0.625-3.325l-0.65-3.275l-0.6-3.275
	c-0.184-1.085-0.334-2.185-0.45-3.3c-0.126-1.11-0.218-2.227-0.275-3.35c-0.058-1.131-0.058-2.29,0-3.475
	c0.067-1.181,0.192-2.381,0.375-3.6l7.775-33l0.075-0.025c0.227,0.575,0.409,1.175,0.55,1.8
	C204.228,69.138,204.336,69.771,204.4,70.425z"/>
<path style="fill-rule:evenodd;clip-rule:evenodd;fill:#060606;" d="M158.975,79.725c0.227,0.629,0.427,1.28,0.601,1.95
	c0.18,0.672,0.338,1.364,0.475,2.075c0.139,0.702,0.256,1.419,0.351,2.15c0.085,0.745,0.151,1.503,0.199,2.275
	c0.053,0.767,0.086,1.542,0.101,2.325c0.016,0.783,0.016,1.575,0,2.375c-0.018,0.797-0.051,1.597-0.101,2.4
	c-0.054,0.805-0.12,1.614-0.199,2.425c-0.071,0.819-0.154,1.636-0.25,2.45l-0.325,2.4l-0.375,2.375l-0.45,2.35l-0.475,2.25
	l-0.5,2.175l-0.525,2.075l-0.525,1.975l-0.55,1.825l-0.525,1.675l-0.525,1.5c-0.168,0.513-0.318,1.038-0.45,1.575
	c-0.136,0.542-0.252,1.092-0.35,1.65l-0.325,1.675l-0.325,1.65c-0.121,0.553-0.271,1.094-0.45,1.625
	c-0.172,0.523-0.373,1.031-0.6,1.525c-0.467,1.007-1.142,1.915-2.025,2.725c-0.28,0.247-0.588,0.472-0.925,0.675
	c-0.349,0.207-0.724,0.391-1.125,0.55c-0.387,0.152-0.795,0.285-1.225,0.4c-0.439,0.12-0.898,0.219-1.375,0.3
	c-0.469,0.082-0.953,0.148-1.45,0.2c-0.505,0.049-1.022,0.082-1.55,0.1l-1.175,0.025l-1-0.025L140,135.35l-1.65-0.1l-1.6-0.15
	l-1.6-0.2l-1.525-0.225l-1.475-0.225l-1.35-0.25l-2.325-0.425c-0.218-1.625-0.401-3.225-0.55-4.8
	c-0.15-1.568-0.275-3.109-0.375-4.625c-0.095-1.519-0.162-3.035-0.2-4.55c-0.037-1.52-0.045-3.029-0.025-4.525
	c0.017-1.496,0.066-3.004,0.15-4.525c0.092-1.523,0.217-3.048,0.375-4.575c0.154-1.523,0.345-3.073,0.575-4.65
	c0.223-1.584,0.481-3.184,0.775-4.8l5.25-22l1.25-0.175c0.404-0.065,0.804-0.148,1.2-0.25l1.2-0.35l1.175-0.425l1.175-0.45
	l1.175-0.475l1.15-0.45l1.175-0.425c0.381-0.138,0.765-0.263,1.15-0.375c0.393-0.105,0.784-0.197,1.175-0.275
	c0.381-0.087,0.765-0.154,1.15-0.2c0.392-0.038,0.784-0.054,1.175-0.05c0.412-0.004,0.821,0.021,1.225,0.075
	c0.399,0.063,0.799,0.154,1.2,0.275c0.404,0.113,0.812,0.263,1.225,0.45c0.407,0.197,0.815,0.431,1.225,0.7
	c0.521,0.332,1.013,0.698,1.475,1.1c0.449,0.401,0.865,0.834,1.25,1.3c0.394,0.47,0.76,0.97,1.1,1.5
	c0.338,0.532,0.646,1.09,0.925,1.675C158.499,78.483,158.749,79.092,158.975,79.725z"/>
<path style="fill-rule:evenodd;clip-rule:evenodd;fill:#3F3F3F;" d="M151.525,73.625l0.975,0.05l2.025,5.025l-0.025,0.05l-3.025-4
	c-0.711,0.053-1.378,0.145-2,0.275c-0.624,0.137-1.199,0.312-1.725,0.525c-1.053,0.416-1.936,0.991-2.65,1.725
	c-0.717,0.733-1.283,1.634-1.7,2.7c-0.208,0.538-0.382,1.121-0.525,1.75c-0.15,0.625-0.267,1.292-0.35,2L138.5,83.75l-0.975-5.6
	v2.25l-0.075,1.3l-0.125,1.25c-0.053,0.41-0.128,0.819-0.225,1.225c-0.096,0.405-0.213,0.805-0.35,1.2
	c-0.144,0.4-0.319,0.8-0.525,1.2c-0.204,0.395-0.438,0.787-0.7,1.175l0.125-1.675l0.15-1.675c0.043-0.563,0.101-1.122,0.175-1.675
	c0.084-0.551,0.185-1.092,0.3-1.625c0.106-0.533,0.248-1.05,0.425-1.55c0.183-0.503,0.399-0.986,0.65-1.45l0.125-0.2v-0.175
	l0.025-0.05l0.05,0.075c0.242-0.388,0.525-0.755,0.85-1.1c0.319-0.34,0.677-0.657,1.075-0.95l0.05,0.025v6.95h1.95
	c0.056-1.878,0.323-3.428,0.8-4.65c0.493-1.238,1.202-2.196,2.125-2.875c0.918-0.668,2.051-1.11,3.4-1.325
	c0.419-0.067,0.861-0.117,1.325-0.15c0.472-0.034,0.964-0.05,1.475-0.05H151.525z"/>
<path style="fill-rule:evenodd;clip-rule:evenodd;fill:#CFCCCC;" d="M228.2,83.75l-0.025,1.575L228.1,86.85l-0.125,1.525
	l-0.199,1.45l-0.226,1.4c-0.091,0.441-0.19,0.866-0.3,1.275c-0.1,0.419-0.208,0.819-0.325,1.2c-0.125,0.38-0.259,0.738-0.399,1.075
	H226.5l-0.025-22.025l0.025-0.025c0.159,0.343,0.301,0.702,0.425,1.075c0.117,0.372,0.226,0.764,0.325,1.175
	c0.109,0.417,0.209,0.85,0.3,1.3l0.226,1.4l0.199,1.45l0.125,1.525l0.075,1.525L228.2,83.75z"/>
<path style="fill-rule:evenodd;clip-rule:evenodd;fill:#949494;" d="M133.5,80.775l-0.025-6.025l0.025-0.025
	c0.14,0.291,0.257,0.566,0.35,0.825l0.225,0.775c0.118,0.488,0.176,0.963,0.175,1.425c0.001,0.461-0.057,0.937-0.175,1.425
	l-0.225,0.775l-0.325,0.825H133.5z"/>
<path style="fill-rule:evenodd;clip-rule:evenodd;fill:#6E6E6E;" d="M161.5,88.725l0.1,2.25l0.025,2.275l-0.025,2.275l-0.1,2.25
	l-0.175,2.175c-0.064,0.718-0.14,1.418-0.226,2.1c-0.088,0.674-0.188,1.325-0.3,1.95c-0.105,0.621-0.223,1.212-0.35,1.775
	c-0.13,0.578-0.271,1.119-0.425,1.625c-0.156,0.498-0.323,0.956-0.5,1.375H159.5l-0.025-31.025l0.025-0.025
	c0.194,0.426,0.37,0.885,0.525,1.375c0.153,0.506,0.295,1.047,0.425,1.625c0.127,0.562,0.244,1.154,0.35,1.775
	c0.111,0.625,0.212,1.276,0.3,1.95c0.086,0.681,0.161,1.381,0.226,2.1L161.5,88.725z"/>
<path style="fill-rule:evenodd;clip-rule:evenodd;fill:#3F3F3F;" d="M158.6,92.075l-0.024,1.65l-0.101,1.675l-0.149,1.675l-0.2,1.65
	l-0.225,1.65l-0.275,1.6l-0.3,1.55L157,105l-0.35,1.4l-0.4,1.325l-0.4,1.2l-0.425,1.1c-0.147,0.341-0.297,0.657-0.45,0.95
	c-0.148,0.292-0.298,0.559-0.45,0.8H154.5l-0.025-0.025c0.094-1.366,0.202-2.724,0.325-4.075c0.12-1.342,0.253-2.667,0.4-3.975
	l0.425-3.95L156,95.825c0.117-1.298,0.2-2.606,0.25-3.925c0.042-1.323,0.05-2.648,0.025-3.975c-0.017-1.321-0.092-2.663-0.225-4.025
	c-0.135-1.373-0.327-2.756-0.575-4.15l0.05-0.025c0.23,0.206,0.447,0.439,0.65,0.7c0.207,0.258,0.398,0.542,0.575,0.85
	c0.171,0.302,0.329,0.626,0.475,0.975c0.147,0.354,0.28,0.729,0.4,1.125c0.119,0.398,0.228,0.815,0.325,1.25
	c0.104,0.434,0.195,0.884,0.274,1.35L158.4,87.4l0.125,1.5l0.074,1.575V92.075z"/>
<path style="fill-rule:evenodd;clip-rule:evenodd;fill:#3F3F3F;" d="M279.5,92.775l-0.025-6.025l0.025-0.025
	c0.14,0.291,0.257,0.566,0.35,0.825l0.226,0.775c0.117,0.488,0.176,0.963,0.175,1.425c0.001,0.461-0.058,0.937-0.175,1.425
	l-0.226,0.775l-0.324,0.825H279.5z"/>
<path style="fill-rule:evenodd;clip-rule:evenodd;fill:#3F3F3F;" d="M133.5,94.775l-0.025-6.025l0.025-0.025
	c0.14,0.291,0.257,0.566,0.35,0.825l0.225,0.775c0.118,0.488,0.176,0.963,0.175,1.425c0.001,0.461-0.057,0.937-0.175,1.425
	l-0.225,0.775l-0.325,0.825H133.5z"/>
<path style="fill-rule:evenodd;clip-rule:evenodd;fill:#3F3F3F;" d="M223.025,105.175c-0.075,0.82-0.184,1.637-0.325,2.45
	c-0.141,0.812-0.316,1.612-0.525,2.4c-0.208,0.793-0.45,1.568-0.725,2.325c-0.273,0.752-0.582,1.477-0.925,2.175
	c-0.343,0.691-0.718,1.349-1.125,1.975c-0.824,1.271-1.782,2.362-2.875,3.275l1.199-3.4c0.386-1.099,0.735-2.166,1.051-3.2
	c0.321-1.035,0.612-2.068,0.875-3.1c0.256-1.026,0.481-2.042,0.675-3.05c0.201-1.013,0.376-2.046,0.524-3.1
	c0.144-1.053,0.261-2.12,0.351-3.2c0.089-1.082,0.155-2.207,0.2-3.375c0.048-1.165,0.072-2.365,0.074-3.6l0.025-0.025
	c0.293,0.659,0.543,1.342,0.75,2.05c0.201,0.707,0.368,1.44,0.5,2.2c0.133,0.758,0.233,1.533,0.3,2.325
	c0.059,0.797,0.084,1.605,0.075,2.425C223.126,103.54,223.093,104.356,223.025,105.175z"/>
<path style="fill-rule:evenodd;clip-rule:evenodd;fill:#3F3F3F;" d="M194.375,106.875l0.025,1.875l-0.025,1.875l-0.1,1.875
	l-0.15,1.8l-0.2,1.725c-0.073,0.568-0.156,1.118-0.25,1.65c-0.099,0.53-0.207,1.039-0.325,1.525
	c-0.114,0.477-0.239,0.927-0.375,1.35c-0.14,0.438-0.29,0.847-0.449,1.225H192.5l-0.025-26.025l0.025-0.025
	c0.177,0.386,0.335,0.794,0.475,1.225c0.136,0.423,0.261,0.873,0.375,1.35c0.118,0.487,0.227,0.995,0.325,1.525
	c0.094,0.532,0.177,1.082,0.25,1.65l0.2,1.725l0.15,1.8L194.375,106.875z"/>
<path style="fill-rule:evenodd;clip-rule:evenodd;fill:#6E6E6E;" d="M224.5,111.775l-0.025-16.025l0.025-0.025
	c0.245,0.562,0.453,1.153,0.625,1.775c0.17,0.617,0.312,1.267,0.425,1.95c0.112,0.694,0.195,1.402,0.25,2.125
	c0.062,0.716,0.096,1.441,0.101,2.175c-0.005,0.734-0.039,1.459-0.101,2.175c-0.055,0.723-0.138,1.431-0.25,2.125
	c-0.113,0.684-0.255,1.333-0.425,1.95c-0.173,0.629-0.372,1.221-0.6,1.775H224.5z"/>
<path style="fill-rule:evenodd;clip-rule:evenodd;fill:#3F3F3F;" d="M127.5,110.775l-0.025-11.025l0.025-0.025
	c0.198,0.438,0.364,0.879,0.5,1.325c0.14,0.451,0.256,0.909,0.35,1.375c0.089,0.462,0.156,0.929,0.2,1.4
	c0.04,0.474,0.056,0.949,0.05,1.425c0.006,0.476-0.011,0.951-0.05,1.425c-0.044,0.471-0.111,0.938-0.2,1.4
	c-0.094,0.466-0.21,0.924-0.35,1.375c-0.137,0.452-0.295,0.894-0.475,1.325H127.5z"/>
<path style="fill-rule:evenodd;clip-rule:evenodd;fill:#CFCCCC;" d="M279.5,106.775l-0.025-6.025l0.025-0.025
	c0.14,0.291,0.257,0.566,0.35,0.825l0.226,0.775c0.117,0.488,0.176,0.963,0.175,1.425c0.001,0.461-0.058,0.937-0.175,1.425
	l-0.226,0.775l-0.324,0.825H279.5z"/>
<path style="fill-rule:evenodd;clip-rule:evenodd;fill:#3F3F3F;" d="M130.5,111.775l-0.025-10.025l0.025-0.025
	c0.695,1.634,1.045,3.309,1.05,5.025c-0.006,1.722-0.348,3.397-1.025,5.025H130.5z"/>
<path style="fill-rule:evenodd;clip-rule:evenodd;fill:#6E6E6E;" d="M284.5,113.775l-0.025-6.025l0.025-0.025
	c0.14,0.291,0.257,0.566,0.35,0.825l0.226,0.775c0.117,0.488,0.176,0.963,0.175,1.425c0.001,0.461-0.058,0.937-0.175,1.425
	l-0.226,0.775l-0.324,0.825H284.5z"/>
<path style="fill-rule:evenodd;clip-rule:evenodd;fill:#6E6E6E;" d="M281.5,114.775l-0.025-6.025l0.025-0.025
	c0.14,0.291,0.257,0.566,0.35,0.825l0.226,0.775c0.117,0.488,0.176,0.963,0.175,1.425c0.001,0.461-0.058,0.937-0.175,1.425
	l-0.226,0.775l-0.324,0.825H281.5z"/>
<path style="fill-rule:evenodd;clip-rule:evenodd;fill:#949494;" d="M125.5,125.775l-0.025-14.025l0.025-0.025
	c0.226,0.514,0.418,1.047,0.575,1.6c0.159,0.552,0.292,1.127,0.4,1.725c0.1,0.598,0.175,1.207,0.225,1.825
	c0.051,0.619,0.076,1.244,0.075,1.875c0.001,0.631-0.024,1.256-0.075,1.875c-0.05,0.619-0.125,1.227-0.225,1.825
	c-0.107,0.597-0.241,1.172-0.4,1.725c-0.158,0.56-0.342,1.093-0.55,1.6H125.5z"/>
<path style="fill-rule:evenodd;clip-rule:evenodd;fill:#3F3F3F;" d="M152.725,116.25c0.305-0.665,0.605-1.29,0.9-1.875
	c0.291-0.593,0.574-1.143,0.85-1.65l0.05,0.025c0.093,0.532,0.152,1.082,0.175,1.65c0.01,0.578-0.015,1.169-0.075,1.775
	c-0.047,0.599-0.122,1.207-0.225,1.825c-0.115,0.628-0.256,1.261-0.425,1.9c-0.163,0.631-0.346,1.265-0.55,1.9
	c-0.198,0.636-0.414,1.269-0.65,1.9c-0.245,0.63-0.503,1.255-0.775,1.875c-0.272,0.618-0.556,1.227-0.85,1.825
	c-0.286,0.605-0.577,1.197-0.875,1.775c-0.305,0.568-0.613,1.118-0.925,1.65l-0.925,1.55c-0.304,0.492-0.604,0.959-0.9,1.4H147.5
	l-17-2l-0.025-0.025l1-4l0.05-0.025c1.606,1.798,3.106,3.082,4.5,3.85c1.271,0.709,2.463,1.067,3.575,1.075l0.3-0.025
	c1.199-0.064,2.315-0.447,3.35-1.15c1.028-0.71,1.987-1.644,2.875-2.8c0.447-0.583,0.88-1.2,1.3-1.85
	c0.425-0.646,0.833-1.321,1.225-2.025c0.386-0.707,0.761-1.424,1.125-2.15c0.363-0.721,0.713-1.445,1.05-2.175L152.725,116.25z"/>
<path style="fill-rule:evenodd;clip-rule:evenodd;fill:#3F3F3F;" d="M128.5,125.775l-0.025-12.025l0.025-0.025
	c0.208,0.466,0.382,0.941,0.525,1.425c0.141,0.479,0.258,0.971,0.35,1.475c0.099,0.51,0.173,1.027,0.225,1.55
	c0.049,0.522,0.074,1.047,0.075,1.575c-0.001,0.528-0.026,1.053-0.075,1.575c-0.052,0.523-0.126,1.04-0.225,1.55
	c-0.092,0.504-0.209,0.996-0.35,1.475c-0.143,0.49-0.31,0.965-0.5,1.425H128.5z"/>
<path style="fill-rule:evenodd;clip-rule:evenodd;fill:#3F3F3F;" d="M154.5,126.775l-0.025-7.025l0.025-0.025
	c0.15,0.33,0.275,0.646,0.375,0.95c0.1,0.299,0.183,0.591,0.25,0.875c0.066,0.285,0.117,0.568,0.15,0.85
	c0.033,0.287,0.05,0.57,0.05,0.85s-0.017,0.563-0.05,0.85c-0.033,0.282-0.083,0.565-0.15,0.85c-0.067,0.283-0.15,0.575-0.25,0.875
	c-0.101,0.311-0.217,0.627-0.35,0.95H154.5z"/>
<path style="fill-rule:evenodd;clip-rule:evenodd;fill:#B4B4B4;" d="M284.875,128.825c-0.101,0.311-0.217,0.627-0.35,0.95H284.5
	l-0.025-7.025l0.025-0.025c0.15,0.33,0.275,0.646,0.375,0.95c0.1,0.299,0.184,0.591,0.25,0.875c0.066,0.285,0.116,0.568,0.15,0.85
	c0.033,0.287,0.05,0.57,0.05,0.85s-0.017,0.563-0.05,0.85c-0.034,0.282-0.084,0.565-0.15,0.85
	C285.059,128.233,284.975,128.525,284.875,128.825z"/>
<path style="fill-rule:evenodd;clip-rule:evenodd;fill:#949494;" d="M205.525,128.425c0.671-0.004,1.338,0.013,2,0.05
	c0.667,0.038,1.326,0.096,1.975,0.175c0.71,0.091,1.401,0.225,2.075,0.4c0.673,0.176,1.322,0.393,1.95,0.65v0.05l-2.101,0.05
	l-2.149,0.1l-2.2,0.1l-2.226,0.05h-0.375c-0.672,0.004-1.339-0.012-2-0.05c-0.668-0.047-1.326-0.114-1.975-0.2
	c-0.71-0.091-1.401-0.225-2.075-0.4c-0.673-0.168-1.323-0.376-1.95-0.625v-0.05l2.101-0.075l2.149-0.1l2.2-0.075l2.226-0.05H205.525
	z"/>
<path style="fill-rule:evenodd;clip-rule:evenodd;fill:#4F4F4F;" d="M286.5,139.775l-1.025-10.025l0.051-0.025
	c0.289,0.384,0.547,0.775,0.774,1.175c0.225,0.386,0.416,0.778,0.575,1.175c0.155,0.411,0.28,0.827,0.375,1.25
	c0.098,0.413,0.164,0.83,0.2,1.25c0.036,0.421,0.045,0.846,0.024,1.275c-0.021,0.432-0.071,0.865-0.149,1.3
	c-0.081,0.431-0.189,0.864-0.325,1.3c-0.132,0.442-0.29,0.883-0.475,1.325H286.5z"/>
<path style="fill-rule:evenodd;clip-rule:evenodd;fill:#3F3F3F;" d="M141.2,134.35c0.688,0.004,1.372,0.029,2.05,0.075
	c0.685,0.038,1.36,0.096,2.025,0.175c0.754,0.098,1.488,0.239,2.2,0.425c0.709,0.182,1.393,0.407,2.05,0.675v0.05l-2.2,0.05
	l-2.275,0.1l-2.35,0.125l-2.35,0.05h-0.55c-0.688,0.004-1.372-0.013-2.05-0.05c-0.686-0.038-1.361-0.096-2.025-0.175
	c-0.755-0.097-1.488-0.239-2.2-0.425c-0.709-0.182-1.393-0.407-2.05-0.675v-0.05l2.2-0.05l2.275-0.125l2.35-0.1l2.35-0.05
	L141.2,134.35z"/>
<path style="fill-rule:evenodd;clip-rule:evenodd;fill:#949494;" d="M289.5,157.775l-0.025-10.025l0.025-0.025
	c0.694,1.634,1.045,3.309,1.05,5.025c-0.006,1.722-0.348,3.397-1.024,5.025H289.5z"/>
<path style="fill-rule:evenodd;clip-rule:evenodd;fill:#B4B4B4;" d="M57.5,159.775l-0.025-6.025l0.025-0.025
	c0.14,0.291,0.257,0.566,0.35,0.825l0.225,0.775c0.118,0.488,0.176,0.963,0.175,1.425c0.001,0.461-0.057,0.937-0.175,1.425
	l-0.225,0.775l-0.325,0.825H57.5z"/>
<path style="fill-rule:evenodd;clip-rule:evenodd;fill:#6E6E6E;" d="M52.5,168.775l-0.025-6.025l0.025-0.025
	c0.14,0.291,0.257,0.566,0.35,0.825l0.225,0.775c0.118,0.488,0.176,0.963,0.175,1.425c0.001,0.461-0.057,0.937-0.175,1.425
	l-0.225,0.775l-0.325,0.825H52.5z"/>
<path style="fill-rule:evenodd;clip-rule:evenodd;fill:#CFCCCC;" d="M292.5,173.775l-0.025-10.025l0.025-0.025
	c0.694,1.634,1.045,3.309,1.05,5.025c-0.006,1.722-0.348,3.397-1.024,5.025H292.5z"/>
<path style="fill-rule:evenodd;clip-rule:evenodd;fill:#B4B4B4;" d="M299.5,189.775l-0.025-6.025l0.025-0.025
	c0.14,0.291,0.257,0.566,0.35,0.825l0.226,0.775c0.117,0.488,0.176,0.963,0.175,1.425c0.001,0.461-0.058,0.937-0.175,1.425
	l-0.226,0.775l-0.324,0.825H299.5z"/>
<path style="fill-rule:evenodd;clip-rule:evenodd;fill:#060606;" d="M124.6,187.725c1.911-0.008,3.803,0.026,5.675,0.1
	c1.883,0.084,3.733,0.209,5.55,0.375c1.819,0.162,3.628,0.37,5.425,0.625c1.807,0.255,3.59,0.555,5.35,0.9
	c1.76,0.349,3.518,0.749,5.275,1.2c1.755,0.444,3.497,0.936,5.225,1.475c1.726,0.544,3.459,1.145,5.2,1.8
	c1.746,0.649,3.487,1.349,5.226,2.1l2.125,0.925l2.25,1c0.769,0.35,1.526,0.725,2.274,1.125c0.74,0.394,1.466,0.811,2.175,1.25
	c1.429,0.886,2.688,1.911,3.775,3.075c1.09,1.176,1.89,2.534,2.4,4.075l-0.025,0.025c-0.896-0.178-1.779-0.386-2.65-0.625
	c-0.866-0.237-1.716-0.504-2.55-0.8c-0.84-0.304-1.673-0.628-2.5-0.975c-0.82-0.339-1.628-0.697-2.425-1.075
	c-0.802-0.379-1.602-0.771-2.4-1.175c-0.799-0.407-1.59-0.823-2.375-1.25l-4.699-2.6L160.525,198l-2.4-1.225
	c-0.797-0.407-1.605-0.798-2.425-1.175c-0.819-0.376-1.644-0.734-2.475-1.075c-0.842-0.333-1.701-0.641-2.575-0.925
	c-0.865-0.286-1.74-0.544-2.625-0.775c-0.888-0.235-1.796-0.435-2.725-0.6c-0.927-0.168-1.869-0.302-2.825-0.4l-1.025-0.075
	l-1.125-0.05l-2.425-0.05l-1.3-0.05l-1.3-0.05l-1.325-0.075l-1.3-0.1l-1.3-0.175l-1.25-0.225c-0.403-0.078-0.794-0.17-1.175-0.275
	c-0.381-0.112-0.748-0.237-1.1-0.375c-0.358-0.141-0.7-0.299-1.025-0.475c-0.328-0.175-0.636-0.366-0.925-0.575
	c-0.28-0.211-0.539-0.444-0.775-0.7c-0.241-0.247-0.458-0.513-0.65-0.8l0.025-0.05H124.6z"/>
<path style="fill-rule:evenodd;clip-rule:evenodd;fill:#949494;" d="M298.675,195.6c0.164,0.755,0.313,1.555,0.45,2.4
	c0.139,0.845,0.264,1.728,0.375,2.65c0.105,0.921,0.196,1.872,0.275,2.85c0.08,0.978,0.146,1.978,0.199,3
	c0.056,1.021,0.098,2.054,0.125,3.1c0.031,1.045,0.048,2.095,0.051,3.15c-0.003,1.055-0.02,2.105-0.051,3.15
	c-0.027,1.045-0.069,2.079-0.125,3.1c-0.053,1.021-0.119,2.021-0.199,3c-0.079,0.978-0.17,1.928-0.275,2.85
	c-0.111,0.922-0.236,1.805-0.375,2.65c-0.137,0.844-0.286,1.644-0.45,2.4c-0.16,0.756-0.336,1.456-0.524,2.1
	c-0.196,0.652-0.404,1.244-0.625,1.775H297.5l-0.025-42.025l0.025-0.025c0.238,0.538,0.455,1.13,0.65,1.775
	C298.339,194.144,298.515,194.844,298.675,195.6z"/>
<path style="fill-rule:evenodd;clip-rule:evenodd;fill:#3F3F3F;" d="M301.65,195.5c0.163,0.74,0.312,1.523,0.449,2.35
	c0.131,0.829,0.247,1.696,0.351,2.6c0.113,0.897,0.213,1.822,0.3,2.775c0.081,0.954,0.147,1.929,0.2,2.925
	c0.046,0.997,0.079,2.005,0.1,3.025c0.03,1.021,0.047,2.045,0.05,3.075c-0.003,1.03-0.02,2.055-0.05,3.075
	c-0.021,1.02-0.054,2.028-0.1,3.025c-0.053,0.996-0.119,1.971-0.2,2.925c-0.087,0.953-0.187,1.877-0.3,2.775
	c-0.104,0.904-0.22,1.771-0.351,2.6c-0.137,0.826-0.286,1.609-0.449,2.35c-0.161,0.737-0.337,1.421-0.525,2.05
	c-0.188,0.634-0.388,1.208-0.6,1.725H300.5l-0.025-41.025l0.025-0.025c0.23,0.523,0.438,1.099,0.625,1.725
	C301.313,194.079,301.489,194.763,301.65,195.5z"/>
<path style="fill-rule:evenodd;clip-rule:evenodd;fill:#CFCCCC;" d="M49.5,201.775l-0.025-6.025l0.025-0.025
	c0.14,0.291,0.257,0.566,0.35,0.825l0.225,0.775c0.118,0.488,0.176,0.963,0.175,1.425c0.001,0.461-0.057,0.937-0.175,1.425
	l-0.225,0.775l-0.325,0.825H49.5z"/>
<path style="fill-rule:evenodd;clip-rule:evenodd;fill:#B4B4B4;" d="M326.475,220.75l0.025-0.025c0.236,0.533,0.436,1.092,0.6,1.675
	c0.17,0.589,0.312,1.206,0.426,1.85c0.102,0.646,0.177,1.304,0.225,1.975c0.061,0.668,0.094,1.343,0.1,2.025
	c-0.006,0.682-0.039,1.357-0.1,2.025c-0.048,0.671-0.123,1.329-0.225,1.975c-0.114,0.645-0.256,1.261-0.426,1.85
	c-0.165,0.59-0.356,1.148-0.574,1.675L326.475,220.75z M45.75,232.275c-0.048,0.671-0.123,1.329-0.225,1.975
	c-0.114,0.645-0.255,1.261-0.425,1.85c-0.165,0.59-0.357,1.148-0.575,1.675H44.5l-0.025-15.025l0.025-0.025
	c0.236,0.534,0.436,1.092,0.6,1.675c0.169,0.589,0.311,1.206,0.425,1.85c0.102,0.646,0.177,1.304,0.225,1.975
	c0.061,0.667,0.094,1.342,0.1,2.025C45.844,230.933,45.811,231.607,45.75,232.275z"/>
<path style="fill-rule:evenodd;clip-rule:evenodd;fill:#4F4F4F;" d="M300.575,239.75c0.091,0.706,0.157,1.422,0.2,2.15
	c0.041,0.728,0.058,1.461,0.05,2.2l-0.05,2.226l-0.101,2.2l-0.1,2.175l-0.05,2.05l0.05,2.575l0.125,2.75l0.175,2.899l0.225,3
	l0.476,6.25l0.2,3.226l0.175,3.2c0.055,1.069,0.096,2.136,0.125,3.199c0.021,1.068,0.029,2.126,0.024,3.176
	c-0.005,1.044-0.03,2.077-0.074,3.1c-0.039,1.026-0.098,2.035-0.176,3.025c-0.081,0.979-0.189,1.937-0.324,2.875
	c-0.133,0.943-0.291,1.86-0.476,2.75c-0.191,0.896-0.416,1.762-0.675,2.6c-0.252,0.835-0.535,1.635-0.85,2.4H299.5l-0.025-64.025
	l0.025-0.025c0.274,0.634,0.499,1.284,0.675,1.95C300.351,238.348,300.483,239.04,300.575,239.75z"/>
<path style="fill-rule:evenodd;clip-rule:evenodd;fill:#6E6E6E;" d="M303.575,240.75c0.091,0.706,0.157,1.422,0.2,2.15
	c0.041,0.728,0.058,1.46,0.05,2.2l-0.05,2.226l-0.101,2.2l-0.1,2.175l-0.05,2.05l0.05,2.475l0.125,2.625l0.175,2.775l0.2,2.875
	l0.45,6l0.199,3.05l0.15,3.075c0.046,1.027,0.079,2.053,0.1,3.075c0.021,1.018,0.03,2.026,0.025,3.024
	c0.002,1.003-0.015,1.994-0.05,2.976c-0.048,0.976-0.114,1.934-0.2,2.875c-0.074,0.944-0.175,1.869-0.3,2.774
	c-0.134,0.909-0.292,1.792-0.476,2.65c-0.176,0.853-0.384,1.678-0.625,2.475c-0.244,0.8-0.52,1.566-0.824,2.301H302.5l-0.025-62.025
	l0.025-0.025c0.274,0.634,0.499,1.284,0.675,1.95C303.351,239.348,303.483,240.04,303.575,240.75z"/>
<path style="fill-rule:evenodd;clip-rule:evenodd;fill:#4F4F4F;" d="M39.5,247.775l-0.025-6.025l0.025-0.025
	c0.14,0.291,0.257,0.566,0.35,0.825l0.225,0.775c0.118,0.488,0.176,0.963,0.175,1.425c0.001,0.462-0.057,0.937-0.175,1.425
	l-0.225,0.775l-0.325,0.825H39.5z"/>
<path style="fill-rule:evenodd;clip-rule:evenodd;fill:#6E6E6E;" d="M42.5,247.775l-0.025-6.025l0.025-0.025
	c0.14,0.291,0.257,0.566,0.35,0.825l0.225,0.775c0.118,0.488,0.176,0.963,0.175,1.425c0.001,0.462-0.057,0.937-0.175,1.425
	l-0.225,0.775l-0.325,0.825H42.5z"/>
<path style="fill-rule:evenodd;clip-rule:evenodd;fill:#B4B4B4;" d="M37.5,257.775l-0.025-7.025l0.025-0.025
	c0.15,0.33,0.275,0.646,0.375,0.95c0.1,0.3,0.183,0.591,0.25,0.875c0.066,0.285,0.117,0.568,0.15,0.851
	c0.033,0.286,0.05,0.57,0.05,0.85c0,0.28-0.017,0.563-0.05,0.85c-0.033,0.282-0.083,0.565-0.15,0.851
	c-0.067,0.283-0.15,0.575-0.25,0.875c-0.101,0.311-0.217,0.627-0.35,0.95H37.5z"/>
<path style="fill-rule:evenodd;clip-rule:evenodd;fill:#CFCCCC;" d="M41.5,258.775l-0.025-8.025l0.025-0.025
	c0.168,0.359,0.31,0.71,0.425,1.051c0.11,0.338,0.202,0.672,0.275,1c0.068,0.333,0.118,0.667,0.15,1
	c0.035,0.327,0.052,0.652,0.05,0.975c0.002,0.322-0.015,0.647-0.05,0.975c-0.032,0.333-0.082,0.667-0.15,1
	c-0.074,0.329-0.166,0.662-0.275,1c-0.116,0.349-0.249,0.698-0.4,1.051H41.5z"/>
<path style="fill-rule:evenodd;clip-rule:evenodd;fill:#3F3F3F;" d="M37.6,263.275c0.154,0.686,0.295,1.41,0.425,2.175
	c0.121,0.766,0.229,1.566,0.325,2.399c0.104,0.834,0.196,1.692,0.275,2.575c0.071,0.881,0.13,1.781,0.175,2.7
	c0.055,0.923,0.096,1.856,0.125,2.8c0.021,0.938,0.03,1.88,0.025,2.825c0.004,0.945-0.004,1.888-0.025,2.825
	c-0.029,0.944-0.07,1.877-0.125,2.8c-0.045,0.919-0.104,1.819-0.175,2.7c-0.079,0.883-0.171,1.741-0.275,2.575
	c-0.096,0.833-0.204,1.633-0.325,2.399c-0.129,0.764-0.271,1.489-0.425,2.175c-0.153,0.69-0.32,1.332-0.5,1.926
	c-0.18,0.594-0.371,1.136-0.575,1.625H36.5l-0.025-38.025l0.025-0.025c0.222,0.496,0.421,1.038,0.6,1.625
	C37.28,261.943,37.447,262.585,37.6,263.275z"/>
<path style="fill-rule:evenodd;clip-rule:evenodd;fill:#949494;" d="M40.6,264.275c0.154,0.686,0.295,1.41,0.425,2.175
	c0.121,0.766,0.229,1.566,0.325,2.399c0.104,0.834,0.196,1.692,0.275,2.575c0.071,0.881,0.13,1.781,0.175,2.7
	c0.055,0.923,0.096,1.856,0.125,2.8c0.021,0.938,0.03,1.88,0.025,2.825c0.004,0.945-0.004,1.888-0.025,2.825
	c-0.029,0.944-0.07,1.877-0.125,2.8c-0.045,0.919-0.104,1.819-0.175,2.7c-0.079,0.883-0.171,1.741-0.275,2.575
	c-0.096,0.833-0.204,1.633-0.325,2.399c-0.129,0.764-0.271,1.489-0.425,2.175c-0.153,0.69-0.32,1.332-0.5,1.926
	c-0.18,0.594-0.371,1.136-0.575,1.625H39.5l-0.025-38.025l0.025-0.025c0.222,0.496,0.421,1.038,0.6,1.625
	C40.28,262.943,40.447,263.585,40.6,264.275z"/>
<path style="fill-rule:evenodd;clip-rule:evenodd;fill:#CFCCCC;" d="M300.5,319.775l-0.025-18.025l0.025-0.025
	c0.264,0.6,0.488,1.241,0.675,1.926c0.182,0.697,0.331,1.438,0.45,2.225c0.122,0.773,0.214,1.565,0.275,2.375
	c0.063,0.82,0.097,1.653,0.1,2.5c-0.003,0.847-0.036,1.68-0.1,2.5c-0.062,0.81-0.153,1.602-0.275,2.375
	c-0.119,0.786-0.269,1.527-0.45,2.225c-0.187,0.691-0.403,1.333-0.649,1.926H300.5z"/>
<path style="fill-rule:evenodd;clip-rule:evenodd;fill:#3F3F3F;" d="M37.5,314.775l-0.025-12.025l0.025-0.025
	c0.208,0.467,0.382,0.941,0.525,1.426c0.141,0.479,0.258,0.971,0.35,1.475c0.099,0.511,0.173,1.027,0.225,1.55
	c0.049,0.522,0.074,1.048,0.075,1.575c-0.001,0.528-0.026,1.053-0.075,1.575c-0.052,0.523-0.126,1.04-0.225,1.55
	c-0.092,0.504-0.209,0.995-0.35,1.475c-0.143,0.49-0.31,0.966-0.5,1.426H37.5z"/>
<path style="fill-rule:evenodd;clip-rule:evenodd;fill:#4F4F4F;" d="M33.075,318.15L33,319.55l-0.125,1.375l-0.175,1.3l-0.2,1.275
	l-0.275,1.175c-0.101,0.383-0.208,0.75-0.325,1.101c-0.117,0.352-0.242,0.685-0.375,1H31.5l-0.025-20.025l0.025-0.025
	c0.15,0.322,0.284,0.655,0.4,1c0.117,0.351,0.225,0.718,0.325,1.101L32.5,310l0.2,1.275l0.175,1.3L33,313.95l0.075,1.399l0.025,1.4
	L33.075,318.15z"/>
<path style="fill-rule:evenodd;clip-rule:evenodd;fill:#6E6E6E;" d="M34.5,327.775l-0.025-12.025l0.025-0.025
	c0.208,0.467,0.382,0.941,0.525,1.426c0.141,0.479,0.258,0.971,0.35,1.475c0.099,0.511,0.173,1.027,0.225,1.55
	c0.049,0.522,0.074,1.048,0.075,1.575c-0.001,0.528-0.026,1.053-0.075,1.575c-0.052,0.523-0.126,1.04-0.225,1.55
	c-0.092,0.504-0.209,0.995-0.35,1.475c-0.143,0.49-0.31,0.966-0.5,1.426H34.5z"/>
<path style="fill-rule:evenodd;clip-rule:evenodd;fill:#B4B4B4;" d="M297.5,341.775l-0.025-11.025l0.025-0.025
	c0.198,0.438,0.364,0.88,0.5,1.325c0.14,0.451,0.256,0.909,0.35,1.375c0.089,0.462,0.155,0.929,0.2,1.4
	c0.039,0.474,0.056,0.948,0.05,1.425c0.006,0.477-0.011,0.951-0.05,1.425c-0.045,0.472-0.111,0.938-0.2,1.4
	c-0.094,0.466-0.21,0.924-0.35,1.375c-0.137,0.452-0.295,0.894-0.475,1.325H297.5z"/>
<path style="fill-rule:evenodd;clip-rule:evenodd;fill:#3F3F3F;" d="M300.5,343.775l-0.025-12.025l0.025-0.025
	c0.207,0.467,0.382,0.941,0.525,1.426c0.14,0.479,0.257,0.971,0.35,1.475c0.099,0.511,0.173,1.027,0.225,1.55
	c0.049,0.522,0.074,1.048,0.075,1.575c-0.001,0.528-0.026,1.053-0.075,1.575c-0.052,0.523-0.126,1.04-0.225,1.55
	c-0.093,0.504-0.21,0.995-0.35,1.475c-0.144,0.49-0.311,0.966-0.5,1.426H300.5z"/>
<path style="fill-rule:evenodd;clip-rule:evenodd;fill:#3F3F3F;" d="M30.55,344.075l0.1,2.325l0.025,2.35l-0.025,2.35l-0.1,2.325
	l-0.175,2.25c-0.064,0.744-0.139,1.47-0.225,2.175c-0.088,0.692-0.188,1.359-0.3,2c-0.114,0.647-0.239,1.265-0.375,1.851
	c-0.138,0.588-0.289,1.138-0.45,1.649c-0.156,0.517-0.323,0.991-0.5,1.426H28.5l-0.025-32.025l0.025-0.025
	c0.194,0.441,0.369,0.916,0.525,1.426c0.162,0.512,0.312,1.062,0.45,1.649c0.136,0.586,0.261,1.203,0.375,1.851
	c0.111,0.64,0.211,1.307,0.3,2c0.086,0.705,0.161,1.43,0.225,2.175L30.55,344.075z"/>
<path style="fill-rule:evenodd;clip-rule:evenodd;fill:#B4B4B4;" d="M31.45,334.75l0.05-0.025l2.025,28.025l-0.05,0.025
	c-0.327-0.283-0.619-0.608-0.875-0.976c-0.254-0.365-0.479-0.773-0.675-1.225c-0.188-0.449-0.355-0.933-0.5-1.45
	c-0.157-0.527-0.29-1.086-0.4-1.675c-0.101-0.585-0.185-1.193-0.25-1.825c-0.068-0.623-0.118-1.265-0.15-1.925
	c-0.029-0.672-0.045-1.355-0.05-2.05c-0.013-0.693-0.013-1.394,0-2.101l0.075-2.125l0.125-2.125l0.125-2.075l0.15-1.975l0.275-3.625
	l0.1-1.55L31.45,334.75z"/>
<path style="fill-rule:evenodd;clip-rule:evenodd;fill:#B4B4B4;" d="M299.5,351.775l-0.025-7.025l0.025-0.025
	c0.15,0.33,0.275,0.646,0.375,0.95c0.1,0.3,0.184,0.591,0.25,0.875c0.066,0.285,0.116,0.568,0.15,0.851
	c0.033,0.286,0.05,0.57,0.05,0.85c0,0.28-0.017,0.563-0.05,0.85c-0.034,0.282-0.084,0.565-0.15,0.851
	c-0.066,0.283-0.15,0.575-0.25,0.875c-0.101,0.311-0.217,0.627-0.35,0.95H299.5z"/>
<path style="fill-rule:evenodd;clip-rule:evenodd;fill:#FFFFFF;" d="M99.8,384.675l-21.425,27.3c-0.351,0.547-0.668,1.13-0.95,1.75
	c-0.287,0.618-0.537,1.269-0.75,1.95l-0.625,2.075l-0.625,2.1c-0.201,0.698-0.434,1.373-0.7,2.025c-0.27,0.661-0.569,1.295-0.9,1.9
	c-0.664,1.203-1.589,2.187-2.775,2.949c-0.979,0.58-1.987,0.872-3.025,0.875c-0.346-0.001-0.696-0.034-1.05-0.1
	c-1.405-0.257-2.796-0.882-4.175-1.875c-1.379-0.999-2.679-2.224-3.9-3.675c-0.608-0.727-1.184-1.477-1.725-2.25
	c-0.538-0.766-1.038-1.549-1.5-2.351c-0.468-0.812-0.885-1.612-1.25-2.399c-0.362-0.785-0.67-1.552-0.925-2.3
	c-0.252-0.748-0.436-1.448-0.55-2.101c-0.111-0.652-0.153-1.253-0.125-1.8l9.6-22.025c0.441-0.263,0.858-0.547,1.25-0.85
	c0.39-0.318,0.756-0.66,1.1-1.025c0.347-0.357,0.681-0.732,1-1.125c0.316-0.393,0.616-0.801,0.9-1.225
	c0.29-0.423,0.573-0.856,0.85-1.3c0.275-0.443,0.542-0.894,0.8-1.351l1.525-2.774l0.775-1.351l0.825-1.324
	c0.285-0.439,0.585-0.864,0.9-1.275c0.312-0.4,0.637-0.784,0.975-1.15c0.336-0.372,0.694-0.722,1.075-1.05
	c0.381-0.324,0.781-0.624,1.2-0.899c0.412-0.28,0.854-0.53,1.325-0.75c0.482-0.216,0.991-0.399,1.525-0.551l1.975-10.975
	c0.365-0.183,0.707-0.366,1.025-0.55c0.311-0.177,0.602-0.359,0.875-0.55c0.555-0.391,1.063-0.799,1.525-1.226
	c0.465-0.43,0.907-0.863,1.325-1.3l1.225-1.275c0.419-0.416,0.86-0.808,1.325-1.175c0.461-0.366,0.97-0.69,1.525-0.975
	c0.272-0.139,0.564-0.264,0.875-0.375c0.308-0.114,0.633-0.215,0.975-0.3c0.35-0.084,0.725-0.15,1.125-0.2
	c0.395-0.051,0.811-0.084,1.25-0.101l5.025,16l12.975,2c-0.127,1.936-0.568,3.66-1.325,5.176c-0.766,1.514-1.725,2.914-2.875,4.199
	c-0.57,0.64-1.161,1.272-1.775,1.9c-0.615,0.635-1.249,1.26-1.9,1.875c-0.648,0.602-1.29,1.218-1.925,1.85
	C101.039,383.364,100.414,384.014,99.8,384.675z"/>
<path style="fill-rule:evenodd;clip-rule:evenodd;fill:#3F3F3F;" d="M97.5,356.775l-0.025-6.025l0.025-0.025
	c0.14,0.292,0.257,0.566,0.35,0.825l0.225,0.775c0.118,0.488,0.176,0.963,0.175,1.425c0.001,0.462-0.057,0.937-0.175,1.425
	l-0.225,0.775l-0.325,0.825H97.5z"/>
<path style="fill-rule:evenodd;clip-rule:evenodd;fill:#CFCCCC;" d="M140.5,361.775l-0.025-11.025l0.025-0.025
	c0.198,0.438,0.364,0.88,0.5,1.325c0.14,0.451,0.256,0.909,0.35,1.375c0.088,0.462,0.155,0.929,0.2,1.4
	c0.04,0.474,0.056,0.948,0.05,1.425c0.006,0.477-0.011,0.951-0.05,1.425c-0.044,0.472-0.111,0.938-0.2,1.4
	c-0.094,0.466-0.21,0.924-0.35,1.375c-0.137,0.452-0.295,0.894-0.475,1.325H140.5z"/>
<path style="fill-rule:evenodd;clip-rule:evenodd;fill:#6E6E6E;" d="M220.475,350.725c0.392-0.008,0.783,0.001,1.176,0.025
	c0.385,0.034,0.769,0.084,1.149,0.15c0.45,0.08,0.9,0.188,1.351,0.324c0.462,0.132,0.92,0.29,1.375,0.476v0.05H214.5l-0.025-0.025
	c0.474-0.154,0.939-0.288,1.4-0.399c0.459-0.113,0.917-0.214,1.375-0.3c0.465-0.085,0.932-0.151,1.4-0.2
	c0.46-0.052,0.918-0.085,1.375-0.101H220.475z"/>
<path style="fill-rule:evenodd;clip-rule:evenodd;fill:#4F4F4F;" d="M83.5,355.775l-0.025-0.025l1-4h0.05
	c0.191,0.499,0.325,0.925,0.4,1.275c0.07,0.362,0.07,0.688,0,0.975c-0.06,0.285-0.202,0.568-0.425,0.85
	c-0.234,0.273-0.559,0.582-0.975,0.926H83.5z"/>
<path style="fill-rule:evenodd;clip-rule:evenodd;fill:#FFFFFF;" d="M221.725,351.425c0.345,0.017,0.687,0.066,1.025,0.15
	c0.338,0.092,0.672,0.217,1,0.375c0.321,0.152,0.638,0.344,0.95,0.575c0.315,0.229,0.624,0.495,0.925,0.8l2.45,11.399
	c0.158,0.557,0.334,1.115,0.524,1.676c0.193,0.56,0.401,1.118,0.625,1.675l0.7,1.675l0.775,1.675l0.8,1.7l0.825,1.675l1.7,3.351
	l0.824,1.699l0.775,1.676l0.725,1.699l0.65,1.7c0.201,0.564,0.384,1.131,0.55,1.7c0.177,0.568,0.335,1.135,0.476,1.7
	c0.131,0.556,0.239,1.113,0.324,1.675c0.082,0.567,0.14,1.134,0.176,1.7h2.975l0.325,1.175c0.123,0.398,0.265,0.808,0.425,1.225
	l0.5,1.25l0.575,1.325l1.25,2.726l0.625,1.425l0.6,1.399l0.55,1.4l0.5,1.425c0.146,0.462,0.271,0.92,0.375,1.375
	c0.112,0.457,0.203,0.907,0.275,1.351c0.062,0.447,0.095,0.89,0.1,1.324c0.012,0.435-0.005,0.859-0.05,1.275
	c-0.039,0.418-0.114,0.826-0.225,1.225c-0.115,0.396-0.265,0.779-0.45,1.15c-0.2,0.378-0.425,0.761-0.675,1.15
	c-0.251,0.389-0.526,0.78-0.825,1.175c-0.296,0.399-0.612,0.8-0.95,1.2c-0.34,0.394-0.698,0.785-1.075,1.175
	c-0.366,0.396-0.75,0.787-1.149,1.175c-0.411,0.382-0.836,0.757-1.275,1.125c-0.43,0.367-0.871,0.726-1.325,1.075
	c-0.457,0.354-0.924,0.695-1.399,1.024c-0.477,0.323-0.96,0.632-1.45,0.926c-0.488,0.299-0.979,0.582-1.475,0.85
	c-0.498,0.27-0.998,0.52-1.5,0.75c-0.501,0.229-1.001,0.438-1.5,0.625c-0.495,0.183-0.986,0.341-1.476,0.475
	c-0.498,0.143-0.989,0.259-1.475,0.351c-0.346,0.058-0.688,0.1-1.025,0.125c-0.348,0.032-0.689,0.049-1.024,0.05l-0.726-0.025
	c-0.438-0.031-0.862-0.099-1.274-0.199c-0.416-0.1-0.816-0.232-1.2-0.4c-0.394-0.177-0.769-0.394-1.125-0.65
	c-0.346-0.245-0.671-0.528-0.976-0.85c-0.314-0.329-0.606-0.704-0.875-1.125c-0.258-0.416-0.491-0.874-0.699-1.375
	c-0.212-0.509-0.395-1.066-0.551-1.675c-0.154-0.596-0.279-1.237-0.375-1.925c-1.27-0.475-2.286-1.142-3.05-2
	c-0.38-0.435-0.722-0.901-1.024-1.4c-0.308-0.496-0.575-1.021-0.801-1.575c-0.223-0.552-0.431-1.118-0.625-1.7
	c-0.19-0.58-0.366-1.172-0.524-1.774l-0.5-1.8l-0.575-1.775c-0.237-0.679-0.496-1.354-0.775-2.025c-0.29-0.676-0.598-1.342-0.925-2
	c-0.32-0.66-0.653-1.318-1-1.975c-0.348-0.648-0.706-1.29-1.075-1.925l-1.125-1.925l-1.149-1.926l-1.175-1.899l-1.125-1.9
	c-0.377-0.644-0.744-1.294-1.101-1.95c-0.354-0.64-0.695-1.281-1.024-1.925c-0.326-0.65-0.635-1.309-0.926-1.975
	c-0.294-0.671-0.569-1.346-0.824-2.025c-0.251-0.672-0.476-1.355-0.676-2.05c-0.201-0.693-0.376-1.394-0.524-2.1
	c-0.15-0.712-0.268-1.437-0.351-2.176c-0.075-0.733-0.117-1.475-0.125-2.225l0.025-0.05h2.975v-5.95l4-0.05
	c0.14-0.464,0.34-0.989,0.601-1.575l0.425-0.925l0.525-1l0.6-1.05l0.65-1.075l0.725-1.101l0.8-1.125l0.851-1.1l0.875-1.075
	c0.31-0.357,0.626-0.707,0.949-1.05c0.312-0.335,0.629-0.659,0.95-0.975c0.328-0.322,0.661-0.63,1-0.926
	c0.339-0.289,0.681-0.564,1.025-0.824c0.339-0.269,0.681-0.519,1.024-0.75c0.35-0.229,0.7-0.437,1.051-0.625
	c0.349-0.19,0.698-0.357,1.05-0.5c0.359-0.149,0.718-0.274,1.075-0.375c0.588-0.156,1.172-0.231,1.75-0.226H221.725z"/>
<path style="fill-rule:evenodd;clip-rule:evenodd;fill:#949494;" d="M94.5,358.775l-0.025-6.025l0.025-0.025
	c0.14,0.292,0.257,0.566,0.35,0.825l0.225,0.775c0.118,0.488,0.176,0.963,0.175,1.425c0.001,0.462-0.057,0.937-0.175,1.425
	l-0.225,0.775l-0.325,0.825H94.5z"/>
<path style="fill-rule:evenodd;clip-rule:evenodd;fill:#3F3F3F;" d="M176.275,356.4c0.033,0.286,0.05,0.57,0.05,0.85
	c0,0.28-0.017,0.563-0.05,0.85c-0.034,0.282-0.084,0.565-0.15,0.851c-0.066,0.283-0.15,0.575-0.25,0.875
	c-0.101,0.311-0.217,0.627-0.35,0.95H175.5l-0.025-7.025l0.025-0.025c0.15,0.33,0.275,0.646,0.375,0.95
	c0.1,0.3,0.184,0.591,0.25,0.875C176.191,355.835,176.241,356.118,176.275,356.4z"/>
<path style="fill-rule:evenodd;clip-rule:evenodd;fill:#949494;" d="M172.5,363.775l-0.025-8.025l0.025-0.025
	c0.169,0.359,0.311,0.71,0.425,1.051c0.109,0.338,0.201,0.672,0.275,1c0.068,0.333,0.118,0.667,0.149,1
	c0.035,0.327,0.052,0.652,0.051,0.975c0.001,0.322-0.016,0.647-0.051,0.975c-0.031,0.333-0.081,0.667-0.149,1
	c-0.074,0.329-0.166,0.662-0.275,1c-0.115,0.349-0.249,0.698-0.399,1.051H172.5z"/>
<path style="fill-rule:evenodd;clip-rule:evenodd;fill:#CFCCCC;" d="M227.5,366.775l-0.025-11.025l0.025-0.025
	c0.198,0.438,0.364,0.88,0.5,1.325c0.14,0.451,0.256,0.909,0.35,1.375c0.089,0.462,0.155,0.929,0.2,1.4
	c0.039,0.474,0.056,0.948,0.05,1.425c0.006,0.477-0.011,0.951-0.05,1.425c-0.045,0.472-0.111,0.938-0.2,1.4
	c-0.094,0.466-0.21,0.924-0.35,1.375c-0.137,0.452-0.295,0.894-0.475,1.325H227.5z"/>
<path style="fill-rule:evenodd;clip-rule:evenodd;fill:#949494;" d="M269.275,358.4c0.033,0.286,0.05,0.57,0.05,0.85
	c0,0.28-0.017,0.563-0.05,0.85c-0.034,0.282-0.084,0.565-0.15,0.851c-0.066,0.283-0.15,0.575-0.25,0.875
	c-0.101,0.311-0.217,0.627-0.35,0.95H268.5l-0.025-7.025l0.025-0.025c0.15,0.33,0.275,0.646,0.375,0.95
	c0.1,0.3,0.184,0.591,0.25,0.875C269.191,357.835,269.241,358.118,269.275,358.4z"/>
<path style="fill-rule:evenodd;clip-rule:evenodd;fill:#3F3F3F;" d="M265.5,364.775l-0.025-8.025l0.025-0.025
	c0.169,0.359,0.311,0.71,0.425,1.051c0.109,0.338,0.201,0.672,0.275,1c0.068,0.333,0.118,0.667,0.149,1
	c0.035,0.327,0.052,0.652,0.051,0.975c0.001,0.322-0.016,0.647-0.051,0.975c-0.031,0.333-0.081,0.667-0.149,1
	c-0.074,0.329-0.166,0.662-0.275,1c-0.115,0.349-0.249,0.698-0.399,1.051H265.5z"/>
<path style="fill-rule:evenodd;clip-rule:evenodd;fill:#CFCCCC;" d="M115.525,359.725c0.278,0.536,0.437,0.979,0.475,1.325
	c0.046,0.351-0.02,0.635-0.2,0.851c-0.191,0.213-0.482,0.389-0.875,0.524c-0.384,0.126-0.859,0.243-1.425,0.351l1.975-3.051H115.525
	z"/>
<polygon style="fill-rule:evenodd;clip-rule:evenodd;fill:#3F3F3F;" points="49.525,364.775 49.475,361.75 49.525,361.725 
	51.525,363.725 51.525,363.775 "/>
<path style="fill-rule:evenodd;clip-rule:evenodd;fill:#949494;" d="M64.2,363.35c0.688,0.005,1.372,0.029,2.05,0.075
	c0.685,0.038,1.36,0.096,2.025,0.175c0.754,0.098,1.488,0.239,2.2,0.426c0.709,0.182,1.393,0.406,2.05,0.675v0.05l-2.2,0.05
	L68.05,364.9l-2.35,0.125l-2.35,0.05H62.8c-0.688,0.004-1.372-0.013-2.05-0.05c-0.685-0.038-1.36-0.097-2.025-0.176
	c-0.755-0.097-1.488-0.238-2.2-0.425c-0.709-0.182-1.393-0.407-2.05-0.675v-0.05l2.2-0.05l2.275-0.125l2.35-0.101l2.35-0.05
	L64.2,363.35z"/>
<path style="fill-rule:evenodd;clip-rule:evenodd;fill:#3F3F3F;" d="M76.225,367.85c-0.218-0.004-0.46-0.029-0.725-0.074
	l-0.025-0.051l2-3l0.05,0.025c0.371,1.047,0.413,1.855,0.125,2.425C77.423,367.621,76.948,367.846,76.225,367.85z"/>
<path style="fill-rule:evenodd;clip-rule:evenodd;fill:#3F3F3F;" d="M110.525,367.775h-0.5h-2c-0.389-0.014-0.772-0.038-1.15-0.075
	c-0.383-0.03-0.758-0.072-1.125-0.125c-0.369-0.053-0.736-0.128-1.1-0.226c-0.355-0.095-0.705-0.212-1.05-0.35
	c-0.357-0.144-0.716-0.318-1.075-0.525c-0.352-0.203-0.702-0.437-1.05-0.699v-0.051l9.025,2L110.525,367.775z M90.725,367.8
	c0.156,0.372,0.215,0.797,0.175,1.275c-0.01,0.235-0.043,0.493-0.1,0.774c-0.068,0.279-0.16,0.579-0.275,0.9l-0.025,0.025
	l-0.05-1.476c0.003-0.389-0.039-0.697-0.125-0.925c-0.091-0.212-0.274-0.361-0.55-0.45c-0.27-0.096-0.678-0.146-1.225-0.149h-0.075
	v-2.025l0.05-0.025c0.57,0.357,1.037,0.699,1.4,1.025C90.292,367.08,90.559,367.43,90.725,367.8z"/>
<path style="fill-rule:evenodd;clip-rule:evenodd;fill:#3F3F3F;" d="M150.5,366.775c-0.456,0.138-0.915,0.263-1.375,0.375
	c-0.459,0.113-0.918,0.213-1.375,0.3c-0.465,0.084-0.932,0.15-1.4,0.2c-0.46,0.051-0.918,0.084-1.375,0.1l-0.45,0.025
	c-0.391-0.001-0.783-0.018-1.175-0.051c-0.386-0.033-0.769-0.083-1.15-0.149c-0.451-0.081-0.9-0.189-1.35-0.325
	c-0.462-0.132-0.92-0.29-1.375-0.475v-0.051l10.025-1l1.025,1L150.5,366.775z"/>
<path style="fill-rule:evenodd;clip-rule:evenodd;fill:#3F3F3F;" d="M64.225,366.25c0.747,0.005,1.489,0.03,2.225,0.075
	c0.736,0.038,1.46,0.096,2.175,0.175c0.871,0.098,1.712,0.248,2.525,0.45c0.827,0.208,1.619,0.466,2.375,0.774v0.051L71,367.85
	l-2.65,0.125l-2.75,0.15l-2.775,0.1h-1.05c-0.748,0.004-1.49-0.013-2.225-0.05c-0.736-0.039-1.461-0.098-2.175-0.175
	c-0.871-0.098-1.712-0.248-2.525-0.45c-0.826-0.208-1.618-0.466-2.375-0.774v-0.051L55,366.65l2.65-0.125l2.75-0.15l2.775-0.1
	L64.225,366.25z"/>
<path style="fill-rule:evenodd;clip-rule:evenodd;fill:#060606;" d="M92.5,372.775c-0.647-0.404-1.164-0.804-1.55-1.2
	c-0.375-0.405-0.658-0.839-0.85-1.3c-0.097-0.227-0.18-0.468-0.25-0.726c-0.072-0.262-0.131-0.536-0.175-0.825L89.55,367.8
	l-0.075-1.05l0.025-0.025l3.025,6L92.5,372.775z"/>
<path style="fill-rule:evenodd;clip-rule:evenodd;fill:#6E6E6E;" d="M111.5,372.775l-1.025-6.025l0.05-0.025
	c0.525,0.452,0.925,0.902,1.2,1.351c0.265,0.452,0.424,0.919,0.475,1.399c0.056,0.479,0.022,0.986-0.1,1.525
	c-0.057,0.271-0.132,0.554-0.225,0.85c-0.099,0.299-0.216,0.606-0.35,0.926H111.5z"/>
<rect x="113.5" y="366.75" style="fill-rule:evenodd;clip-rule:evenodd;fill:#4F4F4F;" width="2" height="2"/>
<path style="fill-rule:evenodd;clip-rule:evenodd;fill:#CFCCCC;" d="M200.5,373.775l-0.025-6.025l0.025-0.025
	c0.141,0.292,0.258,0.566,0.35,0.825l0.226,0.775c0.118,0.488,0.177,0.963,0.175,1.425c0.002,0.462-0.057,0.937-0.175,1.425
	c-0.124,0.494-0.308,1.027-0.55,1.601H200.5z"/>
<path style="fill-rule:evenodd;clip-rule:evenodd;fill:#6E6E6E;" d="M113.5,374.775l-0.025-6.025l0.025-0.025
	c0.14,0.292,0.257,0.566,0.35,0.825l0.225,0.775c0.118,0.488,0.176,0.963,0.175,1.425c0.001,0.462-0.057,0.937-0.175,1.425
	l-0.225,0.775l-0.325,0.825H113.5z"/>
<polygon style="fill-rule:evenodd;clip-rule:evenodd;fill:#060606;" points="221.5,372.775 219.475,368.775 219.475,368.725 
	225.525,372.725 225.5,372.775 "/>
<path style="fill-rule:evenodd;clip-rule:evenodd;fill:#949494;" d="M225.5,371.775c-0.587-0.11-1.054-0.219-1.4-0.325
	c-0.354-0.119-0.629-0.277-0.824-0.476c-0.199-0.195-0.357-0.471-0.476-0.824l-0.175-0.601l-0.15-0.8l0.051-0.025l3,3L225.5,371.775
	z"/>
<polygon style="fill-rule:evenodd;clip-rule:evenodd;fill:#FFFFFF;" points="197.5,369.725 197.525,369.75 197.525,371.75 
	197.5,371.775 195.475,369.775 195.5,369.725 "/>
<path style="fill-rule:evenodd;clip-rule:evenodd;fill:#4F4F4F;" d="M225.5,373.775l-1.075-0.176
	c-0.321-0.069-0.613-0.145-0.875-0.225c-0.532-0.167-0.981-0.392-1.35-0.675c-0.375-0.279-0.7-0.654-0.976-1.125
	c-0.137-0.232-0.27-0.499-0.399-0.8c-0.121-0.311-0.237-0.651-0.351-1.025l0.051-0.025l5,4L225.5,373.775z"/>
<path style="fill-rule:evenodd;clip-rule:evenodd;fill:#4F4F4F;" d="M194.5,379.775l-0.025-7.025l0.025-0.025
	c0.15,0.33,0.275,0.646,0.375,0.95c0.1,0.3,0.184,0.591,0.25,0.875c0.066,0.285,0.116,0.568,0.15,0.851
	c0.033,0.286,0.05,0.57,0.05,0.85c0,0.28-0.017,0.563-0.05,0.85c-0.034,0.282-0.084,0.565-0.15,0.851
	c-0.066,0.283-0.15,0.575-0.25,0.875c-0.101,0.311-0.217,0.627-0.35,0.95H194.5z"/>
<path style="fill-rule:evenodd;clip-rule:evenodd;fill:#060606;" d="M215.5,385.775l-9.025-10v-0.051
	c0.591,0.257,1.149,0.532,1.676,0.825c0.524,0.302,1.024,0.618,1.5,0.95c0.472,0.321,0.922,0.663,1.35,1.025
	c0.426,0.373,0.825,0.765,1.2,1.175c0.382,0.409,0.74,0.842,1.075,1.3c0.325,0.453,0.626,0.929,0.899,1.425
	c0.284,0.497,0.543,1.022,0.775,1.575c0.22,0.56,0.411,1.143,0.575,1.75L215.5,385.775z"/>
<path style="fill-rule:evenodd;clip-rule:evenodd;fill:#6E6E6E;" d="M238.5,385.775l-2.025-5l0.051-0.051
	c0.569,0.357,1.036,0.699,1.399,1.025c0.367,0.33,0.634,0.68,0.8,1.05c0.156,0.372,0.214,0.797,0.176,1.275
	c-0.011,0.235-0.044,0.493-0.101,0.774c-0.068,0.279-0.16,0.579-0.274,0.9L238.5,385.775z"/>
<polygon style="fill-rule:evenodd;clip-rule:evenodd;fill:#060606;" points="75.525,392.775 83.475,383.725 83.525,383.75 
	84.525,387.75 "/>
<path style="fill-rule:evenodd;clip-rule:evenodd;fill:#060606;" d="M99.45,389.3c-0.221,0.458-0.463,0.916-0.725,1.375
	c-0.256,0.452-0.531,0.902-0.825,1.351l-0.95,1.35l-0.975,1.375l-2.05,2.7l-0.975,1.375l-0.925,1.35
	c-0.302,0.464-0.585,0.931-0.85,1.4c-0.254,0.458-0.488,0.916-0.7,1.375c-0.222,0.463-0.413,0.929-0.575,1.399
	c-0.155,0.467-0.28,0.934-0.375,1.4l-10,6.025c-0.051,0.833-0.134,1.667-0.25,2.5c-0.118,0.839-0.268,1.673-0.45,2.5
	c-0.18,0.826-0.397,1.643-0.65,2.449c-0.257,0.808-0.549,1.6-0.875,2.375c-0.327,0.778-0.694,1.537-1.1,2.275
	c-0.406,0.742-0.848,1.459-1.325,2.15c-0.954,1.376-2.07,2.626-3.35,3.75l6.95-19.051c0.619-0.308,1.219-0.641,1.8-1
	c0.592-0.37,1.167-0.77,1.725-1.199c0.552-0.425,1.094-0.875,1.625-1.351c0.531-0.478,1.048-0.978,1.55-1.5
	c0.5-0.531,0.992-1.081,1.475-1.649c0.487-0.561,0.962-1.135,1.425-1.726c0.457-0.596,0.906-1.204,1.35-1.825
	c0.451-0.616,0.893-1.241,1.325-1.875l1.275-1.925l1.25-1.925l2.425-3.9l1.175-1.875l1.2-1.85c0.396-0.598,0.796-1.181,1.2-1.75
	c0.399-0.568,0.8-1.118,1.2-1.65l0.05,0.025c0.065,0.467,0.09,0.934,0.075,1.4c-0.019,0.47-0.077,0.937-0.175,1.399
	c-0.103,0.458-0.236,0.916-0.4,1.375C99.863,388.386,99.672,388.845,99.45,389.3z"/>
<path style="fill-rule:evenodd;clip-rule:evenodd;fill:#060606;" d="M223.525,397.775l5.949-6.051l0.051,0.025
	c0.192,0.911,0.134,1.686-0.176,2.325c-0.15,0.323-0.342,0.623-0.574,0.899c-0.244,0.268-0.527,0.51-0.851,0.726
	c-0.312,0.222-0.646,0.43-1,0.625c-0.349,0.189-0.716,0.364-1.1,0.524l-1.175,0.476L223.525,397.775z"/>
<path style="fill-rule:evenodd;clip-rule:evenodd;fill:#CFCCCC;" d="M229.5,395.725l0.025,0.051l-1.75,4.375
	c0.21,0.236,0.46,0.453,0.75,0.649c0.237,0.166,0.512,0.324,0.824,0.476c0.314,0.142,0.665,0.275,1.051,0.399l0.1,0.05l0.025,0.025
	l-0.025,0.025l-0.125-0.025l-2.875-0.975l-0.025-0.051l0.226-0.574c-0.144-0.166-0.269-0.341-0.375-0.525
	c-0.136-0.228-0.252-0.478-0.351-0.75c-0.103-0.28-0.186-0.58-0.25-0.9l-0.149-1.024l-0.101-1.2l0.025-0.025H229.5z"/>
<path style="fill-rule:evenodd;clip-rule:evenodd;fill:#949494;" d="M66.5,407.775l-0.025-10.025l0.025-0.025
	c0.695,1.635,1.045,3.31,1.05,5.025c-0.006,1.723-0.348,3.397-1.025,5.025H66.5z"/>
<path style="fill-rule:evenodd;clip-rule:evenodd;fill:#FDB0B5;" d="M46.525,403.725c0.138,0.317,0.221,0.585,0.25,0.801
	c0.023,0.212-0.002,0.379-0.075,0.5c-0.07,0.125-0.178,0.209-0.325,0.25l-0.275,0.05l-0.25-0.025
	c-0.199-0.03-0.416-0.088-0.65-0.175c-0.232-0.094-0.474-0.21-0.725-0.35v-0.051l2-1H46.525z"/>
<path style="fill-rule:evenodd;clip-rule:evenodd;fill:#ED1B30;" d="M49.525,404.725l6.55,15.426l12.45,9.574v0.051
	c-0.789,0.452-1.564,0.936-2.325,1.449c-0.753,0.507-1.486,1.04-2.2,1.601c-0.716,0.562-1.425,1.146-2.125,1.75
	c-0.696,0.6-1.38,1.217-2.05,1.85l-2,1.95l-2,2l-3.95,4.05c-0.665,0.66-1.339,1.31-2.025,1.95c-0.678,0.647-1.361,1.281-2.05,1.9
	c-0.7,0.62-1.417,1.22-2.15,1.8c-0.722,0.582-1.455,1.141-2.2,1.675c-0.752,0.53-1.527,1.03-2.325,1.5
	c-0.799,0.476-1.616,0.917-2.45,1.325c-0.837,0.399-1.704,0.758-2.6,1.075c-0.885,0.318-1.793,0.593-2.725,0.824
	c-0.657,0.156-1.308,0.273-1.95,0.351c-0.636,0.081-1.261,0.123-1.875,0.125H29.45c-0.625-0.006-1.241-0.047-1.85-0.125
	c-0.613-0.072-1.213-0.181-1.8-0.325c-0.584-0.151-1.159-0.334-1.725-0.55c-0.571-0.212-1.129-0.453-1.675-0.726
	c-0.543-0.272-1.076-0.572-1.6-0.899c-0.521-0.333-1.03-0.691-1.525-1.075c-0.493-0.378-0.977-0.777-1.45-1.2
	c-0.48-0.43-0.947-0.88-1.4-1.35c-0.452-0.466-0.894-0.949-1.325-1.45c-0.422-0.502-0.83-1.019-1.225-1.55
	c-0.403-0.528-0.794-1.07-1.175-1.625c-0.381-0.557-0.748-1.124-1.1-1.7c-0.345-0.574-0.679-1.157-1-1.75
	c-0.331-0.596-0.648-1.195-0.95-1.8c-0.296-0.604-0.58-1.213-0.85-1.825c-0.273-0.617-0.531-1.233-0.775-1.85
	c-0.246-0.609-0.479-1.218-0.7-1.825c-0.215-0.605-0.415-1.205-0.6-1.8L6.2,431.725L5.775,430l-0.35-1.65
	c-0.099-0.548-0.182-1.082-0.25-1.6l-0.225-1.375l-0.3-1.475l-0.3-1.525l-0.275-1.525c-0.077-0.521-0.127-1.037-0.15-1.55
	c-0.019-0.508-0.011-1.008,0.025-1.5c0.028-0.497,0.103-0.98,0.225-1.45c0.121-0.458,0.288-0.9,0.5-1.324
	c0.209-0.396,0.442-0.78,0.7-1.15c0.261-0.374,0.544-0.732,0.85-1.075c0.297-0.339,0.614-0.664,0.95-0.975
	c0.341-0.308,0.699-0.6,1.075-0.875c0.376-0.273,0.769-0.532,1.175-0.775c0.404-0.25,0.821-0.483,1.25-0.7
	c0.432-0.216,0.873-0.416,1.325-0.6c0.452-0.176,0.91-0.334,1.375-0.475c0.461-0.143,0.928-0.268,1.4-0.375
	c0.481-0.11,0.965-0.202,1.45-0.275c0.466-0.076,0.933-0.135,1.4-0.175c0.469-0.035,0.936-0.052,1.4-0.05H19.1
	c0.471,0.005,0.938,0.03,1.4,0.074c0.474,0.039,0.941,0.098,1.4,0.176c0.452,0.079,0.894,0.179,1.325,0.3
	c0.437,0.122,0.862,0.264,1.275,0.425c0.406,0.169,0.798,0.36,1.175,0.575c0.384,0.204,0.75,0.43,1.1,0.675
	c0.344,0.252,0.669,0.526,0.975,0.825c0.313,0.295,0.605,0.612,0.875,0.95c0.266,0.342,0.507,0.708,0.725,1.1
	c0.209,0.386,0.393,0.795,0.55,1.225c0.162,0.425,0.295,0.875,0.4,1.351c0.104,0.478,0.179,0.978,0.225,1.5l18.95-11.976H49.525z"/>
<path style="fill-rule:evenodd;clip-rule:evenodd;fill:#ED1B30;" d="M252.7,410.425c0.612-0.213,1.237-0.38,1.875-0.5
	c0.634-0.113,1.275-0.18,1.925-0.2l0.825,5.95l0.85,5.75c0.275,1.877,0.525,3.752,0.75,5.625c0.236,1.873,0.444,3.731,0.625,5.575
	c0.174,1.848,0.291,3.714,0.351,5.6c0.065,1.886,0.074,3.777,0.024,5.676c-0.111,3.811-0.578,7.761-1.399,11.85
	c-0.416,0.253-0.8,0.512-1.15,0.775c-0.354,0.255-0.679,0.521-0.975,0.8c-0.302,0.286-0.585,0.586-0.851,0.899
	c-0.262,0.306-0.503,0.622-0.725,0.95c-0.217,0.328-0.426,0.67-0.625,1.025c-0.203,0.364-0.395,0.739-0.575,1.125l-0.55,1.175
	l-0.55,1.275h-0.051L249.5,461.8l-5.925,6.925h2.925l0.025,0.025l-3,1.3l-2.801,1.15c-0.91,0.364-1.818,0.706-2.725,1.024
	c-0.9,0.317-1.792,0.608-2.675,0.875c-0.878,0.264-1.778,0.497-2.7,0.7c-0.926,0.215-1.867,0.397-2.825,0.55
	c-0.962,0.145-1.971,0.253-3.024,0.325c-1.054,0.069-2.146,0.103-3.275,0.101l-1.025-3.976l-1.024,0.05l-0.976,0.025
	c-1.948-0.002-3.599-0.261-4.949-0.775c-1.783-0.683-3.108-1.699-3.976-3.05c-0.867-1.355-1.351-2.922-1.45-4.7
	c-0.101-1.784,0.107-3.659,0.625-5.625c0.265-0.971,0.59-1.937,0.976-2.899c0.375-0.969,0.809-1.928,1.3-2.875
	c0.997-1.893,2.156-3.635,3.475-5.226c0.521-0.029,1.013-0.096,1.476-0.199c0.457-0.109,0.891-0.26,1.3-0.45
	c0.418-0.191,0.818-0.416,1.2-0.675c0.379-0.261,0.737-0.553,1.075-0.875c0.332-0.325,0.649-0.675,0.949-1.051
	c0.302-0.368,0.585-0.76,0.851-1.175c0.256-0.424,0.497-0.865,0.725-1.325c0.242-0.451,0.467-0.918,0.675-1.399
	c0.196-0.482,0.38-0.974,0.551-1.476c0.18-0.51,0.347-1.026,0.5-1.55L226.2,434l0.35-1.55l0.3-1.525l0.25-1.475l0.2-1.4l0.175-1.3
	c0.713-0.197,1.404-0.422,2.075-0.675c0.683-0.256,1.35-0.547,2-0.875c0.642-0.332,1.274-0.69,1.9-1.075
	c0.629-0.376,1.246-0.776,1.85-1.2c0.605-0.427,1.205-0.869,1.8-1.325c0.602-0.455,1.193-0.922,1.775-1.399l1.725-1.45l1.7-1.45
	l1.7-1.425l1.7-1.375c0.561-0.438,1.128-0.854,1.7-1.25c0.581-0.399,1.164-0.774,1.75-1.125c0.574-0.35,1.157-0.667,1.75-0.95
	C251.495,410.89,252.095,410.64,252.7,410.425z"/>
<polygon style="fill-rule:evenodd;clip-rule:evenodd;fill:#4F4F4F;" points="79.5,411.775 79.475,411.75 82.5,410.725 
	83.525,411.725 83.5,411.775 "/>
<path style="fill-rule:evenodd;clip-rule:evenodd;fill:#AE303B;" d="M247.025,415.575c-0.424,0.513-0.856,1.013-1.301,1.5
	c-0.438,0.496-0.897,0.971-1.375,1.425c-0.476,0.448-0.967,0.873-1.475,1.275c-0.508,0.398-1.041,0.765-1.6,1.1
	c-0.562,0.334-1.146,0.634-1.75,0.9c0.165-0.401,0.356-0.784,0.574-1.15l0.7-1.1l0.775-1.075l0.825-1.05
	c0.274-0.348,0.558-0.689,0.85-1.025c0.301-0.342,0.609-0.675,0.925-1c0.31-0.325,0.626-0.642,0.95-0.95
	c0.328-0.303,0.661-0.594,1-0.875c0.343-0.286,0.693-0.561,1.05-0.825c0.354-0.263,0.712-0.513,1.075-0.75
	c0.36-0.237,0.728-0.463,1.1-0.675c0.372-0.207,0.747-0.398,1.125-0.575l0.051,0.051l-1.125,1.6L248.25,414
	C247.854,414.534,247.446,415.06,247.025,415.575z"/>
<path style="fill-rule:evenodd;clip-rule:evenodd;fill:#F7959B;" d="M2.5,423.775L2.475,411.75l0.025-0.025
	c0.208,0.467,0.382,0.941,0.525,1.426c0.141,0.479,0.258,0.971,0.35,1.475c0.099,0.511,0.173,1.027,0.225,1.55
	c0.049,0.522,0.074,1.048,0.075,1.575c-0.001,0.528-0.026,1.053-0.075,1.575c-0.052,0.523-0.126,1.04-0.225,1.55
	c-0.092,0.504-0.209,0.995-0.35,1.475c-0.143,0.49-0.31,0.966-0.5,1.426H2.5z"/>
<path style="fill-rule:evenodd;clip-rule:evenodd;fill:#AE303B;" d="M5.2,413.225c0.346,0.039,0.788,0.197,1.325,0.476v0.075l-3,2
	h-0.05c0.051-0.31,0.109-0.585,0.175-0.825l0.175-0.65c0.136-0.384,0.311-0.667,0.525-0.85c0.179-0.151,0.404-0.227,0.675-0.226H5.2
	z"/>
<polygon style="fill-rule:evenodd;clip-rule:evenodd;fill:#DD5B63;" points="37.5,413.725 37.525,413.775 35.525,415.775 
	35.475,415.775 35.475,413.75 35.5,413.725 "/>
<rect x="226.5" y="413.75" style="fill-rule:evenodd;clip-rule:evenodd;fill:#060606;" width="6" height="2"/>
<polygon style="fill-rule:evenodd;clip-rule:evenodd;fill:#FDB0B5;" points="241.5,417.725 241.525,417.775 239.525,419.775 
	239.475,419.775 239.475,417.75 239.5,417.725 "/>
<path style="fill-rule:evenodd;clip-rule:evenodd;fill:#DD5B63;" d="M259.5,430.775l-0.025-11.025l0.025-0.025
	c0.198,0.438,0.364,0.88,0.5,1.325c0.14,0.451,0.256,0.909,0.35,1.375c0.089,0.462,0.155,0.929,0.2,1.4
	c0.039,0.474,0.056,0.948,0.05,1.425c0.006,0.477-0.011,0.951-0.05,1.425c-0.045,0.472-0.111,0.938-0.2,1.4
	c-0.094,0.466-0.21,0.924-0.35,1.375c-0.137,0.452-0.295,0.894-0.475,1.325H259.5z"/>
<path style="fill-rule:evenodd;clip-rule:evenodd;fill:#DD5B63;" d="M4.5,431.775l-0.025-7.025l0.025-0.025
	c0.15,0.33,0.275,0.646,0.375,0.95c0.1,0.3,0.183,0.591,0.25,0.875c0.066,0.285,0.117,0.568,0.15,0.851
	c0.033,0.286,0.05,0.57,0.05,0.85c0,0.28-0.017,0.563-0.05,0.85c-0.033,0.282-0.083,0.565-0.15,0.851
	c-0.067,0.283-0.15,0.575-0.25,0.875c-0.101,0.311-0.217,0.627-0.35,0.95H4.5z"/>
<polygon style="fill-rule:evenodd;clip-rule:evenodd;fill:#6E6E6E;" points="76.5,424.725 76.525,424.775 74.525,427.775 
	74.5,427.775 74.475,424.75 74.5,424.725 "/>
<polygon style="fill-rule:evenodd;clip-rule:evenodd;fill:#AA5E64;" points="227.5,427.725 227.525,427.75 227.525,429.75 
	227.5,429.775 225.475,427.775 225.5,427.725 "/>
<polygon style="fill-rule:evenodd;clip-rule:evenodd;fill:#AE303B;" points="65.475,429.75 67.5,429.725 67.525,429.75 
	64.525,433.775 "/>
<polygon style="fill-rule:evenodd;clip-rule:evenodd;fill:#F7959B;" points="69.5,429.725 69.525,429.775 67.525,431.775 
	67.475,431.775 67.475,429.75 67.5,429.725 "/>
<path style="fill-rule:evenodd;clip-rule:evenodd;fill:#4F4F4F;" d="M70.1,430.675c0.191-0.257,0.391-0.423,0.6-0.5
	c0.091-0.033,0.191-0.05,0.3-0.05c0.128,0,0.271,0.024,0.425,0.075c0.29,0.092,0.656,0.259,1.1,0.5l-0.025,0.05l-3,1
	C69.713,431.28,69.914,430.922,70.1,430.675z"/>
<polygon style="fill-rule:evenodd;clip-rule:evenodd;fill:#61060B;" points="226.525,429.725 227.525,431.725 227.5,431.775 
	225.5,431.775 225.475,431.725 226.475,429.725 "/>
<path style="fill-rule:evenodd;clip-rule:evenodd;fill:#F7959B;" d="M223.5,438.775l-0.025-8.025l0.025-0.025
	c0.169,0.359,0.311,0.71,0.425,1.051c0.109,0.338,0.201,0.672,0.275,1c0.068,0.333,0.118,0.667,0.149,1
	c0.035,0.327,0.052,0.652,0.051,0.975c0.001,0.322-0.016,0.647-0.051,0.975c-0.031,0.333-0.081,0.667-0.149,1
	c-0.074,0.329-0.166,0.662-0.275,1c-0.115,0.349-0.249,0.698-0.399,1.051H223.5z"/>
<path style="fill-rule:evenodd;clip-rule:evenodd;fill:#FDB0B5;" d="M263.05,442.425c-0.016,0.641-0.05,1.274-0.1,1.9
	c-0.059,0.616-0.134,1.217-0.226,1.8c-0.083,0.596-0.184,1.171-0.3,1.725c-0.119,0.548-0.252,1.064-0.399,1.551
	c-0.153,0.491-0.32,0.949-0.5,1.375H261.5l-1.025-20.025l0.051-0.025c0.272,0.371,0.522,0.779,0.75,1.226
	c0.232,0.448,0.44,0.932,0.625,1.45c0.179,0.509,0.337,1.042,0.475,1.6c0.139,0.562,0.255,1.146,0.35,1.75
	c0.095,0.605,0.17,1.222,0.226,1.85c0.062,0.636,0.104,1.277,0.125,1.926C263.084,441.16,263.076,441.794,263.05,442.425z"/>
<path style="fill-rule:evenodd;clip-rule:evenodd;fill:#AE303B;" d="M226.5,431.725l0.025,0.025l-1.075,4.6
	c-0.18,0.768-0.388,1.518-0.625,2.25c-0.24,0.739-0.507,1.456-0.8,2.15c-0.601,1.383-1.417,2.6-2.45,3.65
	c-1.039,1.046-2.396,1.837-4.075,2.375h-0.025c0.343-0.709,0.701-1.375,1.075-2c0.371-0.616,0.755-1.2,1.15-1.75l1.149-1.676
	l1.125-1.625c0.356-0.54,0.682-1.106,0.976-1.699c0.3-0.596,0.566-1.212,0.8-1.851c0.46-1.271,0.701-2.747,0.725-4.425l0.025-0.025
	H226.5z M261.95,443.9c-0.061,0.862-0.152,1.704-0.275,2.524c-0.126,0.825-0.284,1.601-0.475,2.325
	c-0.194,0.73-0.42,1.405-0.675,2.025H260.5l-0.025-19.025l0.025-0.025c0.272,0.627,0.506,1.302,0.7,2.025
	c0.19,0.724,0.349,1.499,0.475,2.325c0.123,0.82,0.215,1.662,0.275,2.524c0.065,0.869,0.099,1.752,0.1,2.65
	C262.049,442.148,262.016,443.031,261.95,443.9z"/>
<path style="fill-rule:evenodd;clip-rule:evenodd;fill:#AE303B;" d="M54.075,446.925c-0.653,0.59-1.32,1.14-2,1.65
	c-0.675,0.518-1.358,0.992-2.05,1.425c-0.701,0.431-1.393,0.797-2.075,1.1c-0.673,0.309-1.332,0.55-1.975,0.726
	c-0.315,0.078-0.624,0.137-0.925,0.175c-0.301,0.046-0.593,0.071-0.875,0.075c-0.3-0.001-0.592-0.025-0.875-0.075
	c-0.277-0.051-0.544-0.126-0.8-0.225l-0.025-0.051c0.924-0.479,1.824-0.987,2.7-1.524c0.872-0.542,1.714-1.109,2.525-1.7
	c0.81-0.584,1.602-1.192,2.375-1.825c0.773-0.638,1.523-1.296,2.25-1.975c0.728-0.68,1.445-1.38,2.15-2.101
	c0.708-0.717,1.4-1.45,2.075-2.199c0.665-0.751,1.323-1.518,1.975-2.301c0.661-0.78,1.311-1.572,1.95-2.375l0.05,0.025
	c0.124,1.036-0.084,2.194-0.625,3.475c-0.272,0.633-0.606,1.274-1,1.926c-0.392,0.653-0.842,1.312-1.35,1.975
	c-0.504,0.664-1.046,1.314-1.625,1.95C55.341,445.711,54.725,446.327,54.075,446.925z"/>
<path style="fill-rule:evenodd;clip-rule:evenodd;fill:#DD5B63;" d="M54.7,443.575c-0.356,0.331-0.731,0.647-1.125,0.95
	c-0.393,0.291-0.801,0.566-1.225,0.824c-0.423,0.272-0.874,0.531-1.35,0.775c-0.468,0.232-0.96,0.449-1.475,0.65
	c0.246-0.461,0.521-0.895,0.825-1.301c0.304-0.412,0.621-0.812,0.95-1.199c0.329-0.387,0.67-0.762,1.025-1.125
	c0.355-0.364,0.722-0.714,1.1-1.051c0.38-0.328,0.771-0.646,1.175-0.949c0.408-0.314,0.824-0.615,1.25-0.9
	c0.415-0.28,0.84-0.547,1.275-0.8c0.443-0.257,0.893-0.499,1.35-0.726l0.05,0.051c-0.295,0.467-0.596,0.917-0.9,1.35
	c-0.307,0.437-0.615,0.854-0.925,1.25c-0.313,0.399-0.639,0.782-0.975,1.15C55.392,442.894,55.051,443.244,54.7,443.575z"/>
<path style="fill-rule:evenodd;clip-rule:evenodd;fill:#AE303B;" d="M36.725,456.875c-0.86,0.259-1.735,0.467-2.625,0.625
	c-0.891,0.159-1.791,0.268-2.7,0.325c-0.435,0.021-0.868,0.029-1.3,0.024c-0.686-0.001-1.369-0.034-2.05-0.1
	c-0.682-0.061-1.357-0.151-2.025-0.275c-1.755-0.338-3.396-0.913-4.925-1.725c-1.534-0.812-2.875-1.88-4.025-3.2
	c-1.14-1.329-2.006-2.93-2.6-4.8l0.05-0.025c0.532,0.408,1.065,0.833,1.6,1.275c0.535,0.444,1.068,0.902,1.6,1.375
	c0.541,0.474,1.091,0.94,1.65,1.4c0.544,0.459,1.095,0.909,1.65,1.35c0.56,0.438,1.135,0.848,1.725,1.225
	c0.597,0.375,1.206,0.717,1.825,1.025c0.611,0.312,1.244,0.571,1.9,0.775c0.657,0.197,1.333,0.339,2.025,0.425l13-1.851l0.025,0.025
	c-0.738,0.464-1.504,0.872-2.3,1.225C38.421,456.322,37.587,456.623,36.725,456.875z"/>
<path style="fill-rule:evenodd;clip-rule:evenodd;fill:#F7959B;" d="M48.475,448.75l0.05-0.025c0.242,0.444,0.408,0.812,0.5,1.101
	c0.092,0.292,0.101,0.542,0.025,0.75c-0.077,0.2-0.244,0.392-0.5,0.575c-0.247,0.18-0.588,0.388-1.025,0.625L48.475,448.75z"/>
<polygon style="fill-rule:evenodd;clip-rule:evenodd;fill:#DD5B63;" points="35.475,454.775 35.45,454.75 43.475,450.725 
	43.525,450.75 42.525,454.75 "/>
<path style="fill-rule:evenodd;clip-rule:evenodd;fill:#AE303B;" d="M210.2,453.225c0.376-0.833,0.801-1.667,1.274-2.5l0.075,0.025
	c0.082,0.317,0.141,0.643,0.175,0.975c0.032,0.329,0.041,0.663,0.025,1c-0.019,0.336-0.052,0.678-0.1,1.025
	c-0.044,0.355-0.103,0.714-0.176,1.075l-0.25,1.075l-0.274,1.1l-0.601,2.225l-0.25,1.125l-0.199,1.101
	c-0.052,0.359-0.086,0.717-0.101,1.075c-0.019,0.362-0.019,0.721,0,1.074c0.015,0.354,0.057,0.704,0.125,1.051
	c0.073,0.347,0.173,0.688,0.3,1.024c0.131,0.339,0.298,0.672,0.5,1c0.191,0.324,0.416,0.641,0.676,0.95l8.125,4.1l-0.025,0.051
	c-2.101-0.099-3.892-0.448-5.375-1.051c-1.488-0.604-2.688-1.413-3.6-2.425c-0.908-1.02-1.55-2.194-1.926-3.524
	c-0.376-1.319-0.509-2.744-0.399-4.275c0.061-0.767,0.178-1.55,0.35-2.35c0.162-0.806,0.379-1.622,0.65-2.45
	C209.482,454.88,209.815,454.055,210.2,453.225z"/>
<polygon style="fill-rule:evenodd;clip-rule:evenodd;fill:#DD5B63;" points="261.5,450.725 261.525,450.775 259.525,453.775 
	259.5,453.775 259.475,450.75 259.5,450.725 "/>
<path style="fill-rule:evenodd;clip-rule:evenodd;fill:#EE747E;" d="M207.5,468.775l-0.025-13.025l0.025-0.025
	c0.217,0.487,0.4,0.987,0.55,1.5c0.15,0.524,0.275,1.066,0.375,1.625c0.1,0.551,0.175,1.109,0.226,1.676
	c0.05,0.57,0.074,1.146,0.074,1.725s-0.024,1.154-0.074,1.725c-0.051,0.566-0.126,1.125-0.226,1.676
	c-0.1,0.559-0.225,1.1-0.375,1.625c-0.15,0.521-0.325,1.021-0.524,1.5H207.5z"/>
<path style="fill-rule:evenodd;clip-rule:evenodd;fill:#AE303B;" d="M255.525,455.75c0.118,0.414,0.201,0.813,0.25,1.2
	c0.043,0.399,0.052,0.783,0.024,1.149c-0.028,0.359-0.087,0.709-0.175,1.051c-0.088,0.336-0.204,0.661-0.35,0.975
	c-0.145,0.32-0.311,0.638-0.5,0.95c-0.195,0.314-0.412,0.623-0.65,0.925c-0.232,0.291-0.482,0.583-0.75,0.875
	c-0.269,0.302-0.552,0.602-0.85,0.9l2.949-8.025H255.525z"/>
<path style="fill-rule:evenodd;clip-rule:evenodd;fill:#DD5B63;" d="M249.525,461.725c0.499,1.109,0.658,2.067,0.475,2.875
	c-0.188,0.802-0.612,1.478-1.275,2.025c-0.323,0.274-0.682,0.524-1.074,0.75c-0.401,0.226-0.835,0.426-1.301,0.6
	c-0.458,0.168-0.925,0.318-1.399,0.45c-0.479,0.136-0.962,0.252-1.45,0.351l-0.025-0.051l6-7H249.525z M404.5,461.725l0.025,0.051
	l-2,2l-0.051-2.025l0.025-0.025H404.5z"/>
<path style="fill-rule:evenodd;clip-rule:evenodd;fill:#DD5B63;" d="M222.1,471.425l0.601,0.101l0.8,0.175l0.025,0.075l-3,2h-0.051
	c0.117-0.639,0.233-1.13,0.351-1.476c0.11-0.351,0.26-0.593,0.45-0.725c0.151-0.101,0.352-0.151,0.6-0.15H222.1z"/>
<rect x="221.5" y="472.75" style="fill-rule:evenodd;clip-rule:evenodd;fill:#AE303B;" width="2" height="2"/>
</svg>
