<?xml version="1.0" encoding="iso-8859-1"?>
<!-- Generator: Adobe Illustrator 15.1.0, SVG Export Plug-In . SVG Version: 6.00 Build 0)  -->
<!DOCTYPE svg PUBLIC "-//W3C//DTD SVG 1.1//EN" "http://www.w3.org/Graphics/SVG/1.1/DTD/svg11.dtd">
<svg version="1.1" id="Layer_1" xmlns="http://www.w3.org/2000/svg" xmlns:xlink="http://www.w3.org/1999/xlink" x="0px" y="0px"
	 width="352px" height="405px" viewBox="0 0 352 405" style="enable-background:new 0 0 352 405;" xml:space="preserve">
<path style="fill-rule:evenodd;clip-rule:evenodd;fill:#330600;" d="M121.7,222.1c0.167-0.1,0.35-0.183,0.55-0.25
	c0.3-0.066,6.733-3.183,19.3-9.35c13.434-6.1,22.583-9.15,27.45-9.15c3.5,0,5.967,0.733,7.4,2.2c0.366,0.367,0.75,0.733,1.149,1.101
	c-0.033,0-0.05,0.017-0.05,0.05c-4.333,7-6.5,13.5-6.5,19.5c0,5.566,1.7,20.666,5.1,45.3c3.2,23.267,5.084,35.75,5.65,37.45
	c1.5,4.066,4.2,11,8.1,20.8c3.7,9.4,6.334,16.217,7.9,20.45c2.9,8.166,7.384,15.1,13.45,20.8c5.333,5,12.233,9.483,20.7,13.45
	c1.199-0.267,2.416-0.55,3.649-0.851c5.533-1.3,9.434-2.1,11.7-2.399l0.75,1.5c-3.533,1.333-7.45,2.55-11.75,3.649
	c3,1.267,6.167,2.467,9.5,3.601l0.25,0.75c-0.2,0.633-0.417,1.066-0.65,1.3c-0.466,0.467-1.25,0.7-2.35,0.7
	c-6.3,0-12.25-1.283-17.85-3.851c-1.601,0.301-3.217,0.584-4.851,0.851c-18.033,3-39.3,4.416-63.8,4.25h-55.75
	c-4.9,1.066-10.1,2.05-15.6,2.95c-7.467,1.199-13.017,1.8-16.65,1.8c-7.4-1.134-13.133-2.134-17.2-3c-0.1,0-0.2,0-0.3,0
	c-1.3,0-2.867-0.217-4.7-0.65c-1.9-0.467-3.333-1-4.3-1.6v-2.25c0.567-0.134,1.467-0.184,2.7-0.15c0.133-0.033,0.267-0.066,0.4-0.1
	c0.633-0.167,1.433-0.25,2.4-0.25c1.033,0,2.8,0.233,5.3,0.7c13.7-1.101,27.1-15.483,40.2-43.15c5-10.533,9.5-22.1,13.5-34.7
	c3.333-10.5,5.583-19.233,6.75-26.2c2.267-11.366,3.983-20.05,5.15-26.05c2.067-10.833,3.184-19.649,3.35-26.45
	C121.65,230.15,121.633,225.9,121.7,222.1z"/>
<path style="fill-rule:evenodd;clip-rule:evenodd;fill:#006600;" d="M177.55,206.65c-0.399-0.367-0.783-0.733-1.149-1.101
	c-1.434-1.467-3.9-2.2-7.4-2.2c-4.867,0-14.017,3.051-27.45,9.15c-12.566,6.167-19,9.283-19.3,9.35c-0.2,0.067-0.383,0.15-0.55,0.25
	c-4.167,1.767-7.483,4.851-9.95,9.25c-1.167,2.2-2.033,3.75-2.6,4.65c-0.967,1.467-2.017,2.417-3.15,2.85
	c-2.633-3.666-5.8-9.949-9.5-18.85c-4.567-10.833-7.483-17.467-8.75-19.9c-3.033-5.733-10.65-11.45-22.85-17.15
	c-7-3.133-12.267-5.5-15.8-7.1c-6.267-2.9-11.3-5.567-15.1-8c-9.933-6.4-16.683-13.05-20.25-19.95c-2.3-4.433-3.8-10.783-4.5-19.05
	c-0.367-4.167-2.05-10.617-5.05-19.35C1.4,101.367,0,95.2,0,91c0-1.6,0.667-6,2-13.2c1.333-7.2,2-11.183,2-11.95
	c0.1,0,0.15-0.167,0.15-0.5c0.2-0.333,0.817-0.5,1.85-0.5s3.65,2.633,7.85,7.9c4.467,5.667,7.517,8.867,9.15,9.6
	c0.867,0.433,5.283,1.75,13.25,3.95c8.067,2.6,13.317,5.117,15.75,7.55c-0.333-0.967-0.933-3.117-1.8-6.45c-0.8-3.233-1.2-5-1.2-5.3
	c0-22.167,8.383-40.25,25.15-54.25c13.833-11.567,32.283-19.633,55.35-24.2c19.333-3.833,37.783-4.667,55.35-2.5
	c7.634,0.934,13.717,2.367,18.25,4.3C207.7,7.383,210,9.567,210,12c0,0.4-1.066,1.883-3.2,4.45c-2.866,3.5-5.383,7.05-7.55,10.65
	C191.417,40.067,186,56.65,183,76.85c3.5-4.8,13.8-10.567,30.9-17.3c18.233-7.133,33.267-10.7,45.1-10.7
	c14.7,0,27.217,2.633,37.55,7.9c8.634,4.433,16.316,11.067,23.05,19.9c4.2,5.467,9.467,14.15,15.801,26.05
	c6.566,12.333,11.767,21.133,15.6,26.4c-0.066,0.533-0.15,0.917-0.25,1.15c-0.134,0.4-0.717,0.6-1.75,0.6
	c-0.934,0-2.884-0.617-5.85-1.85c-5.967-2.467-9.233-3.8-9.801-4c-10.233-3.933-19.6-5.9-28.1-5.9c-22.233,0-45.566,3.417-70,10.25
	c-21,5.867-36.083,12.033-45.25,18.5l-0.5,0.75c16.767,8.6,30.733,18.333,41.9,29.2c11.733,11.434,17.6,21.567,17.6,30.4
	c0,2.2-0.316,5.083-0.95,8.649c-0.866,4.667-1.883,7-3.05,7c-2.167-0.733-5.333-1.767-9.5-3.1c-8.566-2.733-18.233-5.533-29-8.4
	c-0.967-0.267-4.45-0.533-10.45-0.8c-5.866-0.267-9.883-0.75-12.05-1.45C181.5,209.333,179.35,208.184,177.55,206.65z"/>
</svg>
